M48
;GenerationSoftware,Autodesk,EAGLE,9.6.2*%
;CreationDate,2024-09-22T15:15:46Z*%
FMAT,2
ICI,OFF
METRIC,TZ,000.000
T13C0.300
T12C0.350
T11C0.730
T10C0.760
T9C0.800
T8C0.806
T7C0.900
T6C1.016
T5C1.100
T4C1.170
T3C2.060
T2C2.190
T1C3.200
%
G90
M71
T1
X3690Y57860
X75770Y95760
T2
X61310Y84800
X61310Y92420
X26560Y84930
X26560Y92550
T3
X8780Y82390
X43530Y82260
T4
X22750Y69690
X12590Y69690
X57500Y69560
X47340Y69560
T5
X83660Y94600
X86200Y94600
X98810Y97140
X96270Y97140
X86200Y97140
X83660Y97140
X96270Y94600
X98810Y94600
T6
X37200Y9430
X37200Y11970
X37200Y14510
X37200Y17050
X37200Y19590
X37200Y22130
X37200Y24670
X37200Y27210
X37200Y29750
X37200Y32290
X37200Y34830
X37200Y37370
X11700Y37370
X37200Y39910
X37200Y42450
X37200Y44990
X60180Y2890
X62720Y2890
X57640Y2890
X4010Y46350
X4010Y48890
X55100Y2890
X37200Y6890
X37200Y4350
X37200Y1810
X11700Y44990
X11700Y42450
X11700Y39910
X11700Y34830
X11700Y32290
X11700Y29750
X11700Y27210
X11700Y24670
X11700Y22130
X11700Y19590
X11700Y17050
X11700Y14510
X11700Y11970
X11700Y9430
X11700Y6890
X11700Y4350
X11700Y1810
T7
X108600Y38270
X108600Y13020
X87600Y34520
X87600Y30770
X87600Y16770
X87600Y9270
X87600Y38270
T8
X17000Y51400
X17000Y71500
X99500Y16500
T9
X93590Y82090
X93590Y57690
X104240Y82030
X104240Y57630
T10
X81060Y68550
X81060Y81250
X81060Y78710
X81060Y73630
X81060Y71090
T11
X77210Y41260
X69110Y19180
X69110Y21720
X69110Y24260
X77210Y38720
X77210Y36180
X77210Y33640
X69270Y33640
X69270Y36180
X69110Y16640
X77050Y24260
X77050Y21720
X77050Y19180
X77050Y16640
X69270Y38720
X69270Y41260
T12
X57800Y35500
X51100Y26200
T13
X46043Y54838
X12600Y61600
X42583Y54000
X39500Y54000
X65650Y56173
X74321Y38725
X74125Y60504
X66500Y31500
X72500Y37000
X72500Y38500
X42900Y22700
X40000Y56000
X47300Y62400
X70500Y30500
X56302Y45675
M30