G04 EAGLE Gerber RS-274X export*
G75*
%MOMM*%
%FSLAX34Y34*%
%LPD*%
%INSoldermask Top*%
%IPPOS*%
%AMOC8*
5,1,8,0,0,1.08239X$1,22.5*%
G01*
%ADD10R,1.503200X1.703200*%
%ADD11R,1.703200X1.503200*%
%ADD12R,1.753200X2.353200*%
%ADD13R,0.503200X1.203200*%
%ADD14R,1.511200X1.511200*%
%ADD15C,1.511200*%
%ADD16C,1.727200*%
%ADD17R,1.441200X1.441200*%
%ADD18C,1.441200*%
%ADD19R,1.853200X1.853200*%
%ADD20C,1.853200*%
%ADD21C,1.303200*%
%ADD22C,1.958200*%
%ADD23C,3.293200*%
%ADD24C,3.488200*%
%ADD25C,1.611200*%
%ADD26R,1.506200X1.506200*%
%ADD27C,1.506200*%
%ADD28R,1.053200X0.803200*%
%ADD29C,4.419200*%
%ADD30C,0.909600*%
%ADD31C,0.959600*%
%ADD32C,1.416000*%


D10*
X566300Y585200D03*
X585300Y585200D03*
X736800Y495200D03*
X755800Y495200D03*
D11*
X535800Y412300D03*
X535800Y431300D03*
D12*
X621600Y264600D03*
X621600Y319600D03*
D13*
X447100Y574400D03*
X453600Y574400D03*
X460100Y574400D03*
X447100Y592400D03*
X453600Y592400D03*
X460100Y592400D03*
D14*
X935900Y576900D03*
D15*
X935900Y820900D03*
D14*
X1042400Y576300D03*
D15*
X1042400Y820300D03*
D16*
X551000Y36520D02*
X551000Y21280D01*
X576400Y21280D02*
X576400Y36520D01*
X601800Y36520D02*
X601800Y21280D01*
X627200Y21280D02*
X627200Y36520D01*
D17*
X692700Y412600D03*
D18*
X692700Y387200D03*
X692700Y361800D03*
X692700Y336400D03*
X772100Y336400D03*
X772100Y361800D03*
X772100Y387200D03*
X772100Y412600D03*
D17*
X691100Y242600D03*
D18*
X691100Y217200D03*
X691100Y191800D03*
X691100Y166400D03*
X770500Y166400D03*
X770500Y191800D03*
X770500Y217200D03*
X770500Y242600D03*
D19*
X988100Y946000D03*
D20*
X962700Y946000D03*
D21*
X988100Y971400D03*
X962700Y971400D03*
D19*
X862000Y946000D03*
D20*
X836600Y946000D03*
D21*
X862000Y971400D03*
X836600Y971400D03*
D16*
X47720Y463500D02*
X32480Y463500D01*
X32480Y488900D02*
X47720Y488900D01*
D22*
X575000Y695600D03*
X473400Y695600D03*
D23*
X435300Y822600D03*
D24*
X613100Y848000D03*
X613100Y924200D03*
D22*
X227500Y696900D03*
X125900Y696900D03*
D23*
X87800Y823900D03*
D24*
X265600Y849300D03*
X265600Y925500D03*
D25*
X1086000Y130200D03*
X1086000Y382700D03*
X876000Y382700D03*
X876000Y345200D03*
X876000Y307700D03*
X876000Y167700D03*
X876000Y92700D03*
D26*
X810600Y812500D03*
D27*
X810600Y787100D03*
X810600Y736300D03*
X810600Y710900D03*
X810600Y685500D03*
D28*
X367200Y560600D03*
X367200Y579600D03*
X342200Y570100D03*
X525700Y307100D03*
X525700Y326100D03*
X500700Y316600D03*
D11*
X604800Y409300D03*
X604800Y428300D03*
X470900Y130400D03*
X470900Y149400D03*
D10*
X781900Y574100D03*
X800900Y574100D03*
D11*
X470900Y200300D03*
X470900Y219300D03*
D10*
X643300Y585200D03*
X662300Y585200D03*
D11*
X659800Y479800D03*
X659800Y498800D03*
D10*
X709500Y574100D03*
X728500Y574100D03*
X565800Y510200D03*
X584800Y510200D03*
X871100Y484100D03*
X890100Y484100D03*
D29*
X757700Y957600D03*
X36900Y578600D03*
D16*
X364380Y449900D02*
X379620Y449900D01*
X379620Y424500D02*
X364380Y424500D01*
X364380Y399100D02*
X379620Y399100D01*
X379620Y373700D02*
X364380Y373700D01*
X364380Y348300D02*
X379620Y348300D01*
X379620Y322900D02*
X364380Y322900D01*
X364380Y297500D02*
X379620Y297500D01*
X379620Y272100D02*
X364380Y272100D01*
X364380Y246700D02*
X379620Y246700D01*
X379620Y221300D02*
X364380Y221300D01*
X364380Y195900D02*
X379620Y195900D01*
X379620Y170500D02*
X364380Y170500D01*
X364380Y145100D02*
X379620Y145100D01*
X379620Y119700D02*
X364380Y119700D01*
X364380Y94300D02*
X379620Y94300D01*
X379620Y68900D02*
X364380Y68900D01*
X364380Y43500D02*
X379620Y43500D01*
X379620Y18100D02*
X364380Y18100D01*
X124620Y449900D02*
X109380Y449900D01*
X109380Y424500D02*
X124620Y424500D01*
X124620Y399100D02*
X109380Y399100D01*
X109380Y373700D02*
X124620Y373700D01*
X124620Y348300D02*
X109380Y348300D01*
X109380Y322900D02*
X124620Y322900D01*
X124620Y297500D02*
X109380Y297500D01*
X109380Y272100D02*
X124620Y272100D01*
X124620Y246700D02*
X109380Y246700D01*
X109380Y221300D02*
X124620Y221300D01*
X124620Y195900D02*
X109380Y195900D01*
X109380Y170500D02*
X124620Y170500D01*
X124620Y145100D02*
X109380Y145100D01*
X109380Y119700D02*
X124620Y119700D01*
X124620Y94300D02*
X109380Y94300D01*
X109380Y68900D02*
X124620Y68900D01*
X124620Y43500D02*
X109380Y43500D01*
X109380Y18100D02*
X124620Y18100D01*
D11*
X459000Y484500D03*
X459000Y465500D03*
D30*
X460430Y548376D03*
D31*
X511000Y262000D03*
X578000Y355000D03*
D30*
X725000Y385000D03*
X725000Y370000D03*
X665000Y315000D03*
X741252Y605038D03*
X743210Y387246D03*
X656504Y561728D03*
X395000Y540000D03*
X425826Y540000D03*
X126000Y616000D03*
X400000Y560000D03*
X429000Y227000D03*
X473000Y624000D03*
X563024Y456754D03*
X705000Y305000D03*
D32*
X995000Y165000D03*
X170000Y715000D03*
X170000Y514000D03*
M02*
