G04 EAGLE Gerber RS-274X export*
G75*
%MOMM*%
%FSLAX34Y34*%
%LPD*%
%INTop Copper*%
%IPPOS*%
%AMOC8*
5,1,8,0,0,1.08239X$1,22.5*%
G01*
%ADD10R,1.300000X1.500000*%
%ADD11R,1.550000X2.150000*%
%ADD12R,0.300000X1.000000*%
%ADD13R,2.300000X1.600000*%
%ADD14C,1.524000*%
%ADD15R,0.600000X1.200000*%
%ADD16R,1.650000X1.650000*%
%ADD17C,1.650000*%
%ADD18R,0.600000X0.850000*%
%ADD19C,0.180000*%
%ADD20C,0.756400*%

G36*
X539038Y10175D02*
X539038Y10175D01*
X539137Y10183D01*
X539170Y10195D01*
X539205Y10201D01*
X539294Y10243D01*
X539386Y10279D01*
X539414Y10301D01*
X539446Y10316D01*
X539518Y10384D01*
X539596Y10445D01*
X539616Y10474D01*
X539642Y10498D01*
X539692Y10584D01*
X539748Y10665D01*
X539759Y10699D01*
X539776Y10729D01*
X539799Y10826D01*
X539828Y10920D01*
X539832Y10972D01*
X539837Y10990D01*
X539835Y11008D01*
X539839Y11060D01*
X539839Y988940D01*
X539825Y989038D01*
X539817Y989137D01*
X539805Y989170D01*
X539799Y989205D01*
X539757Y989294D01*
X539721Y989386D01*
X539699Y989414D01*
X539684Y989446D01*
X539616Y989518D01*
X539555Y989596D01*
X539526Y989616D01*
X539502Y989642D01*
X539416Y989692D01*
X539335Y989748D01*
X539301Y989759D01*
X539271Y989776D01*
X539174Y989799D01*
X539080Y989828D01*
X539028Y989832D01*
X539010Y989837D01*
X538992Y989835D01*
X538940Y989839D01*
X11060Y989839D01*
X10962Y989825D01*
X10863Y989817D01*
X10830Y989805D01*
X10795Y989799D01*
X10706Y989757D01*
X10614Y989721D01*
X10586Y989699D01*
X10554Y989684D01*
X10482Y989616D01*
X10404Y989555D01*
X10384Y989526D01*
X10358Y989502D01*
X10308Y989416D01*
X10252Y989335D01*
X10241Y989301D01*
X10224Y989271D01*
X10201Y989174D01*
X10172Y989080D01*
X10168Y989028D01*
X10163Y989010D01*
X10165Y988992D01*
X10161Y988940D01*
X10161Y11060D01*
X10175Y10962D01*
X10183Y10863D01*
X10195Y10830D01*
X10201Y10795D01*
X10243Y10706D01*
X10279Y10614D01*
X10301Y10586D01*
X10316Y10554D01*
X10384Y10482D01*
X10445Y10404D01*
X10474Y10384D01*
X10498Y10358D01*
X10584Y10308D01*
X10665Y10252D01*
X10699Y10241D01*
X10729Y10224D01*
X10826Y10201D01*
X10920Y10172D01*
X10972Y10168D01*
X10990Y10163D01*
X11008Y10165D01*
X11060Y10161D01*
X538940Y10161D01*
X539038Y10175D01*
G37*
%LPC*%
G36*
X36561Y12255D02*
X36561Y12255D01*
X33200Y13647D01*
X30627Y16220D01*
X29235Y19581D01*
X29235Y23219D01*
X30627Y26580D01*
X33200Y29153D01*
X36561Y30545D01*
X55439Y30545D01*
X58800Y29153D01*
X61373Y26580D01*
X62284Y24380D01*
X62313Y24331D01*
X62334Y24278D01*
X62382Y24217D01*
X62422Y24151D01*
X62464Y24113D01*
X62500Y24068D01*
X62563Y24024D01*
X62621Y23972D01*
X62673Y23948D01*
X62720Y23916D01*
X62794Y23893D01*
X62864Y23860D01*
X62921Y23853D01*
X62975Y23836D01*
X63115Y23825D01*
X114885Y23825D01*
X114942Y23833D01*
X114999Y23832D01*
X115073Y23853D01*
X115150Y23865D01*
X115201Y23889D01*
X115256Y23905D01*
X115321Y23947D01*
X115391Y23980D01*
X115433Y24019D01*
X115481Y24050D01*
X115530Y24109D01*
X115587Y24162D01*
X115616Y24211D01*
X115652Y24255D01*
X115716Y24380D01*
X116627Y26580D01*
X119200Y29153D01*
X122561Y30545D01*
X137343Y30545D01*
X137358Y30547D01*
X137372Y30545D01*
X137490Y30567D01*
X137608Y30585D01*
X137621Y30591D01*
X137635Y30593D01*
X137741Y30649D01*
X137849Y30700D01*
X137859Y30710D01*
X137872Y30717D01*
X137979Y30808D01*
X144025Y36854D01*
X144079Y36928D01*
X144140Y36996D01*
X144158Y37035D01*
X144183Y37069D01*
X144214Y37155D01*
X144252Y37239D01*
X144258Y37281D01*
X144272Y37321D01*
X144276Y37413D01*
X144288Y37504D01*
X144281Y37546D01*
X144282Y37588D01*
X144259Y37677D01*
X144244Y37768D01*
X144225Y37806D01*
X144214Y37847D01*
X144165Y37925D01*
X144124Y38007D01*
X144095Y38038D01*
X144072Y38074D01*
X144003Y38134D01*
X143939Y38200D01*
X143902Y38221D01*
X143870Y38249D01*
X143786Y38286D01*
X143706Y38331D01*
X143664Y38340D01*
X143625Y38357D01*
X143534Y38368D01*
X143444Y38387D01*
X143402Y38383D01*
X143360Y38388D01*
X143270Y38372D01*
X143178Y38364D01*
X143116Y38344D01*
X143097Y38340D01*
X143083Y38333D01*
X143045Y38320D01*
X141439Y37655D01*
X122561Y37655D01*
X119200Y39047D01*
X116627Y41620D01*
X115235Y44981D01*
X115235Y48619D01*
X116627Y51980D01*
X119200Y54553D01*
X122561Y55945D01*
X141439Y55945D01*
X144800Y54553D01*
X147373Y51980D01*
X148765Y48619D01*
X148765Y44981D01*
X148100Y43375D01*
X148077Y43286D01*
X148047Y43200D01*
X148045Y43157D01*
X148035Y43116D01*
X148040Y43024D01*
X148037Y42932D01*
X148048Y42891D01*
X148050Y42849D01*
X148082Y42763D01*
X148105Y42674D01*
X148128Y42638D01*
X148143Y42598D01*
X148198Y42525D01*
X148247Y42447D01*
X148279Y42419D01*
X148305Y42385D01*
X148380Y42332D01*
X148449Y42272D01*
X148488Y42255D01*
X148523Y42230D01*
X148610Y42201D01*
X148694Y42164D01*
X148736Y42159D01*
X148776Y42145D01*
X148868Y42143D01*
X148959Y42133D01*
X149001Y42140D01*
X149044Y42139D01*
X149132Y42164D01*
X149222Y42181D01*
X149260Y42200D01*
X149301Y42212D01*
X149378Y42262D01*
X149460Y42304D01*
X149509Y42347D01*
X149526Y42357D01*
X149536Y42369D01*
X149566Y42395D01*
X308312Y201141D01*
X308321Y201153D01*
X308332Y201162D01*
X308400Y201260D01*
X308471Y201356D01*
X308476Y201370D01*
X308484Y201382D01*
X308520Y201496D01*
X308559Y201609D01*
X308560Y201623D01*
X308564Y201637D01*
X308575Y201777D01*
X308575Y596723D01*
X308573Y596738D01*
X308575Y596752D01*
X308553Y596870D01*
X308535Y596988D01*
X308529Y597001D01*
X308527Y597015D01*
X308471Y597121D01*
X308420Y597229D01*
X308410Y597239D01*
X308403Y597252D01*
X308312Y597359D01*
X300259Y605412D01*
X300247Y605421D01*
X300238Y605432D01*
X300140Y605500D01*
X300044Y605571D01*
X300030Y605576D01*
X300018Y605584D01*
X299904Y605620D01*
X299791Y605659D01*
X299777Y605660D01*
X299763Y605664D01*
X299623Y605675D01*
X277477Y605675D01*
X277462Y605673D01*
X277448Y605675D01*
X277330Y605653D01*
X277212Y605635D01*
X277199Y605629D01*
X277185Y605627D01*
X277079Y605571D01*
X276971Y605520D01*
X276961Y605510D01*
X276948Y605503D01*
X276841Y605412D01*
X275089Y603660D01*
X275059Y603620D01*
X275023Y603586D01*
X274980Y603513D01*
X274930Y603445D01*
X274914Y603398D01*
X274889Y603355D01*
X274869Y603272D01*
X274841Y603192D01*
X274840Y603143D01*
X274828Y603094D01*
X274834Y603010D01*
X274831Y602925D01*
X274844Y602877D01*
X274847Y602827D01*
X274878Y602748D01*
X274900Y602667D01*
X274926Y602624D01*
X274944Y602578D01*
X274996Y602512D01*
X275041Y602440D01*
X275079Y602407D01*
X275110Y602368D01*
X275179Y602320D01*
X275243Y602264D01*
X275289Y602244D01*
X275330Y602216D01*
X275411Y602191D01*
X275488Y602156D01*
X275537Y602151D01*
X275585Y602136D01*
X275725Y602125D01*
X287232Y602125D01*
X288125Y601232D01*
X288125Y584968D01*
X287232Y584075D01*
X283424Y584075D01*
X283326Y584061D01*
X283227Y584053D01*
X283194Y584041D01*
X283159Y584035D01*
X283070Y583993D01*
X282978Y583957D01*
X282950Y583935D01*
X282918Y583920D01*
X282846Y583852D01*
X282768Y583791D01*
X282748Y583762D01*
X282722Y583738D01*
X282672Y583652D01*
X282616Y583571D01*
X282605Y583537D01*
X282588Y583507D01*
X282565Y583410D01*
X282536Y583316D01*
X282532Y583264D01*
X282527Y583246D01*
X282529Y583228D01*
X282525Y583176D01*
X282525Y573332D01*
X282530Y573298D01*
X282527Y573265D01*
X282549Y573126D01*
X282690Y572524D01*
X282659Y572474D01*
X282642Y572432D01*
X282616Y572395D01*
X282589Y572310D01*
X282554Y572228D01*
X282549Y572183D01*
X282536Y572140D01*
X282525Y572001D01*
X282525Y571942D01*
X282087Y571504D01*
X282067Y571477D01*
X282042Y571455D01*
X281959Y571342D01*
X266412Y546228D01*
X266394Y546186D01*
X266369Y546149D01*
X266342Y546064D01*
X266306Y545982D01*
X266302Y545937D01*
X266288Y545894D01*
X266277Y545754D01*
X266277Y545696D01*
X265840Y545258D01*
X265820Y545231D01*
X265794Y545209D01*
X265711Y545096D01*
X265385Y544570D01*
X265328Y544556D01*
X265286Y544540D01*
X265242Y544531D01*
X265163Y544490D01*
X265080Y544457D01*
X265045Y544429D01*
X265005Y544408D01*
X264898Y544317D01*
X264857Y544275D01*
X264238Y544275D01*
X264205Y544270D01*
X264171Y544273D01*
X264032Y544251D01*
X263430Y544110D01*
X263380Y544141D01*
X263339Y544158D01*
X263302Y544184D01*
X263217Y544211D01*
X263134Y544246D01*
X263090Y544251D01*
X263047Y544264D01*
X262907Y544275D01*
X214752Y544275D01*
X214696Y544267D01*
X214639Y544268D01*
X214564Y544247D01*
X214488Y544235D01*
X214437Y544211D01*
X214382Y544195D01*
X214317Y544153D01*
X214247Y544120D01*
X214205Y544081D01*
X214157Y544050D01*
X214107Y543991D01*
X214050Y543938D01*
X214022Y543889D01*
X213985Y543845D01*
X213922Y543720D01*
X213911Y543694D01*
X212418Y542201D01*
X210468Y541393D01*
X208356Y541393D01*
X206406Y542201D01*
X204913Y543694D01*
X204105Y545644D01*
X204105Y547756D01*
X204913Y549706D01*
X206406Y551199D01*
X208356Y552007D01*
X210468Y552007D01*
X212418Y551199D01*
X213911Y549706D01*
X213922Y549680D01*
X213951Y549631D01*
X213972Y549578D01*
X214020Y549517D01*
X214060Y549451D01*
X214102Y549413D01*
X214137Y549368D01*
X214201Y549324D01*
X214259Y549272D01*
X214311Y549248D01*
X214358Y549216D01*
X214431Y549193D01*
X214502Y549160D01*
X214558Y549153D01*
X214613Y549136D01*
X214752Y549125D01*
X262001Y549125D01*
X262117Y549142D01*
X262235Y549156D01*
X262249Y549162D01*
X262265Y549165D01*
X262372Y549216D01*
X262480Y549263D01*
X262492Y549273D01*
X262506Y549280D01*
X262593Y549361D01*
X262682Y549438D01*
X262695Y549455D01*
X262703Y549462D01*
X262712Y549478D01*
X262765Y549551D01*
X277541Y573418D01*
X277558Y573460D01*
X277584Y573497D01*
X277611Y573582D01*
X277646Y573664D01*
X277651Y573709D01*
X277664Y573752D01*
X277675Y573892D01*
X277675Y583176D01*
X277661Y583274D01*
X277653Y583373D01*
X277641Y583406D01*
X277635Y583441D01*
X277593Y583530D01*
X277557Y583622D01*
X277535Y583650D01*
X277520Y583682D01*
X277452Y583754D01*
X277391Y583832D01*
X277362Y583852D01*
X277338Y583878D01*
X277252Y583928D01*
X277171Y583984D01*
X277137Y583995D01*
X277107Y584012D01*
X277010Y584035D01*
X276916Y584064D01*
X276864Y584068D01*
X276846Y584073D01*
X276828Y584071D01*
X276776Y584075D01*
X272968Y584075D01*
X272075Y584968D01*
X272075Y598475D01*
X272068Y598524D01*
X272070Y598574D01*
X272048Y598656D01*
X272035Y598740D01*
X272014Y598785D01*
X272001Y598833D01*
X271956Y598904D01*
X271920Y598981D01*
X271886Y599017D01*
X271860Y599060D01*
X271796Y599115D01*
X271738Y599177D01*
X271695Y599202D01*
X271657Y599235D01*
X271580Y599269D01*
X271507Y599311D01*
X271458Y599323D01*
X271413Y599343D01*
X271329Y599353D01*
X271246Y599372D01*
X271197Y599368D01*
X271147Y599374D01*
X271064Y599359D01*
X270979Y599353D01*
X270933Y599335D01*
X270884Y599326D01*
X270809Y599287D01*
X270730Y599256D01*
X270691Y599225D01*
X270647Y599202D01*
X270540Y599111D01*
X269388Y597959D01*
X269379Y597947D01*
X269368Y597938D01*
X269300Y597840D01*
X269229Y597744D01*
X269224Y597730D01*
X269216Y597718D01*
X269180Y597604D01*
X269141Y597491D01*
X269140Y597477D01*
X269136Y597463D01*
X269125Y597323D01*
X269125Y584968D01*
X268232Y584075D01*
X253968Y584075D01*
X253075Y584968D01*
X253075Y588348D01*
X253061Y588446D01*
X253053Y588545D01*
X253041Y588578D01*
X253035Y588613D01*
X252993Y588702D01*
X252957Y588794D01*
X252935Y588822D01*
X252920Y588854D01*
X252852Y588926D01*
X252791Y589004D01*
X252762Y589024D01*
X252738Y589050D01*
X252652Y589100D01*
X252571Y589156D01*
X252537Y589167D01*
X252507Y589184D01*
X252410Y589207D01*
X252316Y589236D01*
X252264Y589240D01*
X252246Y589245D01*
X252228Y589243D01*
X252176Y589247D01*
X206724Y589247D01*
X206626Y589233D01*
X206527Y589225D01*
X206494Y589213D01*
X206459Y589207D01*
X206370Y589165D01*
X206278Y589129D01*
X206250Y589107D01*
X206218Y589092D01*
X206146Y589024D01*
X206068Y588963D01*
X206048Y588934D01*
X206022Y588910D01*
X205972Y588824D01*
X205916Y588743D01*
X205905Y588709D01*
X205888Y588679D01*
X205865Y588582D01*
X205836Y588488D01*
X205832Y588436D01*
X205827Y588418D01*
X205829Y588400D01*
X205825Y588348D01*
X205825Y583768D01*
X204932Y582875D01*
X199783Y582875D01*
X199768Y582873D01*
X199754Y582875D01*
X199636Y582853D01*
X199518Y582835D01*
X199505Y582829D01*
X199491Y582827D01*
X199385Y582771D01*
X199277Y582720D01*
X199267Y582710D01*
X199254Y582703D01*
X199147Y582612D01*
X189810Y573275D01*
X143182Y573275D01*
X141498Y574959D01*
X133845Y582612D01*
X133833Y582621D01*
X133824Y582632D01*
X133726Y582700D01*
X133630Y582771D01*
X133616Y582776D01*
X133604Y582784D01*
X133490Y582820D01*
X133378Y582859D01*
X133363Y582860D01*
X133349Y582864D01*
X133209Y582875D01*
X124089Y582875D01*
X124040Y582868D01*
X123990Y582870D01*
X123908Y582848D01*
X123824Y582835D01*
X123779Y582814D01*
X123731Y582801D01*
X123660Y582756D01*
X123583Y582720D01*
X123547Y582686D01*
X123504Y582660D01*
X123449Y582596D01*
X123387Y582538D01*
X123362Y582495D01*
X123329Y582457D01*
X123295Y582380D01*
X123253Y582307D01*
X123241Y582258D01*
X123221Y582213D01*
X123211Y582129D01*
X123192Y582046D01*
X123196Y581997D01*
X123190Y581947D01*
X123205Y581864D01*
X123211Y581779D01*
X123229Y581733D01*
X123238Y581684D01*
X123277Y581609D01*
X123308Y581530D01*
X123339Y581491D01*
X123362Y581447D01*
X123453Y581340D01*
X138105Y566688D01*
X138117Y566679D01*
X138126Y566668D01*
X138224Y566600D01*
X138320Y566529D01*
X138334Y566524D01*
X138346Y566516D01*
X138460Y566480D01*
X138573Y566441D01*
X138587Y566440D01*
X138601Y566436D01*
X138741Y566425D01*
X242660Y566425D01*
X242716Y566433D01*
X242773Y566432D01*
X242848Y566453D01*
X242924Y566465D01*
X242975Y566489D01*
X243030Y566505D01*
X243095Y566547D01*
X243165Y566580D01*
X243207Y566619D01*
X243255Y566650D01*
X243305Y566709D01*
X243362Y566762D01*
X243390Y566811D01*
X243427Y566855D01*
X243490Y566980D01*
X243501Y567006D01*
X244994Y568499D01*
X246944Y569307D01*
X249056Y569307D01*
X251006Y568499D01*
X252499Y567006D01*
X253307Y565056D01*
X253307Y562944D01*
X252499Y560994D01*
X251006Y559501D01*
X249056Y558693D01*
X246944Y558693D01*
X244994Y559501D01*
X243501Y560994D01*
X243490Y561020D01*
X243461Y561069D01*
X243440Y561122D01*
X243392Y561183D01*
X243352Y561249D01*
X243310Y561287D01*
X243275Y561332D01*
X243211Y561376D01*
X243153Y561428D01*
X243101Y561452D01*
X243054Y561484D01*
X242981Y561507D01*
X242910Y561540D01*
X242854Y561547D01*
X242799Y561564D01*
X242660Y561575D01*
X136360Y561575D01*
X115323Y582612D01*
X115311Y582621D01*
X115302Y582632D01*
X115204Y582700D01*
X115108Y582771D01*
X115094Y582776D01*
X115082Y582784D01*
X114968Y582820D01*
X114855Y582859D01*
X114841Y582860D01*
X114827Y582864D01*
X114687Y582875D01*
X101068Y582875D01*
X100175Y583768D01*
X100175Y595725D01*
X100173Y595740D01*
X100175Y595754D01*
X100153Y595872D01*
X100135Y595990D01*
X100129Y596003D01*
X100127Y596017D01*
X100071Y596123D01*
X100020Y596231D01*
X100010Y596241D01*
X100003Y596254D01*
X99912Y596361D01*
X55249Y641024D01*
X55169Y641083D01*
X55094Y641148D01*
X55062Y641162D01*
X55033Y641183D01*
X54940Y641216D01*
X54849Y641256D01*
X54814Y641260D01*
X54781Y641272D01*
X54682Y641276D01*
X54584Y641287D01*
X54549Y641281D01*
X54514Y641282D01*
X54418Y641257D01*
X54321Y641239D01*
X54289Y641223D01*
X54255Y641214D01*
X54171Y641161D01*
X54084Y641115D01*
X54044Y641082D01*
X54028Y641072D01*
X54016Y641058D01*
X53977Y641024D01*
X53900Y640947D01*
X50539Y639555D01*
X31661Y639555D01*
X28300Y640947D01*
X25727Y643520D01*
X24335Y646881D01*
X24335Y650519D01*
X25727Y653880D01*
X28300Y656453D01*
X31661Y657845D01*
X50539Y657845D01*
X53900Y656453D01*
X56473Y653880D01*
X57865Y650519D01*
X57865Y646881D01*
X57622Y646294D01*
X57608Y646239D01*
X57585Y646187D01*
X57576Y646110D01*
X57557Y646035D01*
X57560Y645978D01*
X57554Y645921D01*
X57568Y645845D01*
X57572Y645768D01*
X57592Y645714D01*
X57602Y645658D01*
X57638Y645589D01*
X57665Y645517D01*
X57699Y645472D01*
X57726Y645421D01*
X57817Y645314D01*
X101943Y601188D01*
X101955Y601179D01*
X101964Y601168D01*
X102062Y601100D01*
X102158Y601029D01*
X102172Y601024D01*
X102184Y601016D01*
X102298Y600980D01*
X102410Y600941D01*
X102425Y600940D01*
X102439Y600936D01*
X102579Y600925D01*
X115332Y600925D01*
X116225Y600032D01*
X116225Y588941D01*
X116227Y588926D01*
X116225Y588912D01*
X116247Y588794D01*
X116265Y588676D01*
X116271Y588663D01*
X116273Y588649D01*
X116329Y588543D01*
X116380Y588435D01*
X116390Y588425D01*
X116397Y588412D01*
X116488Y588305D01*
X117640Y587153D01*
X117680Y587123D01*
X117714Y587087D01*
X117787Y587044D01*
X117855Y586994D01*
X117902Y586978D01*
X117945Y586953D01*
X118028Y586933D01*
X118108Y586905D01*
X118157Y586904D01*
X118206Y586892D01*
X118290Y586898D01*
X118375Y586895D01*
X118423Y586908D01*
X118473Y586911D01*
X118552Y586942D01*
X118633Y586964D01*
X118676Y586990D01*
X118722Y587008D01*
X118789Y587060D01*
X118860Y587105D01*
X118893Y587143D01*
X118932Y587174D01*
X118980Y587243D01*
X119036Y587307D01*
X119056Y587353D01*
X119084Y587394D01*
X119109Y587474D01*
X119144Y587552D01*
X119149Y587601D01*
X119164Y587649D01*
X119175Y587789D01*
X119175Y600032D01*
X120068Y600925D01*
X134332Y600925D01*
X135225Y600032D01*
X135225Y588463D01*
X135227Y588448D01*
X135225Y588434D01*
X135247Y588316D01*
X135265Y588198D01*
X135271Y588185D01*
X135273Y588171D01*
X135329Y588065D01*
X135380Y587957D01*
X135390Y587947D01*
X135397Y587934D01*
X135488Y587827D01*
X144927Y578388D01*
X144939Y578379D01*
X144948Y578368D01*
X145045Y578301D01*
X145142Y578229D01*
X145156Y578224D01*
X145168Y578216D01*
X145282Y578180D01*
X145395Y578141D01*
X145409Y578140D01*
X145423Y578136D01*
X145563Y578125D01*
X187429Y578125D01*
X187444Y578127D01*
X187458Y578125D01*
X187576Y578147D01*
X187694Y578165D01*
X187707Y578171D01*
X187721Y578173D01*
X187827Y578229D01*
X187935Y578280D01*
X187945Y578290D01*
X187958Y578297D01*
X188065Y578388D01*
X191017Y581340D01*
X191047Y581380D01*
X191083Y581414D01*
X191126Y581487D01*
X191176Y581555D01*
X191192Y581602D01*
X191217Y581645D01*
X191237Y581728D01*
X191265Y581808D01*
X191266Y581857D01*
X191278Y581906D01*
X191272Y581990D01*
X191275Y582075D01*
X191262Y582123D01*
X191259Y582173D01*
X191228Y582252D01*
X191206Y582333D01*
X191180Y582376D01*
X191162Y582422D01*
X191110Y582488D01*
X191065Y582560D01*
X191027Y582593D01*
X190996Y582632D01*
X190927Y582680D01*
X190863Y582736D01*
X190817Y582756D01*
X190776Y582784D01*
X190752Y582791D01*
X189775Y583768D01*
X189775Y600032D01*
X190668Y600925D01*
X204932Y600925D01*
X205825Y600032D01*
X205825Y594996D01*
X205839Y594898D01*
X205847Y594799D01*
X205859Y594766D01*
X205865Y594731D01*
X205907Y594642D01*
X205943Y594550D01*
X205965Y594522D01*
X205980Y594490D01*
X206048Y594418D01*
X206109Y594340D01*
X206138Y594320D01*
X206162Y594294D01*
X206248Y594244D01*
X206329Y594188D01*
X206363Y594177D01*
X206393Y594160D01*
X206490Y594137D01*
X206584Y594108D01*
X206636Y594104D01*
X206654Y594099D01*
X206672Y594101D01*
X206724Y594097D01*
X252176Y594097D01*
X252274Y594111D01*
X252373Y594119D01*
X252406Y594131D01*
X252441Y594137D01*
X252530Y594179D01*
X252622Y594215D01*
X252650Y594237D01*
X252682Y594252D01*
X252754Y594320D01*
X252832Y594381D01*
X252852Y594410D01*
X252878Y594434D01*
X252928Y594520D01*
X252984Y594601D01*
X252995Y594635D01*
X253012Y594665D01*
X253035Y594762D01*
X253064Y594856D01*
X253068Y594908D01*
X253073Y594926D01*
X253071Y594944D01*
X253075Y594996D01*
X253075Y601232D01*
X253968Y602125D01*
X266323Y602125D01*
X266338Y602127D01*
X266352Y602125D01*
X266470Y602147D01*
X266588Y602165D01*
X266601Y602171D01*
X266615Y602173D01*
X266721Y602229D01*
X266829Y602280D01*
X266839Y602290D01*
X266852Y602297D01*
X266959Y602388D01*
X273412Y608841D01*
X275096Y610525D01*
X341723Y610525D01*
X341738Y610527D01*
X341752Y610525D01*
X341870Y610547D01*
X341988Y610565D01*
X342001Y610571D01*
X342015Y610573D01*
X342121Y610629D01*
X342229Y610680D01*
X342239Y610690D01*
X342252Y610697D01*
X342359Y610788D01*
X352012Y620441D01*
X352021Y620453D01*
X352032Y620462D01*
X352100Y620560D01*
X352171Y620656D01*
X352176Y620670D01*
X352184Y620682D01*
X352220Y620796D01*
X352259Y620909D01*
X352260Y620923D01*
X352264Y620937D01*
X352275Y621077D01*
X352275Y634276D01*
X352261Y634374D01*
X352253Y634473D01*
X352241Y634506D01*
X352235Y634541D01*
X352193Y634630D01*
X352157Y634722D01*
X352135Y634750D01*
X352120Y634782D01*
X352052Y634854D01*
X351991Y634932D01*
X351962Y634952D01*
X351938Y634978D01*
X351852Y635028D01*
X351771Y635084D01*
X351737Y635095D01*
X351707Y635112D01*
X351610Y635135D01*
X351516Y635164D01*
X351464Y635168D01*
X351446Y635173D01*
X351428Y635171D01*
X351376Y635175D01*
X351068Y635175D01*
X350175Y636068D01*
X350175Y649332D01*
X351068Y650225D01*
X358332Y650225D01*
X359225Y649332D01*
X359225Y636068D01*
X358332Y635175D01*
X358024Y635175D01*
X357926Y635161D01*
X357827Y635153D01*
X357794Y635141D01*
X357759Y635135D01*
X357670Y635093D01*
X357578Y635057D01*
X357550Y635035D01*
X357518Y635020D01*
X357446Y634952D01*
X357368Y634891D01*
X357348Y634862D01*
X357322Y634838D01*
X357272Y634752D01*
X357216Y634671D01*
X357205Y634637D01*
X357188Y634607D01*
X357165Y634510D01*
X357136Y634416D01*
X357132Y634364D01*
X357127Y634346D01*
X357129Y634328D01*
X357125Y634276D01*
X357125Y618696D01*
X344104Y605675D01*
X309025Y605675D01*
X308976Y605668D01*
X308926Y605670D01*
X308844Y605648D01*
X308760Y605635D01*
X308715Y605614D01*
X308667Y605601D01*
X308596Y605556D01*
X308519Y605520D01*
X308483Y605486D01*
X308440Y605460D01*
X308385Y605396D01*
X308323Y605338D01*
X308298Y605295D01*
X308265Y605257D01*
X308231Y605180D01*
X308189Y605107D01*
X308177Y605058D01*
X308157Y605013D01*
X308147Y604929D01*
X308128Y604846D01*
X308132Y604797D01*
X308126Y604747D01*
X308141Y604664D01*
X308147Y604579D01*
X308165Y604533D01*
X308174Y604484D01*
X308213Y604409D01*
X308244Y604330D01*
X308275Y604291D01*
X308298Y604247D01*
X308389Y604140D01*
X311741Y600788D01*
X313425Y599104D01*
X313425Y199396D01*
X144607Y30578D01*
X144603Y30572D01*
X144597Y30568D01*
X144573Y30534D01*
X144543Y30506D01*
X144502Y30436D01*
X144448Y30363D01*
X144446Y30356D01*
X144442Y30350D01*
X144427Y30306D01*
X144409Y30275D01*
X144392Y30203D01*
X144360Y30111D01*
X144360Y30103D01*
X144357Y30096D01*
X144356Y30047D01*
X144349Y30014D01*
X144353Y29947D01*
X144349Y29843D01*
X144351Y29836D01*
X144351Y29829D01*
X144365Y29778D01*
X144368Y29748D01*
X144391Y29688D01*
X144418Y29585D01*
X144422Y29579D01*
X144424Y29571D01*
X144454Y29526D01*
X144464Y29498D01*
X144502Y29451D01*
X144560Y29358D01*
X144565Y29353D01*
X144569Y29347D01*
X144612Y29311D01*
X144630Y29288D01*
X144679Y29254D01*
X144762Y29183D01*
X144769Y29180D01*
X144774Y29175D01*
X144781Y29172D01*
X147373Y26580D01*
X148765Y23219D01*
X148765Y19581D01*
X147373Y16220D01*
X144800Y13647D01*
X141439Y12255D01*
X122561Y12255D01*
X119200Y13647D01*
X116627Y16220D01*
X115716Y18420D01*
X115687Y18469D01*
X115666Y18522D01*
X115618Y18583D01*
X115578Y18649D01*
X115536Y18687D01*
X115500Y18732D01*
X115437Y18776D01*
X115379Y18828D01*
X115327Y18852D01*
X115280Y18884D01*
X115206Y18907D01*
X115136Y18940D01*
X115079Y18947D01*
X115025Y18964D01*
X114885Y18975D01*
X63115Y18975D01*
X63058Y18967D01*
X63001Y18968D01*
X62927Y18947D01*
X62850Y18935D01*
X62799Y18911D01*
X62744Y18895D01*
X62679Y18853D01*
X62609Y18820D01*
X62567Y18781D01*
X62519Y18750D01*
X62470Y18691D01*
X62413Y18638D01*
X62384Y18589D01*
X62347Y18545D01*
X62284Y18420D01*
X61373Y16220D01*
X58800Y13647D01*
X55439Y12255D01*
X36561Y12255D01*
G37*
%LPD*%
%LPC*%
G36*
X292568Y727675D02*
X292568Y727675D01*
X291675Y728568D01*
X291675Y739832D01*
X292578Y740735D01*
X292610Y740739D01*
X292709Y740747D01*
X292742Y740759D01*
X292777Y740765D01*
X292866Y740807D01*
X292958Y740843D01*
X292986Y740865D01*
X293018Y740880D01*
X293090Y740948D01*
X293168Y741009D01*
X293188Y741038D01*
X293214Y741062D01*
X293264Y741148D01*
X293320Y741229D01*
X293331Y741263D01*
X293348Y741293D01*
X293371Y741390D01*
X293400Y741484D01*
X293404Y741536D01*
X293409Y741554D01*
X293407Y741572D01*
X293411Y741624D01*
X293411Y785468D01*
X296662Y788719D01*
X296671Y788731D01*
X296682Y788740D01*
X296750Y788838D01*
X296821Y788934D01*
X296826Y788948D01*
X296834Y788960D01*
X296870Y789074D01*
X296909Y789187D01*
X296910Y789201D01*
X296914Y789215D01*
X296925Y789355D01*
X296925Y801179D01*
X296923Y801194D01*
X296925Y801208D01*
X296903Y801326D01*
X296885Y801444D01*
X296879Y801457D01*
X296877Y801471D01*
X296821Y801577D01*
X296770Y801685D01*
X296760Y801695D01*
X296753Y801708D01*
X296662Y801815D01*
X279411Y819066D01*
X279411Y941061D01*
X279409Y941076D01*
X279411Y941090D01*
X279389Y941208D01*
X279371Y941326D01*
X279365Y941339D01*
X279363Y941353D01*
X279307Y941459D01*
X279256Y941567D01*
X279246Y941577D01*
X279239Y941590D01*
X279148Y941697D01*
X257883Y962962D01*
X257871Y962971D01*
X257862Y962982D01*
X257764Y963050D01*
X257668Y963121D01*
X257654Y963126D01*
X257642Y963134D01*
X257528Y963170D01*
X257415Y963209D01*
X257401Y963210D01*
X257387Y963214D01*
X257247Y963225D01*
X101195Y963225D01*
X101104Y963212D01*
X101012Y963207D01*
X100972Y963192D01*
X100930Y963185D01*
X100847Y963146D01*
X100761Y963114D01*
X100727Y963088D01*
X100689Y963070D01*
X100622Y963007D01*
X100549Y962952D01*
X100524Y962917D01*
X100493Y962888D01*
X100447Y962809D01*
X100393Y962734D01*
X100380Y962693D01*
X100358Y962657D01*
X100338Y962567D01*
X100309Y962480D01*
X100308Y962438D01*
X100298Y962396D01*
X100305Y962305D01*
X100303Y962213D01*
X100314Y962172D01*
X100317Y962129D01*
X100350Y962044D01*
X100375Y961955D01*
X100398Y961920D01*
X100414Y961880D01*
X100471Y961808D01*
X100521Y961731D01*
X100553Y961703D01*
X100580Y961670D01*
X100655Y961618D01*
X100726Y961559D01*
X100784Y961529D01*
X100800Y961518D01*
X100815Y961513D01*
X100851Y961495D01*
X101837Y961087D01*
X104235Y958688D01*
X104247Y958679D01*
X104256Y958668D01*
X104354Y958600D01*
X104451Y958529D01*
X104464Y958524D01*
X104476Y958516D01*
X104590Y958480D01*
X104703Y958441D01*
X104718Y958440D01*
X104731Y958436D01*
X104871Y958425D01*
X257004Y958425D01*
X270425Y945004D01*
X270425Y839996D01*
X253491Y823062D01*
X253457Y823016D01*
X253416Y822977D01*
X253378Y822909D01*
X253332Y822847D01*
X253313Y822793D01*
X253285Y822743D01*
X253269Y822667D01*
X253243Y822594D01*
X253241Y822537D01*
X253229Y822482D01*
X253236Y822404D01*
X253233Y822327D01*
X253248Y822272D01*
X253252Y822215D01*
X253296Y822082D01*
X253307Y822056D01*
X253307Y819944D01*
X252499Y817994D01*
X251006Y816501D01*
X249056Y815693D01*
X246944Y815693D01*
X244994Y816501D01*
X243501Y817994D01*
X242693Y819944D01*
X242693Y822056D01*
X243501Y824006D01*
X244994Y825499D01*
X246944Y826307D01*
X248776Y826307D01*
X248874Y826321D01*
X248973Y826329D01*
X249006Y826341D01*
X249041Y826347D01*
X249130Y826389D01*
X249222Y826425D01*
X249250Y826447D01*
X249282Y826462D01*
X249354Y826530D01*
X249432Y826591D01*
X249452Y826620D01*
X249478Y826644D01*
X249528Y826730D01*
X249584Y826811D01*
X249595Y826845D01*
X249612Y826875D01*
X249635Y826972D01*
X249664Y827066D01*
X249668Y827118D01*
X249673Y827136D01*
X249671Y827154D01*
X249675Y827206D01*
X249675Y837676D01*
X249661Y837774D01*
X249653Y837873D01*
X249641Y837906D01*
X249635Y837941D01*
X249593Y838030D01*
X249557Y838122D01*
X249535Y838150D01*
X249520Y838182D01*
X249452Y838254D01*
X249391Y838332D01*
X249362Y838352D01*
X249338Y838378D01*
X249252Y838428D01*
X249171Y838484D01*
X249137Y838495D01*
X249107Y838512D01*
X249010Y838535D01*
X248916Y838564D01*
X248864Y838568D01*
X248846Y838573D01*
X248828Y838571D01*
X248776Y838575D01*
X244968Y838575D01*
X244075Y839468D01*
X244075Y855732D01*
X244968Y856625D01*
X259232Y856625D01*
X260125Y855732D01*
X260125Y839468D01*
X259232Y838575D01*
X255424Y838575D01*
X255326Y838561D01*
X255227Y838553D01*
X255194Y838541D01*
X255159Y838535D01*
X255070Y838493D01*
X254978Y838457D01*
X254950Y838435D01*
X254918Y838420D01*
X254846Y838352D01*
X254768Y838291D01*
X254748Y838262D01*
X254722Y838238D01*
X254672Y838152D01*
X254616Y838071D01*
X254605Y838037D01*
X254588Y838007D01*
X254565Y837910D01*
X254536Y837816D01*
X254532Y837764D01*
X254527Y837746D01*
X254529Y837728D01*
X254525Y837676D01*
X254525Y833125D01*
X254532Y833076D01*
X254530Y833026D01*
X254552Y832944D01*
X254565Y832860D01*
X254586Y832815D01*
X254599Y832767D01*
X254644Y832696D01*
X254680Y832619D01*
X254714Y832583D01*
X254740Y832540D01*
X254804Y832485D01*
X254862Y832423D01*
X254905Y832398D01*
X254943Y832365D01*
X255020Y832331D01*
X255093Y832289D01*
X255142Y832277D01*
X255187Y832257D01*
X255271Y832247D01*
X255354Y832228D01*
X255403Y832232D01*
X255453Y832226D01*
X255536Y832241D01*
X255621Y832247D01*
X255667Y832265D01*
X255716Y832274D01*
X255791Y832313D01*
X255870Y832344D01*
X255909Y832375D01*
X255953Y832398D01*
X256060Y832489D01*
X265312Y841741D01*
X265321Y841753D01*
X265332Y841762D01*
X265399Y841859D01*
X265471Y841956D01*
X265476Y841970D01*
X265484Y841982D01*
X265520Y842096D01*
X265559Y842209D01*
X265560Y842223D01*
X265564Y842237D01*
X265575Y842377D01*
X265575Y942623D01*
X265573Y942638D01*
X265575Y942652D01*
X265553Y942770D01*
X265535Y942888D01*
X265529Y942901D01*
X265527Y942915D01*
X265471Y943021D01*
X265420Y943129D01*
X265410Y943139D01*
X265403Y943152D01*
X265312Y943259D01*
X255259Y953312D01*
X255247Y953321D01*
X255238Y953332D01*
X255140Y953400D01*
X255044Y953471D01*
X255030Y953476D01*
X255018Y953484D01*
X254904Y953520D01*
X254791Y953559D01*
X254777Y953560D01*
X254763Y953564D01*
X254623Y953575D01*
X106974Y953575D01*
X106876Y953561D01*
X106777Y953553D01*
X106744Y953541D01*
X106709Y953535D01*
X106620Y953493D01*
X106528Y953457D01*
X106500Y953435D01*
X106468Y953420D01*
X106396Y953352D01*
X106318Y953291D01*
X106298Y953262D01*
X106272Y953238D01*
X106222Y953152D01*
X106166Y953071D01*
X106155Y953037D01*
X106138Y953007D01*
X106115Y952910D01*
X106086Y952816D01*
X106082Y952764D01*
X106077Y952746D01*
X106079Y952728D01*
X106075Y952676D01*
X106075Y950856D01*
X104587Y947263D01*
X101837Y944513D01*
X100878Y944116D01*
X100836Y944091D01*
X100789Y944073D01*
X100722Y944022D01*
X100649Y943978D01*
X100616Y943941D01*
X100576Y943911D01*
X100527Y943842D01*
X100471Y943779D01*
X100450Y943734D01*
X100421Y943693D01*
X100394Y943613D01*
X100359Y943536D01*
X100352Y943487D01*
X100336Y943440D01*
X100335Y943355D01*
X100323Y943271D01*
X100331Y943222D01*
X100330Y943172D01*
X100353Y943091D01*
X100367Y943007D01*
X100390Y942963D01*
X100403Y942915D01*
X100449Y942844D01*
X100487Y942768D01*
X100521Y942732D01*
X100548Y942690D01*
X100613Y942636D01*
X100672Y942575D01*
X100715Y942550D01*
X100753Y942518D01*
X100878Y942455D01*
X105171Y940677D01*
X109577Y936271D01*
X111961Y930515D01*
X111961Y924285D01*
X109577Y918529D01*
X105171Y914123D01*
X99415Y911739D01*
X93185Y911739D01*
X87429Y914123D01*
X84236Y917317D01*
X84156Y917375D01*
X84081Y917440D01*
X84049Y917454D01*
X84021Y917475D01*
X83927Y917508D01*
X83837Y917548D01*
X83802Y917552D01*
X83768Y917564D01*
X83669Y917568D01*
X83571Y917579D01*
X83536Y917573D01*
X83501Y917574D01*
X83405Y917549D01*
X83308Y917531D01*
X83277Y917515D01*
X83243Y917506D01*
X83159Y917453D01*
X83071Y917408D01*
X83031Y917374D01*
X83016Y917364D01*
X83004Y917350D01*
X82964Y917317D01*
X79771Y914123D01*
X74015Y911739D01*
X67785Y911739D01*
X62029Y914123D01*
X57623Y918529D01*
X55239Y924285D01*
X55239Y930515D01*
X57623Y936271D01*
X62029Y940677D01*
X63523Y941295D01*
X63601Y941343D01*
X63684Y941382D01*
X63715Y941411D01*
X63752Y941433D01*
X63813Y941502D01*
X63880Y941564D01*
X63902Y941601D01*
X63930Y941632D01*
X63969Y941716D01*
X64015Y941795D01*
X64024Y941837D01*
X64042Y941875D01*
X64054Y941967D01*
X64075Y942056D01*
X64072Y942098D01*
X64078Y942140D01*
X64062Y942231D01*
X64056Y942323D01*
X64041Y942362D01*
X64034Y942404D01*
X63993Y942486D01*
X63959Y942572D01*
X63933Y942605D01*
X63914Y942643D01*
X63850Y942710D01*
X63794Y942782D01*
X63759Y942806D01*
X63729Y942837D01*
X63649Y942882D01*
X63573Y942934D01*
X63533Y942947D01*
X63496Y942967D01*
X63406Y942987D01*
X63318Y943014D01*
X63254Y943019D01*
X63234Y943024D01*
X63218Y943022D01*
X63178Y943025D01*
X62018Y943025D01*
X61125Y943918D01*
X61125Y961682D01*
X62018Y962575D01*
X76873Y962575D01*
X76888Y962577D01*
X76902Y962575D01*
X77020Y962597D01*
X77138Y962615D01*
X77151Y962621D01*
X77165Y962623D01*
X77271Y962679D01*
X77379Y962730D01*
X77389Y962740D01*
X77402Y962747D01*
X77509Y962838D01*
X82746Y968075D01*
X259628Y968075D01*
X284261Y943442D01*
X284261Y821447D01*
X284263Y821432D01*
X284261Y821418D01*
X284283Y821300D01*
X284301Y821182D01*
X284307Y821169D01*
X284309Y821155D01*
X284365Y821049D01*
X284416Y820941D01*
X284426Y820931D01*
X284433Y820918D01*
X284524Y820811D01*
X296997Y808338D01*
X297009Y808329D01*
X297018Y808318D01*
X297116Y808250D01*
X297212Y808179D01*
X297226Y808174D01*
X297238Y808166D01*
X297352Y808130D01*
X297465Y808091D01*
X297479Y808090D01*
X297493Y808086D01*
X297633Y808075D01*
X314582Y808075D01*
X315475Y807182D01*
X315475Y784418D01*
X314582Y783525D01*
X299160Y783525D01*
X299062Y783511D01*
X298963Y783503D01*
X298930Y783491D01*
X298895Y783485D01*
X298806Y783443D01*
X298714Y783407D01*
X298686Y783385D01*
X298654Y783370D01*
X298582Y783302D01*
X298504Y783241D01*
X298484Y783212D01*
X298458Y783188D01*
X298408Y783102D01*
X298352Y783021D01*
X298341Y782987D01*
X298324Y782957D01*
X298301Y782860D01*
X298272Y782766D01*
X298268Y782714D01*
X298263Y782696D01*
X298264Y782689D01*
X298263Y782687D01*
X298264Y782673D01*
X298261Y782626D01*
X298261Y741624D01*
X298275Y741526D01*
X298283Y741427D01*
X298295Y741394D01*
X298301Y741359D01*
X298343Y741270D01*
X298379Y741178D01*
X298401Y741150D01*
X298416Y741118D01*
X298484Y741046D01*
X298545Y740968D01*
X298574Y740948D01*
X298598Y740922D01*
X298684Y740872D01*
X298765Y740816D01*
X298799Y740805D01*
X298829Y740788D01*
X298926Y740765D01*
X299020Y740736D01*
X299072Y740732D01*
X299090Y740727D01*
X299108Y740729D01*
X299160Y740725D01*
X303332Y740725D01*
X303814Y740242D01*
X303894Y740183D01*
X303969Y740118D01*
X304001Y740104D01*
X304029Y740083D01*
X304123Y740050D01*
X304213Y740010D01*
X304248Y740006D01*
X304282Y739995D01*
X304380Y739991D01*
X304479Y739979D01*
X304514Y739986D01*
X304549Y739984D01*
X304644Y740010D01*
X304742Y740027D01*
X304773Y740044D01*
X304807Y740053D01*
X304891Y740105D01*
X304979Y740151D01*
X305019Y740185D01*
X305034Y740194D01*
X305046Y740208D01*
X305086Y740242D01*
X305568Y740725D01*
X309832Y740725D01*
X310725Y739832D01*
X310725Y728568D01*
X309832Y727675D01*
X305568Y727675D01*
X305086Y728158D01*
X305006Y728217D01*
X304931Y728282D01*
X304899Y728296D01*
X304871Y728317D01*
X304777Y728350D01*
X304687Y728390D01*
X304652Y728394D01*
X304618Y728405D01*
X304519Y728409D01*
X304421Y728421D01*
X304386Y728414D01*
X304351Y728416D01*
X304256Y728390D01*
X304158Y728373D01*
X304127Y728356D01*
X304093Y728347D01*
X304008Y728295D01*
X303921Y728249D01*
X303881Y728215D01*
X303866Y728206D01*
X303853Y728191D01*
X303814Y728158D01*
X303332Y727675D01*
X299068Y727675D01*
X298586Y728158D01*
X298506Y728217D01*
X298431Y728282D01*
X298399Y728296D01*
X298371Y728317D01*
X298277Y728350D01*
X298187Y728390D01*
X298152Y728394D01*
X298118Y728405D01*
X298019Y728409D01*
X297921Y728421D01*
X297886Y728414D01*
X297851Y728416D01*
X297756Y728390D01*
X297658Y728373D01*
X297627Y728356D01*
X297593Y728347D01*
X297508Y728295D01*
X297421Y728249D01*
X297381Y728215D01*
X297366Y728206D01*
X297353Y728191D01*
X297314Y728158D01*
X296832Y727675D01*
X292568Y727675D01*
G37*
%LPD*%
%LPC*%
G36*
X171668Y582875D02*
X171668Y582875D01*
X170775Y583768D01*
X170775Y600032D01*
X171668Y600925D01*
X176172Y600925D01*
X176270Y600939D01*
X176369Y600947D01*
X176402Y600959D01*
X176437Y600965D01*
X176526Y601007D01*
X176618Y601043D01*
X176646Y601065D01*
X176678Y601080D01*
X176750Y601148D01*
X176828Y601209D01*
X176848Y601238D01*
X176874Y601262D01*
X176924Y601348D01*
X176980Y601429D01*
X176991Y601463D01*
X177008Y601493D01*
X177031Y601590D01*
X177060Y601684D01*
X177064Y601736D01*
X177069Y601754D01*
X177067Y601772D01*
X177071Y601824D01*
X177071Y612620D01*
X204732Y640281D01*
X211319Y640281D01*
X211368Y640288D01*
X211418Y640286D01*
X211500Y640308D01*
X211584Y640321D01*
X211629Y640342D01*
X211677Y640355D01*
X211748Y640400D01*
X211825Y640436D01*
X211861Y640470D01*
X211904Y640496D01*
X211959Y640560D01*
X212021Y640618D01*
X212046Y640661D01*
X212079Y640699D01*
X212113Y640776D01*
X212155Y640849D01*
X212167Y640898D01*
X212187Y640943D01*
X212197Y641027D01*
X212216Y641110D01*
X212212Y641159D01*
X212218Y641209D01*
X212203Y641292D01*
X212197Y641377D01*
X212179Y641423D01*
X212170Y641472D01*
X212131Y641547D01*
X212100Y641626D01*
X212069Y641665D01*
X212046Y641709D01*
X211955Y641816D01*
X204159Y649612D01*
X204147Y649621D01*
X204138Y649632D01*
X204040Y649700D01*
X203944Y649771D01*
X203930Y649776D01*
X203918Y649784D01*
X203804Y649820D01*
X203692Y649859D01*
X203677Y649860D01*
X203663Y649864D01*
X203523Y649875D01*
X191168Y649875D01*
X190275Y650768D01*
X190275Y667032D01*
X191168Y667925D01*
X205432Y667925D01*
X206325Y667032D01*
X206325Y654677D01*
X206327Y654662D01*
X206325Y654648D01*
X206347Y654530D01*
X206365Y654412D01*
X206371Y654399D01*
X206373Y654385D01*
X206429Y654279D01*
X206480Y654171D01*
X206490Y654161D01*
X206497Y654148D01*
X206588Y654041D01*
X220085Y640544D01*
X220097Y640535D01*
X220106Y640524D01*
X220204Y640456D01*
X220300Y640385D01*
X220314Y640380D01*
X220326Y640372D01*
X220440Y640336D01*
X220552Y640297D01*
X220567Y640296D01*
X220581Y640292D01*
X220721Y640281D01*
X288501Y640281D01*
X288516Y640283D01*
X288530Y640281D01*
X288648Y640303D01*
X288766Y640321D01*
X288779Y640327D01*
X288793Y640329D01*
X288899Y640385D01*
X289007Y640436D01*
X289017Y640446D01*
X289030Y640453D01*
X289137Y640544D01*
X305846Y657253D01*
X344319Y657253D01*
X344334Y657255D01*
X344348Y657253D01*
X344465Y657275D01*
X344584Y657293D01*
X344597Y657299D01*
X344611Y657301D01*
X344717Y657357D01*
X344825Y657408D01*
X344835Y657418D01*
X344848Y657425D01*
X344955Y657516D01*
X345063Y657624D01*
X345093Y657664D01*
X345129Y657698D01*
X345172Y657771D01*
X345222Y657839D01*
X345238Y657886D01*
X345263Y657929D01*
X345282Y658012D01*
X345311Y658092D01*
X345312Y658141D01*
X345324Y658190D01*
X345318Y658274D01*
X345321Y658359D01*
X345308Y658407D01*
X345305Y658457D01*
X345274Y658536D01*
X345252Y658617D01*
X345226Y658660D01*
X345208Y658706D01*
X345156Y658772D01*
X345111Y658844D01*
X345073Y658877D01*
X345042Y658916D01*
X344973Y658964D01*
X344909Y659019D01*
X344863Y659040D01*
X344822Y659068D01*
X344741Y659093D01*
X344664Y659127D01*
X344615Y659133D01*
X344567Y659148D01*
X344427Y659159D01*
X341865Y659159D01*
X341219Y659332D01*
X340640Y659667D01*
X340367Y659939D01*
X340288Y659998D01*
X340213Y660063D01*
X340180Y660078D01*
X340152Y660098D01*
X340059Y660131D01*
X339968Y660171D01*
X339933Y660175D01*
X339900Y660187D01*
X339801Y660191D01*
X339702Y660202D01*
X339668Y660196D01*
X339633Y660197D01*
X339549Y660175D01*
X332068Y660175D01*
X331175Y661068D01*
X331175Y667209D01*
X331173Y667224D01*
X331175Y667238D01*
X331153Y667356D01*
X331135Y667474D01*
X331129Y667487D01*
X331127Y667501D01*
X331071Y667607D01*
X331020Y667715D01*
X331010Y667725D01*
X331003Y667738D01*
X330912Y667845D01*
X300627Y698130D01*
X300547Y698189D01*
X300472Y698254D01*
X300440Y698268D01*
X300412Y698289D01*
X300318Y698322D01*
X300228Y698362D01*
X300193Y698366D01*
X300159Y698378D01*
X300061Y698381D01*
X299962Y698393D01*
X299927Y698387D01*
X299892Y698388D01*
X299797Y698363D01*
X299699Y698345D01*
X299668Y698328D01*
X299634Y698319D01*
X299550Y698267D01*
X299462Y698221D01*
X299422Y698187D01*
X299407Y698178D01*
X299395Y698164D01*
X299355Y698130D01*
X272201Y670976D01*
X272171Y670936D01*
X272135Y670902D01*
X272092Y670829D01*
X272042Y670761D01*
X272026Y670714D01*
X272001Y670671D01*
X271981Y670588D01*
X271953Y670508D01*
X271952Y670459D01*
X271940Y670410D01*
X271946Y670326D01*
X271943Y670241D01*
X271956Y670193D01*
X271959Y670143D01*
X271990Y670064D01*
X272012Y669983D01*
X272038Y669940D01*
X272056Y669894D01*
X272108Y669828D01*
X272153Y669756D01*
X272191Y669723D01*
X272222Y669684D01*
X272291Y669636D01*
X272355Y669580D01*
X272401Y669560D01*
X272442Y669532D01*
X272523Y669507D01*
X272600Y669472D01*
X272649Y669467D01*
X272697Y669452D01*
X272837Y669441D01*
X274601Y669441D01*
X274601Y661199D01*
X267359Y661199D01*
X267359Y663963D01*
X267352Y664012D01*
X267354Y664062D01*
X267332Y664144D01*
X267319Y664228D01*
X267298Y664273D01*
X267285Y664321D01*
X267240Y664393D01*
X267204Y664469D01*
X267170Y664505D01*
X267143Y664548D01*
X267080Y664603D01*
X267022Y664665D01*
X266979Y664690D01*
X266941Y664723D01*
X266864Y664757D01*
X266791Y664799D01*
X266742Y664811D01*
X266697Y664831D01*
X266613Y664841D01*
X266530Y664860D01*
X266481Y664856D01*
X266431Y664862D01*
X266348Y664847D01*
X266263Y664841D01*
X266217Y664823D01*
X266168Y664814D01*
X266093Y664775D01*
X266014Y664744D01*
X265975Y664713D01*
X265931Y664690D01*
X265824Y664599D01*
X265688Y664463D01*
X265679Y664451D01*
X265668Y664442D01*
X265600Y664344D01*
X265529Y664248D01*
X265524Y664234D01*
X265516Y664222D01*
X265480Y664108D01*
X265441Y663995D01*
X265440Y663981D01*
X265436Y663967D01*
X265425Y663827D01*
X265425Y651268D01*
X264532Y650375D01*
X250268Y650375D01*
X249375Y651268D01*
X249375Y667532D01*
X250268Y668425D01*
X262419Y668425D01*
X262434Y668427D01*
X262448Y668425D01*
X262566Y668447D01*
X262684Y668465D01*
X262697Y668471D01*
X262711Y668473D01*
X262817Y668529D01*
X262925Y668580D01*
X262935Y668590D01*
X262948Y668597D01*
X263055Y668688D01*
X295926Y701559D01*
X295985Y701639D01*
X296050Y701714D01*
X296064Y701746D01*
X296085Y701774D01*
X296118Y701868D01*
X296158Y701958D01*
X296162Y701993D01*
X296174Y702027D01*
X296177Y702126D01*
X296189Y702224D01*
X296183Y702259D01*
X296184Y702294D01*
X296159Y702390D01*
X296141Y702487D01*
X296124Y702518D01*
X296115Y702552D01*
X296063Y702636D01*
X296017Y702724D01*
X295983Y702764D01*
X295974Y702779D01*
X295960Y702791D01*
X295926Y702831D01*
X295095Y703662D01*
X293411Y705346D01*
X293411Y708776D01*
X293397Y708874D01*
X293389Y708973D01*
X293377Y709006D01*
X293371Y709041D01*
X293329Y709130D01*
X293293Y709222D01*
X293271Y709250D01*
X293256Y709282D01*
X293188Y709354D01*
X293127Y709432D01*
X293098Y709452D01*
X293074Y709478D01*
X292988Y709528D01*
X292907Y709584D01*
X292873Y709595D01*
X292843Y709612D01*
X292746Y709635D01*
X292652Y709664D01*
X292600Y709668D01*
X292582Y709673D01*
X292572Y709672D01*
X291675Y710568D01*
X291675Y715019D01*
X291673Y715034D01*
X291675Y715048D01*
X291653Y715166D01*
X291635Y715284D01*
X291629Y715297D01*
X291627Y715311D01*
X291571Y715417D01*
X291520Y715525D01*
X291510Y715535D01*
X291503Y715548D01*
X291412Y715655D01*
X281799Y725268D01*
X281787Y725277D01*
X281778Y725288D01*
X281681Y725355D01*
X281584Y725427D01*
X281570Y725432D01*
X281558Y725440D01*
X281444Y725476D01*
X281331Y725515D01*
X281317Y725516D01*
X281303Y725520D01*
X281163Y725531D01*
X227024Y725531D01*
X226926Y725517D01*
X226827Y725509D01*
X226794Y725497D01*
X226759Y725491D01*
X226670Y725449D01*
X226578Y725413D01*
X226550Y725391D01*
X226518Y725376D01*
X226446Y725308D01*
X226368Y725247D01*
X226348Y725218D01*
X226322Y725194D01*
X226272Y725108D01*
X226216Y725027D01*
X226205Y724993D01*
X226188Y724963D01*
X226165Y724866D01*
X226136Y724772D01*
X226132Y724720D01*
X226127Y724702D01*
X226129Y724684D01*
X226125Y724632D01*
X226125Y721468D01*
X225232Y720575D01*
X210968Y720575D01*
X210075Y721468D01*
X210075Y737732D01*
X210968Y738625D01*
X225232Y738625D01*
X226125Y737732D01*
X226125Y731280D01*
X226139Y731182D01*
X226147Y731083D01*
X226159Y731050D01*
X226165Y731015D01*
X226207Y730926D01*
X226243Y730834D01*
X226265Y730806D01*
X226280Y730774D01*
X226348Y730702D01*
X226409Y730624D01*
X226438Y730604D01*
X226462Y730578D01*
X226548Y730528D01*
X226629Y730472D01*
X226663Y730461D01*
X226693Y730444D01*
X226790Y730421D01*
X226884Y730392D01*
X226936Y730388D01*
X226954Y730383D01*
X226972Y730385D01*
X227024Y730381D01*
X283544Y730381D01*
X291249Y722677D01*
X291328Y722618D01*
X291403Y722553D01*
X291435Y722539D01*
X291464Y722518D01*
X291557Y722485D01*
X291648Y722445D01*
X291683Y722441D01*
X291716Y722429D01*
X291815Y722425D01*
X291913Y722414D01*
X291948Y722420D01*
X291983Y722419D01*
X292079Y722444D01*
X292176Y722462D01*
X292208Y722478D01*
X292242Y722487D01*
X292326Y722540D01*
X292414Y722585D01*
X292453Y722619D01*
X292469Y722629D01*
X292481Y722643D01*
X292520Y722677D01*
X292568Y722725D01*
X296832Y722725D01*
X297314Y722242D01*
X297394Y722183D01*
X297469Y722118D01*
X297501Y722104D01*
X297529Y722083D01*
X297623Y722050D01*
X297713Y722010D01*
X297748Y722006D01*
X297782Y721995D01*
X297880Y721991D01*
X297979Y721979D01*
X298014Y721986D01*
X298049Y721984D01*
X298144Y722010D01*
X298242Y722027D01*
X298273Y722044D01*
X298307Y722053D01*
X298391Y722105D01*
X298479Y722151D01*
X298519Y722185D01*
X298534Y722194D01*
X298546Y722208D01*
X298586Y722242D01*
X299068Y722725D01*
X303332Y722725D01*
X303814Y722242D01*
X303894Y722183D01*
X303969Y722118D01*
X304001Y722104D01*
X304029Y722083D01*
X304123Y722050D01*
X304213Y722010D01*
X304248Y722006D01*
X304282Y721995D01*
X304380Y721991D01*
X304479Y721979D01*
X304514Y721986D01*
X304549Y721984D01*
X304644Y722010D01*
X304742Y722027D01*
X304773Y722044D01*
X304807Y722053D01*
X304891Y722105D01*
X304979Y722151D01*
X305019Y722185D01*
X305034Y722194D01*
X305046Y722208D01*
X305086Y722242D01*
X305568Y722725D01*
X309832Y722725D01*
X310725Y721832D01*
X310725Y710568D01*
X309832Y709675D01*
X305568Y709675D01*
X305086Y710158D01*
X305006Y710217D01*
X304931Y710282D01*
X304899Y710296D01*
X304871Y710317D01*
X304777Y710350D01*
X304687Y710390D01*
X304652Y710394D01*
X304618Y710405D01*
X304519Y710409D01*
X304421Y710421D01*
X304386Y710414D01*
X304351Y710416D01*
X304256Y710390D01*
X304158Y710373D01*
X304127Y710356D01*
X304093Y710347D01*
X304008Y710295D01*
X303921Y710249D01*
X303881Y710215D01*
X303866Y710206D01*
X303853Y710191D01*
X303814Y710158D01*
X303332Y709675D01*
X299160Y709675D01*
X299062Y709661D01*
X298963Y709653D01*
X298930Y709641D01*
X298895Y709635D01*
X298806Y709593D01*
X298714Y709557D01*
X298686Y709535D01*
X298654Y709520D01*
X298582Y709452D01*
X298504Y709391D01*
X298484Y709362D01*
X298458Y709338D01*
X298408Y709252D01*
X298352Y709171D01*
X298341Y709137D01*
X298324Y709107D01*
X298301Y709010D01*
X298272Y708916D01*
X298268Y708864D01*
X298263Y708846D01*
X298265Y708828D01*
X298261Y708776D01*
X298261Y707727D01*
X298263Y707712D01*
X298261Y707698D01*
X298283Y707580D01*
X298301Y707462D01*
X298307Y707449D01*
X298309Y707435D01*
X298365Y707329D01*
X298416Y707221D01*
X298426Y707211D01*
X298433Y707198D01*
X298524Y707091D01*
X299901Y705714D01*
X301848Y703767D01*
X330594Y675022D01*
X330673Y674963D01*
X330748Y674898D01*
X330780Y674884D01*
X330809Y674863D01*
X330902Y674830D01*
X330993Y674790D01*
X331028Y674786D01*
X331061Y674774D01*
X331160Y674770D01*
X331258Y674759D01*
X331293Y674765D01*
X331328Y674764D01*
X331424Y674789D01*
X331521Y674807D01*
X331553Y674823D01*
X331587Y674832D01*
X331671Y674885D01*
X331759Y674930D01*
X331798Y674964D01*
X331814Y674974D01*
X331826Y674988D01*
X331865Y675022D01*
X332068Y675225D01*
X339530Y675225D01*
X339563Y675213D01*
X339662Y675209D01*
X339761Y675198D01*
X339795Y675204D01*
X339830Y675203D01*
X339926Y675228D01*
X340024Y675246D01*
X340055Y675262D01*
X340089Y675271D01*
X340173Y675324D01*
X340261Y675369D01*
X340300Y675403D01*
X340316Y675413D01*
X340328Y675426D01*
X340367Y675461D01*
X340640Y675733D01*
X341219Y676068D01*
X341865Y676241D01*
X343701Y676241D01*
X343701Y668300D01*
X343715Y668202D01*
X343722Y668104D01*
X343735Y668071D01*
X343740Y668036D01*
X343783Y667946D01*
X343819Y667854D01*
X343841Y667826D01*
X343856Y667795D01*
X343924Y667722D01*
X343985Y667644D01*
X344014Y667624D01*
X344038Y667598D01*
X344124Y667548D01*
X344205Y667492D01*
X344239Y667482D01*
X344269Y667464D01*
X344366Y667442D01*
X344460Y667412D01*
X344512Y667408D01*
X344530Y667404D01*
X344548Y667405D01*
X344600Y667401D01*
X345800Y667401D01*
X345898Y667416D01*
X345997Y667423D01*
X346030Y667435D01*
X346065Y667441D01*
X346154Y667484D01*
X346246Y667519D01*
X346274Y667541D01*
X346306Y667557D01*
X346378Y667624D01*
X346456Y667685D01*
X346476Y667714D01*
X346502Y667738D01*
X346552Y667824D01*
X346608Y667905D01*
X346619Y667939D01*
X346636Y667969D01*
X346659Y668066D01*
X346688Y668160D01*
X346692Y668212D01*
X346697Y668230D01*
X346695Y668248D01*
X346699Y668300D01*
X346699Y676241D01*
X348535Y676241D01*
X349181Y676068D01*
X349760Y675733D01*
X350033Y675461D01*
X350112Y675402D01*
X350187Y675337D01*
X350220Y675322D01*
X350248Y675302D01*
X350341Y675269D01*
X350432Y675229D01*
X350467Y675225D01*
X350500Y675213D01*
X350599Y675209D01*
X350698Y675198D01*
X350732Y675204D01*
X350767Y675203D01*
X350851Y675225D01*
X358332Y675225D01*
X359225Y674332D01*
X359225Y661068D01*
X358332Y660175D01*
X354845Y660175D01*
X354830Y660173D01*
X354816Y660175D01*
X354698Y660153D01*
X354580Y660135D01*
X354567Y660129D01*
X354553Y660127D01*
X354447Y660071D01*
X354339Y660020D01*
X354329Y660010D01*
X354316Y660003D01*
X354209Y659912D01*
X346700Y652403D01*
X308227Y652403D01*
X308212Y652401D01*
X308198Y652403D01*
X308080Y652381D01*
X307962Y652363D01*
X307949Y652357D01*
X307935Y652355D01*
X307829Y652299D01*
X307721Y652248D01*
X307711Y652238D01*
X307698Y652231D01*
X307591Y652140D01*
X290882Y635431D01*
X207113Y635431D01*
X207098Y635429D01*
X207084Y635431D01*
X206966Y635409D01*
X206848Y635391D01*
X206835Y635385D01*
X206821Y635383D01*
X206715Y635327D01*
X206607Y635276D01*
X206597Y635266D01*
X206584Y635259D01*
X206477Y635168D01*
X182184Y610875D01*
X182175Y610863D01*
X182164Y610854D01*
X182096Y610756D01*
X182025Y610660D01*
X182020Y610646D01*
X182012Y610634D01*
X181976Y610520D01*
X181937Y610407D01*
X181936Y610393D01*
X181932Y610379D01*
X181921Y610239D01*
X181921Y601824D01*
X181935Y601726D01*
X181943Y601627D01*
X181955Y601594D01*
X181961Y601559D01*
X182003Y601470D01*
X182039Y601378D01*
X182061Y601350D01*
X182076Y601318D01*
X182144Y601246D01*
X182205Y601168D01*
X182234Y601148D01*
X182258Y601122D01*
X182344Y601072D01*
X182425Y601016D01*
X182459Y601005D01*
X182489Y600988D01*
X182586Y600965D01*
X182680Y600936D01*
X182732Y600932D01*
X182750Y600927D01*
X182768Y600929D01*
X182820Y600925D01*
X185932Y600925D01*
X186825Y600032D01*
X186825Y583768D01*
X185932Y582875D01*
X171668Y582875D01*
G37*
%LPD*%
%LPC*%
G36*
X31661Y715755D02*
X31661Y715755D01*
X28300Y717147D01*
X25727Y719720D01*
X24335Y723081D01*
X24335Y726719D01*
X25727Y730080D01*
X28300Y732653D01*
X31661Y734045D01*
X45499Y734045D01*
X45514Y734047D01*
X45528Y734045D01*
X45646Y734067D01*
X45764Y734085D01*
X45777Y734091D01*
X45791Y734093D01*
X45897Y734149D01*
X46005Y734200D01*
X46015Y734210D01*
X46028Y734217D01*
X46135Y734308D01*
X51513Y739686D01*
X51568Y739760D01*
X51629Y739829D01*
X51647Y739867D01*
X51672Y739901D01*
X51702Y739988D01*
X51741Y740071D01*
X51746Y740114D01*
X51761Y740154D01*
X51764Y740245D01*
X51776Y740337D01*
X51769Y740378D01*
X51771Y740421D01*
X51747Y740510D01*
X51732Y740600D01*
X51713Y740638D01*
X51702Y740679D01*
X51654Y740757D01*
X51613Y740840D01*
X51583Y740870D01*
X51561Y740906D01*
X51491Y740967D01*
X51428Y741033D01*
X51391Y741054D01*
X51359Y741082D01*
X51274Y741119D01*
X51194Y741163D01*
X51153Y741172D01*
X51114Y741190D01*
X51023Y741200D01*
X50933Y741220D01*
X50890Y741216D01*
X50848Y741221D01*
X50758Y741204D01*
X50666Y741196D01*
X50605Y741176D01*
X50585Y741173D01*
X50571Y741165D01*
X50541Y741155D01*
X31661Y741155D01*
X28300Y742547D01*
X25727Y745120D01*
X24335Y748481D01*
X24335Y752119D01*
X25727Y755480D01*
X28300Y758053D01*
X31661Y759445D01*
X50539Y759445D01*
X53900Y758053D01*
X56473Y755480D01*
X57865Y752119D01*
X57865Y748477D01*
X57845Y748398D01*
X57815Y748311D01*
X57813Y748269D01*
X57803Y748227D01*
X57808Y748136D01*
X57804Y748044D01*
X57815Y748003D01*
X57817Y747960D01*
X57849Y747874D01*
X57873Y747785D01*
X57895Y747749D01*
X57910Y747709D01*
X57966Y747636D01*
X58014Y747558D01*
X58047Y747531D01*
X58072Y747497D01*
X58147Y747443D01*
X58217Y747383D01*
X58255Y747366D01*
X58290Y747341D01*
X58377Y747312D01*
X58461Y747275D01*
X58503Y747270D01*
X58544Y747257D01*
X58636Y747255D01*
X58727Y747244D01*
X58769Y747252D01*
X58811Y747251D01*
X58899Y747276D01*
X58990Y747292D01*
X59028Y747312D01*
X59069Y747323D01*
X59146Y747373D01*
X59227Y747416D01*
X59277Y747458D01*
X59293Y747469D01*
X59303Y747481D01*
X59334Y747507D01*
X100356Y788529D01*
X100365Y788541D01*
X100376Y788550D01*
X100444Y788648D01*
X100515Y788744D01*
X100520Y788758D01*
X100528Y788770D01*
X100564Y788884D01*
X100603Y788997D01*
X100604Y789011D01*
X100608Y789025D01*
X100619Y789165D01*
X100619Y837676D01*
X100605Y837774D01*
X100597Y837873D01*
X100585Y837906D01*
X100579Y837941D01*
X100537Y838030D01*
X100501Y838122D01*
X100479Y838150D01*
X100464Y838182D01*
X100396Y838254D01*
X100335Y838332D01*
X100306Y838352D01*
X100282Y838378D01*
X100196Y838428D01*
X100115Y838484D01*
X100081Y838495D01*
X100051Y838512D01*
X99954Y838535D01*
X99860Y838564D01*
X99808Y838568D01*
X99790Y838573D01*
X99772Y838571D01*
X99720Y838575D01*
X96968Y838575D01*
X96075Y839468D01*
X96075Y855732D01*
X96968Y856625D01*
X109323Y856625D01*
X109338Y856627D01*
X109352Y856625D01*
X109470Y856647D01*
X109588Y856665D01*
X109601Y856671D01*
X109615Y856673D01*
X109721Y856729D01*
X109829Y856780D01*
X109839Y856790D01*
X109852Y856797D01*
X109959Y856888D01*
X162496Y909425D01*
X250660Y909425D01*
X250716Y909433D01*
X250773Y909432D01*
X250848Y909453D01*
X250924Y909465D01*
X250975Y909489D01*
X251030Y909505D01*
X251095Y909547D01*
X251165Y909580D01*
X251207Y909619D01*
X251255Y909650D01*
X251305Y909709D01*
X251362Y909762D01*
X251390Y909811D01*
X251427Y909855D01*
X251490Y909980D01*
X251501Y910006D01*
X252994Y911499D01*
X254944Y912307D01*
X257056Y912307D01*
X259006Y911499D01*
X260499Y910006D01*
X261307Y908056D01*
X261307Y905944D01*
X260499Y903994D01*
X259006Y902501D01*
X257056Y901693D01*
X254944Y901693D01*
X252994Y902501D01*
X251501Y903994D01*
X251490Y904020D01*
X251461Y904069D01*
X251440Y904122D01*
X251392Y904183D01*
X251352Y904249D01*
X251310Y904287D01*
X251275Y904332D01*
X251211Y904376D01*
X251153Y904428D01*
X251101Y904452D01*
X251054Y904484D01*
X250981Y904507D01*
X250910Y904540D01*
X250854Y904547D01*
X250799Y904564D01*
X250660Y904575D01*
X164877Y904575D01*
X164862Y904573D01*
X164848Y904575D01*
X164730Y904553D01*
X164612Y904535D01*
X164599Y904529D01*
X164585Y904527D01*
X164479Y904471D01*
X164371Y904420D01*
X164361Y904410D01*
X164348Y904403D01*
X164241Y904312D01*
X119105Y859176D01*
X119075Y859136D01*
X119039Y859102D01*
X118996Y859029D01*
X118946Y858961D01*
X118930Y858914D01*
X118905Y858871D01*
X118885Y858788D01*
X118857Y858708D01*
X118856Y858659D01*
X118844Y858610D01*
X118850Y858526D01*
X118847Y858441D01*
X118860Y858393D01*
X118863Y858343D01*
X118894Y858264D01*
X118916Y858183D01*
X118942Y858140D01*
X118960Y858094D01*
X119012Y858028D01*
X119057Y857956D01*
X119095Y857923D01*
X119126Y857884D01*
X119195Y857836D01*
X119259Y857780D01*
X119305Y857760D01*
X119346Y857732D01*
X119427Y857707D01*
X119504Y857672D01*
X119553Y857667D01*
X119601Y857652D01*
X119741Y857641D01*
X121301Y857641D01*
X121301Y849399D01*
X114059Y849399D01*
X114059Y851959D01*
X114052Y852008D01*
X114054Y852058D01*
X114032Y852140D01*
X114019Y852224D01*
X113998Y852269D01*
X113985Y852317D01*
X113940Y852388D01*
X113904Y852465D01*
X113870Y852501D01*
X113844Y852544D01*
X113779Y852599D01*
X113722Y852661D01*
X113679Y852686D01*
X113641Y852719D01*
X113564Y852753D01*
X113491Y852795D01*
X113442Y852807D01*
X113397Y852827D01*
X113313Y852837D01*
X113230Y852856D01*
X113181Y852852D01*
X113131Y852858D01*
X113048Y852843D01*
X112963Y852837D01*
X112917Y852819D01*
X112868Y852810D01*
X112793Y852771D01*
X112714Y852740D01*
X112675Y852709D01*
X112631Y852686D01*
X112524Y852595D01*
X112388Y852459D01*
X112379Y852447D01*
X112368Y852438D01*
X112300Y852340D01*
X112229Y852244D01*
X112224Y852230D01*
X112216Y852218D01*
X112180Y852104D01*
X112141Y851991D01*
X112140Y851977D01*
X112136Y851963D01*
X112125Y851823D01*
X112125Y839468D01*
X111232Y838575D01*
X106368Y838575D01*
X106270Y838561D01*
X106171Y838553D01*
X106138Y838541D01*
X106103Y838535D01*
X106014Y838493D01*
X105922Y838457D01*
X105894Y838435D01*
X105862Y838420D01*
X105790Y838352D01*
X105712Y838291D01*
X105692Y838262D01*
X105666Y838238D01*
X105616Y838152D01*
X105560Y838071D01*
X105549Y838037D01*
X105532Y838007D01*
X105509Y837910D01*
X105480Y837816D01*
X105476Y837764D01*
X105471Y837746D01*
X105473Y837728D01*
X105469Y837676D01*
X105469Y786784D01*
X53040Y734355D01*
X53035Y734349D01*
X53030Y734344D01*
X52955Y734240D01*
X52881Y734140D01*
X52878Y734133D01*
X52874Y734127D01*
X52834Y734006D01*
X52792Y733887D01*
X52792Y733880D01*
X52790Y733873D01*
X52787Y733746D01*
X52782Y733620D01*
X52784Y733613D01*
X52784Y733606D01*
X52818Y733483D01*
X52850Y733361D01*
X52854Y733355D01*
X52856Y733348D01*
X52925Y733242D01*
X52992Y733134D01*
X52998Y733130D01*
X53002Y733124D01*
X53098Y733042D01*
X53194Y732959D01*
X53201Y732956D01*
X53207Y732952D01*
X53332Y732888D01*
X53900Y732653D01*
X56473Y730080D01*
X57865Y726719D01*
X57865Y723081D01*
X56473Y719720D01*
X53900Y717147D01*
X50539Y715755D01*
X31661Y715755D01*
G37*
%LPD*%
%LPC*%
G36*
X433868Y595475D02*
X433868Y595475D01*
X432975Y596368D01*
X432975Y601676D01*
X432961Y601774D01*
X432953Y601873D01*
X432941Y601906D01*
X432935Y601941D01*
X432893Y602030D01*
X432857Y602122D01*
X432835Y602150D01*
X432820Y602182D01*
X432752Y602254D01*
X432691Y602332D01*
X432662Y602352D01*
X432638Y602378D01*
X432552Y602428D01*
X432471Y602484D01*
X432437Y602495D01*
X432407Y602512D01*
X432310Y602535D01*
X432216Y602564D01*
X432164Y602568D01*
X432146Y602573D01*
X432128Y602571D01*
X432076Y602575D01*
X430996Y602575D01*
X404575Y628996D01*
X404575Y779711D01*
X404573Y779726D01*
X404575Y779740D01*
X404553Y779858D01*
X404535Y779976D01*
X404529Y779989D01*
X404527Y780003D01*
X404471Y780109D01*
X404420Y780217D01*
X404410Y780227D01*
X404403Y780240D01*
X404312Y780347D01*
X299856Y884803D01*
X299810Y884837D01*
X299770Y884878D01*
X299703Y884916D01*
X299641Y884962D01*
X299587Y884981D01*
X299537Y885009D01*
X299461Y885025D01*
X299388Y885051D01*
X299331Y885053D01*
X299275Y885065D01*
X299198Y885058D01*
X299121Y885061D01*
X299066Y885046D01*
X299009Y885042D01*
X298876Y884998D01*
X298850Y884987D01*
X296738Y884987D01*
X294788Y885795D01*
X293295Y887288D01*
X292487Y889238D01*
X292487Y891350D01*
X293295Y893300D01*
X294788Y894793D01*
X296738Y895601D01*
X298850Y895601D01*
X300800Y894793D01*
X302293Y893300D01*
X303101Y891350D01*
X303101Y889238D01*
X303090Y889212D01*
X303076Y889157D01*
X303053Y889105D01*
X303044Y889028D01*
X303025Y888953D01*
X303029Y888896D01*
X303022Y888839D01*
X303036Y888763D01*
X303040Y888686D01*
X303060Y888632D01*
X303070Y888576D01*
X303106Y888507D01*
X303133Y888435D01*
X303167Y888389D01*
X303194Y888339D01*
X303285Y888232D01*
X407741Y783776D01*
X409425Y782092D01*
X409425Y631377D01*
X409427Y631362D01*
X409425Y631348D01*
X409447Y631230D01*
X409465Y631112D01*
X409471Y631099D01*
X409473Y631085D01*
X409529Y630979D01*
X409580Y630871D01*
X409590Y630861D01*
X409597Y630848D01*
X409688Y630741D01*
X431440Y608989D01*
X431480Y608959D01*
X431514Y608923D01*
X431587Y608880D01*
X431655Y608830D01*
X431702Y608814D01*
X431745Y608789D01*
X431828Y608769D01*
X431908Y608741D01*
X431957Y608740D01*
X432006Y608728D01*
X432090Y608734D01*
X432175Y608731D01*
X432223Y608744D01*
X432273Y608747D01*
X432352Y608778D01*
X432433Y608800D01*
X432476Y608826D01*
X432522Y608844D01*
X432588Y608896D01*
X432660Y608941D01*
X432693Y608979D01*
X432732Y609010D01*
X432780Y609079D01*
X432836Y609143D01*
X432856Y609189D01*
X432884Y609230D01*
X432909Y609311D01*
X432944Y609388D01*
X432949Y609437D01*
X432964Y609485D01*
X432975Y609625D01*
X432975Y613632D01*
X433868Y614525D01*
X458132Y614525D01*
X459025Y613632D01*
X459025Y596368D01*
X458132Y595475D01*
X433868Y595475D01*
G37*
%LPD*%
%LPC*%
G36*
X31661Y690355D02*
X31661Y690355D01*
X28300Y691747D01*
X25727Y694320D01*
X24335Y697681D01*
X24335Y701319D01*
X25727Y704680D01*
X28300Y707253D01*
X31661Y708645D01*
X50539Y708645D01*
X53900Y707253D01*
X54226Y706927D01*
X54306Y706868D01*
X54380Y706803D01*
X54413Y706789D01*
X54441Y706768D01*
X54534Y706735D01*
X54625Y706695D01*
X54660Y706691D01*
X54693Y706679D01*
X54792Y706675D01*
X54891Y706664D01*
X54925Y706670D01*
X54961Y706669D01*
X55056Y706694D01*
X55154Y706712D01*
X55185Y706728D01*
X55219Y706737D01*
X55303Y706790D01*
X55391Y706836D01*
X55431Y706869D01*
X55446Y706879D01*
X55458Y706893D01*
X55498Y706927D01*
X183712Y835141D01*
X183721Y835153D01*
X183732Y835162D01*
X183800Y835260D01*
X183871Y835356D01*
X183876Y835370D01*
X183884Y835382D01*
X183920Y835496D01*
X183959Y835609D01*
X183960Y835623D01*
X183964Y835637D01*
X183975Y835777D01*
X183975Y837476D01*
X183961Y837574D01*
X183953Y837673D01*
X183941Y837706D01*
X183935Y837741D01*
X183893Y837830D01*
X183857Y837922D01*
X183835Y837950D01*
X183820Y837982D01*
X183752Y838054D01*
X183691Y838132D01*
X183662Y838152D01*
X183638Y838178D01*
X183552Y838228D01*
X183471Y838284D01*
X183437Y838295D01*
X183407Y838312D01*
X183310Y838335D01*
X183216Y838364D01*
X183164Y838368D01*
X183146Y838373D01*
X183128Y838371D01*
X183076Y838375D01*
X179268Y838375D01*
X178375Y839268D01*
X178375Y855532D01*
X179268Y856425D01*
X191623Y856425D01*
X191638Y856427D01*
X191652Y856425D01*
X191770Y856447D01*
X191888Y856465D01*
X191901Y856471D01*
X191915Y856473D01*
X192021Y856529D01*
X192129Y856580D01*
X192139Y856590D01*
X192152Y856597D01*
X192259Y856688D01*
X223803Y888232D01*
X223837Y888278D01*
X223878Y888318D01*
X223916Y888385D01*
X223962Y888447D01*
X223981Y888501D01*
X224009Y888551D01*
X224025Y888627D01*
X224051Y888700D01*
X224053Y888757D01*
X224065Y888813D01*
X224058Y888890D01*
X224061Y888967D01*
X224046Y889022D01*
X224042Y889079D01*
X223998Y889212D01*
X223987Y889238D01*
X223987Y891350D01*
X224795Y893300D01*
X226288Y894793D01*
X228238Y895601D01*
X230350Y895601D01*
X232300Y894793D01*
X233793Y893300D01*
X234601Y891350D01*
X234601Y889238D01*
X233793Y887288D01*
X232300Y885795D01*
X230350Y884987D01*
X228238Y884987D01*
X228212Y884998D01*
X228157Y885012D01*
X228105Y885035D01*
X228028Y885044D01*
X227953Y885063D01*
X227896Y885059D01*
X227839Y885066D01*
X227763Y885052D01*
X227686Y885048D01*
X227632Y885028D01*
X227576Y885018D01*
X227507Y884982D01*
X227435Y884955D01*
X227389Y884921D01*
X227339Y884894D01*
X227232Y884803D01*
X194688Y852259D01*
X194679Y852247D01*
X194668Y852238D01*
X194600Y852140D01*
X194529Y852044D01*
X194524Y852030D01*
X194516Y852018D01*
X194480Y851904D01*
X194441Y851792D01*
X194440Y851777D01*
X194436Y851763D01*
X194425Y851623D01*
X194425Y839268D01*
X193532Y838375D01*
X189724Y838375D01*
X189626Y838361D01*
X189527Y838353D01*
X189494Y838341D01*
X189459Y838335D01*
X189370Y838293D01*
X189278Y838257D01*
X189250Y838235D01*
X189218Y838220D01*
X189146Y838152D01*
X189068Y838091D01*
X189048Y838062D01*
X189022Y838038D01*
X188972Y837952D01*
X188916Y837871D01*
X188905Y837837D01*
X188888Y837807D01*
X188865Y837710D01*
X188836Y837616D01*
X188832Y837564D01*
X188827Y837546D01*
X188828Y837542D01*
X188827Y837541D01*
X188829Y837525D01*
X188825Y837476D01*
X188825Y833396D01*
X57963Y702533D01*
X57929Y702488D01*
X57888Y702448D01*
X57850Y702381D01*
X57804Y702318D01*
X57785Y702265D01*
X57757Y702215D01*
X57741Y702139D01*
X57715Y702066D01*
X57713Y702009D01*
X57701Y701953D01*
X57708Y701876D01*
X57705Y701799D01*
X57719Y701744D01*
X57724Y701687D01*
X57768Y701553D01*
X57865Y701319D01*
X57865Y697681D01*
X56473Y694320D01*
X53900Y691747D01*
X50539Y690355D01*
X31661Y690355D01*
G37*
%LPD*%
%LPC*%
G36*
X432968Y682375D02*
X432968Y682375D01*
X432075Y683268D01*
X432075Y700532D01*
X432968Y701425D01*
X441776Y701425D01*
X441874Y701439D01*
X441973Y701447D01*
X442006Y701459D01*
X442041Y701465D01*
X442130Y701507D01*
X442222Y701543D01*
X442250Y701565D01*
X442282Y701580D01*
X442354Y701648D01*
X442432Y701709D01*
X442452Y701738D01*
X442478Y701762D01*
X442528Y701848D01*
X442584Y701929D01*
X442595Y701963D01*
X442612Y701993D01*
X442635Y702090D01*
X442664Y702184D01*
X442668Y702236D01*
X442673Y702254D01*
X442671Y702272D01*
X442675Y702324D01*
X442675Y800523D01*
X442673Y800538D01*
X442675Y800552D01*
X442653Y800670D01*
X442635Y800788D01*
X442629Y800801D01*
X442627Y800815D01*
X442571Y800921D01*
X442520Y801029D01*
X442510Y801039D01*
X442503Y801052D01*
X442412Y801159D01*
X339259Y904312D01*
X339247Y904321D01*
X339238Y904332D01*
X339140Y904400D01*
X339044Y904471D01*
X339030Y904476D01*
X339018Y904484D01*
X338904Y904520D01*
X338792Y904559D01*
X338777Y904560D01*
X338763Y904564D01*
X338623Y904575D01*
X302340Y904575D01*
X302284Y904567D01*
X302227Y904568D01*
X302152Y904547D01*
X302076Y904535D01*
X302025Y904511D01*
X301970Y904495D01*
X301905Y904453D01*
X301835Y904420D01*
X301793Y904381D01*
X301745Y904350D01*
X301695Y904291D01*
X301638Y904238D01*
X301610Y904189D01*
X301573Y904145D01*
X301510Y904020D01*
X301499Y903994D01*
X300006Y902501D01*
X298056Y901693D01*
X295944Y901693D01*
X293994Y902501D01*
X292501Y903994D01*
X291693Y905944D01*
X291693Y908056D01*
X292501Y910006D01*
X293994Y911499D01*
X295944Y912307D01*
X298056Y912307D01*
X300006Y911499D01*
X301499Y910006D01*
X301510Y909980D01*
X301539Y909931D01*
X301560Y909878D01*
X301608Y909817D01*
X301648Y909751D01*
X301690Y909713D01*
X301725Y909668D01*
X301789Y909624D01*
X301847Y909572D01*
X301899Y909548D01*
X301946Y909516D01*
X302019Y909493D01*
X302090Y909460D01*
X302146Y909453D01*
X302201Y909436D01*
X302340Y909425D01*
X341004Y909425D01*
X342688Y907741D01*
X447525Y802904D01*
X447525Y702324D01*
X447539Y702226D01*
X447547Y702127D01*
X447559Y702094D01*
X447565Y702059D01*
X447607Y701970D01*
X447643Y701878D01*
X447665Y701850D01*
X447680Y701818D01*
X447748Y701746D01*
X447809Y701668D01*
X447838Y701648D01*
X447862Y701622D01*
X447948Y701572D01*
X448029Y701516D01*
X448063Y701505D01*
X448093Y701488D01*
X448190Y701465D01*
X448284Y701436D01*
X448336Y701432D01*
X448354Y701427D01*
X448372Y701429D01*
X448424Y701425D01*
X457232Y701425D01*
X458125Y700532D01*
X458125Y683268D01*
X457232Y682375D01*
X432968Y682375D01*
G37*
%LPD*%
%LPC*%
G36*
X102268Y649375D02*
X102268Y649375D01*
X101375Y650268D01*
X101375Y654800D01*
X101361Y654898D01*
X101353Y654997D01*
X101341Y655030D01*
X101335Y655065D01*
X101293Y655154D01*
X101257Y655246D01*
X101235Y655274D01*
X101220Y655306D01*
X101152Y655378D01*
X101091Y655456D01*
X101062Y655476D01*
X101038Y655502D01*
X100952Y655552D01*
X100871Y655608D01*
X100837Y655619D01*
X100807Y655636D01*
X100710Y655659D01*
X100616Y655688D01*
X100564Y655692D01*
X100546Y655697D01*
X100528Y655695D01*
X100476Y655699D01*
X65504Y655699D01*
X63820Y657383D01*
X55001Y666202D01*
X54955Y666236D01*
X54915Y666277D01*
X54848Y666315D01*
X54785Y666361D01*
X54732Y666380D01*
X54682Y666408D01*
X54606Y666424D01*
X54533Y666450D01*
X54476Y666452D01*
X54420Y666464D01*
X54343Y666457D01*
X54266Y666460D01*
X54211Y666446D01*
X54154Y666441D01*
X54021Y666397D01*
X50539Y664955D01*
X31661Y664955D01*
X28300Y666347D01*
X25727Y668920D01*
X24335Y672281D01*
X24335Y675919D01*
X25727Y679280D01*
X28300Y681853D01*
X31661Y683245D01*
X50539Y683245D01*
X53900Y681853D01*
X56473Y679280D01*
X57865Y675919D01*
X57865Y672281D01*
X57484Y671362D01*
X57470Y671307D01*
X57447Y671255D01*
X57438Y671178D01*
X57420Y671102D01*
X57423Y671046D01*
X57416Y670989D01*
X57430Y670913D01*
X57434Y670835D01*
X57454Y670782D01*
X57464Y670726D01*
X57500Y670657D01*
X57527Y670584D01*
X57562Y670539D01*
X57588Y670489D01*
X57679Y670382D01*
X67249Y660812D01*
X67261Y660803D01*
X67270Y660792D01*
X67367Y660725D01*
X67464Y660653D01*
X67478Y660648D01*
X67490Y660640D01*
X67604Y660604D01*
X67717Y660565D01*
X67731Y660564D01*
X67745Y660560D01*
X67885Y660549D01*
X100476Y660549D01*
X100574Y660563D01*
X100673Y660571D01*
X100706Y660583D01*
X100741Y660589D01*
X100830Y660631D01*
X100922Y660667D01*
X100950Y660689D01*
X100982Y660704D01*
X101054Y660772D01*
X101132Y660833D01*
X101152Y660862D01*
X101178Y660886D01*
X101228Y660972D01*
X101284Y661053D01*
X101295Y661087D01*
X101312Y661117D01*
X101335Y661214D01*
X101364Y661308D01*
X101368Y661360D01*
X101373Y661378D01*
X101371Y661396D01*
X101375Y661448D01*
X101375Y666532D01*
X102268Y667425D01*
X109030Y667425D01*
X109128Y667439D01*
X109227Y667447D01*
X109260Y667459D01*
X109295Y667465D01*
X109384Y667507D01*
X109476Y667543D01*
X109504Y667565D01*
X109536Y667580D01*
X109608Y667648D01*
X109686Y667709D01*
X109706Y667738D01*
X109732Y667762D01*
X109782Y667848D01*
X109838Y667929D01*
X109849Y667963D01*
X109866Y667993D01*
X109889Y668090D01*
X109918Y668184D01*
X109922Y668236D01*
X109927Y668254D01*
X109925Y668272D01*
X109929Y668324D01*
X109929Y703226D01*
X109915Y703324D01*
X109907Y703423D01*
X109895Y703456D01*
X109889Y703491D01*
X109847Y703580D01*
X109811Y703672D01*
X109789Y703700D01*
X109774Y703732D01*
X109706Y703804D01*
X109645Y703882D01*
X109616Y703902D01*
X109592Y703928D01*
X109506Y703978D01*
X109425Y704034D01*
X109391Y704045D01*
X109361Y704062D01*
X109264Y704085D01*
X109170Y704114D01*
X109118Y704118D01*
X109100Y704123D01*
X109082Y704121D01*
X109030Y704125D01*
X108668Y704125D01*
X107775Y705018D01*
X107775Y714782D01*
X108668Y715675D01*
X115932Y715675D01*
X116825Y714782D01*
X116825Y705018D01*
X115932Y704125D01*
X115678Y704125D01*
X115580Y704111D01*
X115481Y704103D01*
X115448Y704091D01*
X115413Y704085D01*
X115324Y704043D01*
X115232Y704007D01*
X115204Y703985D01*
X115172Y703970D01*
X115100Y703902D01*
X115022Y703841D01*
X115002Y703812D01*
X114976Y703788D01*
X114926Y703702D01*
X114870Y703621D01*
X114859Y703587D01*
X114842Y703557D01*
X114819Y703460D01*
X114790Y703366D01*
X114786Y703314D01*
X114781Y703296D01*
X114783Y703278D01*
X114779Y703226D01*
X114779Y668324D01*
X114793Y668226D01*
X114801Y668127D01*
X114813Y668094D01*
X114819Y668059D01*
X114861Y667970D01*
X114897Y667878D01*
X114919Y667850D01*
X114934Y667818D01*
X115002Y667746D01*
X115063Y667668D01*
X115092Y667648D01*
X115116Y667622D01*
X115202Y667572D01*
X115283Y667516D01*
X115317Y667505D01*
X115347Y667488D01*
X115444Y667465D01*
X115538Y667436D01*
X115590Y667432D01*
X115608Y667427D01*
X115626Y667429D01*
X115678Y667425D01*
X116532Y667425D01*
X117425Y666532D01*
X117425Y650268D01*
X116532Y649375D01*
X102268Y649375D01*
G37*
%LPD*%
%LPC*%
G36*
X36561Y469455D02*
X36561Y469455D01*
X33200Y470847D01*
X30627Y473420D01*
X29235Y476781D01*
X29235Y480419D01*
X30627Y483780D01*
X33200Y486353D01*
X36561Y487745D01*
X55439Y487745D01*
X58800Y486353D01*
X61373Y483780D01*
X62284Y481580D01*
X62313Y481531D01*
X62334Y481478D01*
X62382Y481417D01*
X62422Y481351D01*
X62464Y481313D01*
X62500Y481268D01*
X62563Y481224D01*
X62621Y481172D01*
X62673Y481148D01*
X62720Y481116D01*
X62794Y481093D01*
X62864Y481060D01*
X62921Y481053D01*
X62975Y481036D01*
X63115Y481025D01*
X114885Y481025D01*
X114942Y481033D01*
X114999Y481032D01*
X115073Y481053D01*
X115150Y481065D01*
X115201Y481089D01*
X115256Y481105D01*
X115321Y481147D01*
X115391Y481180D01*
X115433Y481219D01*
X115481Y481250D01*
X115530Y481309D01*
X115587Y481362D01*
X115616Y481411D01*
X115653Y481455D01*
X115716Y481580D01*
X116627Y483780D01*
X119200Y486353D01*
X122561Y487745D01*
X141439Y487745D01*
X144800Y486353D01*
X147373Y483780D01*
X148765Y480419D01*
X148765Y476781D01*
X147373Y473420D01*
X144800Y470847D01*
X141439Y469455D01*
X122561Y469455D01*
X119200Y470847D01*
X116627Y473420D01*
X115716Y475620D01*
X115687Y475669D01*
X115666Y475722D01*
X115618Y475783D01*
X115578Y475849D01*
X115536Y475887D01*
X115500Y475932D01*
X115437Y475976D01*
X115379Y476028D01*
X115327Y476052D01*
X115280Y476084D01*
X115206Y476107D01*
X115136Y476140D01*
X115079Y476147D01*
X115025Y476164D01*
X114885Y476175D01*
X63115Y476175D01*
X63058Y476167D01*
X63001Y476168D01*
X62927Y476147D01*
X62850Y476135D01*
X62799Y476111D01*
X62744Y476095D01*
X62679Y476053D01*
X62609Y476020D01*
X62567Y475981D01*
X62519Y475950D01*
X62470Y475891D01*
X62413Y475838D01*
X62384Y475789D01*
X62348Y475745D01*
X62284Y475620D01*
X61373Y473420D01*
X58800Y470847D01*
X55439Y469455D01*
X36561Y469455D01*
G37*
%LPD*%
%LPC*%
G36*
X36561Y190055D02*
X36561Y190055D01*
X33200Y191447D01*
X30627Y194020D01*
X29235Y197381D01*
X29235Y201019D01*
X30627Y204380D01*
X33200Y206953D01*
X36561Y208345D01*
X55439Y208345D01*
X58800Y206953D01*
X61373Y204380D01*
X62284Y202180D01*
X62313Y202131D01*
X62334Y202078D01*
X62382Y202017D01*
X62422Y201951D01*
X62464Y201913D01*
X62500Y201868D01*
X62563Y201824D01*
X62621Y201772D01*
X62673Y201748D01*
X62720Y201716D01*
X62794Y201693D01*
X62864Y201660D01*
X62921Y201653D01*
X62975Y201636D01*
X63115Y201625D01*
X114885Y201625D01*
X114942Y201633D01*
X114999Y201632D01*
X115073Y201653D01*
X115150Y201665D01*
X115201Y201689D01*
X115256Y201705D01*
X115321Y201747D01*
X115391Y201780D01*
X115433Y201819D01*
X115481Y201850D01*
X115530Y201909D01*
X115587Y201962D01*
X115616Y202011D01*
X115652Y202055D01*
X115716Y202180D01*
X116627Y204380D01*
X119200Y206953D01*
X122561Y208345D01*
X141439Y208345D01*
X144800Y206953D01*
X147373Y204380D01*
X148765Y201019D01*
X148765Y197381D01*
X147373Y194020D01*
X144800Y191447D01*
X141439Y190055D01*
X122561Y190055D01*
X119200Y191447D01*
X116627Y194020D01*
X115716Y196220D01*
X115687Y196269D01*
X115666Y196322D01*
X115618Y196383D01*
X115578Y196449D01*
X115536Y196487D01*
X115500Y196532D01*
X115437Y196576D01*
X115379Y196628D01*
X115327Y196652D01*
X115280Y196684D01*
X115206Y196707D01*
X115136Y196740D01*
X115079Y196747D01*
X115025Y196764D01*
X114885Y196775D01*
X63115Y196775D01*
X63058Y196767D01*
X63001Y196768D01*
X62927Y196747D01*
X62850Y196735D01*
X62799Y196711D01*
X62744Y196695D01*
X62679Y196653D01*
X62609Y196620D01*
X62567Y196581D01*
X62519Y196550D01*
X62470Y196491D01*
X62413Y196438D01*
X62384Y196389D01*
X62347Y196345D01*
X62284Y196220D01*
X61373Y194020D01*
X58800Y191447D01*
X55439Y190055D01*
X36561Y190055D01*
G37*
%LPD*%
%LPC*%
G36*
X36561Y113855D02*
X36561Y113855D01*
X33200Y115247D01*
X30627Y117820D01*
X29235Y121181D01*
X29235Y124819D01*
X30627Y128180D01*
X33200Y130753D01*
X36561Y132145D01*
X55439Y132145D01*
X58800Y130753D01*
X61373Y128180D01*
X62284Y125980D01*
X62313Y125931D01*
X62334Y125878D01*
X62382Y125817D01*
X62422Y125751D01*
X62464Y125713D01*
X62500Y125668D01*
X62563Y125624D01*
X62621Y125572D01*
X62673Y125548D01*
X62720Y125516D01*
X62794Y125493D01*
X62864Y125460D01*
X62921Y125453D01*
X62975Y125436D01*
X63115Y125425D01*
X114885Y125425D01*
X114942Y125433D01*
X114999Y125432D01*
X115073Y125453D01*
X115150Y125465D01*
X115201Y125489D01*
X115256Y125505D01*
X115321Y125547D01*
X115391Y125580D01*
X115433Y125619D01*
X115481Y125650D01*
X115530Y125709D01*
X115587Y125762D01*
X115616Y125811D01*
X115652Y125855D01*
X115716Y125980D01*
X116627Y128180D01*
X119200Y130753D01*
X122561Y132145D01*
X141439Y132145D01*
X144800Y130753D01*
X147373Y128180D01*
X148765Y124819D01*
X148765Y121181D01*
X147373Y117820D01*
X144800Y115247D01*
X141439Y113855D01*
X122561Y113855D01*
X119200Y115247D01*
X116627Y117820D01*
X115716Y120020D01*
X115687Y120069D01*
X115666Y120122D01*
X115618Y120183D01*
X115578Y120249D01*
X115536Y120287D01*
X115500Y120332D01*
X115437Y120376D01*
X115379Y120428D01*
X115327Y120452D01*
X115280Y120484D01*
X115206Y120507D01*
X115136Y120540D01*
X115079Y120547D01*
X115025Y120564D01*
X114885Y120575D01*
X63115Y120575D01*
X63058Y120567D01*
X63001Y120568D01*
X62927Y120547D01*
X62850Y120535D01*
X62799Y120511D01*
X62744Y120495D01*
X62679Y120453D01*
X62609Y120420D01*
X62567Y120381D01*
X62519Y120350D01*
X62470Y120291D01*
X62413Y120238D01*
X62384Y120189D01*
X62347Y120145D01*
X62284Y120020D01*
X61373Y117820D01*
X58800Y115247D01*
X55439Y113855D01*
X36561Y113855D01*
G37*
%LPD*%
%LPC*%
G36*
X36561Y164655D02*
X36561Y164655D01*
X33200Y166047D01*
X30627Y168620D01*
X29235Y171981D01*
X29235Y175619D01*
X30627Y178980D01*
X33200Y181553D01*
X36561Y182945D01*
X55439Y182945D01*
X58800Y181553D01*
X61373Y178980D01*
X62284Y176780D01*
X62313Y176731D01*
X62334Y176678D01*
X62382Y176617D01*
X62422Y176551D01*
X62464Y176513D01*
X62500Y176468D01*
X62563Y176424D01*
X62621Y176372D01*
X62673Y176348D01*
X62720Y176316D01*
X62794Y176293D01*
X62864Y176260D01*
X62921Y176253D01*
X62975Y176236D01*
X63115Y176225D01*
X114885Y176225D01*
X114942Y176233D01*
X114999Y176232D01*
X115073Y176253D01*
X115150Y176265D01*
X115201Y176289D01*
X115256Y176305D01*
X115321Y176347D01*
X115391Y176380D01*
X115433Y176419D01*
X115481Y176450D01*
X115530Y176509D01*
X115587Y176562D01*
X115616Y176611D01*
X115652Y176655D01*
X115716Y176780D01*
X116627Y178980D01*
X119200Y181553D01*
X122561Y182945D01*
X141439Y182945D01*
X144800Y181553D01*
X147373Y178980D01*
X148765Y175619D01*
X148765Y171981D01*
X147373Y168620D01*
X144800Y166047D01*
X141439Y164655D01*
X122561Y164655D01*
X119200Y166047D01*
X116627Y168620D01*
X115716Y170820D01*
X115687Y170869D01*
X115666Y170922D01*
X115618Y170983D01*
X115578Y171049D01*
X115536Y171087D01*
X115500Y171132D01*
X115437Y171176D01*
X115379Y171228D01*
X115327Y171252D01*
X115280Y171284D01*
X115206Y171307D01*
X115136Y171340D01*
X115079Y171347D01*
X115025Y171364D01*
X114885Y171375D01*
X63115Y171375D01*
X63058Y171367D01*
X63001Y171368D01*
X62927Y171347D01*
X62850Y171335D01*
X62799Y171311D01*
X62744Y171295D01*
X62679Y171253D01*
X62609Y171220D01*
X62567Y171181D01*
X62519Y171150D01*
X62470Y171091D01*
X62413Y171038D01*
X62384Y170989D01*
X62347Y170945D01*
X62284Y170820D01*
X61373Y168620D01*
X58800Y166047D01*
X55439Y164655D01*
X36561Y164655D01*
G37*
%LPD*%
%LPC*%
G36*
X36561Y367855D02*
X36561Y367855D01*
X33200Y369247D01*
X30627Y371820D01*
X29235Y375181D01*
X29235Y378819D01*
X30627Y382180D01*
X33200Y384753D01*
X36561Y386145D01*
X55439Y386145D01*
X58800Y384753D01*
X61373Y382180D01*
X62284Y379980D01*
X62313Y379931D01*
X62334Y379878D01*
X62382Y379817D01*
X62422Y379751D01*
X62464Y379713D01*
X62500Y379668D01*
X62563Y379624D01*
X62621Y379572D01*
X62673Y379548D01*
X62720Y379516D01*
X62794Y379493D01*
X62864Y379460D01*
X62921Y379453D01*
X62975Y379436D01*
X63115Y379425D01*
X114885Y379425D01*
X114942Y379433D01*
X114999Y379432D01*
X115073Y379453D01*
X115150Y379465D01*
X115201Y379489D01*
X115256Y379505D01*
X115321Y379547D01*
X115391Y379580D01*
X115433Y379619D01*
X115481Y379650D01*
X115530Y379709D01*
X115587Y379762D01*
X115616Y379811D01*
X115653Y379855D01*
X115716Y379980D01*
X116627Y382180D01*
X119200Y384753D01*
X122561Y386145D01*
X141439Y386145D01*
X144800Y384753D01*
X147373Y382180D01*
X148765Y378819D01*
X148765Y375181D01*
X147373Y371820D01*
X144800Y369247D01*
X141439Y367855D01*
X122561Y367855D01*
X119200Y369247D01*
X116627Y371820D01*
X115716Y374020D01*
X115687Y374069D01*
X115666Y374122D01*
X115618Y374183D01*
X115578Y374249D01*
X115536Y374287D01*
X115500Y374332D01*
X115437Y374376D01*
X115379Y374428D01*
X115327Y374452D01*
X115280Y374484D01*
X115206Y374507D01*
X115136Y374540D01*
X115079Y374547D01*
X115025Y374564D01*
X114885Y374575D01*
X63115Y374575D01*
X63058Y374567D01*
X63001Y374568D01*
X62927Y374547D01*
X62850Y374535D01*
X62799Y374511D01*
X62744Y374495D01*
X62679Y374453D01*
X62609Y374420D01*
X62567Y374381D01*
X62519Y374350D01*
X62470Y374291D01*
X62413Y374238D01*
X62384Y374189D01*
X62348Y374145D01*
X62284Y374020D01*
X61373Y371820D01*
X58800Y369247D01*
X55439Y367855D01*
X36561Y367855D01*
G37*
%LPD*%
%LPC*%
G36*
X36561Y139255D02*
X36561Y139255D01*
X33200Y140647D01*
X30627Y143220D01*
X29235Y146581D01*
X29235Y150219D01*
X30627Y153580D01*
X33200Y156153D01*
X36561Y157545D01*
X55439Y157545D01*
X58800Y156153D01*
X61373Y153580D01*
X62284Y151380D01*
X62313Y151331D01*
X62334Y151278D01*
X62382Y151217D01*
X62422Y151151D01*
X62464Y151113D01*
X62500Y151068D01*
X62563Y151024D01*
X62621Y150972D01*
X62673Y150948D01*
X62720Y150916D01*
X62794Y150893D01*
X62864Y150860D01*
X62921Y150853D01*
X62975Y150836D01*
X63115Y150825D01*
X114885Y150825D01*
X114942Y150833D01*
X114999Y150832D01*
X115073Y150853D01*
X115150Y150865D01*
X115201Y150889D01*
X115256Y150905D01*
X115321Y150947D01*
X115391Y150980D01*
X115433Y151019D01*
X115481Y151050D01*
X115530Y151109D01*
X115587Y151162D01*
X115616Y151211D01*
X115652Y151255D01*
X115716Y151380D01*
X116627Y153580D01*
X119200Y156153D01*
X122561Y157545D01*
X141439Y157545D01*
X144800Y156153D01*
X147373Y153580D01*
X148765Y150219D01*
X148765Y146581D01*
X147373Y143220D01*
X144800Y140647D01*
X141439Y139255D01*
X122561Y139255D01*
X119200Y140647D01*
X116627Y143220D01*
X115716Y145420D01*
X115689Y145466D01*
X115678Y145494D01*
X115676Y145496D01*
X115666Y145522D01*
X115618Y145583D01*
X115578Y145649D01*
X115536Y145687D01*
X115500Y145732D01*
X115437Y145776D01*
X115379Y145828D01*
X115327Y145852D01*
X115280Y145884D01*
X115206Y145907D01*
X115136Y145940D01*
X115079Y145947D01*
X115025Y145964D01*
X114885Y145975D01*
X63115Y145975D01*
X63058Y145967D01*
X63001Y145968D01*
X62927Y145947D01*
X62850Y145935D01*
X62799Y145911D01*
X62744Y145895D01*
X62679Y145853D01*
X62609Y145820D01*
X62567Y145781D01*
X62519Y145750D01*
X62470Y145691D01*
X62413Y145638D01*
X62384Y145589D01*
X62347Y145545D01*
X62284Y145420D01*
X61373Y143220D01*
X58800Y140647D01*
X55439Y139255D01*
X36561Y139255D01*
G37*
%LPD*%
%LPC*%
G36*
X36561Y215455D02*
X36561Y215455D01*
X33200Y216847D01*
X30627Y219420D01*
X29235Y222781D01*
X29235Y226419D01*
X30627Y229780D01*
X33200Y232353D01*
X36561Y233745D01*
X55439Y233745D01*
X58800Y232353D01*
X61373Y229780D01*
X62284Y227580D01*
X62313Y227531D01*
X62334Y227478D01*
X62382Y227417D01*
X62422Y227351D01*
X62464Y227313D01*
X62500Y227268D01*
X62563Y227224D01*
X62621Y227172D01*
X62673Y227148D01*
X62720Y227116D01*
X62794Y227093D01*
X62864Y227060D01*
X62921Y227053D01*
X62975Y227036D01*
X63115Y227025D01*
X114885Y227025D01*
X114942Y227033D01*
X114999Y227032D01*
X115073Y227053D01*
X115150Y227065D01*
X115201Y227089D01*
X115256Y227105D01*
X115321Y227147D01*
X115391Y227180D01*
X115433Y227219D01*
X115481Y227250D01*
X115530Y227309D01*
X115587Y227362D01*
X115616Y227411D01*
X115653Y227455D01*
X115716Y227580D01*
X116627Y229780D01*
X119200Y232353D01*
X122561Y233745D01*
X141439Y233745D01*
X144800Y232353D01*
X147373Y229780D01*
X148765Y226419D01*
X148765Y222781D01*
X147373Y219420D01*
X144800Y216847D01*
X141439Y215455D01*
X122561Y215455D01*
X119200Y216847D01*
X116627Y219420D01*
X115716Y221620D01*
X115687Y221669D01*
X115666Y221722D01*
X115618Y221783D01*
X115578Y221849D01*
X115536Y221887D01*
X115500Y221932D01*
X115437Y221976D01*
X115379Y222028D01*
X115327Y222052D01*
X115280Y222084D01*
X115206Y222107D01*
X115136Y222140D01*
X115079Y222147D01*
X115025Y222164D01*
X114885Y222175D01*
X63115Y222175D01*
X63058Y222167D01*
X63001Y222168D01*
X62927Y222147D01*
X62850Y222135D01*
X62799Y222111D01*
X62744Y222095D01*
X62679Y222053D01*
X62609Y222020D01*
X62567Y221981D01*
X62519Y221950D01*
X62470Y221891D01*
X62413Y221838D01*
X62384Y221789D01*
X62347Y221745D01*
X62284Y221620D01*
X61373Y219420D01*
X58800Y216847D01*
X55439Y215455D01*
X36561Y215455D01*
G37*
%LPD*%
%LPC*%
G36*
X36561Y266255D02*
X36561Y266255D01*
X33200Y267647D01*
X30627Y270220D01*
X29235Y273581D01*
X29235Y277219D01*
X30627Y280580D01*
X33200Y283153D01*
X36561Y284545D01*
X55439Y284545D01*
X58800Y283153D01*
X61373Y280580D01*
X62284Y278380D01*
X62313Y278331D01*
X62334Y278278D01*
X62382Y278217D01*
X62422Y278151D01*
X62464Y278113D01*
X62500Y278068D01*
X62563Y278024D01*
X62621Y277972D01*
X62673Y277948D01*
X62720Y277916D01*
X62794Y277893D01*
X62864Y277860D01*
X62921Y277853D01*
X62975Y277836D01*
X63115Y277825D01*
X114885Y277825D01*
X114942Y277833D01*
X114999Y277832D01*
X115073Y277853D01*
X115150Y277865D01*
X115201Y277889D01*
X115256Y277905D01*
X115321Y277947D01*
X115391Y277980D01*
X115433Y278019D01*
X115481Y278050D01*
X115530Y278109D01*
X115587Y278162D01*
X115616Y278211D01*
X115653Y278255D01*
X115716Y278380D01*
X116627Y280580D01*
X119200Y283153D01*
X122561Y284545D01*
X141439Y284545D01*
X144800Y283153D01*
X147373Y280580D01*
X148765Y277219D01*
X148765Y273581D01*
X147373Y270220D01*
X144800Y267647D01*
X141439Y266255D01*
X122561Y266255D01*
X119200Y267647D01*
X116627Y270220D01*
X115716Y272420D01*
X115687Y272469D01*
X115666Y272522D01*
X115618Y272583D01*
X115578Y272649D01*
X115536Y272687D01*
X115500Y272732D01*
X115437Y272776D01*
X115379Y272828D01*
X115327Y272852D01*
X115280Y272884D01*
X115206Y272907D01*
X115136Y272940D01*
X115079Y272947D01*
X115025Y272964D01*
X114885Y272975D01*
X63115Y272975D01*
X63058Y272967D01*
X63001Y272968D01*
X62927Y272947D01*
X62850Y272935D01*
X62799Y272911D01*
X62744Y272895D01*
X62679Y272853D01*
X62609Y272820D01*
X62567Y272781D01*
X62519Y272750D01*
X62470Y272691D01*
X62413Y272638D01*
X62384Y272589D01*
X62347Y272545D01*
X62284Y272420D01*
X61373Y270220D01*
X58800Y267647D01*
X55439Y266255D01*
X36561Y266255D01*
G37*
%LPD*%
%LPC*%
G36*
X36561Y291655D02*
X36561Y291655D01*
X33200Y293047D01*
X30627Y295620D01*
X29235Y298981D01*
X29235Y302619D01*
X30627Y305980D01*
X33200Y308553D01*
X36561Y309945D01*
X55439Y309945D01*
X58800Y308553D01*
X61373Y305980D01*
X62284Y303780D01*
X62313Y303731D01*
X62334Y303678D01*
X62382Y303617D01*
X62422Y303551D01*
X62464Y303513D01*
X62500Y303468D01*
X62563Y303424D01*
X62621Y303372D01*
X62673Y303348D01*
X62720Y303316D01*
X62794Y303293D01*
X62864Y303260D01*
X62921Y303253D01*
X62975Y303236D01*
X63115Y303225D01*
X114885Y303225D01*
X114942Y303233D01*
X114999Y303232D01*
X115073Y303253D01*
X115150Y303265D01*
X115201Y303289D01*
X115256Y303305D01*
X115321Y303347D01*
X115391Y303380D01*
X115433Y303419D01*
X115481Y303450D01*
X115530Y303509D01*
X115587Y303562D01*
X115616Y303611D01*
X115653Y303655D01*
X115716Y303780D01*
X116627Y305980D01*
X119200Y308553D01*
X122561Y309945D01*
X141439Y309945D01*
X144800Y308553D01*
X147373Y305980D01*
X148765Y302619D01*
X148765Y298981D01*
X147373Y295620D01*
X144800Y293047D01*
X141439Y291655D01*
X122561Y291655D01*
X119200Y293047D01*
X116627Y295620D01*
X115716Y297820D01*
X115687Y297869D01*
X115666Y297922D01*
X115618Y297983D01*
X115578Y298049D01*
X115536Y298087D01*
X115500Y298132D01*
X115437Y298176D01*
X115379Y298228D01*
X115327Y298252D01*
X115280Y298284D01*
X115206Y298307D01*
X115136Y298340D01*
X115079Y298347D01*
X115025Y298364D01*
X114885Y298375D01*
X63115Y298375D01*
X63058Y298367D01*
X63001Y298368D01*
X62927Y298347D01*
X62850Y298335D01*
X62799Y298311D01*
X62744Y298295D01*
X62679Y298253D01*
X62609Y298220D01*
X62567Y298181D01*
X62519Y298150D01*
X62470Y298091D01*
X62413Y298038D01*
X62384Y297989D01*
X62347Y297945D01*
X62284Y297820D01*
X61373Y295620D01*
X58800Y293047D01*
X55439Y291655D01*
X36561Y291655D01*
G37*
%LPD*%
%LPC*%
G36*
X36561Y317055D02*
X36561Y317055D01*
X33200Y318447D01*
X30627Y321020D01*
X29235Y324381D01*
X29235Y328019D01*
X30627Y331380D01*
X33200Y333953D01*
X36561Y335345D01*
X55439Y335345D01*
X58800Y333953D01*
X61373Y331380D01*
X62284Y329180D01*
X62313Y329131D01*
X62334Y329078D01*
X62382Y329017D01*
X62422Y328951D01*
X62464Y328913D01*
X62500Y328868D01*
X62563Y328824D01*
X62621Y328772D01*
X62673Y328748D01*
X62720Y328716D01*
X62794Y328693D01*
X62864Y328660D01*
X62921Y328653D01*
X62975Y328636D01*
X63115Y328625D01*
X114885Y328625D01*
X114942Y328633D01*
X114999Y328632D01*
X115073Y328653D01*
X115150Y328665D01*
X115201Y328689D01*
X115256Y328705D01*
X115321Y328747D01*
X115391Y328780D01*
X115433Y328819D01*
X115481Y328850D01*
X115530Y328909D01*
X115587Y328962D01*
X115616Y329011D01*
X115653Y329055D01*
X115716Y329180D01*
X116627Y331380D01*
X119200Y333953D01*
X122561Y335345D01*
X141439Y335345D01*
X144800Y333953D01*
X147373Y331380D01*
X148765Y328019D01*
X148765Y324381D01*
X147373Y321020D01*
X144800Y318447D01*
X141439Y317055D01*
X122561Y317055D01*
X119200Y318447D01*
X116627Y321020D01*
X115716Y323220D01*
X115687Y323269D01*
X115666Y323322D01*
X115618Y323383D01*
X115578Y323449D01*
X115536Y323487D01*
X115500Y323532D01*
X115437Y323576D01*
X115379Y323628D01*
X115327Y323652D01*
X115280Y323684D01*
X115206Y323707D01*
X115136Y323740D01*
X115079Y323747D01*
X115025Y323764D01*
X114885Y323775D01*
X63115Y323775D01*
X63058Y323767D01*
X63001Y323768D01*
X62927Y323747D01*
X62850Y323735D01*
X62799Y323711D01*
X62744Y323695D01*
X62679Y323653D01*
X62609Y323620D01*
X62567Y323581D01*
X62519Y323550D01*
X62470Y323491D01*
X62413Y323438D01*
X62384Y323389D01*
X62347Y323345D01*
X62284Y323220D01*
X61373Y321020D01*
X58800Y318447D01*
X55439Y317055D01*
X36561Y317055D01*
G37*
%LPD*%
%LPC*%
G36*
X36561Y240855D02*
X36561Y240855D01*
X33200Y242247D01*
X30627Y244820D01*
X29235Y248181D01*
X29235Y251819D01*
X30627Y255180D01*
X33200Y257753D01*
X36561Y259145D01*
X55439Y259145D01*
X58800Y257753D01*
X61373Y255180D01*
X62284Y252980D01*
X62313Y252931D01*
X62334Y252878D01*
X62382Y252817D01*
X62422Y252751D01*
X62464Y252713D01*
X62500Y252668D01*
X62563Y252624D01*
X62621Y252572D01*
X62673Y252548D01*
X62720Y252516D01*
X62794Y252493D01*
X62864Y252460D01*
X62921Y252453D01*
X62975Y252436D01*
X63115Y252425D01*
X114885Y252425D01*
X114942Y252433D01*
X114999Y252432D01*
X115073Y252453D01*
X115150Y252465D01*
X115201Y252489D01*
X115256Y252505D01*
X115321Y252547D01*
X115391Y252580D01*
X115433Y252619D01*
X115481Y252650D01*
X115530Y252709D01*
X115587Y252762D01*
X115616Y252811D01*
X115653Y252855D01*
X115716Y252980D01*
X116627Y255180D01*
X119200Y257753D01*
X122561Y259145D01*
X141439Y259145D01*
X144800Y257753D01*
X147373Y255180D01*
X148765Y251819D01*
X148765Y248181D01*
X147373Y244820D01*
X144800Y242247D01*
X141439Y240855D01*
X122561Y240855D01*
X119200Y242247D01*
X116627Y244820D01*
X115716Y247020D01*
X115688Y247067D01*
X115671Y247110D01*
X115666Y247122D01*
X115618Y247183D01*
X115578Y247249D01*
X115536Y247287D01*
X115500Y247332D01*
X115437Y247376D01*
X115379Y247428D01*
X115327Y247452D01*
X115280Y247484D01*
X115206Y247507D01*
X115136Y247540D01*
X115079Y247547D01*
X115025Y247564D01*
X114885Y247575D01*
X63115Y247575D01*
X63058Y247567D01*
X63001Y247568D01*
X62927Y247547D01*
X62850Y247535D01*
X62799Y247511D01*
X62744Y247495D01*
X62679Y247453D01*
X62609Y247420D01*
X62567Y247381D01*
X62519Y247350D01*
X62470Y247291D01*
X62413Y247238D01*
X62384Y247189D01*
X62347Y247145D01*
X62284Y247020D01*
X61373Y244820D01*
X58800Y242247D01*
X55439Y240855D01*
X36561Y240855D01*
G37*
%LPD*%
%LPC*%
G36*
X376561Y215455D02*
X376561Y215455D01*
X373200Y216847D01*
X370627Y219420D01*
X369235Y222781D01*
X369235Y226419D01*
X370627Y229780D01*
X373200Y232353D01*
X376561Y233745D01*
X395439Y233745D01*
X398800Y232353D01*
X401373Y229780D01*
X402284Y227580D01*
X402313Y227531D01*
X402334Y227478D01*
X402382Y227417D01*
X402422Y227351D01*
X402464Y227313D01*
X402500Y227268D01*
X402563Y227224D01*
X402621Y227172D01*
X402673Y227148D01*
X402720Y227116D01*
X402794Y227093D01*
X402864Y227060D01*
X402921Y227053D01*
X402975Y227036D01*
X403115Y227025D01*
X437885Y227025D01*
X437942Y227033D01*
X437999Y227032D01*
X438073Y227053D01*
X438150Y227065D01*
X438201Y227089D01*
X438256Y227105D01*
X438321Y227147D01*
X438391Y227180D01*
X438433Y227219D01*
X438481Y227250D01*
X438530Y227309D01*
X438587Y227362D01*
X438616Y227411D01*
X438652Y227455D01*
X438716Y227580D01*
X439627Y229780D01*
X442200Y232353D01*
X445561Y233745D01*
X464439Y233745D01*
X467800Y232353D01*
X470373Y229780D01*
X471765Y226419D01*
X471765Y222781D01*
X470373Y219420D01*
X467800Y216847D01*
X464439Y215455D01*
X445561Y215455D01*
X442200Y216847D01*
X439627Y219420D01*
X438716Y221620D01*
X438687Y221669D01*
X438666Y221722D01*
X438618Y221783D01*
X438578Y221849D01*
X438536Y221887D01*
X438500Y221932D01*
X438437Y221976D01*
X438379Y222028D01*
X438327Y222052D01*
X438280Y222084D01*
X438206Y222107D01*
X438136Y222140D01*
X438079Y222147D01*
X438025Y222164D01*
X437885Y222175D01*
X403115Y222175D01*
X403058Y222167D01*
X403001Y222168D01*
X402927Y222147D01*
X402850Y222135D01*
X402799Y222111D01*
X402744Y222095D01*
X402679Y222053D01*
X402609Y222020D01*
X402567Y221981D01*
X402519Y221950D01*
X402470Y221891D01*
X402413Y221838D01*
X402384Y221789D01*
X402348Y221745D01*
X402284Y221620D01*
X401373Y219420D01*
X398800Y216847D01*
X395439Y215455D01*
X376561Y215455D01*
G37*
%LPD*%
%LPC*%
G36*
X376561Y190055D02*
X376561Y190055D01*
X373200Y191447D01*
X370627Y194020D01*
X369235Y197381D01*
X369235Y201019D01*
X370627Y204380D01*
X373200Y206953D01*
X376561Y208345D01*
X395439Y208345D01*
X398800Y206953D01*
X401373Y204380D01*
X402284Y202180D01*
X402313Y202131D01*
X402334Y202078D01*
X402382Y202017D01*
X402422Y201951D01*
X402464Y201913D01*
X402500Y201868D01*
X402563Y201824D01*
X402621Y201772D01*
X402673Y201748D01*
X402720Y201716D01*
X402794Y201693D01*
X402864Y201660D01*
X402921Y201653D01*
X402975Y201636D01*
X403115Y201625D01*
X437885Y201625D01*
X437942Y201633D01*
X437999Y201632D01*
X438073Y201653D01*
X438150Y201665D01*
X438201Y201689D01*
X438256Y201705D01*
X438321Y201747D01*
X438391Y201780D01*
X438433Y201819D01*
X438481Y201850D01*
X438530Y201909D01*
X438587Y201962D01*
X438616Y202011D01*
X438652Y202055D01*
X438716Y202180D01*
X439627Y204380D01*
X442200Y206953D01*
X445561Y208345D01*
X464439Y208345D01*
X467800Y206953D01*
X470373Y204380D01*
X471765Y201019D01*
X471765Y197381D01*
X470373Y194020D01*
X467800Y191447D01*
X464439Y190055D01*
X445561Y190055D01*
X442200Y191447D01*
X439627Y194020D01*
X438716Y196220D01*
X438687Y196269D01*
X438666Y196322D01*
X438618Y196383D01*
X438578Y196449D01*
X438536Y196487D01*
X438500Y196532D01*
X438437Y196576D01*
X438379Y196628D01*
X438327Y196652D01*
X438280Y196684D01*
X438206Y196707D01*
X438136Y196740D01*
X438079Y196747D01*
X438025Y196764D01*
X437885Y196775D01*
X403115Y196775D01*
X403058Y196767D01*
X403001Y196768D01*
X402927Y196747D01*
X402850Y196735D01*
X402799Y196711D01*
X402744Y196695D01*
X402679Y196653D01*
X402609Y196620D01*
X402567Y196581D01*
X402519Y196550D01*
X402470Y196491D01*
X402413Y196438D01*
X402384Y196389D01*
X402348Y196345D01*
X402284Y196220D01*
X401373Y194020D01*
X398800Y191447D01*
X395439Y190055D01*
X376561Y190055D01*
G37*
%LPD*%
%LPC*%
G36*
X376561Y164655D02*
X376561Y164655D01*
X373200Y166047D01*
X370627Y168620D01*
X369235Y171981D01*
X369235Y175619D01*
X370627Y178980D01*
X373200Y181553D01*
X376561Y182945D01*
X395439Y182945D01*
X398800Y181553D01*
X401373Y178980D01*
X402284Y176780D01*
X402313Y176731D01*
X402334Y176678D01*
X402382Y176617D01*
X402422Y176551D01*
X402464Y176513D01*
X402500Y176468D01*
X402563Y176424D01*
X402621Y176372D01*
X402673Y176348D01*
X402720Y176316D01*
X402794Y176293D01*
X402864Y176260D01*
X402921Y176253D01*
X402975Y176236D01*
X403115Y176225D01*
X437885Y176225D01*
X437942Y176233D01*
X437999Y176232D01*
X438073Y176253D01*
X438150Y176265D01*
X438201Y176289D01*
X438256Y176305D01*
X438321Y176347D01*
X438391Y176380D01*
X438433Y176419D01*
X438481Y176450D01*
X438530Y176509D01*
X438587Y176562D01*
X438616Y176611D01*
X438652Y176655D01*
X438716Y176780D01*
X439627Y178980D01*
X442200Y181553D01*
X445561Y182945D01*
X464439Y182945D01*
X467800Y181553D01*
X470373Y178980D01*
X471765Y175619D01*
X471765Y171981D01*
X470373Y168620D01*
X467800Y166047D01*
X464439Y164655D01*
X445561Y164655D01*
X442200Y166047D01*
X439627Y168620D01*
X438716Y170820D01*
X438687Y170869D01*
X438666Y170922D01*
X438618Y170983D01*
X438578Y171049D01*
X438536Y171087D01*
X438500Y171132D01*
X438437Y171176D01*
X438379Y171228D01*
X438327Y171252D01*
X438280Y171284D01*
X438206Y171307D01*
X438136Y171340D01*
X438079Y171347D01*
X438025Y171364D01*
X437885Y171375D01*
X403115Y171375D01*
X403058Y171367D01*
X403001Y171368D01*
X402927Y171347D01*
X402850Y171335D01*
X402799Y171311D01*
X402744Y171295D01*
X402679Y171253D01*
X402609Y171220D01*
X402567Y171181D01*
X402519Y171150D01*
X402470Y171091D01*
X402413Y171038D01*
X402384Y170989D01*
X402348Y170945D01*
X402284Y170820D01*
X401373Y168620D01*
X398800Y166047D01*
X395439Y164655D01*
X376561Y164655D01*
G37*
%LPD*%
%LPC*%
G36*
X376561Y88455D02*
X376561Y88455D01*
X373200Y89847D01*
X370627Y92420D01*
X369235Y95781D01*
X369235Y99419D01*
X370627Y102780D01*
X373200Y105353D01*
X376561Y106745D01*
X395439Y106745D01*
X398800Y105353D01*
X401373Y102780D01*
X402284Y100580D01*
X402313Y100531D01*
X402334Y100478D01*
X402382Y100417D01*
X402422Y100351D01*
X402464Y100313D01*
X402500Y100268D01*
X402563Y100224D01*
X402621Y100172D01*
X402673Y100148D01*
X402720Y100116D01*
X402794Y100093D01*
X402864Y100060D01*
X402921Y100053D01*
X402975Y100036D01*
X403115Y100025D01*
X437885Y100025D01*
X437942Y100033D01*
X437999Y100032D01*
X438073Y100053D01*
X438150Y100065D01*
X438201Y100089D01*
X438256Y100105D01*
X438321Y100147D01*
X438391Y100180D01*
X438433Y100219D01*
X438481Y100250D01*
X438530Y100309D01*
X438587Y100362D01*
X438616Y100411D01*
X438652Y100455D01*
X438716Y100580D01*
X439627Y102780D01*
X442200Y105353D01*
X445561Y106745D01*
X464439Y106745D01*
X467800Y105353D01*
X470373Y102780D01*
X471765Y99419D01*
X471765Y95781D01*
X470373Y92420D01*
X467800Y89847D01*
X464439Y88455D01*
X445561Y88455D01*
X442200Y89847D01*
X439627Y92420D01*
X438716Y94620D01*
X438687Y94669D01*
X438666Y94722D01*
X438618Y94783D01*
X438578Y94849D01*
X438536Y94887D01*
X438500Y94932D01*
X438437Y94976D01*
X438379Y95028D01*
X438327Y95052D01*
X438280Y95084D01*
X438206Y95107D01*
X438136Y95140D01*
X438079Y95147D01*
X438025Y95164D01*
X437885Y95175D01*
X403115Y95175D01*
X403058Y95167D01*
X403001Y95168D01*
X402927Y95147D01*
X402850Y95135D01*
X402799Y95111D01*
X402744Y95095D01*
X402679Y95053D01*
X402609Y95020D01*
X402567Y94981D01*
X402519Y94950D01*
X402470Y94891D01*
X402413Y94838D01*
X402384Y94789D01*
X402348Y94745D01*
X402284Y94620D01*
X401373Y92420D01*
X398800Y89847D01*
X395439Y88455D01*
X376561Y88455D01*
G37*
%LPD*%
%LPC*%
G36*
X376561Y113855D02*
X376561Y113855D01*
X373200Y115247D01*
X370627Y117820D01*
X369235Y121181D01*
X369235Y124819D01*
X370627Y128180D01*
X373200Y130753D01*
X376561Y132145D01*
X395439Y132145D01*
X398800Y130753D01*
X401373Y128180D01*
X402284Y125980D01*
X402313Y125931D01*
X402334Y125878D01*
X402382Y125817D01*
X402422Y125751D01*
X402464Y125713D01*
X402500Y125668D01*
X402563Y125624D01*
X402621Y125572D01*
X402673Y125548D01*
X402720Y125516D01*
X402794Y125493D01*
X402864Y125460D01*
X402921Y125453D01*
X402975Y125436D01*
X403115Y125425D01*
X437885Y125425D01*
X437942Y125433D01*
X437999Y125432D01*
X438073Y125453D01*
X438150Y125465D01*
X438201Y125489D01*
X438256Y125505D01*
X438321Y125547D01*
X438391Y125580D01*
X438433Y125619D01*
X438481Y125650D01*
X438530Y125709D01*
X438587Y125762D01*
X438616Y125811D01*
X438652Y125855D01*
X438716Y125980D01*
X439627Y128180D01*
X442200Y130753D01*
X445561Y132145D01*
X464439Y132145D01*
X467800Y130753D01*
X470373Y128180D01*
X471765Y124819D01*
X471765Y121181D01*
X470373Y117820D01*
X467800Y115247D01*
X464439Y113855D01*
X445561Y113855D01*
X442200Y115247D01*
X439627Y117820D01*
X438716Y120020D01*
X438687Y120069D01*
X438666Y120122D01*
X438618Y120183D01*
X438578Y120249D01*
X438536Y120287D01*
X438500Y120332D01*
X438437Y120376D01*
X438379Y120428D01*
X438327Y120452D01*
X438280Y120484D01*
X438206Y120507D01*
X438136Y120540D01*
X438079Y120547D01*
X438025Y120564D01*
X437885Y120575D01*
X403115Y120575D01*
X403058Y120567D01*
X403001Y120568D01*
X402927Y120547D01*
X402850Y120535D01*
X402799Y120511D01*
X402744Y120495D01*
X402679Y120453D01*
X402609Y120420D01*
X402567Y120381D01*
X402519Y120350D01*
X402470Y120291D01*
X402413Y120238D01*
X402384Y120189D01*
X402348Y120145D01*
X402284Y120020D01*
X401373Y117820D01*
X398800Y115247D01*
X395439Y113855D01*
X376561Y113855D01*
G37*
%LPD*%
%LPC*%
G36*
X376561Y240855D02*
X376561Y240855D01*
X373200Y242247D01*
X370627Y244820D01*
X369235Y248181D01*
X369235Y251819D01*
X370627Y255180D01*
X373200Y257753D01*
X376561Y259145D01*
X395439Y259145D01*
X398800Y257753D01*
X401373Y255180D01*
X402284Y252980D01*
X402313Y252931D01*
X402334Y252878D01*
X402382Y252817D01*
X402422Y252751D01*
X402464Y252713D01*
X402500Y252668D01*
X402563Y252624D01*
X402621Y252572D01*
X402673Y252548D01*
X402720Y252516D01*
X402794Y252493D01*
X402864Y252460D01*
X402921Y252453D01*
X402975Y252436D01*
X403115Y252425D01*
X437885Y252425D01*
X437942Y252433D01*
X437999Y252432D01*
X438073Y252453D01*
X438150Y252465D01*
X438201Y252489D01*
X438256Y252505D01*
X438321Y252547D01*
X438391Y252580D01*
X438433Y252619D01*
X438481Y252650D01*
X438530Y252709D01*
X438587Y252762D01*
X438616Y252811D01*
X438652Y252855D01*
X438716Y252980D01*
X439627Y255180D01*
X442200Y257753D01*
X445561Y259145D01*
X464439Y259145D01*
X467800Y257753D01*
X470373Y255180D01*
X471765Y251819D01*
X471765Y248181D01*
X470373Y244820D01*
X467800Y242247D01*
X464439Y240855D01*
X445561Y240855D01*
X442200Y242247D01*
X439627Y244820D01*
X438716Y247020D01*
X438688Y247067D01*
X438671Y247110D01*
X438666Y247122D01*
X438618Y247183D01*
X438578Y247249D01*
X438536Y247287D01*
X438500Y247332D01*
X438437Y247376D01*
X438379Y247428D01*
X438327Y247452D01*
X438280Y247484D01*
X438206Y247507D01*
X438136Y247540D01*
X438079Y247547D01*
X438025Y247564D01*
X437885Y247575D01*
X403115Y247575D01*
X403058Y247567D01*
X403001Y247568D01*
X402927Y247547D01*
X402850Y247535D01*
X402799Y247511D01*
X402744Y247495D01*
X402679Y247453D01*
X402609Y247420D01*
X402567Y247381D01*
X402519Y247350D01*
X402470Y247291D01*
X402413Y247238D01*
X402384Y247189D01*
X402348Y247145D01*
X402284Y247020D01*
X401373Y244820D01*
X398800Y242247D01*
X395439Y240855D01*
X376561Y240855D01*
G37*
%LPD*%
%LPC*%
G36*
X376561Y139255D02*
X376561Y139255D01*
X373200Y140647D01*
X370627Y143220D01*
X369235Y146581D01*
X369235Y150219D01*
X370627Y153580D01*
X373200Y156153D01*
X376561Y157545D01*
X395439Y157545D01*
X398800Y156153D01*
X401373Y153580D01*
X402284Y151380D01*
X402313Y151331D01*
X402334Y151278D01*
X402382Y151217D01*
X402422Y151151D01*
X402464Y151113D01*
X402500Y151068D01*
X402563Y151024D01*
X402621Y150972D01*
X402673Y150948D01*
X402720Y150916D01*
X402794Y150893D01*
X402864Y150860D01*
X402921Y150853D01*
X402975Y150836D01*
X403115Y150825D01*
X437885Y150825D01*
X437942Y150833D01*
X437999Y150832D01*
X438073Y150853D01*
X438150Y150865D01*
X438201Y150889D01*
X438256Y150905D01*
X438321Y150947D01*
X438391Y150980D01*
X438433Y151019D01*
X438481Y151050D01*
X438530Y151109D01*
X438587Y151162D01*
X438616Y151211D01*
X438652Y151255D01*
X438716Y151380D01*
X439627Y153580D01*
X442200Y156153D01*
X445561Y157545D01*
X464439Y157545D01*
X467800Y156153D01*
X470373Y153580D01*
X471765Y150219D01*
X471765Y146581D01*
X470373Y143220D01*
X467800Y140647D01*
X464439Y139255D01*
X445561Y139255D01*
X442200Y140647D01*
X439627Y143220D01*
X438716Y145420D01*
X438689Y145466D01*
X438678Y145494D01*
X438676Y145496D01*
X438666Y145522D01*
X438618Y145583D01*
X438578Y145649D01*
X438536Y145687D01*
X438500Y145732D01*
X438437Y145776D01*
X438379Y145828D01*
X438327Y145852D01*
X438280Y145884D01*
X438206Y145907D01*
X438136Y145940D01*
X438079Y145947D01*
X438025Y145964D01*
X437885Y145975D01*
X403115Y145975D01*
X403058Y145967D01*
X403001Y145968D01*
X402927Y145947D01*
X402850Y145935D01*
X402799Y145911D01*
X402744Y145895D01*
X402679Y145853D01*
X402609Y145820D01*
X402567Y145781D01*
X402519Y145750D01*
X402470Y145691D01*
X402413Y145638D01*
X402384Y145589D01*
X402348Y145545D01*
X402284Y145420D01*
X401373Y143220D01*
X398800Y140647D01*
X395439Y139255D01*
X376561Y139255D01*
G37*
%LPD*%
%LPC*%
G36*
X376561Y266255D02*
X376561Y266255D01*
X373200Y267647D01*
X370627Y270220D01*
X369235Y273581D01*
X369235Y277219D01*
X370627Y280580D01*
X373200Y283153D01*
X376561Y284545D01*
X395439Y284545D01*
X398800Y283153D01*
X401373Y280580D01*
X402284Y278380D01*
X402313Y278331D01*
X402334Y278278D01*
X402382Y278217D01*
X402422Y278151D01*
X402464Y278113D01*
X402500Y278068D01*
X402563Y278024D01*
X402621Y277972D01*
X402673Y277948D01*
X402720Y277916D01*
X402794Y277893D01*
X402864Y277860D01*
X402921Y277853D01*
X402975Y277836D01*
X403115Y277825D01*
X437885Y277825D01*
X437942Y277833D01*
X437999Y277832D01*
X438073Y277853D01*
X438150Y277865D01*
X438201Y277889D01*
X438256Y277905D01*
X438321Y277947D01*
X438391Y277980D01*
X438433Y278019D01*
X438481Y278050D01*
X438530Y278109D01*
X438587Y278162D01*
X438616Y278211D01*
X438652Y278255D01*
X438716Y278380D01*
X439627Y280580D01*
X442200Y283153D01*
X445561Y284545D01*
X464439Y284545D01*
X467800Y283153D01*
X470373Y280580D01*
X471765Y277219D01*
X471765Y273581D01*
X470373Y270220D01*
X467800Y267647D01*
X464439Y266255D01*
X445561Y266255D01*
X442200Y267647D01*
X439627Y270220D01*
X438716Y272420D01*
X438687Y272469D01*
X438666Y272522D01*
X438618Y272583D01*
X438578Y272649D01*
X438536Y272687D01*
X438500Y272732D01*
X438437Y272776D01*
X438379Y272828D01*
X438327Y272852D01*
X438280Y272884D01*
X438206Y272907D01*
X438136Y272940D01*
X438079Y272947D01*
X438025Y272964D01*
X437885Y272975D01*
X403115Y272975D01*
X403058Y272967D01*
X403001Y272968D01*
X402927Y272947D01*
X402850Y272935D01*
X402799Y272911D01*
X402744Y272895D01*
X402679Y272853D01*
X402609Y272820D01*
X402567Y272781D01*
X402519Y272750D01*
X402470Y272691D01*
X402413Y272638D01*
X402384Y272589D01*
X402347Y272545D01*
X402284Y272420D01*
X401373Y270220D01*
X398800Y267647D01*
X395439Y266255D01*
X376561Y266255D01*
G37*
%LPD*%
%LPC*%
G36*
X376561Y444055D02*
X376561Y444055D01*
X373200Y445447D01*
X370627Y448020D01*
X369235Y451381D01*
X369235Y455019D01*
X370627Y458380D01*
X373200Y460953D01*
X376561Y462345D01*
X395439Y462345D01*
X398800Y460953D01*
X401373Y458380D01*
X402284Y456180D01*
X402313Y456131D01*
X402334Y456078D01*
X402382Y456017D01*
X402422Y455951D01*
X402464Y455913D01*
X402500Y455868D01*
X402563Y455824D01*
X402621Y455772D01*
X402673Y455748D01*
X402720Y455716D01*
X402794Y455693D01*
X402864Y455660D01*
X402921Y455653D01*
X402975Y455636D01*
X403115Y455625D01*
X437885Y455625D01*
X437942Y455633D01*
X437999Y455632D01*
X438073Y455653D01*
X438150Y455665D01*
X438201Y455689D01*
X438256Y455705D01*
X438321Y455747D01*
X438391Y455780D01*
X438433Y455819D01*
X438481Y455850D01*
X438530Y455909D01*
X438587Y455962D01*
X438616Y456011D01*
X438652Y456055D01*
X438716Y456180D01*
X439627Y458380D01*
X442200Y460953D01*
X445561Y462345D01*
X464439Y462345D01*
X467800Y460953D01*
X470373Y458380D01*
X471765Y455019D01*
X471765Y451381D01*
X470373Y448020D01*
X467800Y445447D01*
X464439Y444055D01*
X445561Y444055D01*
X442200Y445447D01*
X439627Y448020D01*
X438716Y450220D01*
X438687Y450269D01*
X438666Y450322D01*
X438618Y450383D01*
X438578Y450449D01*
X438536Y450487D01*
X438500Y450532D01*
X438437Y450576D01*
X438379Y450628D01*
X438327Y450652D01*
X438280Y450684D01*
X438206Y450707D01*
X438136Y450740D01*
X438079Y450747D01*
X438025Y450764D01*
X437885Y450775D01*
X403115Y450775D01*
X403058Y450767D01*
X403001Y450768D01*
X402927Y450747D01*
X402850Y450735D01*
X402799Y450711D01*
X402744Y450695D01*
X402679Y450653D01*
X402609Y450620D01*
X402567Y450581D01*
X402519Y450550D01*
X402470Y450491D01*
X402413Y450438D01*
X402384Y450389D01*
X402347Y450345D01*
X402284Y450220D01*
X401373Y448020D01*
X398800Y445447D01*
X395439Y444055D01*
X376561Y444055D01*
G37*
%LPD*%
%LPC*%
G36*
X376561Y342455D02*
X376561Y342455D01*
X373200Y343847D01*
X370627Y346420D01*
X369235Y349781D01*
X369235Y353419D01*
X370627Y356780D01*
X373200Y359353D01*
X376561Y360745D01*
X395439Y360745D01*
X398800Y359353D01*
X401373Y356780D01*
X402284Y354580D01*
X402313Y354531D01*
X402334Y354478D01*
X402382Y354417D01*
X402422Y354351D01*
X402464Y354313D01*
X402500Y354268D01*
X402563Y354224D01*
X402621Y354172D01*
X402673Y354148D01*
X402720Y354116D01*
X402794Y354093D01*
X402864Y354060D01*
X402921Y354053D01*
X402975Y354036D01*
X403115Y354025D01*
X437885Y354025D01*
X437942Y354033D01*
X437999Y354032D01*
X438073Y354053D01*
X438150Y354065D01*
X438201Y354089D01*
X438256Y354105D01*
X438321Y354147D01*
X438391Y354180D01*
X438433Y354219D01*
X438481Y354250D01*
X438530Y354309D01*
X438587Y354362D01*
X438616Y354411D01*
X438652Y354455D01*
X438716Y354580D01*
X439627Y356780D01*
X442200Y359353D01*
X445561Y360745D01*
X464439Y360745D01*
X467800Y359353D01*
X470373Y356780D01*
X471765Y353419D01*
X471765Y349781D01*
X470373Y346420D01*
X467800Y343847D01*
X464439Y342455D01*
X445561Y342455D01*
X442200Y343847D01*
X439627Y346420D01*
X438716Y348620D01*
X438687Y348669D01*
X438666Y348722D01*
X438618Y348783D01*
X438578Y348849D01*
X438536Y348887D01*
X438500Y348932D01*
X438437Y348976D01*
X438379Y349028D01*
X438327Y349052D01*
X438280Y349084D01*
X438206Y349107D01*
X438136Y349140D01*
X438079Y349147D01*
X438025Y349164D01*
X437885Y349175D01*
X403115Y349175D01*
X403058Y349167D01*
X403001Y349168D01*
X402927Y349147D01*
X402850Y349135D01*
X402799Y349111D01*
X402744Y349095D01*
X402679Y349053D01*
X402609Y349020D01*
X402567Y348981D01*
X402519Y348950D01*
X402470Y348891D01*
X402413Y348838D01*
X402384Y348789D01*
X402347Y348745D01*
X402284Y348620D01*
X401373Y346420D01*
X398800Y343847D01*
X395439Y342455D01*
X376561Y342455D01*
G37*
%LPD*%
%LPC*%
G36*
X376561Y291655D02*
X376561Y291655D01*
X373200Y293047D01*
X370627Y295620D01*
X369235Y298981D01*
X369235Y302619D01*
X370627Y305980D01*
X373200Y308553D01*
X376561Y309945D01*
X395439Y309945D01*
X398800Y308553D01*
X401373Y305980D01*
X402284Y303780D01*
X402313Y303731D01*
X402334Y303678D01*
X402382Y303617D01*
X402422Y303551D01*
X402464Y303513D01*
X402500Y303468D01*
X402563Y303424D01*
X402621Y303372D01*
X402673Y303348D01*
X402720Y303316D01*
X402794Y303293D01*
X402864Y303260D01*
X402921Y303253D01*
X402975Y303236D01*
X403115Y303225D01*
X437885Y303225D01*
X437942Y303233D01*
X437999Y303232D01*
X438073Y303253D01*
X438150Y303265D01*
X438201Y303289D01*
X438256Y303305D01*
X438321Y303347D01*
X438391Y303380D01*
X438433Y303419D01*
X438481Y303450D01*
X438530Y303509D01*
X438587Y303562D01*
X438616Y303611D01*
X438652Y303655D01*
X438716Y303780D01*
X439627Y305980D01*
X442200Y308553D01*
X445561Y309945D01*
X464439Y309945D01*
X467800Y308553D01*
X470373Y305980D01*
X471765Y302619D01*
X471765Y298981D01*
X470373Y295620D01*
X467800Y293047D01*
X464439Y291655D01*
X445561Y291655D01*
X442200Y293047D01*
X439627Y295620D01*
X438716Y297820D01*
X438687Y297869D01*
X438666Y297922D01*
X438618Y297983D01*
X438578Y298049D01*
X438536Y298087D01*
X438500Y298132D01*
X438437Y298176D01*
X438379Y298228D01*
X438327Y298252D01*
X438280Y298284D01*
X438206Y298307D01*
X438136Y298340D01*
X438079Y298347D01*
X438025Y298364D01*
X437885Y298375D01*
X403115Y298375D01*
X403058Y298367D01*
X403001Y298368D01*
X402927Y298347D01*
X402850Y298335D01*
X402799Y298311D01*
X402744Y298295D01*
X402679Y298253D01*
X402609Y298220D01*
X402567Y298181D01*
X402519Y298150D01*
X402470Y298091D01*
X402413Y298038D01*
X402384Y297989D01*
X402347Y297945D01*
X402284Y297820D01*
X401373Y295620D01*
X398800Y293047D01*
X395439Y291655D01*
X376561Y291655D01*
G37*
%LPD*%
%LPC*%
G36*
X376561Y418655D02*
X376561Y418655D01*
X373200Y420047D01*
X370627Y422620D01*
X369235Y425981D01*
X369235Y429619D01*
X370627Y432980D01*
X373200Y435553D01*
X376561Y436945D01*
X395439Y436945D01*
X398800Y435553D01*
X401373Y432980D01*
X402284Y430780D01*
X402313Y430731D01*
X402334Y430678D01*
X402382Y430617D01*
X402422Y430551D01*
X402464Y430513D01*
X402500Y430468D01*
X402563Y430424D01*
X402621Y430372D01*
X402673Y430348D01*
X402720Y430316D01*
X402794Y430293D01*
X402864Y430260D01*
X402921Y430253D01*
X402975Y430236D01*
X403115Y430225D01*
X437885Y430225D01*
X437942Y430233D01*
X437999Y430232D01*
X438073Y430253D01*
X438150Y430265D01*
X438201Y430289D01*
X438256Y430305D01*
X438321Y430347D01*
X438391Y430380D01*
X438433Y430419D01*
X438481Y430450D01*
X438530Y430509D01*
X438587Y430562D01*
X438616Y430611D01*
X438652Y430655D01*
X438716Y430780D01*
X439627Y432980D01*
X442200Y435553D01*
X445561Y436945D01*
X464439Y436945D01*
X467800Y435553D01*
X470373Y432980D01*
X471765Y429619D01*
X471765Y425981D01*
X470373Y422620D01*
X467800Y420047D01*
X464439Y418655D01*
X445561Y418655D01*
X442200Y420047D01*
X439627Y422620D01*
X438716Y424820D01*
X438687Y424869D01*
X438666Y424922D01*
X438618Y424983D01*
X438578Y425049D01*
X438536Y425087D01*
X438500Y425132D01*
X438437Y425176D01*
X438379Y425228D01*
X438327Y425252D01*
X438280Y425284D01*
X438206Y425307D01*
X438136Y425340D01*
X438079Y425347D01*
X438025Y425364D01*
X437885Y425375D01*
X403115Y425375D01*
X403058Y425367D01*
X403001Y425368D01*
X402927Y425347D01*
X402850Y425335D01*
X402799Y425311D01*
X402744Y425295D01*
X402679Y425253D01*
X402609Y425220D01*
X402567Y425181D01*
X402519Y425150D01*
X402470Y425091D01*
X402413Y425038D01*
X402384Y424989D01*
X402347Y424945D01*
X402284Y424820D01*
X401373Y422620D01*
X398800Y420047D01*
X395439Y418655D01*
X376561Y418655D01*
G37*
%LPD*%
%LPC*%
G36*
X191968Y720575D02*
X191968Y720575D01*
X191075Y721468D01*
X191075Y731280D01*
X191061Y731378D01*
X191053Y731477D01*
X191041Y731510D01*
X191035Y731545D01*
X190993Y731634D01*
X190957Y731726D01*
X190935Y731754D01*
X190920Y731786D01*
X190852Y731858D01*
X190791Y731936D01*
X190762Y731956D01*
X190738Y731982D01*
X190652Y732032D01*
X190571Y732088D01*
X190537Y732099D01*
X190507Y732116D01*
X190410Y732139D01*
X190316Y732168D01*
X190264Y732172D01*
X190246Y732177D01*
X190228Y732175D01*
X190176Y732179D01*
X127224Y732179D01*
X127126Y732165D01*
X127027Y732157D01*
X126994Y732145D01*
X126959Y732139D01*
X126870Y732097D01*
X126778Y732061D01*
X126750Y732039D01*
X126718Y732024D01*
X126646Y731956D01*
X126568Y731895D01*
X126548Y731866D01*
X126522Y731842D01*
X126472Y731756D01*
X126416Y731675D01*
X126405Y731641D01*
X126388Y731611D01*
X126365Y731514D01*
X126336Y731420D01*
X126332Y731368D01*
X126327Y731350D01*
X126329Y731332D01*
X126325Y731280D01*
X126325Y730018D01*
X125432Y729125D01*
X118168Y729125D01*
X117275Y730018D01*
X117275Y739782D01*
X118168Y740675D01*
X125432Y740675D01*
X126325Y739782D01*
X126325Y737928D01*
X126339Y737830D01*
X126347Y737731D01*
X126359Y737698D01*
X126365Y737663D01*
X126407Y737574D01*
X126443Y737482D01*
X126465Y737454D01*
X126480Y737422D01*
X126548Y737350D01*
X126609Y737272D01*
X126638Y737252D01*
X126662Y737226D01*
X126748Y737176D01*
X126829Y737120D01*
X126863Y737109D01*
X126893Y737092D01*
X126990Y737069D01*
X127084Y737040D01*
X127136Y737036D01*
X127154Y737031D01*
X127172Y737033D01*
X127224Y737029D01*
X190176Y737029D01*
X190274Y737043D01*
X190373Y737051D01*
X190406Y737063D01*
X190441Y737069D01*
X190530Y737111D01*
X190622Y737147D01*
X190650Y737169D01*
X190682Y737184D01*
X190754Y737252D01*
X190832Y737313D01*
X190852Y737342D01*
X190878Y737366D01*
X190928Y737452D01*
X190984Y737533D01*
X190995Y737567D01*
X191012Y737597D01*
X191034Y737690D01*
X191968Y738625D01*
X206232Y738625D01*
X207125Y737732D01*
X207125Y721468D01*
X206232Y720575D01*
X191968Y720575D01*
G37*
%LPD*%
%LPC*%
G36*
X318281Y948535D02*
X318281Y948535D01*
X314920Y949927D01*
X312347Y952500D01*
X310955Y955861D01*
X310955Y974739D01*
X312347Y978100D01*
X314920Y980673D01*
X318281Y982065D01*
X321919Y982065D01*
X325280Y980673D01*
X327853Y978100D01*
X329245Y974739D01*
X329245Y955861D01*
X327853Y952500D01*
X325280Y949927D01*
X321919Y948535D01*
X318281Y948535D01*
G37*
%LPD*%
%LPC*%
G36*
X394481Y948535D02*
X394481Y948535D01*
X391120Y949927D01*
X388547Y952500D01*
X387155Y955861D01*
X387155Y974739D01*
X388547Y978100D01*
X391120Y980673D01*
X394481Y982065D01*
X398119Y982065D01*
X401480Y980673D01*
X404053Y978100D01*
X405445Y974739D01*
X405445Y955861D01*
X404053Y952500D01*
X401480Y949927D01*
X398119Y948535D01*
X394481Y948535D01*
G37*
%LPD*%
%LPC*%
G36*
X369081Y948535D02*
X369081Y948535D01*
X365720Y949927D01*
X363147Y952500D01*
X361755Y955861D01*
X361755Y974739D01*
X363147Y978100D01*
X365720Y980673D01*
X369081Y982065D01*
X372719Y982065D01*
X376080Y980673D01*
X378653Y978100D01*
X380045Y974739D01*
X380045Y955861D01*
X378653Y952500D01*
X376080Y949927D01*
X372719Y948535D01*
X369081Y948535D01*
G37*
%LPD*%
%LPC*%
G36*
X31661Y817355D02*
X31661Y817355D01*
X28300Y818747D01*
X25727Y821320D01*
X24335Y824681D01*
X24335Y828319D01*
X25727Y831680D01*
X28300Y834253D01*
X31661Y835645D01*
X50539Y835645D01*
X53900Y834253D01*
X56473Y831680D01*
X57865Y828319D01*
X57865Y824681D01*
X56473Y821320D01*
X53900Y818747D01*
X50539Y817355D01*
X31661Y817355D01*
G37*
%LPD*%
%LPC*%
G36*
X31661Y791955D02*
X31661Y791955D01*
X28300Y793347D01*
X25727Y795920D01*
X24335Y799281D01*
X24335Y802919D01*
X25727Y806280D01*
X28300Y808853D01*
X31661Y810245D01*
X50539Y810245D01*
X53900Y808853D01*
X56473Y806280D01*
X57865Y802919D01*
X57865Y799281D01*
X56473Y795920D01*
X53900Y793347D01*
X50539Y791955D01*
X31661Y791955D01*
G37*
%LPD*%
%LPC*%
G36*
X31661Y766555D02*
X31661Y766555D01*
X28300Y767947D01*
X25727Y770520D01*
X24335Y773881D01*
X24335Y777519D01*
X25727Y780880D01*
X28300Y783453D01*
X31661Y784845D01*
X50539Y784845D01*
X53900Y783453D01*
X56473Y780880D01*
X57865Y777519D01*
X57865Y773881D01*
X56473Y770520D01*
X53900Y767947D01*
X50539Y766555D01*
X31661Y766555D01*
G37*
%LPD*%
%LPC*%
G36*
X122561Y444055D02*
X122561Y444055D01*
X119200Y445447D01*
X116627Y448020D01*
X115235Y451381D01*
X115235Y455019D01*
X116627Y458380D01*
X119200Y460953D01*
X122561Y462345D01*
X141439Y462345D01*
X144800Y460953D01*
X147373Y458380D01*
X148765Y455019D01*
X148765Y451381D01*
X147373Y448020D01*
X144800Y445447D01*
X141439Y444055D01*
X122561Y444055D01*
G37*
%LPD*%
%LPC*%
G36*
X31661Y614155D02*
X31661Y614155D01*
X28300Y615547D01*
X25727Y618120D01*
X24335Y621481D01*
X24335Y625119D01*
X25727Y628480D01*
X28300Y631053D01*
X31661Y632445D01*
X50539Y632445D01*
X53900Y631053D01*
X56473Y628480D01*
X57865Y625119D01*
X57865Y621481D01*
X56473Y618120D01*
X53900Y615547D01*
X50539Y614155D01*
X31661Y614155D01*
G37*
%LPD*%
%LPC*%
G36*
X445561Y12255D02*
X445561Y12255D01*
X442200Y13647D01*
X439627Y16220D01*
X438235Y19581D01*
X438235Y23219D01*
X439627Y26580D01*
X442200Y29153D01*
X445561Y30545D01*
X464439Y30545D01*
X467800Y29153D01*
X470373Y26580D01*
X471765Y23219D01*
X471765Y19581D01*
X470373Y16220D01*
X467800Y13647D01*
X464439Y12255D01*
X445561Y12255D01*
G37*
%LPD*%
%LPC*%
G36*
X36561Y37655D02*
X36561Y37655D01*
X33200Y39047D01*
X30627Y41620D01*
X29235Y44981D01*
X29235Y48619D01*
X30627Y51980D01*
X33200Y54553D01*
X36561Y55945D01*
X55439Y55945D01*
X58800Y54553D01*
X61373Y51980D01*
X62765Y48619D01*
X62765Y44981D01*
X61373Y41620D01*
X58800Y39047D01*
X55439Y37655D01*
X36561Y37655D01*
G37*
%LPD*%
%LPC*%
G36*
X376561Y12255D02*
X376561Y12255D01*
X373200Y13647D01*
X370627Y16220D01*
X369235Y19581D01*
X369235Y23219D01*
X370627Y26580D01*
X373200Y29153D01*
X376561Y30545D01*
X395439Y30545D01*
X398800Y29153D01*
X401373Y26580D01*
X402765Y23219D01*
X402765Y19581D01*
X401373Y16220D01*
X398800Y13647D01*
X395439Y12255D01*
X376561Y12255D01*
G37*
%LPD*%
%LPC*%
G36*
X376561Y37655D02*
X376561Y37655D01*
X373200Y39047D01*
X370627Y41620D01*
X369235Y44981D01*
X369235Y48619D01*
X370627Y51980D01*
X373200Y54553D01*
X376561Y55945D01*
X395439Y55945D01*
X398800Y54553D01*
X401373Y51980D01*
X402765Y48619D01*
X402765Y44981D01*
X401373Y41620D01*
X398800Y39047D01*
X395439Y37655D01*
X376561Y37655D01*
G37*
%LPD*%
%LPC*%
G36*
X445561Y37655D02*
X445561Y37655D01*
X442200Y39047D01*
X439627Y41620D01*
X438235Y44981D01*
X438235Y48619D01*
X439627Y51980D01*
X442200Y54553D01*
X445561Y55945D01*
X464439Y55945D01*
X467800Y54553D01*
X470373Y51980D01*
X471765Y48619D01*
X471765Y44981D01*
X470373Y41620D01*
X467800Y39047D01*
X464439Y37655D01*
X445561Y37655D01*
G37*
%LPD*%
%LPC*%
G36*
X445561Y317055D02*
X445561Y317055D01*
X442200Y318447D01*
X439627Y321020D01*
X438235Y324381D01*
X438235Y328019D01*
X439627Y331380D01*
X442200Y333953D01*
X445561Y335345D01*
X464439Y335345D01*
X467800Y333953D01*
X470373Y331380D01*
X471765Y328019D01*
X471765Y324381D01*
X470373Y321020D01*
X467800Y318447D01*
X464439Y317055D01*
X445561Y317055D01*
G37*
%LPD*%
%LPC*%
G36*
X376561Y317055D02*
X376561Y317055D01*
X373200Y318447D01*
X370627Y321020D01*
X369235Y324381D01*
X369235Y328019D01*
X370627Y331380D01*
X373200Y333953D01*
X376561Y335345D01*
X395439Y335345D01*
X398800Y333953D01*
X401373Y331380D01*
X402765Y328019D01*
X402765Y324381D01*
X401373Y321020D01*
X398800Y318447D01*
X395439Y317055D01*
X376561Y317055D01*
G37*
%LPD*%
%LPC*%
G36*
X36561Y63055D02*
X36561Y63055D01*
X33200Y64447D01*
X30627Y67020D01*
X29235Y70381D01*
X29235Y74019D01*
X30627Y77380D01*
X33200Y79953D01*
X36561Y81345D01*
X55439Y81345D01*
X58800Y79953D01*
X61373Y77380D01*
X62765Y74019D01*
X62765Y70381D01*
X61373Y67020D01*
X58800Y64447D01*
X55439Y63055D01*
X36561Y63055D01*
G37*
%LPD*%
%LPC*%
G36*
X376561Y63055D02*
X376561Y63055D01*
X373200Y64447D01*
X370627Y67020D01*
X369235Y70381D01*
X369235Y74019D01*
X370627Y77380D01*
X373200Y79953D01*
X376561Y81345D01*
X395439Y81345D01*
X398800Y79953D01*
X401373Y77380D01*
X402765Y74019D01*
X402765Y70381D01*
X401373Y67020D01*
X398800Y64447D01*
X395439Y63055D01*
X376561Y63055D01*
G37*
%LPD*%
%LPC*%
G36*
X445561Y63055D02*
X445561Y63055D01*
X442200Y64447D01*
X439627Y67020D01*
X438235Y70381D01*
X438235Y74019D01*
X439627Y77380D01*
X442200Y79953D01*
X445561Y81345D01*
X464439Y81345D01*
X467800Y79953D01*
X470373Y77380D01*
X471765Y74019D01*
X471765Y70381D01*
X470373Y67020D01*
X467800Y64447D01*
X464439Y63055D01*
X445561Y63055D01*
G37*
%LPD*%
%LPC*%
G36*
X36561Y444055D02*
X36561Y444055D01*
X33200Y445447D01*
X30627Y448020D01*
X29235Y451381D01*
X29235Y455019D01*
X30627Y458380D01*
X33200Y460953D01*
X36561Y462345D01*
X55439Y462345D01*
X58800Y460953D01*
X61373Y458380D01*
X62765Y455019D01*
X62765Y451381D01*
X61373Y448020D01*
X58800Y445447D01*
X55439Y444055D01*
X36561Y444055D01*
G37*
%LPD*%
%LPC*%
G36*
X122561Y63055D02*
X122561Y63055D01*
X119200Y64447D01*
X116627Y67020D01*
X115235Y70381D01*
X115235Y74019D01*
X116627Y77380D01*
X119200Y79953D01*
X122561Y81345D01*
X141439Y81345D01*
X144800Y79953D01*
X147373Y77380D01*
X148765Y74019D01*
X148765Y70381D01*
X147373Y67020D01*
X144800Y64447D01*
X141439Y63055D01*
X122561Y63055D01*
G37*
%LPD*%
%LPC*%
G36*
X376561Y367855D02*
X376561Y367855D01*
X373200Y369247D01*
X370627Y371820D01*
X369235Y375181D01*
X369235Y378819D01*
X370627Y382180D01*
X373200Y384753D01*
X376561Y386145D01*
X395439Y386145D01*
X398800Y384753D01*
X401373Y382180D01*
X402765Y378819D01*
X402765Y375181D01*
X401373Y371820D01*
X398800Y369247D01*
X395439Y367855D01*
X376561Y367855D01*
G37*
%LPD*%
%LPC*%
G36*
X445561Y367855D02*
X445561Y367855D01*
X442200Y369247D01*
X439627Y371820D01*
X438235Y375181D01*
X438235Y378819D01*
X439627Y382180D01*
X442200Y384753D01*
X445561Y386145D01*
X464439Y386145D01*
X467800Y384753D01*
X470373Y382180D01*
X471765Y378819D01*
X471765Y375181D01*
X470373Y371820D01*
X467800Y369247D01*
X464439Y367855D01*
X445561Y367855D01*
G37*
%LPD*%
%LPC*%
G36*
X122561Y393255D02*
X122561Y393255D01*
X119200Y394647D01*
X116627Y397220D01*
X115235Y400581D01*
X115235Y404219D01*
X116627Y407580D01*
X119200Y410153D01*
X122561Y411545D01*
X141439Y411545D01*
X144800Y410153D01*
X147373Y407580D01*
X148765Y404219D01*
X148765Y400581D01*
X147373Y397220D01*
X144800Y394647D01*
X141439Y393255D01*
X122561Y393255D01*
G37*
%LPD*%
%LPC*%
G36*
X376561Y393255D02*
X376561Y393255D01*
X373200Y394647D01*
X370627Y397220D01*
X369235Y400581D01*
X369235Y404219D01*
X370627Y407580D01*
X373200Y410153D01*
X376561Y411545D01*
X395439Y411545D01*
X398800Y410153D01*
X401373Y407580D01*
X402765Y404219D01*
X402765Y400581D01*
X401373Y397220D01*
X398800Y394647D01*
X395439Y393255D01*
X376561Y393255D01*
G37*
%LPD*%
%LPC*%
G36*
X445561Y393255D02*
X445561Y393255D01*
X442200Y394647D01*
X439627Y397220D01*
X438235Y400581D01*
X438235Y404219D01*
X439627Y407580D01*
X442200Y410153D01*
X445561Y411545D01*
X464439Y411545D01*
X467800Y410153D01*
X470373Y407580D01*
X471765Y404219D01*
X471765Y400581D01*
X470373Y397220D01*
X467800Y394647D01*
X464439Y393255D01*
X445561Y393255D01*
G37*
%LPD*%
%LPC*%
G36*
X36561Y393255D02*
X36561Y393255D01*
X33200Y394647D01*
X30627Y397220D01*
X29235Y400581D01*
X29235Y404219D01*
X30627Y407580D01*
X33200Y410153D01*
X36561Y411545D01*
X55439Y411545D01*
X58800Y410153D01*
X61373Y407580D01*
X62765Y404219D01*
X62765Y400581D01*
X61373Y397220D01*
X58800Y394647D01*
X55439Y393255D01*
X36561Y393255D01*
G37*
%LPD*%
%LPC*%
G36*
X122561Y88455D02*
X122561Y88455D01*
X119200Y89847D01*
X116627Y92420D01*
X115235Y95781D01*
X115235Y99419D01*
X116627Y102780D01*
X119200Y105353D01*
X122561Y106745D01*
X141439Y106745D01*
X144800Y105353D01*
X147373Y102780D01*
X148765Y99419D01*
X148765Y95781D01*
X147373Y92420D01*
X144800Y89847D01*
X141439Y88455D01*
X122561Y88455D01*
G37*
%LPD*%
%LPC*%
G36*
X36561Y88455D02*
X36561Y88455D01*
X33200Y89847D01*
X30627Y92420D01*
X29235Y95781D01*
X29235Y99419D01*
X30627Y102780D01*
X33200Y105353D01*
X36561Y106745D01*
X55439Y106745D01*
X58800Y105353D01*
X61373Y102780D01*
X62765Y99419D01*
X62765Y95781D01*
X61373Y92420D01*
X58800Y89847D01*
X55439Y88455D01*
X36561Y88455D01*
G37*
%LPD*%
%LPC*%
G36*
X36561Y418655D02*
X36561Y418655D01*
X33200Y420047D01*
X30627Y422620D01*
X29235Y425981D01*
X29235Y429619D01*
X30627Y432980D01*
X33200Y435553D01*
X36561Y436945D01*
X55439Y436945D01*
X58800Y435553D01*
X61373Y432980D01*
X62765Y429619D01*
X62765Y425981D01*
X61373Y422620D01*
X58800Y420047D01*
X55439Y418655D01*
X36561Y418655D01*
G37*
%LPD*%
%LPC*%
G36*
X122561Y418655D02*
X122561Y418655D01*
X119200Y420047D01*
X116627Y422620D01*
X115235Y425981D01*
X115235Y429619D01*
X116627Y432980D01*
X119200Y435553D01*
X122561Y436945D01*
X141439Y436945D01*
X144800Y435553D01*
X147373Y432980D01*
X148765Y429619D01*
X148765Y425981D01*
X147373Y422620D01*
X144800Y420047D01*
X141439Y418655D01*
X122561Y418655D01*
G37*
%LPD*%
%LPC*%
G36*
X332857Y612780D02*
X332857Y612780D01*
X330907Y613588D01*
X329414Y615081D01*
X328606Y617031D01*
X328606Y619143D01*
X329414Y621093D01*
X330907Y622586D01*
X331082Y622658D01*
X331131Y622688D01*
X331184Y622708D01*
X331245Y622756D01*
X331311Y622796D01*
X331349Y622839D01*
X331394Y622874D01*
X331438Y622938D01*
X331490Y622996D01*
X331514Y623047D01*
X331546Y623094D01*
X331569Y623168D01*
X331602Y623238D01*
X331609Y623295D01*
X331626Y623349D01*
X331637Y623489D01*
X331637Y635234D01*
X331635Y635248D01*
X331637Y635263D01*
X331615Y635380D01*
X331597Y635498D01*
X331591Y635512D01*
X331589Y635526D01*
X331533Y635632D01*
X331482Y635740D01*
X331472Y635750D01*
X331465Y635763D01*
X331374Y635870D01*
X331175Y636068D01*
X331175Y649332D01*
X332068Y650225D01*
X339332Y650225D01*
X340225Y649332D01*
X340225Y636068D01*
X339332Y635175D01*
X337386Y635175D01*
X337288Y635161D01*
X337189Y635153D01*
X337156Y635141D01*
X337121Y635135D01*
X337032Y635093D01*
X336940Y635057D01*
X336912Y635035D01*
X336880Y635020D01*
X336808Y634952D01*
X336730Y634891D01*
X336710Y634862D01*
X336684Y634838D01*
X336634Y634752D01*
X336578Y634671D01*
X336567Y634637D01*
X336550Y634607D01*
X336527Y634510D01*
X336498Y634416D01*
X336494Y634364D01*
X336489Y634346D01*
X336491Y634328D01*
X336487Y634276D01*
X336487Y623366D01*
X336495Y623309D01*
X336494Y623252D01*
X336515Y623178D01*
X336527Y623101D01*
X336551Y623050D01*
X336567Y622995D01*
X336609Y622930D01*
X336642Y622860D01*
X336681Y622818D01*
X336712Y622770D01*
X336771Y622721D01*
X336824Y622664D01*
X336865Y622640D01*
X338412Y621093D01*
X339220Y619143D01*
X339220Y617031D01*
X338412Y615081D01*
X336919Y613588D01*
X334969Y612780D01*
X332857Y612780D01*
G37*
%LPD*%
%LPC*%
G36*
X347299Y967099D02*
X347299Y967099D01*
X347299Y982922D01*
X347879Y982831D01*
X349400Y982336D01*
X350825Y981610D01*
X352119Y980670D01*
X353250Y979539D01*
X354190Y978245D01*
X354916Y976820D01*
X355411Y975299D01*
X355661Y973720D01*
X355661Y967099D01*
X347299Y967099D01*
G37*
%LPD*%
%LPC*%
G36*
X42899Y853699D02*
X42899Y853699D01*
X42899Y862061D01*
X49520Y862061D01*
X51099Y861811D01*
X52620Y861316D01*
X54045Y860590D01*
X55339Y859650D01*
X56470Y858519D01*
X57410Y857225D01*
X58136Y855800D01*
X58631Y854279D01*
X58722Y853699D01*
X42899Y853699D01*
G37*
%LPD*%
%LPC*%
G36*
X456799Y480399D02*
X456799Y480399D01*
X456799Y488761D01*
X463420Y488761D01*
X464999Y488511D01*
X466520Y488016D01*
X467945Y487290D01*
X469239Y486350D01*
X470370Y485219D01*
X471310Y483925D01*
X472036Y482500D01*
X472531Y480979D01*
X472622Y480399D01*
X456799Y480399D01*
G37*
%LPD*%
%LPC*%
G36*
X387799Y480399D02*
X387799Y480399D01*
X387799Y488761D01*
X394420Y488761D01*
X395999Y488511D01*
X397520Y488016D01*
X398945Y487290D01*
X400239Y486350D01*
X401370Y485219D01*
X402310Y483925D01*
X403036Y482500D01*
X403531Y480979D01*
X403622Y480399D01*
X387799Y480399D01*
G37*
%LPD*%
%LPC*%
G36*
X133799Y353399D02*
X133799Y353399D01*
X133799Y361761D01*
X140420Y361761D01*
X141999Y361511D01*
X143520Y361016D01*
X144945Y360290D01*
X146239Y359350D01*
X147370Y358219D01*
X148310Y356925D01*
X149036Y355500D01*
X149531Y353979D01*
X149622Y353399D01*
X133799Y353399D01*
G37*
%LPD*%
%LPC*%
G36*
X47799Y353399D02*
X47799Y353399D01*
X47799Y361761D01*
X54420Y361761D01*
X55999Y361511D01*
X57520Y361016D01*
X58945Y360290D01*
X60239Y359350D01*
X61370Y358219D01*
X62310Y356925D01*
X63036Y355500D01*
X63531Y353979D01*
X63622Y353399D01*
X47799Y353399D01*
G37*
%LPD*%
%LPC*%
G36*
X437378Y480399D02*
X437378Y480399D01*
X437469Y480979D01*
X437964Y482500D01*
X438690Y483925D01*
X439630Y485219D01*
X440761Y486350D01*
X442055Y487290D01*
X443480Y488016D01*
X445001Y488511D01*
X446580Y488761D01*
X453201Y488761D01*
X453201Y480399D01*
X437378Y480399D01*
G37*
%LPD*%
%LPC*%
G36*
X23478Y853699D02*
X23478Y853699D01*
X23569Y854279D01*
X24064Y855800D01*
X24790Y857225D01*
X25730Y858519D01*
X26861Y859650D01*
X28155Y860590D01*
X29580Y861316D01*
X31101Y861811D01*
X32680Y862061D01*
X39301Y862061D01*
X39301Y853699D01*
X23478Y853699D01*
G37*
%LPD*%
%LPC*%
G36*
X368378Y480399D02*
X368378Y480399D01*
X368469Y480979D01*
X368964Y482500D01*
X369690Y483925D01*
X370630Y485219D01*
X371761Y486350D01*
X373055Y487290D01*
X374480Y488016D01*
X376001Y488511D01*
X377580Y488761D01*
X384201Y488761D01*
X384201Y480399D01*
X368378Y480399D01*
G37*
%LPD*%
%LPC*%
G36*
X28378Y353399D02*
X28378Y353399D01*
X28469Y353979D01*
X28964Y355500D01*
X29690Y356925D01*
X30630Y358219D01*
X31761Y359350D01*
X33055Y360290D01*
X34480Y361016D01*
X36001Y361511D01*
X37580Y361761D01*
X44201Y361761D01*
X44201Y353399D01*
X28378Y353399D01*
G37*
%LPD*%
%LPC*%
G36*
X114378Y353399D02*
X114378Y353399D01*
X114469Y353979D01*
X114964Y355500D01*
X115690Y356925D01*
X116630Y358219D01*
X117761Y359350D01*
X119055Y360290D01*
X120480Y361016D01*
X122001Y361511D01*
X123580Y361761D01*
X130201Y361761D01*
X130201Y353399D01*
X114378Y353399D01*
G37*
%LPD*%
%LPC*%
G36*
X347299Y963501D02*
X347299Y963501D01*
X355661Y963501D01*
X355661Y956880D01*
X355411Y955301D01*
X354916Y953780D01*
X354190Y952355D01*
X353250Y951061D01*
X352119Y949930D01*
X350825Y948990D01*
X349400Y948264D01*
X347879Y947769D01*
X347299Y947678D01*
X347299Y963501D01*
G37*
%LPD*%
%LPC*%
G36*
X335339Y967099D02*
X335339Y967099D01*
X335339Y973720D01*
X335589Y975299D01*
X336084Y976820D01*
X336810Y978245D01*
X337750Y979539D01*
X338881Y980670D01*
X340175Y981610D01*
X341600Y982336D01*
X343121Y982831D01*
X343701Y982922D01*
X343701Y967099D01*
X335339Y967099D01*
G37*
%LPD*%
%LPC*%
G36*
X42899Y841739D02*
X42899Y841739D01*
X42899Y850101D01*
X58722Y850101D01*
X58631Y849521D01*
X58136Y848000D01*
X57410Y846575D01*
X56470Y845281D01*
X55339Y844150D01*
X54045Y843210D01*
X52620Y842484D01*
X51099Y841989D01*
X49520Y841739D01*
X42899Y841739D01*
G37*
%LPD*%
%LPC*%
G36*
X133799Y341439D02*
X133799Y341439D01*
X133799Y349801D01*
X149622Y349801D01*
X149531Y349221D01*
X149036Y347700D01*
X148310Y346275D01*
X147370Y344981D01*
X146239Y343850D01*
X144945Y342910D01*
X143520Y342184D01*
X141999Y341689D01*
X140420Y341439D01*
X133799Y341439D01*
G37*
%LPD*%
%LPC*%
G36*
X47799Y341439D02*
X47799Y341439D01*
X47799Y349801D01*
X63622Y349801D01*
X63531Y349221D01*
X63036Y347700D01*
X62310Y346275D01*
X61370Y344981D01*
X60239Y343850D01*
X58945Y342910D01*
X57520Y342184D01*
X55999Y341689D01*
X54420Y341439D01*
X47799Y341439D01*
G37*
%LPD*%
%LPC*%
G36*
X387799Y468439D02*
X387799Y468439D01*
X387799Y476801D01*
X403622Y476801D01*
X403531Y476221D01*
X403036Y474700D01*
X402310Y473274D01*
X401370Y471981D01*
X400239Y470850D01*
X398945Y469910D01*
X397520Y469184D01*
X395999Y468689D01*
X394420Y468439D01*
X387799Y468439D01*
G37*
%LPD*%
%LPC*%
G36*
X456799Y468439D02*
X456799Y468439D01*
X456799Y476801D01*
X472622Y476801D01*
X472531Y476221D01*
X472036Y474700D01*
X471310Y473274D01*
X470370Y471981D01*
X469239Y470850D01*
X467945Y469910D01*
X466520Y469184D01*
X464999Y468689D01*
X463420Y468439D01*
X456799Y468439D01*
G37*
%LPD*%
%LPC*%
G36*
X343121Y947769D02*
X343121Y947769D01*
X341600Y948264D01*
X340175Y948990D01*
X338881Y949930D01*
X337750Y951061D01*
X336810Y952355D01*
X336084Y953780D01*
X335589Y955301D01*
X335339Y956880D01*
X335339Y963501D01*
X343701Y963501D01*
X343701Y947678D01*
X343121Y947769D01*
G37*
%LPD*%
%LPC*%
G36*
X32680Y841739D02*
X32680Y841739D01*
X31101Y841989D01*
X29580Y842484D01*
X28155Y843210D01*
X26861Y844150D01*
X25730Y845281D01*
X24790Y846575D01*
X24064Y848000D01*
X23569Y849521D01*
X23478Y850101D01*
X39301Y850101D01*
X39301Y841739D01*
X32680Y841739D01*
G37*
%LPD*%
%LPC*%
G36*
X37580Y341439D02*
X37580Y341439D01*
X36001Y341689D01*
X34480Y342184D01*
X33055Y342910D01*
X31761Y343850D01*
X30630Y344981D01*
X29690Y346275D01*
X28964Y347700D01*
X28469Y349221D01*
X28378Y349801D01*
X44201Y349801D01*
X44201Y341439D01*
X37580Y341439D01*
G37*
%LPD*%
%LPC*%
G36*
X123580Y341439D02*
X123580Y341439D01*
X122001Y341689D01*
X120480Y342184D01*
X119055Y342910D01*
X117761Y343850D01*
X116630Y344981D01*
X115690Y346275D01*
X114964Y347700D01*
X114469Y349221D01*
X114378Y349801D01*
X130201Y349801D01*
X130201Y341439D01*
X123580Y341439D01*
G37*
%LPD*%
%LPC*%
G36*
X377580Y468439D02*
X377580Y468439D01*
X376001Y468689D01*
X374480Y469184D01*
X373055Y469910D01*
X371761Y470850D01*
X370630Y471981D01*
X369690Y473274D01*
X368964Y474700D01*
X368469Y476221D01*
X368378Y476801D01*
X384201Y476801D01*
X384201Y468439D01*
X377580Y468439D01*
G37*
%LPD*%
%LPC*%
G36*
X446580Y468439D02*
X446580Y468439D01*
X445001Y468689D01*
X443480Y469184D01*
X442055Y469910D01*
X440761Y470850D01*
X439630Y471981D01*
X438690Y473274D01*
X437964Y474700D01*
X437469Y476221D01*
X437378Y476801D01*
X453201Y476801D01*
X453201Y468439D01*
X446580Y468439D01*
G37*
%LPD*%
%LPC*%
G36*
X520799Y606799D02*
X520799Y606799D01*
X520799Y615541D01*
X530835Y615541D01*
X531481Y615368D01*
X532060Y615033D01*
X532533Y614560D01*
X532868Y613981D01*
X533041Y613335D01*
X533041Y606799D01*
X520799Y606799D01*
G37*
%LPD*%
%LPC*%
G36*
X519899Y693699D02*
X519899Y693699D01*
X519899Y702441D01*
X529935Y702441D01*
X530581Y702268D01*
X531160Y701933D01*
X531633Y701460D01*
X531968Y700881D01*
X532141Y700235D01*
X532141Y693699D01*
X519899Y693699D01*
G37*
%LPD*%
%LPC*%
G36*
X504059Y693699D02*
X504059Y693699D01*
X504059Y700235D01*
X504232Y700881D01*
X504567Y701460D01*
X505040Y701933D01*
X505619Y702268D01*
X506265Y702441D01*
X516301Y702441D01*
X516301Y693699D01*
X504059Y693699D01*
G37*
%LPD*%
%LPC*%
G36*
X504959Y606799D02*
X504959Y606799D01*
X504959Y613335D01*
X505132Y613981D01*
X505467Y614560D01*
X505940Y615033D01*
X506519Y615368D01*
X507165Y615541D01*
X517201Y615541D01*
X517201Y606799D01*
X504959Y606799D01*
G37*
%LPD*%
%LPC*%
G36*
X519899Y681359D02*
X519899Y681359D01*
X519899Y690101D01*
X532141Y690101D01*
X532141Y683565D01*
X531968Y682919D01*
X531633Y682340D01*
X531160Y681867D01*
X530581Y681532D01*
X529935Y681359D01*
X519899Y681359D01*
G37*
%LPD*%
%LPC*%
G36*
X520799Y594459D02*
X520799Y594459D01*
X520799Y603201D01*
X533041Y603201D01*
X533041Y596665D01*
X532868Y596019D01*
X532533Y595440D01*
X532060Y594967D01*
X531481Y594632D01*
X530835Y594459D01*
X520799Y594459D01*
G37*
%LPD*%
%LPC*%
G36*
X507165Y594459D02*
X507165Y594459D01*
X506519Y594632D01*
X505940Y594967D01*
X505467Y595440D01*
X505132Y596019D01*
X504959Y596665D01*
X504959Y603201D01*
X517201Y603201D01*
X517201Y594459D01*
X507165Y594459D01*
G37*
%LPD*%
%LPC*%
G36*
X506265Y681359D02*
X506265Y681359D01*
X505619Y681532D01*
X505040Y681867D01*
X504567Y682340D01*
X504232Y682919D01*
X504059Y683565D01*
X504059Y690101D01*
X516301Y690101D01*
X516301Y681359D01*
X506265Y681359D01*
G37*
%LPD*%
%LPC*%
G36*
X307999Y852599D02*
X307999Y852599D01*
X307999Y864091D01*
X314285Y864091D01*
X314931Y863918D01*
X315510Y863583D01*
X315983Y863110D01*
X316318Y862531D01*
X316491Y861885D01*
X316491Y852599D01*
X307999Y852599D01*
G37*
%LPD*%
%LPC*%
G36*
X295909Y852599D02*
X295909Y852599D01*
X295909Y861885D01*
X296082Y862531D01*
X296417Y863110D01*
X296890Y863583D01*
X297469Y863918D01*
X298115Y864091D01*
X304401Y864091D01*
X304401Y852599D01*
X295909Y852599D01*
G37*
%LPD*%
%LPC*%
G36*
X307999Y837509D02*
X307999Y837509D01*
X307999Y849001D01*
X316491Y849001D01*
X316491Y839715D01*
X316318Y839069D01*
X315983Y838490D01*
X315510Y838017D01*
X314931Y837682D01*
X314285Y837509D01*
X307999Y837509D01*
G37*
%LPD*%
%LPC*%
G36*
X298115Y837509D02*
X298115Y837509D01*
X297469Y837682D01*
X296890Y838017D01*
X296417Y838490D01*
X296082Y839069D01*
X295909Y839715D01*
X295909Y849001D01*
X304401Y849001D01*
X304401Y837509D01*
X298115Y837509D01*
G37*
%LPD*%
%LPC*%
G36*
X130199Y660199D02*
X130199Y660199D01*
X130199Y668441D01*
X135235Y668441D01*
X135881Y668268D01*
X136460Y667933D01*
X136933Y667460D01*
X137268Y666881D01*
X137441Y666235D01*
X137441Y660199D01*
X130199Y660199D01*
G37*
%LPD*%
%LPC*%
G36*
X278199Y661199D02*
X278199Y661199D01*
X278199Y669441D01*
X283235Y669441D01*
X283881Y669268D01*
X284460Y668933D01*
X284933Y668460D01*
X285268Y667881D01*
X285441Y667235D01*
X285441Y661199D01*
X278199Y661199D01*
G37*
%LPD*%
%LPC*%
G36*
X181099Y660699D02*
X181099Y660699D01*
X181099Y668941D01*
X186135Y668941D01*
X186781Y668768D01*
X187360Y668433D01*
X187833Y667960D01*
X188168Y667381D01*
X188341Y666735D01*
X188341Y660699D01*
X181099Y660699D01*
G37*
%LPD*%
%LPC*%
G36*
X124899Y849399D02*
X124899Y849399D01*
X124899Y857641D01*
X129935Y857641D01*
X130581Y857468D01*
X131160Y857133D01*
X131633Y856660D01*
X131968Y856081D01*
X132141Y855435D01*
X132141Y849399D01*
X124899Y849399D01*
G37*
%LPD*%
%LPC*%
G36*
X234899Y849399D02*
X234899Y849399D01*
X234899Y857641D01*
X239935Y857641D01*
X240581Y857468D01*
X241160Y857133D01*
X241633Y856660D01*
X241968Y856081D01*
X242141Y855435D01*
X242141Y849399D01*
X234899Y849399D01*
G37*
%LPD*%
%LPC*%
G36*
X169199Y849199D02*
X169199Y849199D01*
X169199Y857441D01*
X174235Y857441D01*
X174881Y857268D01*
X175460Y856933D01*
X175933Y856460D01*
X176268Y855881D01*
X176441Y855235D01*
X176441Y849199D01*
X169199Y849199D01*
G37*
%LPD*%
%LPC*%
G36*
X170259Y660699D02*
X170259Y660699D01*
X170259Y666735D01*
X170432Y667381D01*
X170767Y667960D01*
X171240Y668433D01*
X171819Y668768D01*
X172465Y668941D01*
X177501Y668941D01*
X177501Y660699D01*
X170259Y660699D01*
G37*
%LPD*%
%LPC*%
G36*
X119359Y660199D02*
X119359Y660199D01*
X119359Y666235D01*
X119532Y666881D01*
X119867Y667460D01*
X120340Y667933D01*
X120919Y668268D01*
X121565Y668441D01*
X126601Y668441D01*
X126601Y660199D01*
X119359Y660199D01*
G37*
%LPD*%
%LPC*%
G36*
X158359Y849199D02*
X158359Y849199D01*
X158359Y855235D01*
X158532Y855881D01*
X158867Y856460D01*
X159340Y856933D01*
X159919Y857268D01*
X160565Y857441D01*
X165601Y857441D01*
X165601Y849199D01*
X158359Y849199D01*
G37*
%LPD*%
%LPC*%
G36*
X224059Y849399D02*
X224059Y849399D01*
X224059Y855435D01*
X224232Y856081D01*
X224567Y856660D01*
X225040Y857133D01*
X225619Y857468D01*
X226265Y857641D01*
X231301Y857641D01*
X231301Y849399D01*
X224059Y849399D01*
G37*
%LPD*%
%LPC*%
G36*
X278199Y649359D02*
X278199Y649359D01*
X278199Y657601D01*
X285441Y657601D01*
X285441Y651565D01*
X285268Y650919D01*
X284933Y650340D01*
X284460Y649867D01*
X283881Y649532D01*
X283235Y649359D01*
X278199Y649359D01*
G37*
%LPD*%
%LPC*%
G36*
X181099Y648859D02*
X181099Y648859D01*
X181099Y657101D01*
X188341Y657101D01*
X188341Y651065D01*
X188168Y650419D01*
X187833Y649840D01*
X187360Y649367D01*
X186781Y649032D01*
X186135Y648859D01*
X181099Y648859D01*
G37*
%LPD*%
%LPC*%
G36*
X169199Y837359D02*
X169199Y837359D01*
X169199Y845601D01*
X176441Y845601D01*
X176441Y839565D01*
X176268Y838919D01*
X175933Y838340D01*
X175460Y837867D01*
X174881Y837532D01*
X174235Y837359D01*
X169199Y837359D01*
G37*
%LPD*%
%LPC*%
G36*
X234899Y837559D02*
X234899Y837559D01*
X234899Y845801D01*
X242141Y845801D01*
X242141Y839765D01*
X241968Y839119D01*
X241633Y838540D01*
X241160Y838067D01*
X240581Y837732D01*
X239935Y837559D01*
X234899Y837559D01*
G37*
%LPD*%
%LPC*%
G36*
X124899Y837559D02*
X124899Y837559D01*
X124899Y845801D01*
X132141Y845801D01*
X132141Y839765D01*
X131968Y839119D01*
X131633Y838540D01*
X131160Y838067D01*
X130581Y837732D01*
X129935Y837559D01*
X124899Y837559D01*
G37*
%LPD*%
%LPC*%
G36*
X130199Y648359D02*
X130199Y648359D01*
X130199Y656601D01*
X137441Y656601D01*
X137441Y650565D01*
X137268Y649919D01*
X136933Y649340D01*
X136460Y648867D01*
X135881Y648532D01*
X135235Y648359D01*
X130199Y648359D01*
G37*
%LPD*%
%LPC*%
G36*
X269565Y649359D02*
X269565Y649359D01*
X268919Y649532D01*
X268340Y649867D01*
X267867Y650340D01*
X267532Y650919D01*
X267359Y651565D01*
X267359Y657601D01*
X274601Y657601D01*
X274601Y649359D01*
X269565Y649359D01*
G37*
%LPD*%
%LPC*%
G36*
X172465Y648859D02*
X172465Y648859D01*
X171819Y649032D01*
X171240Y649367D01*
X170767Y649840D01*
X170432Y650419D01*
X170259Y651065D01*
X170259Y657101D01*
X177501Y657101D01*
X177501Y648859D01*
X172465Y648859D01*
G37*
%LPD*%
%LPC*%
G36*
X160565Y837359D02*
X160565Y837359D01*
X159919Y837532D01*
X159340Y837867D01*
X158867Y838340D01*
X158532Y838919D01*
X158359Y839565D01*
X158359Y845601D01*
X165601Y845601D01*
X165601Y837359D01*
X160565Y837359D01*
G37*
%LPD*%
%LPC*%
G36*
X226265Y837559D02*
X226265Y837559D01*
X225619Y837732D01*
X225040Y838067D01*
X224567Y838540D01*
X224232Y839119D01*
X224059Y839765D01*
X224059Y845801D01*
X231301Y845801D01*
X231301Y837559D01*
X226265Y837559D01*
G37*
%LPD*%
%LPC*%
G36*
X116265Y837559D02*
X116265Y837559D01*
X115619Y837732D01*
X115040Y838067D01*
X114567Y838540D01*
X114232Y839119D01*
X114059Y839765D01*
X114059Y845801D01*
X121301Y845801D01*
X121301Y837559D01*
X116265Y837559D01*
G37*
%LPD*%
%LPC*%
G36*
X121565Y648359D02*
X121565Y648359D01*
X120919Y648532D01*
X120340Y648867D01*
X119867Y649340D01*
X119532Y649919D01*
X119359Y650565D01*
X119359Y656601D01*
X126601Y656601D01*
X126601Y648359D01*
X121565Y648359D01*
G37*
%LPD*%
%LPC*%
G36*
X132799Y711399D02*
X132799Y711399D01*
X132799Y716691D01*
X134635Y716691D01*
X135281Y716518D01*
X135860Y716183D01*
X136333Y715710D01*
X136668Y715131D01*
X136841Y714485D01*
X136841Y711399D01*
X132799Y711399D01*
G37*
%LPD*%
%LPC*%
G36*
X132799Y703109D02*
X132799Y703109D01*
X132799Y708401D01*
X136841Y708401D01*
X136841Y705315D01*
X136668Y704669D01*
X136333Y704090D01*
X135860Y703617D01*
X135281Y703282D01*
X134635Y703109D01*
X132799Y703109D01*
G37*
%LPD*%
%LPC*%
G36*
X125759Y711399D02*
X125759Y711399D01*
X125759Y714485D01*
X125932Y715131D01*
X126267Y715710D01*
X126740Y716183D01*
X127319Y716518D01*
X127965Y716691D01*
X129801Y716691D01*
X129801Y711399D01*
X125759Y711399D01*
G37*
%LPD*%
%LPC*%
G36*
X127965Y703109D02*
X127965Y703109D01*
X127319Y703282D01*
X126740Y703617D01*
X126267Y704090D01*
X125932Y704669D01*
X125759Y705315D01*
X125759Y708401D01*
X129801Y708401D01*
X129801Y703109D01*
X127965Y703109D01*
G37*
%LPD*%
%LPC*%
G36*
X345499Y965299D02*
X345499Y965299D01*
X345499Y965301D01*
X345501Y965301D01*
X345501Y965299D01*
X345499Y965299D01*
G37*
%LPD*%
%LPC*%
G36*
X45999Y351599D02*
X45999Y351599D01*
X45999Y351601D01*
X46001Y351601D01*
X46001Y351599D01*
X45999Y351599D01*
G37*
%LPD*%
%LPC*%
G36*
X41099Y851899D02*
X41099Y851899D01*
X41099Y851901D01*
X41101Y851901D01*
X41101Y851899D01*
X41099Y851899D01*
G37*
%LPD*%
%LPC*%
G36*
X454999Y478599D02*
X454999Y478599D01*
X454999Y478601D01*
X455001Y478601D01*
X455001Y478599D01*
X454999Y478599D01*
G37*
%LPD*%
%LPC*%
G36*
X131999Y351599D02*
X131999Y351599D01*
X131999Y351601D01*
X132001Y351601D01*
X132001Y351599D01*
X131999Y351599D01*
G37*
%LPD*%
%LPC*%
G36*
X385999Y478599D02*
X385999Y478599D01*
X385999Y478601D01*
X386001Y478601D01*
X386001Y478599D01*
X385999Y478599D01*
G37*
%LPD*%
%LPC*%
G36*
X123099Y847599D02*
X123099Y847599D01*
X123099Y847601D01*
X123101Y847601D01*
X123101Y847599D01*
X123099Y847599D01*
G37*
%LPD*%
%LPC*%
G36*
X276399Y659399D02*
X276399Y659399D01*
X276399Y659401D01*
X276401Y659401D01*
X276401Y659399D01*
X276399Y659399D01*
G37*
%LPD*%
%LPC*%
G36*
X179299Y658899D02*
X179299Y658899D01*
X179299Y658901D01*
X179301Y658901D01*
X179301Y658899D01*
X179299Y658899D01*
G37*
%LPD*%
%LPC*%
G36*
X306199Y850799D02*
X306199Y850799D01*
X306199Y850801D01*
X306201Y850801D01*
X306201Y850799D01*
X306199Y850799D01*
G37*
%LPD*%
%LPC*%
G36*
X128399Y658399D02*
X128399Y658399D01*
X128399Y658401D01*
X128401Y658401D01*
X128401Y658399D01*
X128399Y658399D01*
G37*
%LPD*%
%LPC*%
G36*
X518099Y691899D02*
X518099Y691899D01*
X518099Y691901D01*
X518101Y691901D01*
X518101Y691899D01*
X518099Y691899D01*
G37*
%LPD*%
%LPC*%
G36*
X518999Y604999D02*
X518999Y604999D01*
X518999Y605001D01*
X519001Y605001D01*
X519001Y604999D01*
X518999Y604999D01*
G37*
%LPD*%
%LPC*%
G36*
X233099Y847599D02*
X233099Y847599D01*
X233099Y847601D01*
X233101Y847601D01*
X233101Y847599D01*
X233099Y847599D01*
G37*
%LPD*%
%LPC*%
G36*
X167399Y847399D02*
X167399Y847399D01*
X167399Y847401D01*
X167401Y847401D01*
X167401Y847399D01*
X167399Y847399D01*
G37*
%LPD*%
D10*
X252100Y847600D03*
X233100Y847600D03*
X123100Y847600D03*
X104100Y847600D03*
X167400Y847400D03*
X186400Y847400D03*
D11*
X306200Y850800D03*
X306200Y795800D03*
D12*
X294700Y716200D03*
X301200Y716200D03*
X307700Y716200D03*
X294700Y734200D03*
X301200Y734200D03*
X307700Y734200D03*
D13*
X446000Y605000D03*
X519000Y605000D03*
X445100Y691900D03*
X518100Y691900D03*
D14*
X396300Y957680D02*
X396300Y972920D01*
X370900Y972920D02*
X370900Y957680D01*
X345500Y957680D02*
X345500Y972920D01*
X320100Y972920D02*
X320100Y957680D01*
D15*
X354700Y667700D03*
X345200Y667700D03*
X335700Y667700D03*
X335700Y642700D03*
X354700Y642700D03*
D16*
X70900Y952800D03*
D17*
X96300Y952800D03*
D18*
X112300Y709900D03*
X131300Y709900D03*
X121800Y734900D03*
D10*
X257400Y659400D03*
X276400Y659400D03*
X178800Y591900D03*
X197800Y591900D03*
X179300Y658900D03*
X198300Y658900D03*
X280100Y593100D03*
X261100Y593100D03*
X108200Y591900D03*
X127200Y591900D03*
X218100Y729600D03*
X199100Y729600D03*
X109400Y658400D03*
X128400Y658400D03*
D14*
X48720Y623300D02*
X33480Y623300D01*
X33480Y648700D02*
X48720Y648700D01*
X48720Y674100D02*
X33480Y674100D01*
X33480Y699500D02*
X48720Y699500D01*
X48720Y724900D02*
X33480Y724900D01*
X33480Y750300D02*
X48720Y750300D01*
X48720Y775700D02*
X33480Y775700D01*
X33480Y801100D02*
X48720Y801100D01*
X48720Y826500D02*
X33480Y826500D01*
X33480Y851900D02*
X48720Y851900D01*
X378380Y478600D02*
X393620Y478600D01*
X393620Y453200D02*
X378380Y453200D01*
X378380Y427800D02*
X393620Y427800D01*
X393620Y402400D02*
X378380Y402400D01*
X378380Y377000D02*
X393620Y377000D01*
X393620Y351600D02*
X378380Y351600D01*
X378380Y326200D02*
X393620Y326200D01*
X393620Y300800D02*
X378380Y300800D01*
X378380Y275400D02*
X393620Y275400D01*
X393620Y250000D02*
X378380Y250000D01*
X378380Y224600D02*
X393620Y224600D01*
X393620Y199200D02*
X378380Y199200D01*
X378380Y173800D02*
X393620Y173800D01*
X393620Y148400D02*
X378380Y148400D01*
X378380Y123000D02*
X393620Y123000D01*
X393620Y97600D02*
X378380Y97600D01*
X378380Y72200D02*
X393620Y72200D01*
X393620Y46800D02*
X378380Y46800D01*
X378380Y21400D02*
X393620Y21400D01*
X139620Y21400D02*
X124380Y21400D01*
X124380Y46800D02*
X139620Y46800D01*
X139620Y72200D02*
X124380Y72200D01*
X124380Y97600D02*
X139620Y97600D01*
X139620Y123000D02*
X124380Y123000D01*
X124380Y148400D02*
X139620Y148400D01*
X139620Y173800D02*
X124380Y173800D01*
X124380Y199200D02*
X139620Y199200D01*
X139620Y224600D02*
X124380Y224600D01*
X124380Y250000D02*
X139620Y250000D01*
X139620Y275400D02*
X124380Y275400D01*
X124380Y300800D02*
X139620Y300800D01*
X139620Y326200D02*
X124380Y326200D01*
X124380Y351600D02*
X139620Y351600D01*
X139620Y377000D02*
X124380Y377000D01*
X124380Y402400D02*
X139620Y402400D01*
X139620Y427800D02*
X124380Y427800D01*
X124380Y453200D02*
X139620Y453200D01*
X139620Y478600D02*
X124380Y478600D01*
X447380Y478600D02*
X462620Y478600D01*
X462620Y453200D02*
X447380Y453200D01*
X447380Y427800D02*
X462620Y427800D01*
X462620Y402400D02*
X447380Y402400D01*
X447380Y377000D02*
X462620Y377000D01*
X462620Y351600D02*
X447380Y351600D01*
X447380Y326200D02*
X462620Y326200D01*
X462620Y300800D02*
X447380Y300800D01*
X447380Y275400D02*
X462620Y275400D01*
X462620Y250000D02*
X447380Y250000D01*
X447380Y224600D02*
X462620Y224600D01*
X462620Y199200D02*
X447380Y199200D01*
X447380Y173800D02*
X462620Y173800D01*
X462620Y148400D02*
X447380Y148400D01*
X447380Y123000D02*
X462620Y123000D01*
X462620Y97600D02*
X447380Y97600D01*
X447380Y72200D02*
X462620Y72200D01*
X462620Y46800D02*
X447380Y46800D01*
X447380Y21400D02*
X462620Y21400D01*
X53620Y21400D02*
X38380Y21400D01*
X38380Y46800D02*
X53620Y46800D01*
X53620Y72200D02*
X38380Y72200D01*
X38380Y97600D02*
X53620Y97600D01*
X53620Y123000D02*
X38380Y123000D01*
X38380Y148400D02*
X53620Y148400D01*
X53620Y173800D02*
X38380Y173800D01*
X38380Y199200D02*
X53620Y199200D01*
X53620Y224600D02*
X38380Y224600D01*
X38380Y250000D02*
X53620Y250000D01*
X53620Y275400D02*
X38380Y275400D01*
X38380Y300800D02*
X53620Y300800D01*
X53620Y326200D02*
X38380Y326200D01*
X38380Y351600D02*
X53620Y351600D01*
X53620Y377000D02*
X38380Y377000D01*
X38380Y402400D02*
X53620Y402400D01*
X53620Y427800D02*
X38380Y427800D01*
X38380Y453200D02*
X53620Y453200D01*
X53620Y478600D02*
X38380Y478600D01*
D19*
X295836Y734604D02*
X295836Y784464D01*
X305808Y794436D01*
X295836Y734604D02*
X294700Y734200D01*
X305808Y794436D02*
X306200Y795800D01*
X281836Y942438D02*
X258624Y965650D01*
X281836Y942438D02*
X281836Y820070D01*
X305808Y796098D01*
X306200Y795800D01*
X83750Y965650D02*
X70900Y952800D01*
X83750Y965650D02*
X258624Y965650D01*
X295836Y714660D02*
X295836Y706350D01*
X299160Y703026D02*
X334062Y668124D01*
X299160Y703026D02*
X295836Y706350D01*
X295836Y714660D02*
X294700Y716200D01*
X334062Y668124D02*
X335700Y667700D01*
X282540Y727956D02*
X219384Y727956D01*
X282540Y727956D02*
X294174Y716322D01*
X219384Y727956D02*
X218100Y729600D01*
X294174Y716322D02*
X294700Y716200D01*
X299160Y701364D02*
X257610Y659814D01*
X299160Y701364D02*
X299160Y703026D01*
X257610Y659814D02*
X257400Y659400D01*
X192792Y734604D02*
X122988Y734604D01*
X192792Y734604D02*
X197778Y729618D01*
X122988Y734604D02*
X121800Y734900D01*
X197778Y729618D02*
X199100Y729600D01*
X109400Y658400D02*
X109354Y658354D01*
X109354Y658124D01*
X109400Y658400D02*
X112354Y661354D01*
X112354Y709846D02*
X112300Y709900D01*
X112354Y709846D02*
X112354Y661354D01*
X51522Y673110D02*
X41550Y673110D01*
X51522Y673110D02*
X66508Y658124D01*
X109354Y658124D01*
X41550Y673110D02*
X41100Y674100D01*
X209412Y546700D02*
X263852Y546700D01*
X280100Y572946D01*
D20*
X209412Y546700D03*
D19*
X268000Y944000D02*
X256000Y956000D01*
D20*
X248000Y821000D03*
D19*
X256000Y956000D02*
X100000Y956000D01*
X252100Y825100D02*
X268000Y841000D01*
X252100Y825100D02*
X248000Y821000D01*
X268000Y841000D02*
X268000Y944000D01*
X252100Y847600D02*
X252100Y825100D01*
X280100Y593100D02*
X280100Y572946D01*
X96300Y952800D02*
X99500Y956000D01*
X100000Y956000D01*
X334062Y641532D02*
X334062Y617938D01*
X333913Y618087D02*
X333878Y618052D01*
X333913Y618087D02*
X334062Y617938D01*
X334062Y641532D02*
X335700Y642700D01*
X109692Y591672D02*
X108200Y591900D01*
X51522Y648180D02*
X41550Y648180D01*
X107802Y591900D02*
X108200Y591900D01*
X107802Y591900D02*
X51522Y648180D01*
X41550Y648180D02*
X41100Y648700D01*
X137364Y564000D02*
X248000Y564000D01*
D20*
X248000Y564000D03*
X333913Y618087D03*
D19*
X137364Y564000D02*
X109692Y591672D01*
X132000Y199200D02*
X46000Y199200D01*
X46000Y123000D02*
X132000Y123000D01*
X132000Y224600D02*
X46000Y224600D01*
X46000Y148400D02*
X132000Y148400D01*
X132000Y173800D02*
X46000Y173800D01*
X386000Y250000D02*
X455000Y250000D01*
X455000Y224600D02*
X386000Y224600D01*
X386000Y453200D02*
X455000Y453200D01*
X132000Y326200D02*
X46000Y326200D01*
X46000Y250000D02*
X132000Y250000D01*
X132000Y275400D02*
X46000Y275400D01*
X354006Y663138D02*
X354006Y666462D01*
X354006Y663138D02*
X345696Y654828D01*
X306850Y654828D01*
X289878Y637856D01*
X219000Y637856D02*
X205736Y637856D01*
X219000Y637856D02*
X289878Y637856D01*
X354006Y666462D02*
X354700Y667700D01*
X199440Y658152D02*
X198300Y658900D01*
X179496Y611616D02*
X179496Y593334D01*
X179496Y611616D02*
X205736Y637856D01*
X179496Y593334D02*
X178800Y591900D01*
X219000Y637856D02*
X219000Y638200D01*
X198300Y658900D01*
X128214Y591672D02*
X127974Y591672D01*
X128214Y591672D02*
X144186Y575700D01*
X188806Y575700D01*
X127974Y591672D02*
X127200Y591900D01*
X354006Y643194D02*
X354700Y642700D01*
X262596Y593334D02*
X261100Y593100D01*
X260934Y591672D02*
X199440Y591672D01*
X197800Y591900D01*
X260934Y591672D02*
X261100Y593100D01*
X354700Y642700D02*
X355668Y641532D01*
X276100Y608100D02*
X261100Y593100D01*
X197800Y584694D02*
X188806Y575700D01*
X197800Y584694D02*
X197800Y591900D01*
X354700Y619700D02*
X354700Y642700D01*
X354700Y619700D02*
X343100Y608100D01*
X301000Y608100D01*
X276100Y608100D01*
X132000Y21400D02*
X46000Y21400D01*
X132000Y21400D02*
X311000Y200400D01*
X311000Y598100D02*
X301000Y608100D01*
X311000Y598100D02*
X311000Y200400D01*
X132000Y478600D02*
X46000Y478600D01*
X386000Y351600D02*
X455000Y351600D01*
X455000Y427800D02*
X386000Y427800D01*
X103044Y787788D02*
X103044Y845958D01*
X103044Y787788D02*
X41550Y726294D01*
X103044Y845958D02*
X104100Y847600D01*
X41550Y726294D02*
X41100Y724900D01*
X104100Y847600D02*
X104706Y847620D01*
X104100Y847600D02*
X163500Y907000D01*
X256000Y907000D01*
D20*
X256000Y907000D03*
X297000Y907000D03*
D19*
X340000Y907000D01*
X445100Y801900D02*
X445100Y691900D01*
X445100Y801900D02*
X340000Y907000D01*
X186144Y845958D02*
X186144Y842634D01*
X186144Y845958D02*
X186400Y847400D01*
X229294Y890294D01*
D20*
X229294Y890294D03*
X297794Y890294D03*
D19*
X51500Y699500D02*
X41100Y699500D01*
X186400Y834400D02*
X186400Y847400D01*
X186400Y834400D02*
X51500Y699500D01*
X297794Y890294D02*
X407000Y781088D01*
X407000Y630000D01*
X432000Y605000D01*
X446000Y605000D01*
X132000Y377000D02*
X46000Y377000D01*
X386000Y97600D02*
X455000Y97600D01*
X455000Y123000D02*
X386000Y123000D01*
X386000Y148400D02*
X455000Y148400D01*
X455000Y173800D02*
X386000Y173800D01*
X386000Y199200D02*
X455000Y199200D01*
X455000Y275400D02*
X386000Y275400D01*
X386000Y300800D02*
X455000Y300800D01*
X132000Y300800D02*
X46000Y300800D01*
M02*
