G04 EAGLE Gerber RS-274X export*
G75*
%MOMM*%
%FSLAX34Y34*%
%LPD*%
%IN*%
%IPPOS*%
%AMOC8*
5,1,8,0,0,1.08239X$1,22.5*%
G01*
%ADD10C,0.254000*%


D10*
X0Y0D02*
X550000Y0D01*
X550000Y1000000D01*
X0Y1000000D01*
X0Y0D01*
X76400Y927091D02*
X76331Y926477D01*
X76193Y925875D01*
X75989Y925292D01*
X75721Y924735D01*
X75393Y924212D01*
X75008Y923729D01*
X74571Y923293D01*
X74088Y922907D01*
X73565Y922579D01*
X73008Y922311D01*
X72425Y922107D01*
X71823Y921969D01*
X71209Y921900D01*
X70591Y921900D01*
X69977Y921969D01*
X69375Y922107D01*
X68792Y922311D01*
X68235Y922579D01*
X67712Y922907D01*
X67229Y923293D01*
X66793Y923729D01*
X66407Y924212D01*
X66079Y924735D01*
X65811Y925292D01*
X65607Y925875D01*
X65469Y926477D01*
X65400Y927091D01*
X65400Y927709D01*
X65469Y928323D01*
X65607Y928925D01*
X65811Y929508D01*
X66079Y930065D01*
X66407Y930588D01*
X66793Y931071D01*
X67229Y931508D01*
X67712Y931893D01*
X68235Y932221D01*
X68792Y932489D01*
X69375Y932693D01*
X69977Y932831D01*
X70591Y932900D01*
X71209Y932900D01*
X71823Y932831D01*
X72425Y932693D01*
X73008Y932489D01*
X73565Y932221D01*
X74088Y931893D01*
X74571Y931508D01*
X75008Y931071D01*
X75393Y930588D01*
X75721Y930065D01*
X75989Y929508D01*
X76193Y928925D01*
X76331Y928323D01*
X76400Y927709D01*
X76400Y927091D01*
X101800Y927091D02*
X101731Y926477D01*
X101593Y925875D01*
X101389Y925292D01*
X101121Y924735D01*
X100793Y924212D01*
X100408Y923729D01*
X99971Y923293D01*
X99488Y922907D01*
X98965Y922579D01*
X98408Y922311D01*
X97825Y922107D01*
X97223Y921969D01*
X96609Y921900D01*
X95991Y921900D01*
X95377Y921969D01*
X94775Y922107D01*
X94192Y922311D01*
X93635Y922579D01*
X93112Y922907D01*
X92629Y923293D01*
X92193Y923729D01*
X91807Y924212D01*
X91479Y924735D01*
X91211Y925292D01*
X91007Y925875D01*
X90869Y926477D01*
X90800Y927091D01*
X90800Y927709D01*
X90869Y928323D01*
X91007Y928925D01*
X91211Y929508D01*
X91479Y930065D01*
X91807Y930588D01*
X92193Y931071D01*
X92629Y931508D01*
X93112Y931893D01*
X93635Y932221D01*
X94192Y932489D01*
X94775Y932693D01*
X95377Y932831D01*
X95991Y932900D01*
X96609Y932900D01*
X97223Y932831D01*
X97825Y932693D01*
X98408Y932489D01*
X98965Y932221D01*
X99488Y931893D01*
X99971Y931508D01*
X100408Y931071D01*
X100793Y930588D01*
X101121Y930065D01*
X101389Y929508D01*
X101593Y928925D01*
X101731Y928323D01*
X101800Y927709D01*
X101800Y927091D01*
M02*
