G04 EAGLE Gerber RS-274X export*
G75*
%MOMM*%
%FSLAX34Y34*%
%LPD*%
%INSilkscreen Top*%
%IPPOS*%
%AMOC8*
5,1,8,0,0,1.08239X$1,22.5*%
G01*
%ADD10C,0.101600*%
%ADD11C,0.200000*%
%ADD12C,0.127000*%
%ADD13C,0.203200*%
%ADD14C,0.050800*%
%ADD15C,0.152400*%


D10*
X232506Y822708D02*
X229909Y822708D01*
X229810Y822710D01*
X229710Y822716D01*
X229611Y822725D01*
X229513Y822738D01*
X229415Y822755D01*
X229317Y822776D01*
X229221Y822801D01*
X229126Y822829D01*
X229032Y822861D01*
X228939Y822896D01*
X228847Y822935D01*
X228757Y822978D01*
X228669Y823023D01*
X228582Y823073D01*
X228498Y823125D01*
X228415Y823181D01*
X228335Y823239D01*
X228257Y823301D01*
X228182Y823366D01*
X228109Y823434D01*
X228039Y823504D01*
X227971Y823577D01*
X227906Y823652D01*
X227844Y823730D01*
X227786Y823810D01*
X227730Y823893D01*
X227678Y823977D01*
X227628Y824064D01*
X227583Y824152D01*
X227540Y824242D01*
X227501Y824334D01*
X227466Y824427D01*
X227434Y824521D01*
X227406Y824616D01*
X227381Y824712D01*
X227360Y824810D01*
X227343Y824908D01*
X227330Y825006D01*
X227321Y825105D01*
X227315Y825205D01*
X227313Y825304D01*
X227313Y831796D01*
X227315Y831895D01*
X227321Y831995D01*
X227330Y832094D01*
X227343Y832192D01*
X227360Y832290D01*
X227381Y832388D01*
X227406Y832484D01*
X227434Y832579D01*
X227466Y832673D01*
X227501Y832766D01*
X227540Y832858D01*
X227583Y832948D01*
X227628Y833036D01*
X227678Y833123D01*
X227730Y833207D01*
X227786Y833290D01*
X227844Y833370D01*
X227906Y833448D01*
X227971Y833523D01*
X228039Y833596D01*
X228109Y833666D01*
X228182Y833734D01*
X228257Y833799D01*
X228335Y833861D01*
X228415Y833919D01*
X228498Y833975D01*
X228582Y834027D01*
X228669Y834077D01*
X228757Y834122D01*
X228847Y834165D01*
X228939Y834204D01*
X229031Y834239D01*
X229126Y834271D01*
X229221Y834299D01*
X229317Y834324D01*
X229415Y834345D01*
X229513Y834362D01*
X229611Y834375D01*
X229710Y834384D01*
X229810Y834390D01*
X229909Y834392D01*
X232506Y834392D01*
X236871Y831796D02*
X240116Y834392D01*
X240116Y822708D01*
X236871Y822708D02*
X243362Y822708D01*
X248301Y828550D02*
X248304Y828780D01*
X248312Y829010D01*
X248326Y829239D01*
X248345Y829468D01*
X248370Y829697D01*
X248400Y829924D01*
X248435Y830152D01*
X248476Y830378D01*
X248522Y830603D01*
X248574Y830827D01*
X248631Y831049D01*
X248693Y831271D01*
X248761Y831490D01*
X248834Y831708D01*
X248912Y831925D01*
X248995Y832139D01*
X249083Y832351D01*
X249176Y832561D01*
X249275Y832769D01*
X249274Y832769D02*
X249307Y832859D01*
X249343Y832948D01*
X249383Y833036D01*
X249427Y833121D01*
X249474Y833205D01*
X249524Y833287D01*
X249578Y833367D01*
X249634Y833444D01*
X249694Y833520D01*
X249757Y833593D01*
X249822Y833663D01*
X249891Y833731D01*
X249962Y833795D01*
X250035Y833857D01*
X250111Y833916D01*
X250189Y833972D01*
X250270Y834025D01*
X250352Y834074D01*
X250436Y834120D01*
X250523Y834163D01*
X250610Y834202D01*
X250700Y834238D01*
X250790Y834270D01*
X250882Y834298D01*
X250975Y834323D01*
X251069Y834344D01*
X251163Y834361D01*
X251258Y834375D01*
X251354Y834384D01*
X251450Y834390D01*
X251546Y834392D01*
X251642Y834390D01*
X251738Y834384D01*
X251834Y834375D01*
X251929Y834361D01*
X252023Y834344D01*
X252117Y834323D01*
X252210Y834298D01*
X252302Y834270D01*
X252392Y834238D01*
X252482Y834202D01*
X252569Y834163D01*
X252656Y834120D01*
X252740Y834074D01*
X252822Y834025D01*
X252903Y833972D01*
X252981Y833916D01*
X253057Y833857D01*
X253130Y833795D01*
X253201Y833731D01*
X253270Y833663D01*
X253335Y833593D01*
X253398Y833520D01*
X253458Y833444D01*
X253514Y833367D01*
X253568Y833287D01*
X253618Y833205D01*
X253665Y833121D01*
X253709Y833036D01*
X253749Y832948D01*
X253785Y832859D01*
X253818Y832769D01*
X253819Y832769D02*
X253918Y832562D01*
X254011Y832352D01*
X254099Y832139D01*
X254182Y831925D01*
X254260Y831709D01*
X254333Y831491D01*
X254401Y831271D01*
X254463Y831050D01*
X254520Y830827D01*
X254572Y830603D01*
X254618Y830378D01*
X254659Y830152D01*
X254694Y829925D01*
X254724Y829697D01*
X254749Y829468D01*
X254768Y829239D01*
X254782Y829010D01*
X254790Y828780D01*
X254793Y828550D01*
X248301Y828550D02*
X248304Y828320D01*
X248312Y828090D01*
X248326Y827861D01*
X248345Y827632D01*
X248370Y827403D01*
X248400Y827175D01*
X248435Y826948D01*
X248476Y826722D01*
X248522Y826497D01*
X248574Y826273D01*
X248631Y826050D01*
X248693Y825829D01*
X248761Y825609D01*
X248834Y825391D01*
X248912Y825175D01*
X248995Y824961D01*
X249083Y824749D01*
X249176Y824538D01*
X249275Y824331D01*
X249274Y824331D02*
X249307Y824241D01*
X249343Y824152D01*
X249384Y824064D01*
X249427Y823979D01*
X249474Y823895D01*
X249524Y823813D01*
X249578Y823733D01*
X249634Y823656D01*
X249694Y823580D01*
X249757Y823507D01*
X249822Y823437D01*
X249891Y823369D01*
X249962Y823305D01*
X250035Y823243D01*
X250111Y823184D01*
X250189Y823128D01*
X250270Y823075D01*
X250352Y823026D01*
X250436Y822980D01*
X250523Y822937D01*
X250610Y822898D01*
X250700Y822862D01*
X250790Y822830D01*
X250882Y822802D01*
X250975Y822777D01*
X251069Y822756D01*
X251163Y822739D01*
X251258Y822725D01*
X251354Y822716D01*
X251450Y822710D01*
X251546Y822708D01*
X253818Y824331D02*
X253917Y824538D01*
X254010Y824749D01*
X254098Y824961D01*
X254181Y825175D01*
X254259Y825391D01*
X254332Y825609D01*
X254400Y825829D01*
X254462Y826050D01*
X254519Y826273D01*
X254571Y826497D01*
X254617Y826722D01*
X254658Y826948D01*
X254693Y827175D01*
X254723Y827403D01*
X254748Y827632D01*
X254767Y827861D01*
X254781Y828090D01*
X254789Y828320D01*
X254792Y828550D01*
X253818Y824331D02*
X253785Y824241D01*
X253749Y824152D01*
X253709Y824064D01*
X253665Y823979D01*
X253618Y823895D01*
X253568Y823813D01*
X253514Y823733D01*
X253458Y823656D01*
X253398Y823580D01*
X253335Y823507D01*
X253270Y823437D01*
X253201Y823369D01*
X253130Y823305D01*
X253057Y823243D01*
X252981Y823184D01*
X252903Y823128D01*
X252822Y823075D01*
X252740Y823026D01*
X252656Y822980D01*
X252569Y822937D01*
X252482Y822898D01*
X252392Y822862D01*
X252302Y822830D01*
X252210Y822802D01*
X252117Y822777D01*
X252023Y822756D01*
X251929Y822739D01*
X251834Y822725D01*
X251738Y822716D01*
X251642Y822710D01*
X251546Y822708D01*
X248950Y825304D02*
X254143Y831796D01*
X109936Y864708D02*
X107339Y864708D01*
X107240Y864710D01*
X107140Y864716D01*
X107041Y864725D01*
X106943Y864738D01*
X106845Y864755D01*
X106747Y864776D01*
X106651Y864801D01*
X106556Y864829D01*
X106462Y864861D01*
X106369Y864896D01*
X106277Y864935D01*
X106187Y864978D01*
X106099Y865023D01*
X106012Y865073D01*
X105928Y865125D01*
X105845Y865181D01*
X105765Y865239D01*
X105687Y865301D01*
X105612Y865366D01*
X105539Y865434D01*
X105469Y865504D01*
X105401Y865577D01*
X105336Y865652D01*
X105274Y865730D01*
X105216Y865810D01*
X105160Y865893D01*
X105108Y865977D01*
X105058Y866064D01*
X105013Y866152D01*
X104970Y866242D01*
X104931Y866334D01*
X104896Y866427D01*
X104864Y866521D01*
X104836Y866616D01*
X104811Y866712D01*
X104790Y866810D01*
X104773Y866908D01*
X104760Y867006D01*
X104751Y867105D01*
X104745Y867205D01*
X104743Y867304D01*
X104743Y873796D01*
X104745Y873895D01*
X104751Y873995D01*
X104760Y874094D01*
X104773Y874192D01*
X104790Y874290D01*
X104811Y874388D01*
X104836Y874484D01*
X104864Y874579D01*
X104896Y874673D01*
X104931Y874766D01*
X104970Y874858D01*
X105013Y874948D01*
X105058Y875036D01*
X105108Y875123D01*
X105160Y875207D01*
X105216Y875290D01*
X105274Y875370D01*
X105336Y875448D01*
X105401Y875523D01*
X105469Y875596D01*
X105539Y875666D01*
X105612Y875734D01*
X105687Y875799D01*
X105765Y875861D01*
X105845Y875919D01*
X105928Y875975D01*
X106012Y876027D01*
X106099Y876077D01*
X106187Y876122D01*
X106277Y876165D01*
X106369Y876204D01*
X106461Y876239D01*
X106556Y876271D01*
X106651Y876299D01*
X106747Y876324D01*
X106845Y876345D01*
X106943Y876362D01*
X107041Y876375D01*
X107140Y876384D01*
X107240Y876390D01*
X107339Y876392D01*
X109936Y876392D01*
X114300Y867954D02*
X114302Y868067D01*
X114308Y868180D01*
X114318Y868293D01*
X114332Y868406D01*
X114349Y868518D01*
X114371Y868629D01*
X114396Y868739D01*
X114426Y868849D01*
X114459Y868957D01*
X114496Y869064D01*
X114536Y869170D01*
X114581Y869274D01*
X114629Y869377D01*
X114680Y869478D01*
X114735Y869577D01*
X114793Y869674D01*
X114855Y869769D01*
X114920Y869862D01*
X114988Y869952D01*
X115059Y870040D01*
X115134Y870126D01*
X115211Y870209D01*
X115291Y870289D01*
X115374Y870366D01*
X115460Y870441D01*
X115548Y870512D01*
X115638Y870580D01*
X115731Y870645D01*
X115826Y870707D01*
X115923Y870765D01*
X116022Y870820D01*
X116123Y870871D01*
X116226Y870919D01*
X116330Y870964D01*
X116436Y871004D01*
X116543Y871041D01*
X116651Y871074D01*
X116761Y871104D01*
X116871Y871129D01*
X116982Y871151D01*
X117094Y871168D01*
X117207Y871182D01*
X117320Y871192D01*
X117433Y871198D01*
X117546Y871200D01*
X117659Y871198D01*
X117772Y871192D01*
X117885Y871182D01*
X117998Y871168D01*
X118110Y871151D01*
X118221Y871129D01*
X118331Y871104D01*
X118441Y871074D01*
X118549Y871041D01*
X118656Y871004D01*
X118762Y870964D01*
X118866Y870919D01*
X118969Y870871D01*
X119070Y870820D01*
X119169Y870765D01*
X119266Y870707D01*
X119361Y870645D01*
X119454Y870580D01*
X119544Y870512D01*
X119632Y870441D01*
X119718Y870366D01*
X119801Y870289D01*
X119881Y870209D01*
X119958Y870126D01*
X120033Y870040D01*
X120104Y869952D01*
X120172Y869862D01*
X120237Y869769D01*
X120299Y869674D01*
X120357Y869577D01*
X120412Y869478D01*
X120463Y869377D01*
X120511Y869274D01*
X120556Y869170D01*
X120596Y869064D01*
X120633Y868957D01*
X120666Y868849D01*
X120696Y868739D01*
X120721Y868629D01*
X120743Y868518D01*
X120760Y868406D01*
X120774Y868293D01*
X120784Y868180D01*
X120790Y868067D01*
X120792Y867954D01*
X120790Y867841D01*
X120784Y867728D01*
X120774Y867615D01*
X120760Y867502D01*
X120743Y867390D01*
X120721Y867279D01*
X120696Y867169D01*
X120666Y867059D01*
X120633Y866951D01*
X120596Y866844D01*
X120556Y866738D01*
X120511Y866634D01*
X120463Y866531D01*
X120412Y866430D01*
X120357Y866331D01*
X120299Y866234D01*
X120237Y866139D01*
X120172Y866046D01*
X120104Y865956D01*
X120033Y865868D01*
X119958Y865782D01*
X119881Y865699D01*
X119801Y865619D01*
X119718Y865542D01*
X119632Y865467D01*
X119544Y865396D01*
X119454Y865328D01*
X119361Y865263D01*
X119266Y865201D01*
X119169Y865143D01*
X119070Y865088D01*
X118969Y865037D01*
X118866Y864989D01*
X118762Y864944D01*
X118656Y864904D01*
X118549Y864867D01*
X118441Y864834D01*
X118331Y864804D01*
X118221Y864779D01*
X118110Y864757D01*
X117998Y864740D01*
X117885Y864726D01*
X117772Y864716D01*
X117659Y864710D01*
X117546Y864708D01*
X117433Y864710D01*
X117320Y864716D01*
X117207Y864726D01*
X117094Y864740D01*
X116982Y864757D01*
X116871Y864779D01*
X116761Y864804D01*
X116651Y864834D01*
X116543Y864867D01*
X116436Y864904D01*
X116330Y864944D01*
X116226Y864989D01*
X116123Y865037D01*
X116022Y865088D01*
X115923Y865143D01*
X115826Y865201D01*
X115731Y865263D01*
X115638Y865328D01*
X115548Y865396D01*
X115460Y865467D01*
X115374Y865542D01*
X115291Y865619D01*
X115211Y865699D01*
X115134Y865782D01*
X115059Y865868D01*
X114988Y865956D01*
X114920Y866046D01*
X114855Y866139D01*
X114793Y866234D01*
X114735Y866331D01*
X114680Y866430D01*
X114629Y866531D01*
X114581Y866634D01*
X114536Y866738D01*
X114496Y866844D01*
X114459Y866951D01*
X114426Y867059D01*
X114396Y867169D01*
X114371Y867279D01*
X114349Y867390D01*
X114332Y867502D01*
X114318Y867615D01*
X114308Y867728D01*
X114302Y867841D01*
X114300Y867954D01*
X114950Y873796D02*
X114952Y873897D01*
X114958Y873997D01*
X114968Y874097D01*
X114981Y874197D01*
X114999Y874296D01*
X115020Y874395D01*
X115045Y874492D01*
X115074Y874589D01*
X115107Y874684D01*
X115143Y874778D01*
X115183Y874870D01*
X115226Y874961D01*
X115273Y875050D01*
X115323Y875137D01*
X115377Y875223D01*
X115434Y875306D01*
X115494Y875386D01*
X115557Y875465D01*
X115624Y875541D01*
X115693Y875614D01*
X115765Y875684D01*
X115839Y875752D01*
X115916Y875817D01*
X115996Y875878D01*
X116078Y875937D01*
X116162Y875992D01*
X116248Y876044D01*
X116336Y876093D01*
X116426Y876138D01*
X116518Y876180D01*
X116611Y876218D01*
X116706Y876252D01*
X116801Y876283D01*
X116898Y876310D01*
X116996Y876333D01*
X117095Y876353D01*
X117195Y876368D01*
X117295Y876380D01*
X117395Y876388D01*
X117496Y876392D01*
X117596Y876392D01*
X117697Y876388D01*
X117797Y876380D01*
X117897Y876368D01*
X117997Y876353D01*
X118096Y876333D01*
X118194Y876310D01*
X118291Y876283D01*
X118386Y876252D01*
X118481Y876218D01*
X118574Y876180D01*
X118666Y876138D01*
X118756Y876093D01*
X118844Y876044D01*
X118930Y875992D01*
X119014Y875937D01*
X119096Y875878D01*
X119176Y875817D01*
X119253Y875752D01*
X119327Y875684D01*
X119399Y875614D01*
X119468Y875541D01*
X119535Y875465D01*
X119598Y875386D01*
X119658Y875306D01*
X119715Y875223D01*
X119769Y875137D01*
X119819Y875050D01*
X119866Y874961D01*
X119909Y874870D01*
X119949Y874778D01*
X119985Y874684D01*
X120018Y874589D01*
X120047Y874492D01*
X120072Y874395D01*
X120093Y874296D01*
X120111Y874197D01*
X120124Y874097D01*
X120134Y873997D01*
X120140Y873897D01*
X120142Y873796D01*
X120140Y873695D01*
X120134Y873595D01*
X120124Y873495D01*
X120111Y873395D01*
X120093Y873296D01*
X120072Y873197D01*
X120047Y873100D01*
X120018Y873003D01*
X119985Y872908D01*
X119949Y872814D01*
X119909Y872722D01*
X119866Y872631D01*
X119819Y872542D01*
X119769Y872455D01*
X119715Y872369D01*
X119658Y872286D01*
X119598Y872206D01*
X119535Y872127D01*
X119468Y872051D01*
X119399Y871978D01*
X119327Y871908D01*
X119253Y871840D01*
X119176Y871775D01*
X119096Y871714D01*
X119014Y871655D01*
X118930Y871600D01*
X118844Y871548D01*
X118756Y871499D01*
X118666Y871454D01*
X118574Y871412D01*
X118481Y871374D01*
X118386Y871340D01*
X118291Y871309D01*
X118194Y871282D01*
X118096Y871259D01*
X117997Y871239D01*
X117897Y871224D01*
X117797Y871212D01*
X117697Y871204D01*
X117596Y871200D01*
X117496Y871200D01*
X117395Y871204D01*
X117295Y871212D01*
X117195Y871224D01*
X117095Y871239D01*
X116996Y871259D01*
X116898Y871282D01*
X116801Y871309D01*
X116706Y871340D01*
X116611Y871374D01*
X116518Y871412D01*
X116426Y871454D01*
X116336Y871499D01*
X116248Y871548D01*
X116162Y871600D01*
X116078Y871655D01*
X115996Y871714D01*
X115916Y871775D01*
X115839Y871840D01*
X115765Y871908D01*
X115693Y871978D01*
X115624Y872051D01*
X115557Y872127D01*
X115494Y872206D01*
X115434Y872286D01*
X115377Y872369D01*
X115323Y872455D01*
X115273Y872542D01*
X115226Y872631D01*
X115183Y872722D01*
X115143Y872814D01*
X115107Y872908D01*
X115074Y873003D01*
X115045Y873100D01*
X115020Y873197D01*
X114999Y873296D01*
X114981Y873395D01*
X114968Y873495D01*
X114958Y873595D01*
X114952Y873695D01*
X114950Y873796D01*
X167304Y860608D02*
X169901Y860608D01*
X167304Y860608D02*
X167205Y860610D01*
X167105Y860616D01*
X167006Y860625D01*
X166908Y860638D01*
X166810Y860655D01*
X166712Y860676D01*
X166616Y860701D01*
X166521Y860729D01*
X166427Y860761D01*
X166334Y860796D01*
X166242Y860835D01*
X166152Y860878D01*
X166064Y860923D01*
X165977Y860973D01*
X165893Y861025D01*
X165810Y861081D01*
X165730Y861139D01*
X165652Y861201D01*
X165577Y861266D01*
X165504Y861334D01*
X165434Y861404D01*
X165366Y861477D01*
X165301Y861552D01*
X165239Y861630D01*
X165181Y861710D01*
X165125Y861793D01*
X165073Y861877D01*
X165023Y861964D01*
X164978Y862052D01*
X164935Y862142D01*
X164896Y862234D01*
X164861Y862327D01*
X164829Y862421D01*
X164801Y862516D01*
X164776Y862612D01*
X164755Y862710D01*
X164738Y862808D01*
X164725Y862906D01*
X164716Y863005D01*
X164710Y863105D01*
X164708Y863204D01*
X164708Y869696D01*
X164710Y869795D01*
X164716Y869895D01*
X164725Y869994D01*
X164738Y870092D01*
X164755Y870190D01*
X164776Y870288D01*
X164801Y870384D01*
X164829Y870479D01*
X164861Y870573D01*
X164896Y870666D01*
X164935Y870758D01*
X164978Y870848D01*
X165023Y870936D01*
X165073Y871023D01*
X165125Y871107D01*
X165181Y871190D01*
X165239Y871270D01*
X165301Y871348D01*
X165366Y871423D01*
X165434Y871496D01*
X165504Y871566D01*
X165577Y871634D01*
X165652Y871699D01*
X165730Y871761D01*
X165810Y871819D01*
X165893Y871875D01*
X165977Y871927D01*
X166064Y871977D01*
X166152Y872022D01*
X166242Y872065D01*
X166334Y872104D01*
X166426Y872139D01*
X166521Y872171D01*
X166616Y872199D01*
X166712Y872224D01*
X166810Y872245D01*
X166908Y872262D01*
X167006Y872275D01*
X167105Y872284D01*
X167205Y872290D01*
X167304Y872292D01*
X169901Y872292D01*
X176863Y865801D02*
X180757Y865801D01*
X176863Y865801D02*
X176764Y865803D01*
X176664Y865809D01*
X176565Y865818D01*
X176467Y865831D01*
X176369Y865848D01*
X176271Y865869D01*
X176175Y865894D01*
X176080Y865922D01*
X175986Y865954D01*
X175893Y865989D01*
X175801Y866028D01*
X175711Y866071D01*
X175623Y866116D01*
X175536Y866166D01*
X175452Y866218D01*
X175369Y866274D01*
X175289Y866332D01*
X175211Y866394D01*
X175136Y866459D01*
X175063Y866527D01*
X174993Y866597D01*
X174925Y866670D01*
X174860Y866745D01*
X174798Y866823D01*
X174740Y866903D01*
X174684Y866986D01*
X174632Y867070D01*
X174582Y867157D01*
X174537Y867245D01*
X174494Y867335D01*
X174455Y867427D01*
X174420Y867520D01*
X174388Y867614D01*
X174360Y867709D01*
X174335Y867805D01*
X174314Y867903D01*
X174297Y868001D01*
X174284Y868099D01*
X174275Y868198D01*
X174269Y868298D01*
X174267Y868397D01*
X174266Y868397D02*
X174266Y869046D01*
X174268Y869159D01*
X174274Y869272D01*
X174284Y869385D01*
X174298Y869498D01*
X174315Y869610D01*
X174337Y869721D01*
X174362Y869831D01*
X174392Y869941D01*
X174425Y870049D01*
X174462Y870156D01*
X174502Y870262D01*
X174547Y870366D01*
X174595Y870469D01*
X174646Y870570D01*
X174701Y870669D01*
X174759Y870766D01*
X174821Y870861D01*
X174886Y870954D01*
X174954Y871044D01*
X175025Y871132D01*
X175100Y871218D01*
X175177Y871301D01*
X175257Y871381D01*
X175340Y871458D01*
X175426Y871533D01*
X175514Y871604D01*
X175604Y871672D01*
X175697Y871737D01*
X175792Y871799D01*
X175889Y871857D01*
X175988Y871912D01*
X176089Y871963D01*
X176192Y872011D01*
X176296Y872056D01*
X176402Y872096D01*
X176509Y872133D01*
X176617Y872166D01*
X176727Y872196D01*
X176837Y872221D01*
X176948Y872243D01*
X177060Y872260D01*
X177173Y872274D01*
X177286Y872284D01*
X177399Y872290D01*
X177512Y872292D01*
X177625Y872290D01*
X177738Y872284D01*
X177851Y872274D01*
X177964Y872260D01*
X178076Y872243D01*
X178187Y872221D01*
X178297Y872196D01*
X178407Y872166D01*
X178515Y872133D01*
X178622Y872096D01*
X178728Y872056D01*
X178832Y872011D01*
X178935Y871963D01*
X179036Y871912D01*
X179135Y871857D01*
X179232Y871799D01*
X179327Y871737D01*
X179420Y871672D01*
X179510Y871604D01*
X179598Y871533D01*
X179684Y871458D01*
X179767Y871381D01*
X179847Y871301D01*
X179924Y871218D01*
X179999Y871132D01*
X180070Y871044D01*
X180138Y870954D01*
X180203Y870861D01*
X180265Y870766D01*
X180323Y870669D01*
X180378Y870570D01*
X180429Y870469D01*
X180477Y870366D01*
X180522Y870262D01*
X180562Y870156D01*
X180599Y870049D01*
X180632Y869941D01*
X180662Y869831D01*
X180687Y869721D01*
X180709Y869610D01*
X180726Y869498D01*
X180740Y869385D01*
X180750Y869272D01*
X180756Y869159D01*
X180758Y869046D01*
X180757Y869046D02*
X180757Y865801D01*
X180755Y865658D01*
X180749Y865515D01*
X180739Y865372D01*
X180725Y865230D01*
X180708Y865088D01*
X180686Y864946D01*
X180661Y864805D01*
X180631Y864665D01*
X180598Y864526D01*
X180561Y864388D01*
X180520Y864251D01*
X180476Y864115D01*
X180427Y863980D01*
X180375Y863847D01*
X180320Y863715D01*
X180260Y863585D01*
X180197Y863456D01*
X180131Y863329D01*
X180061Y863205D01*
X179988Y863082D01*
X179911Y862961D01*
X179831Y862842D01*
X179748Y862726D01*
X179662Y862611D01*
X179573Y862500D01*
X179480Y862390D01*
X179385Y862284D01*
X179286Y862180D01*
X179185Y862079D01*
X179081Y861980D01*
X178975Y861885D01*
X178865Y861792D01*
X178754Y861703D01*
X178639Y861617D01*
X178523Y861534D01*
X178404Y861454D01*
X178283Y861377D01*
X178160Y861304D01*
X178036Y861234D01*
X177909Y861168D01*
X177780Y861105D01*
X177650Y861045D01*
X177518Y860990D01*
X177385Y860938D01*
X177250Y860889D01*
X177114Y860845D01*
X176977Y860804D01*
X176839Y860767D01*
X176700Y860734D01*
X176560Y860704D01*
X176419Y860679D01*
X176277Y860657D01*
X176135Y860640D01*
X175993Y860626D01*
X175850Y860616D01*
X175707Y860610D01*
X175564Y860608D01*
D11*
X318950Y858550D02*
X318950Y790550D01*
X293450Y790550D02*
X293450Y856050D01*
D10*
X280042Y814149D02*
X268358Y814149D01*
X268358Y817395D01*
X268360Y817508D01*
X268366Y817621D01*
X268376Y817734D01*
X268390Y817847D01*
X268407Y817959D01*
X268429Y818070D01*
X268454Y818180D01*
X268484Y818290D01*
X268517Y818398D01*
X268554Y818505D01*
X268594Y818611D01*
X268639Y818715D01*
X268687Y818818D01*
X268738Y818919D01*
X268793Y819018D01*
X268851Y819115D01*
X268913Y819210D01*
X268978Y819303D01*
X269046Y819393D01*
X269117Y819481D01*
X269192Y819567D01*
X269269Y819650D01*
X269349Y819730D01*
X269432Y819807D01*
X269518Y819882D01*
X269606Y819953D01*
X269696Y820021D01*
X269789Y820086D01*
X269884Y820148D01*
X269981Y820206D01*
X270080Y820261D01*
X270181Y820312D01*
X270284Y820360D01*
X270388Y820405D01*
X270494Y820445D01*
X270601Y820482D01*
X270709Y820515D01*
X270819Y820545D01*
X270929Y820570D01*
X271040Y820592D01*
X271152Y820609D01*
X271265Y820623D01*
X271378Y820633D01*
X271491Y820639D01*
X271604Y820641D01*
X271604Y820640D02*
X276796Y820640D01*
X276796Y820641D02*
X276909Y820639D01*
X277022Y820633D01*
X277135Y820623D01*
X277248Y820609D01*
X277360Y820592D01*
X277471Y820570D01*
X277581Y820545D01*
X277691Y820515D01*
X277799Y820482D01*
X277906Y820445D01*
X278012Y820405D01*
X278116Y820360D01*
X278219Y820312D01*
X278320Y820261D01*
X278419Y820206D01*
X278516Y820148D01*
X278611Y820086D01*
X278704Y820021D01*
X278794Y819953D01*
X278882Y819882D01*
X278968Y819807D01*
X279051Y819730D01*
X279131Y819650D01*
X279208Y819567D01*
X279283Y819481D01*
X279354Y819393D01*
X279422Y819303D01*
X279487Y819210D01*
X279549Y819115D01*
X279607Y819018D01*
X279662Y818919D01*
X279713Y818818D01*
X279761Y818715D01*
X279806Y818611D01*
X279846Y818505D01*
X279883Y818398D01*
X279916Y818290D01*
X279946Y818180D01*
X279971Y818070D01*
X279993Y817959D01*
X280010Y817847D01*
X280024Y817734D01*
X280034Y817621D01*
X280040Y817508D01*
X280042Y817395D01*
X280042Y814149D01*
X268358Y829530D02*
X268360Y829637D01*
X268366Y829743D01*
X268376Y829849D01*
X268389Y829955D01*
X268407Y830061D01*
X268428Y830165D01*
X268453Y830269D01*
X268482Y830372D01*
X268514Y830473D01*
X268551Y830573D01*
X268591Y830672D01*
X268634Y830770D01*
X268681Y830866D01*
X268732Y830960D01*
X268786Y831052D01*
X268843Y831142D01*
X268903Y831230D01*
X268967Y831315D01*
X269034Y831398D01*
X269104Y831479D01*
X269176Y831557D01*
X269252Y831633D01*
X269330Y831705D01*
X269411Y831775D01*
X269494Y831842D01*
X269579Y831906D01*
X269667Y831966D01*
X269757Y832023D01*
X269849Y832077D01*
X269943Y832128D01*
X270039Y832175D01*
X270137Y832218D01*
X270236Y832258D01*
X270336Y832295D01*
X270437Y832327D01*
X270540Y832356D01*
X270644Y832381D01*
X270748Y832402D01*
X270854Y832420D01*
X270960Y832433D01*
X271066Y832443D01*
X271172Y832449D01*
X271279Y832451D01*
X268358Y829530D02*
X268360Y829409D01*
X268366Y829288D01*
X268376Y829168D01*
X268389Y829047D01*
X268407Y828928D01*
X268428Y828808D01*
X268453Y828690D01*
X268482Y828573D01*
X268515Y828456D01*
X268551Y828341D01*
X268592Y828227D01*
X268635Y828114D01*
X268683Y828002D01*
X268734Y827893D01*
X268789Y827785D01*
X268847Y827678D01*
X268908Y827574D01*
X268973Y827472D01*
X269041Y827372D01*
X269112Y827274D01*
X269186Y827178D01*
X269263Y827085D01*
X269344Y826995D01*
X269427Y826907D01*
X269513Y826822D01*
X269602Y826739D01*
X269693Y826660D01*
X269787Y826583D01*
X269883Y826510D01*
X269981Y826440D01*
X270082Y826373D01*
X270185Y826309D01*
X270290Y826249D01*
X270397Y826191D01*
X270505Y826138D01*
X270615Y826088D01*
X270727Y826042D01*
X270840Y825999D01*
X270955Y825960D01*
X273551Y831477D02*
X273473Y831556D01*
X273393Y831632D01*
X273310Y831705D01*
X273224Y831775D01*
X273137Y831842D01*
X273046Y831906D01*
X272954Y831966D01*
X272860Y832024D01*
X272763Y832078D01*
X272665Y832128D01*
X272565Y832175D01*
X272464Y832219D01*
X272361Y832259D01*
X272256Y832295D01*
X272151Y832327D01*
X272044Y832356D01*
X271937Y832381D01*
X271828Y832403D01*
X271719Y832420D01*
X271610Y832434D01*
X271500Y832443D01*
X271389Y832449D01*
X271279Y832451D01*
X273551Y831477D02*
X280042Y825960D01*
X280042Y832451D01*
D12*
X285200Y718200D02*
X286200Y718200D01*
X286200Y717200D01*
D13*
X283786Y718200D02*
X283788Y718275D01*
X283794Y718349D01*
X283804Y718423D01*
X283817Y718496D01*
X283835Y718569D01*
X283856Y718640D01*
X283881Y718711D01*
X283910Y718780D01*
X283943Y718847D01*
X283979Y718912D01*
X284018Y718976D01*
X284060Y719037D01*
X284106Y719096D01*
X284155Y719153D01*
X284207Y719206D01*
X284261Y719257D01*
X284318Y719306D01*
X284378Y719350D01*
X284440Y719392D01*
X284504Y719431D01*
X284570Y719466D01*
X284637Y719497D01*
X284707Y719525D01*
X284777Y719549D01*
X284849Y719570D01*
X284922Y719586D01*
X284995Y719599D01*
X285070Y719608D01*
X285144Y719613D01*
X285219Y719614D01*
X285293Y719611D01*
X285368Y719604D01*
X285441Y719593D01*
X285515Y719579D01*
X285587Y719560D01*
X285658Y719538D01*
X285728Y719512D01*
X285797Y719482D01*
X285863Y719449D01*
X285928Y719412D01*
X285991Y719372D01*
X286052Y719328D01*
X286110Y719282D01*
X286166Y719232D01*
X286219Y719180D01*
X286270Y719125D01*
X286317Y719067D01*
X286361Y719007D01*
X286402Y718944D01*
X286440Y718880D01*
X286474Y718814D01*
X286505Y718745D01*
X286532Y718676D01*
X286555Y718605D01*
X286574Y718533D01*
X286590Y718460D01*
X286602Y718386D01*
X286610Y718312D01*
X286614Y718237D01*
X286614Y718163D01*
X286610Y718088D01*
X286602Y718014D01*
X286590Y717940D01*
X286574Y717867D01*
X286555Y717795D01*
X286532Y717724D01*
X286505Y717655D01*
X286474Y717586D01*
X286440Y717520D01*
X286402Y717456D01*
X286361Y717393D01*
X286317Y717333D01*
X286270Y717275D01*
X286219Y717220D01*
X286166Y717168D01*
X286110Y717118D01*
X286052Y717072D01*
X285991Y717028D01*
X285928Y716988D01*
X285863Y716951D01*
X285797Y716918D01*
X285728Y716888D01*
X285658Y716862D01*
X285587Y716840D01*
X285515Y716821D01*
X285441Y716807D01*
X285368Y716796D01*
X285293Y716789D01*
X285219Y716786D01*
X285144Y716787D01*
X285070Y716792D01*
X284995Y716801D01*
X284922Y716814D01*
X284849Y716830D01*
X284777Y716851D01*
X284707Y716875D01*
X284637Y716903D01*
X284570Y716934D01*
X284504Y716969D01*
X284440Y717008D01*
X284378Y717050D01*
X284318Y717094D01*
X284261Y717143D01*
X284207Y717194D01*
X284155Y717247D01*
X284106Y717304D01*
X284060Y717363D01*
X284018Y717424D01*
X283979Y717488D01*
X283943Y717553D01*
X283910Y717620D01*
X283881Y717689D01*
X283856Y717760D01*
X283835Y717831D01*
X283817Y717904D01*
X283804Y717977D01*
X283794Y718051D01*
X283788Y718125D01*
X283786Y718200D01*
D12*
X452500Y620000D02*
X452502Y620098D01*
X452508Y620196D01*
X452517Y620294D01*
X452531Y620391D01*
X452548Y620488D01*
X452569Y620584D01*
X452594Y620679D01*
X452622Y620773D01*
X452655Y620865D01*
X452690Y620957D01*
X452730Y621047D01*
X452772Y621135D01*
X452819Y621222D01*
X452868Y621306D01*
X452921Y621389D01*
X452977Y621469D01*
X453037Y621548D01*
X453099Y621624D01*
X453164Y621697D01*
X453232Y621768D01*
X453303Y621836D01*
X453376Y621901D01*
X453452Y621963D01*
X453531Y622023D01*
X453611Y622079D01*
X453694Y622132D01*
X453778Y622181D01*
X453865Y622228D01*
X453953Y622270D01*
X454043Y622310D01*
X454135Y622345D01*
X454227Y622378D01*
X454321Y622406D01*
X454416Y622431D01*
X454512Y622452D01*
X454609Y622469D01*
X454706Y622483D01*
X454804Y622492D01*
X454902Y622498D01*
X455000Y622500D01*
X510000Y622500D01*
X510098Y622498D01*
X510196Y622492D01*
X510294Y622483D01*
X510391Y622469D01*
X510488Y622452D01*
X510584Y622431D01*
X510679Y622406D01*
X510773Y622378D01*
X510865Y622345D01*
X510957Y622310D01*
X511047Y622270D01*
X511135Y622228D01*
X511222Y622181D01*
X511306Y622132D01*
X511389Y622079D01*
X511469Y622023D01*
X511548Y621963D01*
X511624Y621901D01*
X511697Y621836D01*
X511768Y621768D01*
X511836Y621697D01*
X511901Y621624D01*
X511963Y621548D01*
X512023Y621469D01*
X512079Y621389D01*
X512132Y621306D01*
X512181Y621222D01*
X512228Y621135D01*
X512270Y621047D01*
X512310Y620957D01*
X512345Y620865D01*
X512378Y620773D01*
X512406Y620679D01*
X512431Y620584D01*
X512452Y620488D01*
X512469Y620391D01*
X512483Y620294D01*
X512492Y620196D01*
X512498Y620098D01*
X512500Y620000D01*
X512500Y590000D02*
X512480Y589893D01*
X512456Y589787D01*
X512429Y589682D01*
X512398Y589578D01*
X512363Y589475D01*
X512325Y589374D01*
X512283Y589274D01*
X512237Y589175D01*
X512188Y589078D01*
X512136Y588983D01*
X512080Y588890D01*
X512021Y588799D01*
X511959Y588710D01*
X511893Y588624D01*
X511825Y588539D01*
X511753Y588458D01*
X511679Y588379D01*
X511602Y588302D01*
X511522Y588229D01*
X511440Y588158D01*
X511355Y588090D01*
X511268Y588025D01*
X511178Y587964D01*
X511087Y587906D01*
X510993Y587851D01*
X510897Y587799D01*
X510800Y587751D01*
X510701Y587706D01*
X510601Y587665D01*
X510499Y587628D01*
X510396Y587594D01*
X510291Y587564D01*
X510186Y587537D01*
X510080Y587515D01*
X509973Y587496D01*
X509865Y587481D01*
X509757Y587470D01*
X509649Y587463D01*
X509541Y587459D01*
X509432Y587460D01*
X509324Y587464D01*
X509215Y587472D01*
X509107Y587484D01*
X509000Y587500D01*
X455000Y587500D01*
X454902Y587502D01*
X454804Y587508D01*
X454706Y587517D01*
X454609Y587531D01*
X454512Y587548D01*
X454416Y587569D01*
X454321Y587594D01*
X454227Y587622D01*
X454135Y587655D01*
X454043Y587690D01*
X453953Y587730D01*
X453865Y587772D01*
X453778Y587819D01*
X453694Y587868D01*
X453611Y587921D01*
X453531Y587977D01*
X453452Y588037D01*
X453376Y588099D01*
X453303Y588164D01*
X453232Y588232D01*
X453164Y588303D01*
X453099Y588376D01*
X453037Y588452D01*
X452977Y588531D01*
X452921Y588611D01*
X452868Y588694D01*
X452819Y588778D01*
X452772Y588865D01*
X452730Y588953D01*
X452690Y589043D01*
X452655Y589135D01*
X452622Y589227D01*
X452594Y589321D01*
X452569Y589416D01*
X452548Y589512D01*
X452531Y589609D01*
X452517Y589706D01*
X452508Y589804D01*
X452502Y589902D01*
X452500Y590000D01*
X452500Y594000D01*
X452500Y616000D02*
X452500Y620000D01*
X512500Y620000D02*
X512500Y616000D01*
X512500Y594000D02*
X512500Y590000D01*
X497500Y612500D02*
X467500Y612500D01*
X467500Y597500D02*
X497500Y597500D01*
X467500Y597500D02*
X467500Y612500D01*
X497500Y612500D02*
X497500Y597500D01*
D14*
X455915Y625254D02*
X452754Y625254D01*
X452754Y632366D01*
X455915Y632366D01*
X455125Y629205D02*
X452754Y629205D01*
X458061Y632366D02*
X460432Y625254D01*
X462803Y632366D01*
X465024Y624464D02*
X468185Y624464D01*
X472363Y625254D02*
X473943Y625254D01*
X472363Y625254D02*
X472285Y625256D01*
X472208Y625262D01*
X472131Y625271D01*
X472055Y625284D01*
X471979Y625301D01*
X471904Y625322D01*
X471831Y625346D01*
X471758Y625374D01*
X471687Y625406D01*
X471618Y625441D01*
X471551Y625479D01*
X471485Y625520D01*
X471422Y625565D01*
X471361Y625613D01*
X471302Y625663D01*
X471246Y625717D01*
X471192Y625773D01*
X471142Y625832D01*
X471094Y625893D01*
X471049Y625956D01*
X471008Y626022D01*
X470970Y626089D01*
X470935Y626158D01*
X470903Y626229D01*
X470875Y626302D01*
X470851Y626375D01*
X470830Y626450D01*
X470813Y626526D01*
X470800Y626602D01*
X470791Y626679D01*
X470785Y626756D01*
X470783Y626834D01*
X470783Y630786D01*
X470785Y630864D01*
X470791Y630941D01*
X470800Y631018D01*
X470813Y631094D01*
X470830Y631170D01*
X470851Y631245D01*
X470875Y631318D01*
X470903Y631391D01*
X470935Y631462D01*
X470970Y631531D01*
X471008Y631598D01*
X471049Y631664D01*
X471094Y631727D01*
X471142Y631788D01*
X471192Y631847D01*
X471246Y631903D01*
X471302Y631957D01*
X471361Y632007D01*
X471422Y632055D01*
X471485Y632100D01*
X471551Y632141D01*
X471618Y632179D01*
X471687Y632214D01*
X471758Y632246D01*
X471831Y632274D01*
X471904Y632298D01*
X471979Y632319D01*
X472055Y632336D01*
X472131Y632349D01*
X472208Y632358D01*
X472285Y632364D01*
X472363Y632366D01*
X473943Y632366D01*
X476744Y632366D02*
X476744Y625254D01*
X476744Y629205D02*
X480696Y629205D01*
X480696Y632366D02*
X480696Y625254D01*
X483436Y625254D02*
X485807Y632366D01*
X488177Y625254D01*
X487585Y627032D02*
X484029Y627032D01*
X490958Y625254D02*
X490958Y632366D01*
X492934Y632366D01*
X493021Y632364D01*
X493109Y632358D01*
X493196Y632349D01*
X493282Y632335D01*
X493368Y632318D01*
X493452Y632297D01*
X493536Y632272D01*
X493619Y632243D01*
X493700Y632211D01*
X493780Y632176D01*
X493858Y632137D01*
X493935Y632094D01*
X494009Y632048D01*
X494081Y631999D01*
X494151Y631947D01*
X494219Y631891D01*
X494284Y631833D01*
X494347Y631772D01*
X494406Y631708D01*
X494463Y631641D01*
X494517Y631573D01*
X494568Y631501D01*
X494615Y631428D01*
X494660Y631353D01*
X494701Y631275D01*
X494738Y631196D01*
X494772Y631116D01*
X494802Y631034D01*
X494829Y630951D01*
X494852Y630866D01*
X494871Y630781D01*
X494886Y630695D01*
X494898Y630608D01*
X494906Y630521D01*
X494910Y630434D01*
X494910Y630346D01*
X494906Y630259D01*
X494898Y630172D01*
X494886Y630085D01*
X494871Y629999D01*
X494852Y629914D01*
X494829Y629829D01*
X494802Y629746D01*
X494772Y629664D01*
X494738Y629584D01*
X494701Y629505D01*
X494660Y629427D01*
X494615Y629352D01*
X494568Y629279D01*
X494517Y629207D01*
X494463Y629139D01*
X494406Y629072D01*
X494347Y629008D01*
X494284Y628947D01*
X494219Y628889D01*
X494151Y628833D01*
X494081Y628781D01*
X494009Y628732D01*
X493935Y628686D01*
X493858Y628643D01*
X493780Y628604D01*
X493700Y628569D01*
X493619Y628537D01*
X493536Y628508D01*
X493452Y628483D01*
X493368Y628462D01*
X493282Y628445D01*
X493196Y628431D01*
X493109Y628422D01*
X493021Y628416D01*
X492934Y628414D01*
X492934Y628415D02*
X490958Y628415D01*
X493329Y628415D02*
X494909Y625254D01*
X500770Y629205D02*
X501955Y629205D01*
X501955Y625254D01*
X499585Y625254D01*
X499507Y625256D01*
X499430Y625262D01*
X499353Y625271D01*
X499277Y625284D01*
X499201Y625301D01*
X499126Y625322D01*
X499053Y625346D01*
X498980Y625374D01*
X498909Y625406D01*
X498840Y625441D01*
X498773Y625479D01*
X498707Y625520D01*
X498644Y625565D01*
X498583Y625613D01*
X498524Y625663D01*
X498468Y625717D01*
X498414Y625773D01*
X498364Y625832D01*
X498316Y625893D01*
X498271Y625956D01*
X498230Y626022D01*
X498192Y626089D01*
X498157Y626158D01*
X498125Y626229D01*
X498097Y626302D01*
X498073Y626375D01*
X498052Y626450D01*
X498035Y626526D01*
X498022Y626602D01*
X498013Y626679D01*
X498007Y626756D01*
X498005Y626834D01*
X498004Y626834D02*
X498004Y630786D01*
X498005Y630786D02*
X498007Y630864D01*
X498013Y630941D01*
X498022Y631018D01*
X498035Y631094D01*
X498052Y631170D01*
X498073Y631245D01*
X498097Y631318D01*
X498125Y631391D01*
X498157Y631462D01*
X498192Y631531D01*
X498230Y631598D01*
X498271Y631664D01*
X498316Y631727D01*
X498364Y631788D01*
X498414Y631847D01*
X498468Y631903D01*
X498524Y631957D01*
X498583Y632007D01*
X498644Y632055D01*
X498707Y632100D01*
X498773Y632141D01*
X498840Y632179D01*
X498909Y632214D01*
X498980Y632246D01*
X499053Y632274D01*
X499126Y632298D01*
X499201Y632319D01*
X499277Y632336D01*
X499353Y632349D01*
X499430Y632358D01*
X499507Y632364D01*
X499585Y632366D01*
X501955Y632366D01*
X505695Y632366D02*
X505695Y625254D01*
X506485Y625254D02*
X504904Y625254D01*
X504904Y632366D02*
X506485Y632366D01*
X509434Y632366D02*
X509434Y625254D01*
X513385Y625254D02*
X509434Y632366D01*
X513385Y632366D02*
X513385Y625254D01*
X519515Y629205D02*
X520700Y629205D01*
X520700Y625254D01*
X518330Y625254D01*
X518252Y625256D01*
X518175Y625262D01*
X518098Y625271D01*
X518022Y625284D01*
X517946Y625301D01*
X517871Y625322D01*
X517798Y625346D01*
X517725Y625374D01*
X517654Y625406D01*
X517585Y625441D01*
X517518Y625479D01*
X517452Y625520D01*
X517389Y625565D01*
X517328Y625613D01*
X517269Y625663D01*
X517213Y625717D01*
X517159Y625773D01*
X517109Y625832D01*
X517061Y625893D01*
X517016Y625956D01*
X516975Y626022D01*
X516937Y626089D01*
X516902Y626158D01*
X516870Y626229D01*
X516842Y626302D01*
X516818Y626375D01*
X516797Y626450D01*
X516780Y626526D01*
X516767Y626602D01*
X516758Y626679D01*
X516752Y626756D01*
X516750Y626834D01*
X516749Y626834D02*
X516749Y630786D01*
X516750Y630786D02*
X516752Y630864D01*
X516758Y630941D01*
X516767Y631018D01*
X516780Y631094D01*
X516797Y631170D01*
X516818Y631245D01*
X516842Y631318D01*
X516870Y631391D01*
X516902Y631462D01*
X516937Y631531D01*
X516975Y631598D01*
X517016Y631664D01*
X517061Y631727D01*
X517109Y631788D01*
X517159Y631847D01*
X517213Y631903D01*
X517269Y631957D01*
X517328Y632007D01*
X517389Y632055D01*
X517452Y632100D01*
X517518Y632141D01*
X517585Y632179D01*
X517654Y632214D01*
X517725Y632246D01*
X517798Y632274D01*
X517871Y632298D01*
X517946Y632319D01*
X518022Y632336D01*
X518098Y632349D01*
X518175Y632358D01*
X518252Y632364D01*
X518330Y632366D01*
X520700Y632366D01*
D12*
X451600Y706900D02*
X451602Y706998D01*
X451608Y707096D01*
X451617Y707194D01*
X451631Y707291D01*
X451648Y707388D01*
X451669Y707484D01*
X451694Y707579D01*
X451722Y707673D01*
X451755Y707765D01*
X451790Y707857D01*
X451830Y707947D01*
X451872Y708035D01*
X451919Y708122D01*
X451968Y708206D01*
X452021Y708289D01*
X452077Y708369D01*
X452137Y708448D01*
X452199Y708524D01*
X452264Y708597D01*
X452332Y708668D01*
X452403Y708736D01*
X452476Y708801D01*
X452552Y708863D01*
X452631Y708923D01*
X452711Y708979D01*
X452794Y709032D01*
X452878Y709081D01*
X452965Y709128D01*
X453053Y709170D01*
X453143Y709210D01*
X453235Y709245D01*
X453327Y709278D01*
X453421Y709306D01*
X453516Y709331D01*
X453612Y709352D01*
X453709Y709369D01*
X453806Y709383D01*
X453904Y709392D01*
X454002Y709398D01*
X454100Y709400D01*
X509100Y709400D01*
X509198Y709398D01*
X509296Y709392D01*
X509394Y709383D01*
X509491Y709369D01*
X509588Y709352D01*
X509684Y709331D01*
X509779Y709306D01*
X509873Y709278D01*
X509965Y709245D01*
X510057Y709210D01*
X510147Y709170D01*
X510235Y709128D01*
X510322Y709081D01*
X510406Y709032D01*
X510489Y708979D01*
X510569Y708923D01*
X510648Y708863D01*
X510724Y708801D01*
X510797Y708736D01*
X510868Y708668D01*
X510936Y708597D01*
X511001Y708524D01*
X511063Y708448D01*
X511123Y708369D01*
X511179Y708289D01*
X511232Y708206D01*
X511281Y708122D01*
X511328Y708035D01*
X511370Y707947D01*
X511410Y707857D01*
X511445Y707765D01*
X511478Y707673D01*
X511506Y707579D01*
X511531Y707484D01*
X511552Y707388D01*
X511569Y707291D01*
X511583Y707194D01*
X511592Y707096D01*
X511598Y706998D01*
X511600Y706900D01*
X511600Y676900D02*
X511580Y676793D01*
X511556Y676687D01*
X511529Y676582D01*
X511498Y676478D01*
X511463Y676375D01*
X511425Y676274D01*
X511383Y676174D01*
X511337Y676075D01*
X511288Y675978D01*
X511236Y675883D01*
X511180Y675790D01*
X511121Y675699D01*
X511059Y675610D01*
X510993Y675524D01*
X510925Y675439D01*
X510853Y675358D01*
X510779Y675279D01*
X510702Y675202D01*
X510622Y675129D01*
X510540Y675058D01*
X510455Y674990D01*
X510368Y674925D01*
X510278Y674864D01*
X510187Y674806D01*
X510093Y674751D01*
X509997Y674699D01*
X509900Y674651D01*
X509801Y674606D01*
X509701Y674565D01*
X509599Y674528D01*
X509496Y674494D01*
X509391Y674464D01*
X509286Y674437D01*
X509180Y674415D01*
X509073Y674396D01*
X508965Y674381D01*
X508857Y674370D01*
X508749Y674363D01*
X508641Y674359D01*
X508532Y674360D01*
X508424Y674364D01*
X508315Y674372D01*
X508207Y674384D01*
X508100Y674400D01*
X454100Y674400D01*
X454002Y674402D01*
X453904Y674408D01*
X453806Y674417D01*
X453709Y674431D01*
X453612Y674448D01*
X453516Y674469D01*
X453421Y674494D01*
X453327Y674522D01*
X453235Y674555D01*
X453143Y674590D01*
X453053Y674630D01*
X452965Y674672D01*
X452878Y674719D01*
X452794Y674768D01*
X452711Y674821D01*
X452631Y674877D01*
X452552Y674937D01*
X452476Y674999D01*
X452403Y675064D01*
X452332Y675132D01*
X452264Y675203D01*
X452199Y675276D01*
X452137Y675352D01*
X452077Y675431D01*
X452021Y675511D01*
X451968Y675594D01*
X451919Y675678D01*
X451872Y675765D01*
X451830Y675853D01*
X451790Y675943D01*
X451755Y676035D01*
X451722Y676127D01*
X451694Y676221D01*
X451669Y676316D01*
X451648Y676412D01*
X451631Y676509D01*
X451617Y676606D01*
X451608Y676704D01*
X451602Y676802D01*
X451600Y676900D01*
X451600Y680900D01*
X451600Y702900D02*
X451600Y706900D01*
X511600Y706900D02*
X511600Y702900D01*
X511600Y680900D02*
X511600Y676900D01*
X496600Y699400D02*
X466600Y699400D01*
X466600Y684400D02*
X496600Y684400D01*
X466600Y684400D02*
X466600Y699400D01*
X496600Y699400D02*
X496600Y684400D01*
D14*
X455015Y712154D02*
X451854Y712154D01*
X451854Y719266D01*
X455015Y719266D01*
X454225Y716105D02*
X451854Y716105D01*
X457161Y719266D02*
X459532Y712154D01*
X461903Y719266D01*
X464124Y711364D02*
X467285Y711364D01*
X471463Y712154D02*
X473043Y712154D01*
X471463Y712154D02*
X471385Y712156D01*
X471308Y712162D01*
X471231Y712171D01*
X471155Y712184D01*
X471079Y712201D01*
X471004Y712222D01*
X470931Y712246D01*
X470858Y712274D01*
X470787Y712306D01*
X470718Y712341D01*
X470651Y712379D01*
X470585Y712420D01*
X470522Y712465D01*
X470461Y712513D01*
X470402Y712563D01*
X470346Y712617D01*
X470292Y712673D01*
X470242Y712732D01*
X470194Y712793D01*
X470149Y712856D01*
X470108Y712922D01*
X470070Y712989D01*
X470035Y713058D01*
X470003Y713129D01*
X469975Y713202D01*
X469951Y713275D01*
X469930Y713350D01*
X469913Y713426D01*
X469900Y713502D01*
X469891Y713579D01*
X469885Y713656D01*
X469883Y713734D01*
X469883Y717686D01*
X469885Y717764D01*
X469891Y717841D01*
X469900Y717918D01*
X469913Y717994D01*
X469930Y718070D01*
X469951Y718145D01*
X469975Y718218D01*
X470003Y718291D01*
X470035Y718362D01*
X470070Y718431D01*
X470108Y718498D01*
X470149Y718564D01*
X470194Y718627D01*
X470242Y718688D01*
X470292Y718747D01*
X470346Y718803D01*
X470402Y718857D01*
X470461Y718907D01*
X470522Y718955D01*
X470585Y719000D01*
X470651Y719041D01*
X470718Y719079D01*
X470787Y719114D01*
X470858Y719146D01*
X470931Y719174D01*
X471004Y719198D01*
X471079Y719219D01*
X471155Y719236D01*
X471231Y719249D01*
X471308Y719258D01*
X471385Y719264D01*
X471463Y719266D01*
X473043Y719266D01*
X475616Y717290D02*
X475616Y714130D01*
X475615Y717290D02*
X475617Y717377D01*
X475623Y717465D01*
X475632Y717552D01*
X475646Y717638D01*
X475663Y717724D01*
X475684Y717808D01*
X475709Y717892D01*
X475738Y717975D01*
X475770Y718056D01*
X475805Y718136D01*
X475844Y718214D01*
X475887Y718291D01*
X475933Y718365D01*
X475982Y718437D01*
X476034Y718507D01*
X476090Y718575D01*
X476148Y718640D01*
X476209Y718703D01*
X476273Y718762D01*
X476340Y718819D01*
X476408Y718873D01*
X476480Y718924D01*
X476553Y718971D01*
X476628Y719016D01*
X476706Y719057D01*
X476785Y719094D01*
X476865Y719128D01*
X476947Y719158D01*
X477030Y719185D01*
X477115Y719208D01*
X477200Y719227D01*
X477286Y719242D01*
X477373Y719254D01*
X477460Y719262D01*
X477547Y719266D01*
X477635Y719266D01*
X477722Y719262D01*
X477809Y719254D01*
X477896Y719242D01*
X477982Y719227D01*
X478067Y719208D01*
X478152Y719185D01*
X478235Y719158D01*
X478317Y719128D01*
X478397Y719094D01*
X478476Y719057D01*
X478554Y719016D01*
X478629Y718971D01*
X478702Y718924D01*
X478774Y718873D01*
X478842Y718819D01*
X478909Y718762D01*
X478973Y718703D01*
X479034Y718640D01*
X479092Y718575D01*
X479148Y718507D01*
X479200Y718437D01*
X479249Y718365D01*
X479295Y718291D01*
X479338Y718214D01*
X479377Y718136D01*
X479412Y718056D01*
X479444Y717975D01*
X479473Y717892D01*
X479498Y717808D01*
X479519Y717724D01*
X479536Y717638D01*
X479550Y717552D01*
X479559Y717465D01*
X479565Y717377D01*
X479567Y717290D01*
X479567Y714130D01*
X479565Y714043D01*
X479559Y713955D01*
X479550Y713868D01*
X479536Y713782D01*
X479519Y713696D01*
X479498Y713612D01*
X479473Y713528D01*
X479444Y713445D01*
X479412Y713364D01*
X479377Y713284D01*
X479338Y713206D01*
X479295Y713129D01*
X479249Y713055D01*
X479200Y712983D01*
X479148Y712913D01*
X479092Y712845D01*
X479034Y712780D01*
X478973Y712717D01*
X478909Y712658D01*
X478842Y712601D01*
X478774Y712547D01*
X478702Y712496D01*
X478629Y712449D01*
X478554Y712404D01*
X478476Y712363D01*
X478397Y712326D01*
X478317Y712292D01*
X478235Y712262D01*
X478152Y712235D01*
X478067Y712212D01*
X477982Y712193D01*
X477896Y712178D01*
X477809Y712166D01*
X477722Y712158D01*
X477635Y712154D01*
X477547Y712154D01*
X477460Y712158D01*
X477373Y712166D01*
X477286Y712178D01*
X477200Y712193D01*
X477115Y712212D01*
X477030Y712235D01*
X476947Y712262D01*
X476865Y712292D01*
X476785Y712326D01*
X476706Y712363D01*
X476628Y712404D01*
X476553Y712449D01*
X476480Y712496D01*
X476408Y712547D01*
X476340Y712601D01*
X476273Y712658D01*
X476209Y712717D01*
X476148Y712780D01*
X476090Y712845D01*
X476034Y712913D01*
X475982Y712983D01*
X475933Y713055D01*
X475887Y713129D01*
X475844Y713206D01*
X475805Y713284D01*
X475770Y713364D01*
X475738Y713445D01*
X475709Y713528D01*
X475684Y713612D01*
X475663Y713696D01*
X475646Y713782D01*
X475632Y713868D01*
X475623Y713955D01*
X475617Y714043D01*
X475615Y714130D01*
X482702Y712154D02*
X482702Y719266D01*
X486653Y712154D01*
X486653Y719266D01*
X490018Y719266D02*
X490018Y712154D01*
X493969Y712154D02*
X490018Y719266D01*
X493969Y719266D02*
X493969Y712154D01*
X497345Y712154D02*
X500506Y712154D01*
X497345Y712154D02*
X497345Y719266D01*
X500506Y719266D01*
X499716Y716105D02*
X497345Y716105D01*
X504610Y712154D02*
X506190Y712154D01*
X504610Y712154D02*
X504532Y712156D01*
X504455Y712162D01*
X504378Y712171D01*
X504302Y712184D01*
X504226Y712201D01*
X504151Y712222D01*
X504078Y712246D01*
X504005Y712274D01*
X503934Y712306D01*
X503865Y712341D01*
X503798Y712379D01*
X503732Y712420D01*
X503669Y712465D01*
X503608Y712513D01*
X503549Y712563D01*
X503493Y712617D01*
X503439Y712673D01*
X503389Y712732D01*
X503341Y712793D01*
X503296Y712856D01*
X503255Y712922D01*
X503217Y712989D01*
X503182Y713058D01*
X503150Y713129D01*
X503122Y713202D01*
X503098Y713275D01*
X503077Y713350D01*
X503060Y713426D01*
X503047Y713502D01*
X503038Y713579D01*
X503032Y713656D01*
X503030Y713734D01*
X503029Y713734D02*
X503029Y717686D01*
X503030Y717686D02*
X503032Y717764D01*
X503038Y717841D01*
X503047Y717918D01*
X503060Y717994D01*
X503077Y718070D01*
X503098Y718145D01*
X503122Y718218D01*
X503150Y718291D01*
X503182Y718362D01*
X503217Y718431D01*
X503255Y718498D01*
X503296Y718564D01*
X503341Y718627D01*
X503389Y718688D01*
X503439Y718747D01*
X503493Y718803D01*
X503549Y718857D01*
X503608Y718907D01*
X503669Y718955D01*
X503732Y719000D01*
X503798Y719041D01*
X503865Y719079D01*
X503934Y719114D01*
X504005Y719146D01*
X504078Y719174D01*
X504151Y719198D01*
X504226Y719219D01*
X504302Y719236D01*
X504378Y719249D01*
X504455Y719258D01*
X504532Y719264D01*
X504610Y719266D01*
X506190Y719266D01*
X510281Y719266D02*
X510281Y712154D01*
X508305Y719266D02*
X512257Y719266D01*
D15*
X351850Y952600D02*
X358200Y958950D01*
X351850Y952600D02*
X339150Y952600D01*
X332800Y958950D01*
X332800Y971650D01*
X339150Y978000D01*
X351850Y978000D01*
X358200Y971650D01*
X389950Y952600D02*
X402650Y952600D01*
X389950Y952600D02*
X383600Y958950D01*
X383600Y971650D01*
X389950Y978000D01*
X383600Y958950D02*
X377250Y952600D01*
X364550Y952600D01*
X358200Y958950D01*
X358200Y971650D01*
X364550Y978000D01*
X377250Y978000D01*
X383600Y971650D01*
X409000Y971650D02*
X409000Y958950D01*
X402650Y952600D01*
X409000Y971650D02*
X402650Y978000D01*
X389950Y978000D01*
X326450Y952600D02*
X313750Y952600D01*
X307400Y958950D01*
X307400Y971650D01*
X313750Y978000D01*
X332800Y958950D02*
X326450Y952600D01*
X332800Y971650D02*
X326450Y978000D01*
X313750Y978000D01*
D12*
X386685Y946377D02*
X386685Y934947D01*
X385415Y934947D02*
X387955Y934947D01*
X387955Y946377D02*
X385415Y946377D01*
X396147Y946378D02*
X396251Y946376D01*
X396356Y946370D01*
X396460Y946361D01*
X396563Y946348D01*
X396666Y946330D01*
X396768Y946310D01*
X396870Y946285D01*
X396970Y946257D01*
X397070Y946225D01*
X397168Y946189D01*
X397265Y946150D01*
X397360Y946108D01*
X397454Y946062D01*
X397546Y946012D01*
X397636Y945960D01*
X397724Y945904D01*
X397810Y945844D01*
X397894Y945782D01*
X397975Y945717D01*
X398054Y945649D01*
X398131Y945577D01*
X398204Y945504D01*
X398276Y945427D01*
X398344Y945348D01*
X398409Y945267D01*
X398471Y945183D01*
X398531Y945097D01*
X398587Y945009D01*
X398639Y944919D01*
X398689Y944827D01*
X398735Y944733D01*
X398777Y944638D01*
X398816Y944541D01*
X398852Y944443D01*
X398884Y944343D01*
X398912Y944243D01*
X398937Y944141D01*
X398957Y944039D01*
X398975Y943936D01*
X398988Y943833D01*
X398997Y943729D01*
X399003Y943624D01*
X399005Y943520D01*
X396147Y946377D02*
X396029Y946375D01*
X395910Y946369D01*
X395792Y946360D01*
X395675Y946347D01*
X395558Y946329D01*
X395441Y946309D01*
X395325Y946284D01*
X395210Y946256D01*
X395097Y946223D01*
X394984Y946188D01*
X394872Y946148D01*
X394762Y946106D01*
X394653Y946059D01*
X394545Y946009D01*
X394440Y945956D01*
X394336Y945899D01*
X394234Y945839D01*
X394134Y945776D01*
X394036Y945709D01*
X393940Y945640D01*
X393847Y945567D01*
X393756Y945491D01*
X393667Y945413D01*
X393581Y945331D01*
X393498Y945247D01*
X393417Y945161D01*
X393340Y945071D01*
X393265Y944980D01*
X393193Y944886D01*
X393124Y944789D01*
X393059Y944691D01*
X392996Y944590D01*
X392937Y944487D01*
X392881Y944383D01*
X392829Y944277D01*
X392780Y944169D01*
X392735Y944060D01*
X392693Y943949D01*
X392655Y943837D01*
X398052Y941298D02*
X398128Y941373D01*
X398203Y941452D01*
X398274Y941533D01*
X398343Y941617D01*
X398408Y941703D01*
X398470Y941791D01*
X398530Y941881D01*
X398586Y941973D01*
X398639Y942068D01*
X398688Y942164D01*
X398734Y942262D01*
X398777Y942361D01*
X398816Y942462D01*
X398851Y942564D01*
X398883Y942667D01*
X398911Y942771D01*
X398936Y942876D01*
X398957Y942983D01*
X398974Y943089D01*
X398987Y943196D01*
X398996Y943304D01*
X399002Y943412D01*
X399004Y943520D01*
X398052Y941297D02*
X392654Y934947D01*
X399004Y934947D01*
X406587Y934947D02*
X409127Y934947D01*
X406587Y934947D02*
X406487Y934949D01*
X406388Y934955D01*
X406288Y934965D01*
X406190Y934978D01*
X406091Y934996D01*
X405994Y935017D01*
X405898Y935042D01*
X405802Y935071D01*
X405708Y935104D01*
X405615Y935140D01*
X405524Y935180D01*
X405434Y935224D01*
X405346Y935271D01*
X405260Y935321D01*
X405176Y935375D01*
X405094Y935432D01*
X405015Y935492D01*
X404937Y935556D01*
X404863Y935622D01*
X404791Y935691D01*
X404722Y935763D01*
X404656Y935837D01*
X404592Y935915D01*
X404532Y935994D01*
X404475Y936076D01*
X404421Y936160D01*
X404371Y936246D01*
X404324Y936334D01*
X404280Y936424D01*
X404240Y936515D01*
X404204Y936608D01*
X404171Y936702D01*
X404142Y936798D01*
X404117Y936894D01*
X404096Y936991D01*
X404078Y937090D01*
X404065Y937188D01*
X404055Y937288D01*
X404049Y937387D01*
X404047Y937487D01*
X404047Y943837D01*
X404049Y943937D01*
X404055Y944036D01*
X404065Y944136D01*
X404078Y944234D01*
X404096Y944333D01*
X404117Y944430D01*
X404142Y944526D01*
X404171Y944622D01*
X404204Y944716D01*
X404240Y944809D01*
X404280Y944900D01*
X404324Y944990D01*
X404371Y945078D01*
X404421Y945164D01*
X404475Y945248D01*
X404532Y945330D01*
X404592Y945409D01*
X404656Y945487D01*
X404722Y945561D01*
X404791Y945633D01*
X404863Y945702D01*
X404937Y945768D01*
X405015Y945832D01*
X405094Y945892D01*
X405176Y945949D01*
X405260Y946003D01*
X405346Y946053D01*
X405434Y946100D01*
X405524Y946144D01*
X405615Y946184D01*
X405708Y946220D01*
X405802Y946253D01*
X405898Y946282D01*
X405994Y946307D01*
X406091Y946328D01*
X406190Y946346D01*
X406288Y946359D01*
X406388Y946369D01*
X406487Y946375D01*
X406587Y946377D01*
X409127Y946377D01*
D11*
X359700Y658200D02*
X359700Y652200D01*
X330700Y652200D01*
X330700Y658200D01*
X359700Y658200D01*
X360200Y661700D02*
X360200Y673700D01*
D10*
X316042Y643892D02*
X304358Y643892D01*
X316042Y642594D02*
X316042Y645190D01*
X304358Y645190D02*
X304358Y642594D01*
X316042Y652354D02*
X316042Y654950D01*
X316042Y652354D02*
X316040Y652255D01*
X316034Y652155D01*
X316025Y652056D01*
X316012Y651958D01*
X315995Y651860D01*
X315974Y651762D01*
X315949Y651666D01*
X315921Y651571D01*
X315889Y651477D01*
X315854Y651384D01*
X315815Y651292D01*
X315772Y651202D01*
X315727Y651114D01*
X315677Y651027D01*
X315625Y650943D01*
X315569Y650860D01*
X315511Y650780D01*
X315449Y650702D01*
X315384Y650627D01*
X315316Y650554D01*
X315246Y650484D01*
X315173Y650416D01*
X315098Y650351D01*
X315020Y650289D01*
X314940Y650231D01*
X314857Y650175D01*
X314773Y650123D01*
X314686Y650073D01*
X314598Y650028D01*
X314508Y649985D01*
X314416Y649946D01*
X314323Y649911D01*
X314229Y649879D01*
X314134Y649851D01*
X314038Y649826D01*
X313940Y649805D01*
X313842Y649788D01*
X313744Y649775D01*
X313645Y649766D01*
X313545Y649760D01*
X313446Y649758D01*
X313446Y649757D02*
X306954Y649757D01*
X306855Y649759D01*
X306755Y649765D01*
X306656Y649774D01*
X306558Y649787D01*
X306460Y649805D01*
X306362Y649825D01*
X306266Y649850D01*
X306170Y649878D01*
X306076Y649910D01*
X305983Y649945D01*
X305892Y649984D01*
X305802Y650027D01*
X305713Y650072D01*
X305627Y650122D01*
X305542Y650174D01*
X305460Y650230D01*
X305380Y650289D01*
X305302Y650350D01*
X305226Y650415D01*
X305153Y650483D01*
X305083Y650553D01*
X305015Y650626D01*
X304950Y650702D01*
X304889Y650780D01*
X304830Y650860D01*
X304774Y650942D01*
X304722Y651027D01*
X304673Y651113D01*
X304627Y651202D01*
X304584Y651292D01*
X304545Y651383D01*
X304510Y651476D01*
X304478Y651570D01*
X304450Y651666D01*
X304425Y651762D01*
X304405Y651860D01*
X304387Y651958D01*
X304374Y652056D01*
X304365Y652155D01*
X304359Y652254D01*
X304357Y652354D01*
X304358Y652354D02*
X304358Y654950D01*
X306954Y659315D02*
X304358Y662561D01*
X316042Y662561D01*
X316042Y665806D02*
X316042Y659315D01*
D11*
X61900Y921800D02*
X55900Y921800D01*
X55900Y983800D01*
X111300Y983800D01*
X111300Y921800D01*
X103900Y921800D01*
X50900Y952800D02*
X50898Y952756D01*
X50892Y952713D01*
X50883Y952671D01*
X50870Y952629D01*
X50853Y952589D01*
X50833Y952550D01*
X50810Y952513D01*
X50783Y952479D01*
X50754Y952446D01*
X50721Y952417D01*
X50687Y952390D01*
X50650Y952367D01*
X50611Y952347D01*
X50571Y952330D01*
X50529Y952317D01*
X50487Y952308D01*
X50444Y952302D01*
X50400Y952300D01*
X50356Y952302D01*
X50313Y952308D01*
X50271Y952317D01*
X50229Y952330D01*
X50189Y952347D01*
X50150Y952367D01*
X50113Y952390D01*
X50079Y952417D01*
X50046Y952446D01*
X50017Y952479D01*
X49990Y952513D01*
X49967Y952550D01*
X49947Y952589D01*
X49930Y952629D01*
X49917Y952671D01*
X49908Y952713D01*
X49902Y952756D01*
X49900Y952800D01*
X49902Y952844D01*
X49908Y952887D01*
X49917Y952929D01*
X49930Y952971D01*
X49947Y953011D01*
X49967Y953050D01*
X49990Y953087D01*
X50017Y953121D01*
X50046Y953154D01*
X50079Y953183D01*
X50113Y953210D01*
X50150Y953233D01*
X50189Y953253D01*
X50229Y953270D01*
X50271Y953283D01*
X50313Y953292D01*
X50356Y953298D01*
X50400Y953300D01*
X50444Y953298D01*
X50487Y953292D01*
X50529Y953283D01*
X50571Y953270D01*
X50611Y953253D01*
X50650Y953233D01*
X50687Y953210D01*
X50721Y953183D01*
X50754Y953154D01*
X50783Y953121D01*
X50810Y953087D01*
X50833Y953050D01*
X50853Y953011D01*
X50870Y952971D01*
X50883Y952929D01*
X50892Y952887D01*
X50898Y952844D01*
X50900Y952800D01*
X50898Y952756D01*
X50892Y952713D01*
X50883Y952671D01*
X50870Y952629D01*
X50853Y952589D01*
X50833Y952550D01*
X50810Y952513D01*
X50783Y952479D01*
X50754Y952446D01*
X50721Y952417D01*
X50687Y952390D01*
X50650Y952367D01*
X50611Y952347D01*
X50571Y952330D01*
X50529Y952317D01*
X50487Y952308D01*
X50444Y952302D01*
X50400Y952300D01*
X50356Y952302D01*
X50313Y952308D01*
X50271Y952317D01*
X50229Y952330D01*
X50189Y952347D01*
X50150Y952367D01*
X50113Y952390D01*
X50079Y952417D01*
X50046Y952446D01*
X50017Y952479D01*
X49990Y952513D01*
X49967Y952550D01*
X49947Y952589D01*
X49930Y952629D01*
X49917Y952671D01*
X49908Y952713D01*
X49902Y952756D01*
X49900Y952800D01*
D10*
X79665Y945642D02*
X79665Y936554D01*
X79663Y936455D01*
X79657Y936355D01*
X79648Y936256D01*
X79635Y936158D01*
X79618Y936060D01*
X79597Y935962D01*
X79572Y935866D01*
X79544Y935771D01*
X79512Y935677D01*
X79477Y935584D01*
X79438Y935492D01*
X79395Y935402D01*
X79350Y935314D01*
X79300Y935227D01*
X79248Y935143D01*
X79192Y935060D01*
X79134Y934980D01*
X79072Y934902D01*
X79007Y934827D01*
X78939Y934754D01*
X78869Y934684D01*
X78796Y934616D01*
X78721Y934551D01*
X78643Y934489D01*
X78563Y934431D01*
X78480Y934375D01*
X78396Y934323D01*
X78309Y934273D01*
X78221Y934228D01*
X78131Y934185D01*
X78039Y934146D01*
X77946Y934111D01*
X77852Y934079D01*
X77757Y934051D01*
X77661Y934026D01*
X77563Y934005D01*
X77465Y933988D01*
X77367Y933975D01*
X77268Y933966D01*
X77168Y933960D01*
X77069Y933958D01*
X75770Y933958D01*
X84939Y943046D02*
X88184Y945642D01*
X88184Y933958D01*
X84939Y933958D02*
X91430Y933958D01*
D11*
X107300Y727150D02*
X107300Y717650D01*
X107300Y727150D02*
X136300Y727150D01*
X136300Y717650D01*
X107300Y717650D01*
X106800Y714150D02*
X106800Y705650D01*
D10*
X97396Y716583D02*
X92204Y716583D01*
X92204Y716582D02*
X92091Y716584D01*
X91978Y716590D01*
X91865Y716600D01*
X91752Y716614D01*
X91640Y716631D01*
X91529Y716653D01*
X91419Y716678D01*
X91309Y716708D01*
X91201Y716741D01*
X91094Y716778D01*
X90988Y716818D01*
X90884Y716863D01*
X90781Y716911D01*
X90680Y716962D01*
X90581Y717017D01*
X90484Y717075D01*
X90389Y717137D01*
X90296Y717202D01*
X90206Y717270D01*
X90118Y717341D01*
X90032Y717416D01*
X89949Y717493D01*
X89869Y717573D01*
X89792Y717656D01*
X89717Y717742D01*
X89646Y717830D01*
X89578Y717920D01*
X89513Y718013D01*
X89451Y718108D01*
X89393Y718205D01*
X89338Y718304D01*
X89287Y718405D01*
X89239Y718508D01*
X89194Y718612D01*
X89154Y718718D01*
X89117Y718825D01*
X89084Y718933D01*
X89054Y719043D01*
X89029Y719153D01*
X89007Y719264D01*
X88990Y719376D01*
X88976Y719489D01*
X88966Y719602D01*
X88960Y719715D01*
X88958Y719828D01*
X88960Y719941D01*
X88966Y720054D01*
X88976Y720167D01*
X88990Y720280D01*
X89007Y720392D01*
X89029Y720503D01*
X89054Y720613D01*
X89084Y720723D01*
X89117Y720831D01*
X89154Y720938D01*
X89194Y721044D01*
X89239Y721148D01*
X89287Y721251D01*
X89338Y721352D01*
X89393Y721451D01*
X89451Y721548D01*
X89513Y721643D01*
X89578Y721736D01*
X89646Y721826D01*
X89717Y721914D01*
X89792Y722000D01*
X89869Y722083D01*
X89949Y722163D01*
X90032Y722240D01*
X90118Y722315D01*
X90206Y722386D01*
X90296Y722454D01*
X90389Y722519D01*
X90484Y722581D01*
X90581Y722639D01*
X90680Y722694D01*
X90781Y722745D01*
X90884Y722793D01*
X90988Y722838D01*
X91094Y722878D01*
X91201Y722915D01*
X91309Y722948D01*
X91419Y722978D01*
X91529Y723003D01*
X91640Y723025D01*
X91752Y723042D01*
X91865Y723056D01*
X91978Y723066D01*
X92091Y723072D01*
X92204Y723074D01*
X97396Y723074D01*
X97509Y723072D01*
X97622Y723066D01*
X97735Y723056D01*
X97848Y723042D01*
X97960Y723025D01*
X98071Y723003D01*
X98181Y722978D01*
X98291Y722948D01*
X98399Y722915D01*
X98506Y722878D01*
X98612Y722838D01*
X98716Y722793D01*
X98819Y722745D01*
X98920Y722694D01*
X99019Y722639D01*
X99116Y722581D01*
X99211Y722519D01*
X99304Y722454D01*
X99394Y722386D01*
X99482Y722315D01*
X99568Y722240D01*
X99651Y722163D01*
X99731Y722083D01*
X99808Y722000D01*
X99883Y721914D01*
X99954Y721826D01*
X100022Y721736D01*
X100087Y721643D01*
X100149Y721548D01*
X100207Y721451D01*
X100262Y721352D01*
X100313Y721251D01*
X100361Y721148D01*
X100406Y721044D01*
X100446Y720938D01*
X100483Y720831D01*
X100516Y720723D01*
X100546Y720613D01*
X100571Y720503D01*
X100593Y720392D01*
X100610Y720280D01*
X100624Y720167D01*
X100634Y720054D01*
X100640Y719941D01*
X100642Y719828D01*
X100640Y719715D01*
X100634Y719602D01*
X100624Y719489D01*
X100610Y719376D01*
X100593Y719264D01*
X100571Y719153D01*
X100546Y719043D01*
X100516Y718933D01*
X100483Y718825D01*
X100446Y718718D01*
X100406Y718612D01*
X100361Y718508D01*
X100313Y718405D01*
X100262Y718304D01*
X100207Y718205D01*
X100149Y718108D01*
X100087Y718013D01*
X100022Y717920D01*
X99954Y717830D01*
X99883Y717742D01*
X99808Y717656D01*
X99731Y717573D01*
X99651Y717493D01*
X99568Y717416D01*
X99482Y717341D01*
X99394Y717270D01*
X99304Y717202D01*
X99211Y717137D01*
X99116Y717075D01*
X99019Y717017D01*
X98920Y716962D01*
X98819Y716911D01*
X98716Y716863D01*
X98612Y716818D01*
X98506Y716778D01*
X98399Y716741D01*
X98291Y716708D01*
X98181Y716678D01*
X98071Y716653D01*
X97960Y716631D01*
X97848Y716614D01*
X97735Y716600D01*
X97622Y716590D01*
X97509Y716584D01*
X97396Y716582D01*
X98046Y721775D02*
X100642Y724372D01*
X98046Y727726D02*
X88958Y730323D01*
X98046Y727726D02*
X98046Y734218D01*
X100642Y732270D02*
X95449Y732270D01*
X261058Y684292D02*
X261058Y672608D01*
X261058Y684292D02*
X264304Y684292D01*
X264417Y684290D01*
X264530Y684284D01*
X264643Y684274D01*
X264756Y684260D01*
X264868Y684243D01*
X264979Y684221D01*
X265089Y684196D01*
X265199Y684166D01*
X265307Y684133D01*
X265414Y684096D01*
X265520Y684056D01*
X265624Y684011D01*
X265727Y683963D01*
X265828Y683912D01*
X265927Y683857D01*
X266024Y683799D01*
X266119Y683737D01*
X266212Y683672D01*
X266302Y683604D01*
X266390Y683533D01*
X266476Y683458D01*
X266559Y683381D01*
X266639Y683301D01*
X266716Y683218D01*
X266791Y683132D01*
X266862Y683044D01*
X266930Y682954D01*
X266995Y682861D01*
X267057Y682766D01*
X267115Y682669D01*
X267170Y682570D01*
X267221Y682469D01*
X267269Y682366D01*
X267314Y682262D01*
X267354Y682156D01*
X267391Y682049D01*
X267424Y681941D01*
X267454Y681831D01*
X267479Y681721D01*
X267501Y681610D01*
X267518Y681498D01*
X267532Y681385D01*
X267542Y681272D01*
X267548Y681159D01*
X267550Y681046D01*
X267548Y680933D01*
X267542Y680820D01*
X267532Y680707D01*
X267518Y680594D01*
X267501Y680482D01*
X267479Y680371D01*
X267454Y680261D01*
X267424Y680151D01*
X267391Y680043D01*
X267354Y679936D01*
X267314Y679830D01*
X267269Y679726D01*
X267221Y679623D01*
X267170Y679522D01*
X267115Y679423D01*
X267057Y679326D01*
X266995Y679231D01*
X266930Y679138D01*
X266862Y679048D01*
X266791Y678960D01*
X266716Y678874D01*
X266639Y678791D01*
X266559Y678711D01*
X266476Y678634D01*
X266390Y678559D01*
X266302Y678488D01*
X266212Y678420D01*
X266119Y678355D01*
X266024Y678293D01*
X265927Y678235D01*
X265828Y678180D01*
X265727Y678129D01*
X265624Y678081D01*
X265520Y678036D01*
X265414Y677996D01*
X265307Y677959D01*
X265199Y677926D01*
X265089Y677896D01*
X264979Y677871D01*
X264868Y677849D01*
X264756Y677832D01*
X264643Y677818D01*
X264530Y677808D01*
X264417Y677802D01*
X264304Y677800D01*
X264304Y677801D02*
X261058Y677801D01*
X264953Y677801D02*
X267549Y672608D01*
X272414Y681696D02*
X275660Y684292D01*
X275660Y672608D01*
X278905Y672608D02*
X272414Y672608D01*
X182458Y616792D02*
X182458Y605108D01*
X182458Y616792D02*
X185704Y616792D01*
X185817Y616790D01*
X185930Y616784D01*
X186043Y616774D01*
X186156Y616760D01*
X186268Y616743D01*
X186379Y616721D01*
X186489Y616696D01*
X186599Y616666D01*
X186707Y616633D01*
X186814Y616596D01*
X186920Y616556D01*
X187024Y616511D01*
X187127Y616463D01*
X187228Y616412D01*
X187327Y616357D01*
X187424Y616299D01*
X187519Y616237D01*
X187612Y616172D01*
X187702Y616104D01*
X187790Y616033D01*
X187876Y615958D01*
X187959Y615881D01*
X188039Y615801D01*
X188116Y615718D01*
X188191Y615632D01*
X188262Y615544D01*
X188330Y615454D01*
X188395Y615361D01*
X188457Y615266D01*
X188515Y615169D01*
X188570Y615070D01*
X188621Y614969D01*
X188669Y614866D01*
X188714Y614762D01*
X188754Y614656D01*
X188791Y614549D01*
X188824Y614441D01*
X188854Y614331D01*
X188879Y614221D01*
X188901Y614110D01*
X188918Y613998D01*
X188932Y613885D01*
X188942Y613772D01*
X188948Y613659D01*
X188950Y613546D01*
X188948Y613433D01*
X188942Y613320D01*
X188932Y613207D01*
X188918Y613094D01*
X188901Y612982D01*
X188879Y612871D01*
X188854Y612761D01*
X188824Y612651D01*
X188791Y612543D01*
X188754Y612436D01*
X188714Y612330D01*
X188669Y612226D01*
X188621Y612123D01*
X188570Y612022D01*
X188515Y611923D01*
X188457Y611826D01*
X188395Y611731D01*
X188330Y611638D01*
X188262Y611548D01*
X188191Y611460D01*
X188116Y611374D01*
X188039Y611291D01*
X187959Y611211D01*
X187876Y611134D01*
X187790Y611059D01*
X187702Y610988D01*
X187612Y610920D01*
X187519Y610855D01*
X187424Y610793D01*
X187327Y610735D01*
X187228Y610680D01*
X187127Y610629D01*
X187024Y610581D01*
X186920Y610536D01*
X186814Y610496D01*
X186707Y610459D01*
X186599Y610426D01*
X186489Y610396D01*
X186379Y610371D01*
X186268Y610349D01*
X186156Y610332D01*
X186043Y610318D01*
X185930Y610308D01*
X185817Y610302D01*
X185704Y610300D01*
X185704Y610301D02*
X182458Y610301D01*
X186353Y610301D02*
X188949Y605108D01*
X193814Y614196D02*
X197060Y616792D01*
X197060Y605108D01*
X200305Y605108D02*
X193814Y605108D01*
X208814Y616792D02*
X208921Y616790D01*
X209027Y616784D01*
X209133Y616774D01*
X209239Y616761D01*
X209345Y616743D01*
X209449Y616722D01*
X209553Y616697D01*
X209656Y616668D01*
X209757Y616636D01*
X209857Y616599D01*
X209956Y616559D01*
X210054Y616516D01*
X210150Y616469D01*
X210244Y616418D01*
X210336Y616364D01*
X210426Y616307D01*
X210514Y616247D01*
X210599Y616183D01*
X210682Y616116D01*
X210763Y616046D01*
X210841Y615974D01*
X210917Y615898D01*
X210989Y615820D01*
X211059Y615739D01*
X211126Y615656D01*
X211190Y615571D01*
X211250Y615483D01*
X211307Y615393D01*
X211361Y615301D01*
X211412Y615207D01*
X211459Y615111D01*
X211502Y615013D01*
X211542Y614914D01*
X211579Y614814D01*
X211611Y614713D01*
X211640Y614610D01*
X211665Y614506D01*
X211686Y614402D01*
X211704Y614296D01*
X211717Y614190D01*
X211727Y614084D01*
X211733Y613978D01*
X211735Y613871D01*
X208814Y616792D02*
X208693Y616790D01*
X208572Y616784D01*
X208452Y616774D01*
X208331Y616761D01*
X208212Y616743D01*
X208092Y616722D01*
X207974Y616697D01*
X207857Y616668D01*
X207740Y616635D01*
X207625Y616599D01*
X207511Y616558D01*
X207398Y616515D01*
X207286Y616467D01*
X207177Y616416D01*
X207069Y616361D01*
X206962Y616303D01*
X206858Y616242D01*
X206756Y616177D01*
X206656Y616109D01*
X206558Y616038D01*
X206462Y615964D01*
X206369Y615887D01*
X206279Y615806D01*
X206191Y615723D01*
X206106Y615637D01*
X206023Y615548D01*
X205944Y615457D01*
X205867Y615363D01*
X205794Y615267D01*
X205724Y615169D01*
X205657Y615068D01*
X205593Y614965D01*
X205533Y614860D01*
X205476Y614753D01*
X205422Y614645D01*
X205372Y614535D01*
X205326Y614423D01*
X205283Y614310D01*
X205244Y614195D01*
X210762Y611599D02*
X210841Y611676D01*
X210917Y611757D01*
X210990Y611840D01*
X211060Y611925D01*
X211127Y612013D01*
X211191Y612103D01*
X211251Y612195D01*
X211308Y612290D01*
X211362Y612386D01*
X211413Y612484D01*
X211460Y612584D01*
X211504Y612686D01*
X211544Y612789D01*
X211580Y612893D01*
X211612Y612999D01*
X211641Y613105D01*
X211666Y613213D01*
X211688Y613321D01*
X211705Y613431D01*
X211719Y613540D01*
X211728Y613650D01*
X211734Y613761D01*
X211736Y613871D01*
X210762Y611599D02*
X205244Y605108D01*
X211735Y605108D01*
X182958Y672108D02*
X182958Y683792D01*
X186204Y683792D01*
X186317Y683790D01*
X186430Y683784D01*
X186543Y683774D01*
X186656Y683760D01*
X186768Y683743D01*
X186879Y683721D01*
X186989Y683696D01*
X187099Y683666D01*
X187207Y683633D01*
X187314Y683596D01*
X187420Y683556D01*
X187524Y683511D01*
X187627Y683463D01*
X187728Y683412D01*
X187827Y683357D01*
X187924Y683299D01*
X188019Y683237D01*
X188112Y683172D01*
X188202Y683104D01*
X188290Y683033D01*
X188376Y682958D01*
X188459Y682881D01*
X188539Y682801D01*
X188616Y682718D01*
X188691Y682632D01*
X188762Y682544D01*
X188830Y682454D01*
X188895Y682361D01*
X188957Y682266D01*
X189015Y682169D01*
X189070Y682070D01*
X189121Y681969D01*
X189169Y681866D01*
X189214Y681762D01*
X189254Y681656D01*
X189291Y681549D01*
X189324Y681441D01*
X189354Y681331D01*
X189379Y681221D01*
X189401Y681110D01*
X189418Y680998D01*
X189432Y680885D01*
X189442Y680772D01*
X189448Y680659D01*
X189450Y680546D01*
X189448Y680433D01*
X189442Y680320D01*
X189432Y680207D01*
X189418Y680094D01*
X189401Y679982D01*
X189379Y679871D01*
X189354Y679761D01*
X189324Y679651D01*
X189291Y679543D01*
X189254Y679436D01*
X189214Y679330D01*
X189169Y679226D01*
X189121Y679123D01*
X189070Y679022D01*
X189015Y678923D01*
X188957Y678826D01*
X188895Y678731D01*
X188830Y678638D01*
X188762Y678548D01*
X188691Y678460D01*
X188616Y678374D01*
X188539Y678291D01*
X188459Y678211D01*
X188376Y678134D01*
X188290Y678059D01*
X188202Y677988D01*
X188112Y677920D01*
X188019Y677855D01*
X187924Y677793D01*
X187827Y677735D01*
X187728Y677680D01*
X187627Y677629D01*
X187524Y677581D01*
X187420Y677536D01*
X187314Y677496D01*
X187207Y677459D01*
X187099Y677426D01*
X186989Y677396D01*
X186879Y677371D01*
X186768Y677349D01*
X186656Y677332D01*
X186543Y677318D01*
X186430Y677308D01*
X186317Y677302D01*
X186204Y677300D01*
X186204Y677301D02*
X182958Y677301D01*
X186853Y677301D02*
X189449Y672108D01*
X194314Y681196D02*
X197560Y683792D01*
X197560Y672108D01*
X200805Y672108D02*
X194314Y672108D01*
X205744Y672108D02*
X208990Y672108D01*
X209103Y672110D01*
X209216Y672116D01*
X209329Y672126D01*
X209442Y672140D01*
X209554Y672157D01*
X209665Y672179D01*
X209775Y672204D01*
X209885Y672234D01*
X209993Y672267D01*
X210100Y672304D01*
X210206Y672344D01*
X210310Y672389D01*
X210413Y672437D01*
X210514Y672488D01*
X210613Y672543D01*
X210710Y672601D01*
X210805Y672663D01*
X210898Y672728D01*
X210988Y672796D01*
X211076Y672867D01*
X211162Y672942D01*
X211245Y673019D01*
X211325Y673099D01*
X211402Y673182D01*
X211477Y673268D01*
X211548Y673356D01*
X211616Y673446D01*
X211681Y673539D01*
X211743Y673634D01*
X211801Y673731D01*
X211856Y673830D01*
X211907Y673931D01*
X211955Y674034D01*
X212000Y674138D01*
X212040Y674244D01*
X212077Y674351D01*
X212110Y674459D01*
X212140Y674569D01*
X212165Y674679D01*
X212187Y674790D01*
X212204Y674902D01*
X212218Y675015D01*
X212228Y675128D01*
X212234Y675241D01*
X212236Y675354D01*
X212234Y675467D01*
X212228Y675580D01*
X212218Y675693D01*
X212204Y675806D01*
X212187Y675918D01*
X212165Y676029D01*
X212140Y676139D01*
X212110Y676249D01*
X212077Y676357D01*
X212040Y676464D01*
X212000Y676570D01*
X211955Y676674D01*
X211907Y676777D01*
X211856Y676878D01*
X211801Y676977D01*
X211743Y677074D01*
X211681Y677169D01*
X211616Y677262D01*
X211548Y677352D01*
X211477Y677440D01*
X211402Y677526D01*
X211325Y677609D01*
X211245Y677689D01*
X211162Y677766D01*
X211076Y677841D01*
X210988Y677912D01*
X210898Y677980D01*
X210805Y678045D01*
X210710Y678107D01*
X210613Y678165D01*
X210514Y678220D01*
X210413Y678271D01*
X210310Y678319D01*
X210206Y678364D01*
X210100Y678404D01*
X209993Y678441D01*
X209885Y678474D01*
X209775Y678504D01*
X209665Y678529D01*
X209554Y678551D01*
X209442Y678568D01*
X209329Y678582D01*
X209216Y678592D01*
X209103Y678598D01*
X208990Y678600D01*
X209639Y683792D02*
X205744Y683792D01*
X209639Y683792D02*
X209740Y683790D01*
X209840Y683784D01*
X209940Y683774D01*
X210040Y683761D01*
X210139Y683743D01*
X210238Y683722D01*
X210335Y683697D01*
X210432Y683668D01*
X210527Y683635D01*
X210621Y683599D01*
X210713Y683559D01*
X210804Y683516D01*
X210893Y683469D01*
X210980Y683419D01*
X211066Y683365D01*
X211149Y683308D01*
X211229Y683248D01*
X211308Y683185D01*
X211384Y683118D01*
X211457Y683049D01*
X211527Y682977D01*
X211595Y682903D01*
X211660Y682826D01*
X211721Y682746D01*
X211780Y682664D01*
X211835Y682580D01*
X211887Y682494D01*
X211936Y682406D01*
X211981Y682316D01*
X212023Y682224D01*
X212061Y682131D01*
X212095Y682036D01*
X212126Y681941D01*
X212153Y681844D01*
X212176Y681746D01*
X212196Y681647D01*
X212211Y681547D01*
X212223Y681447D01*
X212231Y681347D01*
X212235Y681246D01*
X212235Y681146D01*
X212231Y681045D01*
X212223Y680945D01*
X212211Y680845D01*
X212196Y680745D01*
X212176Y680646D01*
X212153Y680548D01*
X212126Y680451D01*
X212095Y680356D01*
X212061Y680261D01*
X212023Y680168D01*
X211981Y680076D01*
X211936Y679986D01*
X211887Y679898D01*
X211835Y679812D01*
X211780Y679728D01*
X211721Y679646D01*
X211660Y679566D01*
X211595Y679489D01*
X211527Y679415D01*
X211457Y679343D01*
X211384Y679274D01*
X211308Y679207D01*
X211229Y679144D01*
X211149Y679084D01*
X211066Y679027D01*
X210980Y678973D01*
X210893Y678923D01*
X210804Y678876D01*
X210713Y678833D01*
X210621Y678793D01*
X210527Y678757D01*
X210432Y678724D01*
X210335Y678695D01*
X210238Y678670D01*
X210139Y678649D01*
X210040Y678631D01*
X209940Y678618D01*
X209840Y678608D01*
X209740Y678602D01*
X209639Y678600D01*
X209639Y678599D02*
X207043Y678599D01*
X247165Y579892D02*
X247165Y568208D01*
X247165Y579892D02*
X250410Y579892D01*
X250523Y579890D01*
X250636Y579884D01*
X250749Y579874D01*
X250862Y579860D01*
X250974Y579843D01*
X251085Y579821D01*
X251195Y579796D01*
X251305Y579766D01*
X251413Y579733D01*
X251520Y579696D01*
X251626Y579656D01*
X251730Y579611D01*
X251833Y579563D01*
X251934Y579512D01*
X252033Y579457D01*
X252130Y579399D01*
X252225Y579337D01*
X252318Y579272D01*
X252408Y579204D01*
X252496Y579133D01*
X252582Y579058D01*
X252665Y578981D01*
X252745Y578901D01*
X252822Y578818D01*
X252897Y578732D01*
X252968Y578644D01*
X253036Y578554D01*
X253101Y578461D01*
X253163Y578366D01*
X253221Y578269D01*
X253276Y578170D01*
X253327Y578069D01*
X253375Y577966D01*
X253420Y577862D01*
X253460Y577756D01*
X253497Y577649D01*
X253530Y577541D01*
X253560Y577431D01*
X253585Y577321D01*
X253607Y577210D01*
X253624Y577098D01*
X253638Y576985D01*
X253648Y576872D01*
X253654Y576759D01*
X253656Y576646D01*
X253654Y576533D01*
X253648Y576420D01*
X253638Y576307D01*
X253624Y576194D01*
X253607Y576082D01*
X253585Y575971D01*
X253560Y575861D01*
X253530Y575751D01*
X253497Y575643D01*
X253460Y575536D01*
X253420Y575430D01*
X253375Y575326D01*
X253327Y575223D01*
X253276Y575122D01*
X253221Y575023D01*
X253163Y574926D01*
X253101Y574831D01*
X253036Y574738D01*
X252968Y574648D01*
X252897Y574560D01*
X252822Y574474D01*
X252745Y574391D01*
X252665Y574311D01*
X252582Y574234D01*
X252496Y574159D01*
X252408Y574088D01*
X252318Y574020D01*
X252225Y573955D01*
X252130Y573893D01*
X252033Y573835D01*
X251934Y573780D01*
X251833Y573729D01*
X251730Y573681D01*
X251626Y573636D01*
X251520Y573596D01*
X251413Y573559D01*
X251305Y573526D01*
X251195Y573496D01*
X251085Y573471D01*
X250974Y573449D01*
X250862Y573432D01*
X250749Y573418D01*
X250636Y573408D01*
X250523Y573402D01*
X250410Y573400D01*
X250410Y573401D02*
X247165Y573401D01*
X251059Y573401D02*
X253656Y568208D01*
X258521Y577296D02*
X261766Y579892D01*
X261766Y568208D01*
X258521Y568208D02*
X265012Y568208D01*
X269951Y570804D02*
X272547Y579892D01*
X269951Y570804D02*
X276442Y570804D01*
X274495Y573401D02*
X274495Y568208D01*
X111858Y605108D02*
X111858Y616792D01*
X115104Y616792D01*
X115217Y616790D01*
X115330Y616784D01*
X115443Y616774D01*
X115556Y616760D01*
X115668Y616743D01*
X115779Y616721D01*
X115889Y616696D01*
X115999Y616666D01*
X116107Y616633D01*
X116214Y616596D01*
X116320Y616556D01*
X116424Y616511D01*
X116527Y616463D01*
X116628Y616412D01*
X116727Y616357D01*
X116824Y616299D01*
X116919Y616237D01*
X117012Y616172D01*
X117102Y616104D01*
X117190Y616033D01*
X117276Y615958D01*
X117359Y615881D01*
X117439Y615801D01*
X117516Y615718D01*
X117591Y615632D01*
X117662Y615544D01*
X117730Y615454D01*
X117795Y615361D01*
X117857Y615266D01*
X117915Y615169D01*
X117970Y615070D01*
X118021Y614969D01*
X118069Y614866D01*
X118114Y614762D01*
X118154Y614656D01*
X118191Y614549D01*
X118224Y614441D01*
X118254Y614331D01*
X118279Y614221D01*
X118301Y614110D01*
X118318Y613998D01*
X118332Y613885D01*
X118342Y613772D01*
X118348Y613659D01*
X118350Y613546D01*
X118348Y613433D01*
X118342Y613320D01*
X118332Y613207D01*
X118318Y613094D01*
X118301Y612982D01*
X118279Y612871D01*
X118254Y612761D01*
X118224Y612651D01*
X118191Y612543D01*
X118154Y612436D01*
X118114Y612330D01*
X118069Y612226D01*
X118021Y612123D01*
X117970Y612022D01*
X117915Y611923D01*
X117857Y611826D01*
X117795Y611731D01*
X117730Y611638D01*
X117662Y611548D01*
X117591Y611460D01*
X117516Y611374D01*
X117439Y611291D01*
X117359Y611211D01*
X117276Y611134D01*
X117190Y611059D01*
X117102Y610988D01*
X117012Y610920D01*
X116919Y610855D01*
X116824Y610793D01*
X116727Y610735D01*
X116628Y610680D01*
X116527Y610629D01*
X116424Y610581D01*
X116320Y610536D01*
X116214Y610496D01*
X116107Y610459D01*
X115999Y610426D01*
X115889Y610396D01*
X115779Y610371D01*
X115668Y610349D01*
X115556Y610332D01*
X115443Y610318D01*
X115330Y610308D01*
X115217Y610302D01*
X115104Y610300D01*
X115104Y610301D02*
X111858Y610301D01*
X115753Y610301D02*
X118349Y605108D01*
X129705Y613871D02*
X129703Y613978D01*
X129697Y614084D01*
X129687Y614190D01*
X129674Y614296D01*
X129656Y614402D01*
X129635Y614506D01*
X129610Y614610D01*
X129581Y614713D01*
X129549Y614814D01*
X129512Y614914D01*
X129472Y615013D01*
X129429Y615111D01*
X129382Y615207D01*
X129331Y615301D01*
X129277Y615393D01*
X129220Y615483D01*
X129160Y615571D01*
X129096Y615656D01*
X129029Y615739D01*
X128959Y615820D01*
X128887Y615898D01*
X128811Y615974D01*
X128733Y616046D01*
X128652Y616116D01*
X128569Y616183D01*
X128484Y616247D01*
X128396Y616307D01*
X128306Y616364D01*
X128214Y616418D01*
X128120Y616469D01*
X128024Y616516D01*
X127926Y616559D01*
X127827Y616599D01*
X127727Y616636D01*
X127626Y616668D01*
X127523Y616697D01*
X127419Y616722D01*
X127315Y616743D01*
X127209Y616761D01*
X127103Y616774D01*
X126997Y616784D01*
X126891Y616790D01*
X126784Y616792D01*
X126663Y616790D01*
X126542Y616784D01*
X126422Y616774D01*
X126301Y616761D01*
X126182Y616743D01*
X126062Y616722D01*
X125944Y616697D01*
X125827Y616668D01*
X125710Y616635D01*
X125595Y616599D01*
X125481Y616558D01*
X125368Y616515D01*
X125256Y616467D01*
X125147Y616416D01*
X125039Y616361D01*
X124932Y616303D01*
X124828Y616242D01*
X124726Y616177D01*
X124626Y616109D01*
X124528Y616038D01*
X124432Y615964D01*
X124339Y615887D01*
X124249Y615806D01*
X124161Y615723D01*
X124076Y615637D01*
X123993Y615548D01*
X123914Y615457D01*
X123837Y615363D01*
X123764Y615267D01*
X123694Y615169D01*
X123627Y615068D01*
X123563Y614965D01*
X123503Y614860D01*
X123446Y614753D01*
X123392Y614645D01*
X123342Y614535D01*
X123296Y614423D01*
X123253Y614310D01*
X123214Y614195D01*
X128732Y611599D02*
X128811Y611676D01*
X128887Y611757D01*
X128960Y611840D01*
X129030Y611925D01*
X129097Y612013D01*
X129161Y612103D01*
X129221Y612195D01*
X129278Y612290D01*
X129332Y612386D01*
X129383Y612484D01*
X129430Y612584D01*
X129474Y612686D01*
X129514Y612789D01*
X129550Y612893D01*
X129582Y612999D01*
X129611Y613105D01*
X129636Y613213D01*
X129658Y613321D01*
X129675Y613431D01*
X129689Y613540D01*
X129698Y613650D01*
X129704Y613761D01*
X129706Y613871D01*
X128732Y611599D02*
X123214Y605108D01*
X129705Y605108D01*
X196595Y704708D02*
X196595Y716392D01*
X199840Y716392D01*
X199953Y716390D01*
X200066Y716384D01*
X200179Y716374D01*
X200292Y716360D01*
X200404Y716343D01*
X200515Y716321D01*
X200625Y716296D01*
X200735Y716266D01*
X200843Y716233D01*
X200950Y716196D01*
X201056Y716156D01*
X201160Y716111D01*
X201263Y716063D01*
X201364Y716012D01*
X201463Y715957D01*
X201560Y715899D01*
X201655Y715837D01*
X201748Y715772D01*
X201838Y715704D01*
X201926Y715633D01*
X202012Y715558D01*
X202095Y715481D01*
X202175Y715401D01*
X202252Y715318D01*
X202327Y715232D01*
X202398Y715144D01*
X202466Y715054D01*
X202531Y714961D01*
X202593Y714866D01*
X202651Y714769D01*
X202706Y714670D01*
X202757Y714569D01*
X202805Y714466D01*
X202850Y714362D01*
X202890Y714256D01*
X202927Y714149D01*
X202960Y714041D01*
X202990Y713931D01*
X203015Y713821D01*
X203037Y713710D01*
X203054Y713598D01*
X203068Y713485D01*
X203078Y713372D01*
X203084Y713259D01*
X203086Y713146D01*
X203084Y713033D01*
X203078Y712920D01*
X203068Y712807D01*
X203054Y712694D01*
X203037Y712582D01*
X203015Y712471D01*
X202990Y712361D01*
X202960Y712251D01*
X202927Y712143D01*
X202890Y712036D01*
X202850Y711930D01*
X202805Y711826D01*
X202757Y711723D01*
X202706Y711622D01*
X202651Y711523D01*
X202593Y711426D01*
X202531Y711331D01*
X202466Y711238D01*
X202398Y711148D01*
X202327Y711060D01*
X202252Y710974D01*
X202175Y710891D01*
X202095Y710811D01*
X202012Y710734D01*
X201926Y710659D01*
X201838Y710588D01*
X201748Y710520D01*
X201655Y710455D01*
X201560Y710393D01*
X201463Y710335D01*
X201364Y710280D01*
X201263Y710229D01*
X201160Y710181D01*
X201056Y710136D01*
X200950Y710096D01*
X200843Y710059D01*
X200735Y710026D01*
X200625Y709996D01*
X200515Y709971D01*
X200404Y709949D01*
X200292Y709932D01*
X200179Y709918D01*
X200066Y709908D01*
X199953Y709902D01*
X199840Y709900D01*
X199840Y709901D02*
X196595Y709901D01*
X200489Y709901D02*
X203086Y704708D01*
X207951Y704708D02*
X211196Y704708D01*
X211309Y704710D01*
X211422Y704716D01*
X211535Y704726D01*
X211648Y704740D01*
X211760Y704757D01*
X211871Y704779D01*
X211981Y704804D01*
X212091Y704834D01*
X212199Y704867D01*
X212306Y704904D01*
X212412Y704944D01*
X212516Y704989D01*
X212619Y705037D01*
X212720Y705088D01*
X212819Y705143D01*
X212916Y705201D01*
X213011Y705263D01*
X213104Y705328D01*
X213194Y705396D01*
X213282Y705467D01*
X213368Y705542D01*
X213451Y705619D01*
X213531Y705699D01*
X213608Y705782D01*
X213683Y705868D01*
X213754Y705956D01*
X213822Y706046D01*
X213887Y706139D01*
X213949Y706234D01*
X214007Y706331D01*
X214062Y706430D01*
X214113Y706531D01*
X214161Y706634D01*
X214206Y706738D01*
X214246Y706844D01*
X214283Y706951D01*
X214316Y707059D01*
X214346Y707169D01*
X214371Y707279D01*
X214393Y707390D01*
X214410Y707502D01*
X214424Y707615D01*
X214434Y707728D01*
X214440Y707841D01*
X214442Y707954D01*
X214440Y708067D01*
X214434Y708180D01*
X214424Y708293D01*
X214410Y708406D01*
X214393Y708518D01*
X214371Y708629D01*
X214346Y708739D01*
X214316Y708849D01*
X214283Y708957D01*
X214246Y709064D01*
X214206Y709170D01*
X214161Y709274D01*
X214113Y709377D01*
X214062Y709478D01*
X214007Y709577D01*
X213949Y709674D01*
X213887Y709769D01*
X213822Y709862D01*
X213754Y709952D01*
X213683Y710040D01*
X213608Y710126D01*
X213531Y710209D01*
X213451Y710289D01*
X213368Y710366D01*
X213282Y710441D01*
X213194Y710512D01*
X213104Y710580D01*
X213011Y710645D01*
X212916Y710707D01*
X212819Y710765D01*
X212720Y710820D01*
X212619Y710871D01*
X212516Y710919D01*
X212412Y710964D01*
X212306Y711004D01*
X212199Y711041D01*
X212091Y711074D01*
X211981Y711104D01*
X211871Y711129D01*
X211760Y711151D01*
X211648Y711168D01*
X211535Y711182D01*
X211422Y711192D01*
X211309Y711198D01*
X211196Y711200D01*
X211846Y716392D02*
X207951Y716392D01*
X211846Y716392D02*
X211947Y716390D01*
X212047Y716384D01*
X212147Y716374D01*
X212247Y716361D01*
X212346Y716343D01*
X212445Y716322D01*
X212542Y716297D01*
X212639Y716268D01*
X212734Y716235D01*
X212828Y716199D01*
X212920Y716159D01*
X213011Y716116D01*
X213100Y716069D01*
X213187Y716019D01*
X213273Y715965D01*
X213356Y715908D01*
X213436Y715848D01*
X213515Y715785D01*
X213591Y715718D01*
X213664Y715649D01*
X213734Y715577D01*
X213802Y715503D01*
X213867Y715426D01*
X213928Y715346D01*
X213987Y715264D01*
X214042Y715180D01*
X214094Y715094D01*
X214143Y715006D01*
X214188Y714916D01*
X214230Y714824D01*
X214268Y714731D01*
X214302Y714636D01*
X214333Y714541D01*
X214360Y714444D01*
X214383Y714346D01*
X214403Y714247D01*
X214418Y714147D01*
X214430Y714047D01*
X214438Y713947D01*
X214442Y713846D01*
X214442Y713746D01*
X214438Y713645D01*
X214430Y713545D01*
X214418Y713445D01*
X214403Y713345D01*
X214383Y713246D01*
X214360Y713148D01*
X214333Y713051D01*
X214302Y712956D01*
X214268Y712861D01*
X214230Y712768D01*
X214188Y712676D01*
X214143Y712586D01*
X214094Y712498D01*
X214042Y712412D01*
X213987Y712328D01*
X213928Y712246D01*
X213867Y712166D01*
X213802Y712089D01*
X213734Y712015D01*
X213664Y711943D01*
X213591Y711874D01*
X213515Y711807D01*
X213436Y711744D01*
X213356Y711684D01*
X213273Y711627D01*
X213187Y711573D01*
X213100Y711523D01*
X213011Y711476D01*
X212920Y711433D01*
X212828Y711393D01*
X212734Y711357D01*
X212639Y711324D01*
X212542Y711295D01*
X212445Y711270D01*
X212346Y711249D01*
X212247Y711231D01*
X212147Y711218D01*
X212047Y711208D01*
X211947Y711202D01*
X211846Y711200D01*
X211846Y711199D02*
X209249Y711199D01*
X113058Y683292D02*
X113058Y671608D01*
X113058Y683292D02*
X116304Y683292D01*
X116417Y683290D01*
X116530Y683284D01*
X116643Y683274D01*
X116756Y683260D01*
X116868Y683243D01*
X116979Y683221D01*
X117089Y683196D01*
X117199Y683166D01*
X117307Y683133D01*
X117414Y683096D01*
X117520Y683056D01*
X117624Y683011D01*
X117727Y682963D01*
X117828Y682912D01*
X117927Y682857D01*
X118024Y682799D01*
X118119Y682737D01*
X118212Y682672D01*
X118302Y682604D01*
X118390Y682533D01*
X118476Y682458D01*
X118559Y682381D01*
X118639Y682301D01*
X118716Y682218D01*
X118791Y682132D01*
X118862Y682044D01*
X118930Y681954D01*
X118995Y681861D01*
X119057Y681766D01*
X119115Y681669D01*
X119170Y681570D01*
X119221Y681469D01*
X119269Y681366D01*
X119314Y681262D01*
X119354Y681156D01*
X119391Y681049D01*
X119424Y680941D01*
X119454Y680831D01*
X119479Y680721D01*
X119501Y680610D01*
X119518Y680498D01*
X119532Y680385D01*
X119542Y680272D01*
X119548Y680159D01*
X119550Y680046D01*
X119548Y679933D01*
X119542Y679820D01*
X119532Y679707D01*
X119518Y679594D01*
X119501Y679482D01*
X119479Y679371D01*
X119454Y679261D01*
X119424Y679151D01*
X119391Y679043D01*
X119354Y678936D01*
X119314Y678830D01*
X119269Y678726D01*
X119221Y678623D01*
X119170Y678522D01*
X119115Y678423D01*
X119057Y678326D01*
X118995Y678231D01*
X118930Y678138D01*
X118862Y678048D01*
X118791Y677960D01*
X118716Y677874D01*
X118639Y677791D01*
X118559Y677711D01*
X118476Y677634D01*
X118390Y677559D01*
X118302Y677488D01*
X118212Y677420D01*
X118119Y677355D01*
X118024Y677293D01*
X117927Y677235D01*
X117828Y677180D01*
X117727Y677129D01*
X117624Y677081D01*
X117520Y677036D01*
X117414Y676996D01*
X117307Y676959D01*
X117199Y676926D01*
X117089Y676896D01*
X116979Y676871D01*
X116868Y676849D01*
X116756Y676832D01*
X116643Y676818D01*
X116530Y676808D01*
X116417Y676802D01*
X116304Y676800D01*
X116304Y676801D02*
X113058Y676801D01*
X116953Y676801D02*
X119549Y671608D01*
X124414Y671608D02*
X128309Y671608D01*
X128408Y671610D01*
X128508Y671616D01*
X128607Y671625D01*
X128705Y671638D01*
X128803Y671655D01*
X128901Y671676D01*
X128997Y671701D01*
X129092Y671729D01*
X129186Y671761D01*
X129279Y671796D01*
X129371Y671835D01*
X129461Y671878D01*
X129549Y671923D01*
X129636Y671973D01*
X129720Y672025D01*
X129803Y672081D01*
X129883Y672139D01*
X129961Y672201D01*
X130036Y672266D01*
X130109Y672334D01*
X130179Y672404D01*
X130247Y672477D01*
X130312Y672552D01*
X130374Y672630D01*
X130432Y672710D01*
X130488Y672793D01*
X130540Y672877D01*
X130590Y672964D01*
X130635Y673052D01*
X130678Y673142D01*
X130717Y673234D01*
X130752Y673327D01*
X130784Y673421D01*
X130812Y673516D01*
X130837Y673612D01*
X130858Y673710D01*
X130875Y673808D01*
X130888Y673906D01*
X130897Y674005D01*
X130903Y674105D01*
X130905Y674204D01*
X130905Y675503D01*
X130903Y675602D01*
X130897Y675702D01*
X130888Y675801D01*
X130875Y675899D01*
X130858Y675997D01*
X130837Y676095D01*
X130812Y676191D01*
X130784Y676286D01*
X130752Y676380D01*
X130717Y676473D01*
X130678Y676565D01*
X130635Y676655D01*
X130590Y676743D01*
X130540Y676830D01*
X130488Y676914D01*
X130432Y676997D01*
X130374Y677077D01*
X130312Y677155D01*
X130247Y677230D01*
X130179Y677303D01*
X130109Y677373D01*
X130036Y677441D01*
X129961Y677506D01*
X129883Y677568D01*
X129803Y677626D01*
X129720Y677682D01*
X129636Y677734D01*
X129549Y677784D01*
X129461Y677829D01*
X129371Y677872D01*
X129279Y677911D01*
X129186Y677946D01*
X129092Y677978D01*
X128997Y678006D01*
X128901Y678031D01*
X128803Y678052D01*
X128705Y678069D01*
X128607Y678082D01*
X128508Y678091D01*
X128408Y678097D01*
X128309Y678099D01*
X124414Y678099D01*
X124414Y683292D01*
X130905Y683292D01*
D15*
X34750Y813800D02*
X28400Y820150D01*
X28400Y832850D01*
X34750Y839200D01*
X47450Y839200D01*
X53800Y832850D01*
X53800Y820150D01*
X47450Y813800D01*
X28400Y782050D02*
X28400Y769350D01*
X28400Y782050D02*
X34750Y788400D01*
X47450Y788400D01*
X53800Y782050D01*
X34750Y788400D02*
X28400Y794750D01*
X28400Y807450D01*
X34750Y813800D01*
X47450Y813800D01*
X53800Y807450D01*
X53800Y794750D01*
X47450Y788400D01*
X28400Y743950D02*
X34750Y737600D01*
X28400Y743950D02*
X28400Y756650D01*
X34750Y763000D01*
X47450Y763000D01*
X53800Y756650D01*
X53800Y743950D01*
X47450Y737600D01*
X34750Y763000D02*
X28400Y769350D01*
X47450Y763000D02*
X53800Y769350D01*
X53800Y782050D01*
X28400Y705850D02*
X28400Y693150D01*
X28400Y705850D02*
X34750Y712200D01*
X47450Y712200D01*
X53800Y705850D01*
X34750Y712200D02*
X28400Y718550D01*
X28400Y731250D01*
X34750Y737600D01*
X47450Y737600D01*
X53800Y731250D01*
X53800Y718550D01*
X47450Y712200D01*
X28400Y667750D02*
X34750Y661400D01*
X28400Y667750D02*
X28400Y680450D01*
X34750Y686800D01*
X47450Y686800D01*
X53800Y680450D01*
X53800Y667750D01*
X47450Y661400D01*
X34750Y686800D02*
X28400Y693150D01*
X47450Y686800D02*
X53800Y693150D01*
X53800Y705850D01*
X28400Y629650D02*
X28400Y616950D01*
X28400Y629650D02*
X34750Y636000D01*
X47450Y636000D01*
X53800Y629650D01*
X34750Y636000D02*
X28400Y642350D01*
X28400Y655050D01*
X34750Y661400D01*
X47450Y661400D01*
X53800Y655050D01*
X53800Y642350D01*
X47450Y636000D01*
X47450Y610600D02*
X34750Y610600D01*
X28400Y616950D01*
X47450Y610600D02*
X53800Y616950D01*
X53800Y629650D01*
X28400Y845550D02*
X28400Y858250D01*
X34750Y864600D01*
X47450Y864600D01*
X53800Y858250D01*
X34750Y839200D02*
X28400Y845550D01*
X47450Y839200D02*
X53800Y845550D01*
X53800Y858250D01*
D12*
X19637Y614283D02*
X10747Y614283D01*
X19637Y614283D02*
X19737Y614281D01*
X19836Y614275D01*
X19936Y614265D01*
X20034Y614252D01*
X20133Y614234D01*
X20230Y614213D01*
X20326Y614188D01*
X20422Y614159D01*
X20516Y614126D01*
X20609Y614090D01*
X20700Y614050D01*
X20790Y614006D01*
X20878Y613959D01*
X20964Y613909D01*
X21048Y613855D01*
X21130Y613798D01*
X21209Y613738D01*
X21287Y613674D01*
X21361Y613608D01*
X21433Y613539D01*
X21502Y613467D01*
X21568Y613393D01*
X21632Y613315D01*
X21692Y613236D01*
X21749Y613154D01*
X21803Y613070D01*
X21853Y612984D01*
X21900Y612896D01*
X21944Y612806D01*
X21984Y612715D01*
X22020Y612622D01*
X22053Y612528D01*
X22082Y612432D01*
X22107Y612336D01*
X22128Y612239D01*
X22146Y612140D01*
X22159Y612042D01*
X22169Y611942D01*
X22175Y611843D01*
X22177Y611743D01*
X22177Y610473D01*
X22177Y620263D02*
X10747Y620263D01*
X10747Y623438D01*
X10749Y623549D01*
X10755Y623659D01*
X10764Y623770D01*
X10778Y623880D01*
X10795Y623989D01*
X10816Y624098D01*
X10841Y624206D01*
X10870Y624313D01*
X10902Y624419D01*
X10938Y624524D01*
X10978Y624627D01*
X11021Y624729D01*
X11068Y624830D01*
X11119Y624929D01*
X11172Y625026D01*
X11229Y625120D01*
X11290Y625213D01*
X11353Y625304D01*
X11420Y625393D01*
X11490Y625479D01*
X11563Y625562D01*
X11638Y625644D01*
X11716Y625722D01*
X11798Y625797D01*
X11881Y625870D01*
X11967Y625940D01*
X12056Y626007D01*
X12147Y626070D01*
X12240Y626131D01*
X12334Y626188D01*
X12431Y626241D01*
X12530Y626292D01*
X12631Y626339D01*
X12733Y626382D01*
X12836Y626422D01*
X12941Y626458D01*
X13047Y626490D01*
X13154Y626519D01*
X13262Y626544D01*
X13371Y626565D01*
X13480Y626582D01*
X13590Y626596D01*
X13701Y626605D01*
X13811Y626611D01*
X13922Y626613D01*
X14033Y626611D01*
X14143Y626605D01*
X14254Y626596D01*
X14364Y626582D01*
X14473Y626565D01*
X14582Y626544D01*
X14690Y626519D01*
X14797Y626490D01*
X14903Y626458D01*
X15008Y626422D01*
X15111Y626382D01*
X15213Y626339D01*
X15314Y626292D01*
X15413Y626241D01*
X15509Y626188D01*
X15604Y626131D01*
X15697Y626070D01*
X15788Y626007D01*
X15877Y625940D01*
X15963Y625870D01*
X16046Y625797D01*
X16128Y625722D01*
X16206Y625644D01*
X16281Y625562D01*
X16354Y625479D01*
X16424Y625393D01*
X16491Y625304D01*
X16554Y625213D01*
X16615Y625120D01*
X16672Y625026D01*
X16725Y624929D01*
X16776Y624830D01*
X16823Y624729D01*
X16866Y624627D01*
X16906Y624524D01*
X16942Y624419D01*
X16974Y624313D01*
X17003Y624206D01*
X17028Y624098D01*
X17049Y623989D01*
X17066Y623880D01*
X17080Y623770D01*
X17089Y623659D01*
X17095Y623549D01*
X17097Y623438D01*
X17097Y620263D01*
X13287Y631122D02*
X10747Y634297D01*
X22177Y634297D01*
X22177Y631122D02*
X22177Y637472D01*
D15*
X392350Y59500D02*
X398700Y53150D01*
X398700Y40450D01*
X392350Y34100D01*
X379650Y34100D01*
X373300Y40450D01*
X373300Y53150D01*
X379650Y59500D01*
X398700Y91250D02*
X398700Y103950D01*
X398700Y91250D02*
X392350Y84900D01*
X379650Y84900D01*
X373300Y91250D01*
X392350Y84900D02*
X398700Y78550D01*
X398700Y65850D01*
X392350Y59500D01*
X379650Y59500D01*
X373300Y65850D01*
X373300Y78550D01*
X379650Y84900D01*
X398700Y129350D02*
X392350Y135700D01*
X398700Y129350D02*
X398700Y116650D01*
X392350Y110300D01*
X379650Y110300D01*
X373300Y116650D01*
X373300Y129350D01*
X379650Y135700D01*
X392350Y110300D02*
X398700Y103950D01*
X379650Y110300D02*
X373300Y103950D01*
X373300Y91250D01*
X398700Y167450D02*
X398700Y180150D01*
X398700Y167450D02*
X392350Y161100D01*
X379650Y161100D01*
X373300Y167450D01*
X392350Y161100D02*
X398700Y154750D01*
X398700Y142050D01*
X392350Y135700D01*
X379650Y135700D01*
X373300Y142050D01*
X373300Y154750D01*
X379650Y161100D01*
X398700Y205550D02*
X392350Y211900D01*
X398700Y205550D02*
X398700Y192850D01*
X392350Y186500D01*
X379650Y186500D01*
X373300Y192850D01*
X373300Y205550D01*
X379650Y211900D01*
X392350Y186500D02*
X398700Y180150D01*
X379650Y186500D02*
X373300Y180150D01*
X373300Y167450D01*
X398700Y243650D02*
X398700Y256350D01*
X398700Y243650D02*
X392350Y237300D01*
X379650Y237300D01*
X373300Y243650D01*
X392350Y237300D02*
X398700Y230950D01*
X398700Y218250D01*
X392350Y211900D01*
X379650Y211900D01*
X373300Y218250D01*
X373300Y230950D01*
X379650Y237300D01*
X398700Y281750D02*
X392350Y288100D01*
X398700Y281750D02*
X398700Y269050D01*
X392350Y262700D01*
X379650Y262700D01*
X373300Y269050D01*
X373300Y281750D01*
X379650Y288100D01*
X392350Y262700D02*
X398700Y256350D01*
X379650Y262700D02*
X373300Y256350D01*
X373300Y243650D01*
X398700Y319850D02*
X398700Y332550D01*
X398700Y319850D02*
X392350Y313500D01*
X379650Y313500D01*
X373300Y319850D01*
X392350Y313500D02*
X398700Y307150D01*
X398700Y294450D01*
X392350Y288100D01*
X379650Y288100D01*
X373300Y294450D01*
X373300Y307150D01*
X379650Y313500D01*
X398700Y357950D02*
X392350Y364300D01*
X398700Y357950D02*
X398700Y345250D01*
X392350Y338900D01*
X379650Y338900D01*
X373300Y345250D01*
X373300Y357950D01*
X379650Y364300D01*
X392350Y338900D02*
X398700Y332550D01*
X379650Y338900D02*
X373300Y332550D01*
X373300Y319850D01*
X398700Y396050D02*
X398700Y408750D01*
X398700Y396050D02*
X392350Y389700D01*
X379650Y389700D01*
X373300Y396050D01*
X392350Y389700D02*
X398700Y383350D01*
X398700Y370650D01*
X392350Y364300D01*
X379650Y364300D01*
X373300Y370650D01*
X373300Y383350D01*
X379650Y389700D01*
X398700Y434150D02*
X392350Y440500D01*
X398700Y434150D02*
X398700Y421450D01*
X392350Y415100D01*
X379650Y415100D01*
X373300Y421450D01*
X373300Y434150D01*
X379650Y440500D01*
X392350Y415100D02*
X398700Y408750D01*
X379650Y415100D02*
X373300Y408750D01*
X373300Y396050D01*
X398700Y472250D02*
X398700Y484950D01*
X398700Y472250D02*
X392350Y465900D01*
X379650Y465900D01*
X373300Y472250D01*
X392350Y465900D02*
X398700Y459550D01*
X398700Y446850D01*
X392350Y440500D01*
X379650Y440500D01*
X373300Y446850D01*
X373300Y459550D01*
X379650Y465900D01*
X379650Y491300D02*
X392350Y491300D01*
X398700Y484950D01*
X379650Y491300D02*
X373300Y484950D01*
X373300Y472250D01*
X392350Y34100D02*
X398700Y27750D01*
X398700Y15050D01*
X392350Y8700D01*
X379650Y8700D01*
X373300Y15050D01*
X373300Y27750D01*
X379650Y34100D01*
D12*
X404923Y468238D02*
X413813Y468238D01*
X413913Y468236D01*
X414012Y468230D01*
X414112Y468220D01*
X414210Y468207D01*
X414309Y468189D01*
X414406Y468168D01*
X414502Y468143D01*
X414598Y468114D01*
X414692Y468081D01*
X414785Y468045D01*
X414876Y468005D01*
X414966Y467961D01*
X415054Y467914D01*
X415140Y467864D01*
X415224Y467810D01*
X415306Y467753D01*
X415385Y467693D01*
X415463Y467629D01*
X415537Y467563D01*
X415609Y467494D01*
X415678Y467422D01*
X415744Y467348D01*
X415808Y467270D01*
X415868Y467191D01*
X415925Y467109D01*
X415979Y467025D01*
X416029Y466939D01*
X416076Y466851D01*
X416120Y466761D01*
X416160Y466670D01*
X416196Y466577D01*
X416229Y466483D01*
X416258Y466387D01*
X416283Y466291D01*
X416304Y466194D01*
X416322Y466095D01*
X416335Y465997D01*
X416345Y465897D01*
X416351Y465798D01*
X416353Y465698D01*
X416353Y464428D01*
X416353Y474219D02*
X404923Y474219D01*
X404923Y477394D01*
X404925Y477505D01*
X404931Y477615D01*
X404940Y477726D01*
X404954Y477836D01*
X404971Y477945D01*
X404992Y478054D01*
X405017Y478162D01*
X405046Y478269D01*
X405078Y478375D01*
X405114Y478480D01*
X405154Y478583D01*
X405197Y478685D01*
X405244Y478786D01*
X405295Y478885D01*
X405348Y478982D01*
X405405Y479076D01*
X405466Y479169D01*
X405529Y479260D01*
X405596Y479349D01*
X405666Y479435D01*
X405739Y479518D01*
X405814Y479600D01*
X405892Y479678D01*
X405974Y479753D01*
X406057Y479826D01*
X406143Y479896D01*
X406232Y479963D01*
X406323Y480026D01*
X406416Y480087D01*
X406511Y480144D01*
X406607Y480197D01*
X406706Y480248D01*
X406807Y480295D01*
X406909Y480338D01*
X407012Y480378D01*
X407117Y480414D01*
X407223Y480446D01*
X407330Y480475D01*
X407438Y480500D01*
X407547Y480521D01*
X407656Y480538D01*
X407766Y480552D01*
X407877Y480561D01*
X407987Y480567D01*
X408098Y480569D01*
X408209Y480567D01*
X408319Y480561D01*
X408430Y480552D01*
X408540Y480538D01*
X408649Y480521D01*
X408758Y480500D01*
X408866Y480475D01*
X408973Y480446D01*
X409079Y480414D01*
X409184Y480378D01*
X409287Y480338D01*
X409389Y480295D01*
X409490Y480248D01*
X409589Y480197D01*
X409686Y480144D01*
X409780Y480087D01*
X409873Y480026D01*
X409964Y479963D01*
X410053Y479896D01*
X410139Y479826D01*
X410222Y479753D01*
X410304Y479678D01*
X410382Y479600D01*
X410457Y479518D01*
X410530Y479435D01*
X410600Y479349D01*
X410667Y479260D01*
X410730Y479169D01*
X410791Y479076D01*
X410848Y478982D01*
X410901Y478885D01*
X410952Y478786D01*
X410999Y478685D01*
X411042Y478583D01*
X411082Y478480D01*
X411118Y478375D01*
X411150Y478269D01*
X411179Y478162D01*
X411204Y478054D01*
X411225Y477945D01*
X411242Y477836D01*
X411256Y477726D01*
X411265Y477615D01*
X411271Y477505D01*
X411273Y477394D01*
X411273Y474219D01*
X404923Y488570D02*
X404925Y488674D01*
X404931Y488779D01*
X404940Y488883D01*
X404953Y488986D01*
X404971Y489089D01*
X404991Y489191D01*
X405016Y489293D01*
X405044Y489393D01*
X405076Y489493D01*
X405112Y489591D01*
X405151Y489688D01*
X405193Y489783D01*
X405239Y489877D01*
X405289Y489969D01*
X405341Y490059D01*
X405397Y490147D01*
X405457Y490233D01*
X405519Y490317D01*
X405584Y490398D01*
X405652Y490477D01*
X405724Y490554D01*
X405797Y490627D01*
X405874Y490699D01*
X405953Y490767D01*
X406034Y490832D01*
X406118Y490894D01*
X406204Y490954D01*
X406292Y491010D01*
X406382Y491062D01*
X406474Y491112D01*
X406568Y491158D01*
X406663Y491200D01*
X406760Y491239D01*
X406858Y491275D01*
X406958Y491307D01*
X407058Y491335D01*
X407160Y491360D01*
X407262Y491380D01*
X407365Y491398D01*
X407468Y491411D01*
X407572Y491420D01*
X407677Y491426D01*
X407781Y491428D01*
X404923Y488570D02*
X404925Y488452D01*
X404931Y488333D01*
X404940Y488215D01*
X404953Y488098D01*
X404971Y487981D01*
X404991Y487864D01*
X405016Y487748D01*
X405044Y487633D01*
X405077Y487520D01*
X405112Y487407D01*
X405152Y487295D01*
X405194Y487185D01*
X405241Y487076D01*
X405291Y486968D01*
X405344Y486863D01*
X405401Y486759D01*
X405461Y486657D01*
X405524Y486557D01*
X405591Y486459D01*
X405660Y486363D01*
X405733Y486270D01*
X405809Y486179D01*
X405887Y486090D01*
X405969Y486004D01*
X406053Y485921D01*
X406139Y485840D01*
X406229Y485763D01*
X406320Y485688D01*
X406414Y485616D01*
X406511Y485547D01*
X406609Y485482D01*
X406710Y485419D01*
X406813Y485360D01*
X406917Y485304D01*
X407023Y485252D01*
X407131Y485203D01*
X407240Y485158D01*
X407351Y485116D01*
X407463Y485078D01*
X410003Y490475D02*
X409928Y490551D01*
X409849Y490626D01*
X409768Y490697D01*
X409684Y490766D01*
X409598Y490831D01*
X409510Y490893D01*
X409420Y490953D01*
X409328Y491009D01*
X409233Y491062D01*
X409137Y491111D01*
X409039Y491157D01*
X408940Y491200D01*
X408839Y491239D01*
X408737Y491274D01*
X408634Y491306D01*
X408530Y491334D01*
X408425Y491359D01*
X408318Y491380D01*
X408212Y491397D01*
X408105Y491410D01*
X407997Y491419D01*
X407889Y491425D01*
X407781Y491427D01*
X410003Y490475D02*
X416353Y485077D01*
X416353Y491427D01*
D15*
X125650Y440500D02*
X119300Y446850D01*
X119300Y459550D01*
X125650Y465900D01*
X138350Y465900D01*
X144700Y459550D01*
X144700Y446850D01*
X138350Y440500D01*
X119300Y408750D02*
X119300Y396050D01*
X119300Y408750D02*
X125650Y415100D01*
X138350Y415100D01*
X144700Y408750D01*
X125650Y415100D02*
X119300Y421450D01*
X119300Y434150D01*
X125650Y440500D01*
X138350Y440500D01*
X144700Y434150D01*
X144700Y421450D01*
X138350Y415100D01*
X119300Y370650D02*
X125650Y364300D01*
X119300Y370650D02*
X119300Y383350D01*
X125650Y389700D01*
X138350Y389700D01*
X144700Y383350D01*
X144700Y370650D01*
X138350Y364300D01*
X125650Y389700D02*
X119300Y396050D01*
X138350Y389700D02*
X144700Y396050D01*
X144700Y408750D01*
X119300Y332550D02*
X119300Y319850D01*
X119300Y332550D02*
X125650Y338900D01*
X138350Y338900D01*
X144700Y332550D01*
X125650Y338900D02*
X119300Y345250D01*
X119300Y357950D01*
X125650Y364300D01*
X138350Y364300D01*
X144700Y357950D01*
X144700Y345250D01*
X138350Y338900D01*
X119300Y294450D02*
X125650Y288100D01*
X119300Y294450D02*
X119300Y307150D01*
X125650Y313500D01*
X138350Y313500D01*
X144700Y307150D01*
X144700Y294450D01*
X138350Y288100D01*
X125650Y313500D02*
X119300Y319850D01*
X138350Y313500D02*
X144700Y319850D01*
X144700Y332550D01*
X119300Y256350D02*
X119300Y243650D01*
X119300Y256350D02*
X125650Y262700D01*
X138350Y262700D01*
X144700Y256350D01*
X125650Y262700D02*
X119300Y269050D01*
X119300Y281750D01*
X125650Y288100D01*
X138350Y288100D01*
X144700Y281750D01*
X144700Y269050D01*
X138350Y262700D01*
X119300Y218250D02*
X125650Y211900D01*
X119300Y218250D02*
X119300Y230950D01*
X125650Y237300D01*
X138350Y237300D01*
X144700Y230950D01*
X144700Y218250D01*
X138350Y211900D01*
X125650Y237300D02*
X119300Y243650D01*
X138350Y237300D02*
X144700Y243650D01*
X144700Y256350D01*
X119300Y180150D02*
X119300Y167450D01*
X119300Y180150D02*
X125650Y186500D01*
X138350Y186500D01*
X144700Y180150D01*
X125650Y186500D02*
X119300Y192850D01*
X119300Y205550D01*
X125650Y211900D01*
X138350Y211900D01*
X144700Y205550D01*
X144700Y192850D01*
X138350Y186500D01*
X119300Y142050D02*
X125650Y135700D01*
X119300Y142050D02*
X119300Y154750D01*
X125650Y161100D01*
X138350Y161100D01*
X144700Y154750D01*
X144700Y142050D01*
X138350Y135700D01*
X125650Y161100D02*
X119300Y167450D01*
X138350Y161100D02*
X144700Y167450D01*
X144700Y180150D01*
X119300Y103950D02*
X119300Y91250D01*
X119300Y103950D02*
X125650Y110300D01*
X138350Y110300D01*
X144700Y103950D01*
X125650Y110300D02*
X119300Y116650D01*
X119300Y129350D01*
X125650Y135700D01*
X138350Y135700D01*
X144700Y129350D01*
X144700Y116650D01*
X138350Y110300D01*
X119300Y65850D02*
X125650Y59500D01*
X119300Y65850D02*
X119300Y78550D01*
X125650Y84900D01*
X138350Y84900D01*
X144700Y78550D01*
X144700Y65850D01*
X138350Y59500D01*
X125650Y84900D02*
X119300Y91250D01*
X138350Y84900D02*
X144700Y91250D01*
X144700Y103950D01*
X119300Y27750D02*
X119300Y15050D01*
X119300Y27750D02*
X125650Y34100D01*
X138350Y34100D01*
X144700Y27750D01*
X125650Y34100D02*
X119300Y40450D01*
X119300Y53150D01*
X125650Y59500D01*
X138350Y59500D01*
X144700Y53150D01*
X144700Y40450D01*
X138350Y34100D01*
X138350Y8700D02*
X125650Y8700D01*
X119300Y15050D01*
X138350Y8700D02*
X144700Y15050D01*
X144700Y27750D01*
X125650Y465900D02*
X119300Y472250D01*
X119300Y484950D01*
X125650Y491300D01*
X138350Y491300D01*
X144700Y484950D01*
X144700Y472250D01*
X138350Y465900D01*
D12*
X110537Y12383D02*
X101647Y12383D01*
X110537Y12383D02*
X110637Y12381D01*
X110736Y12375D01*
X110836Y12365D01*
X110934Y12352D01*
X111033Y12334D01*
X111130Y12313D01*
X111226Y12288D01*
X111322Y12259D01*
X111416Y12226D01*
X111509Y12190D01*
X111600Y12150D01*
X111690Y12106D01*
X111778Y12059D01*
X111864Y12009D01*
X111948Y11955D01*
X112030Y11898D01*
X112109Y11838D01*
X112187Y11774D01*
X112261Y11708D01*
X112333Y11639D01*
X112402Y11567D01*
X112468Y11493D01*
X112532Y11415D01*
X112592Y11336D01*
X112649Y11254D01*
X112703Y11170D01*
X112753Y11084D01*
X112800Y10996D01*
X112844Y10906D01*
X112884Y10815D01*
X112920Y10722D01*
X112953Y10628D01*
X112982Y10532D01*
X113007Y10436D01*
X113028Y10339D01*
X113046Y10240D01*
X113059Y10142D01*
X113069Y10042D01*
X113075Y9943D01*
X113077Y9843D01*
X113077Y8573D01*
X113077Y18363D02*
X101647Y18363D01*
X101647Y21538D01*
X101649Y21649D01*
X101655Y21759D01*
X101664Y21870D01*
X101678Y21980D01*
X101695Y22089D01*
X101716Y22198D01*
X101741Y22306D01*
X101770Y22413D01*
X101802Y22519D01*
X101838Y22624D01*
X101878Y22727D01*
X101921Y22829D01*
X101968Y22930D01*
X102019Y23029D01*
X102072Y23125D01*
X102129Y23220D01*
X102190Y23313D01*
X102253Y23404D01*
X102320Y23493D01*
X102390Y23579D01*
X102463Y23662D01*
X102538Y23744D01*
X102616Y23822D01*
X102698Y23897D01*
X102781Y23970D01*
X102867Y24040D01*
X102956Y24107D01*
X103047Y24170D01*
X103140Y24231D01*
X103235Y24288D01*
X103331Y24341D01*
X103430Y24392D01*
X103531Y24439D01*
X103633Y24482D01*
X103736Y24522D01*
X103841Y24558D01*
X103947Y24590D01*
X104054Y24619D01*
X104162Y24644D01*
X104271Y24665D01*
X104380Y24682D01*
X104490Y24696D01*
X104601Y24705D01*
X104711Y24711D01*
X104822Y24713D01*
X104933Y24711D01*
X105043Y24705D01*
X105154Y24696D01*
X105264Y24682D01*
X105373Y24665D01*
X105482Y24644D01*
X105590Y24619D01*
X105697Y24590D01*
X105803Y24558D01*
X105908Y24522D01*
X106011Y24482D01*
X106113Y24439D01*
X106214Y24392D01*
X106313Y24341D01*
X106410Y24288D01*
X106504Y24231D01*
X106597Y24170D01*
X106688Y24107D01*
X106777Y24040D01*
X106863Y23970D01*
X106946Y23897D01*
X107028Y23822D01*
X107106Y23744D01*
X107181Y23662D01*
X107254Y23579D01*
X107324Y23493D01*
X107391Y23404D01*
X107454Y23313D01*
X107515Y23220D01*
X107572Y23126D01*
X107625Y23029D01*
X107676Y22930D01*
X107723Y22829D01*
X107766Y22727D01*
X107806Y22624D01*
X107842Y22519D01*
X107874Y22413D01*
X107903Y22306D01*
X107928Y22198D01*
X107949Y22089D01*
X107966Y21980D01*
X107980Y21870D01*
X107989Y21759D01*
X107995Y21649D01*
X107997Y21538D01*
X107997Y18363D01*
X113077Y29222D02*
X113077Y32397D01*
X113075Y32508D01*
X113069Y32618D01*
X113060Y32729D01*
X113046Y32839D01*
X113029Y32948D01*
X113008Y33057D01*
X112983Y33165D01*
X112954Y33272D01*
X112922Y33378D01*
X112886Y33483D01*
X112846Y33586D01*
X112803Y33688D01*
X112756Y33789D01*
X112705Y33888D01*
X112652Y33985D01*
X112595Y34079D01*
X112534Y34172D01*
X112471Y34263D01*
X112404Y34352D01*
X112334Y34438D01*
X112261Y34521D01*
X112186Y34603D01*
X112108Y34681D01*
X112026Y34756D01*
X111943Y34829D01*
X111857Y34899D01*
X111768Y34966D01*
X111677Y35029D01*
X111584Y35090D01*
X111490Y35147D01*
X111393Y35200D01*
X111294Y35251D01*
X111193Y35298D01*
X111091Y35341D01*
X110988Y35381D01*
X110883Y35417D01*
X110777Y35449D01*
X110670Y35478D01*
X110562Y35503D01*
X110453Y35524D01*
X110344Y35541D01*
X110234Y35555D01*
X110123Y35564D01*
X110013Y35570D01*
X109902Y35572D01*
X109791Y35570D01*
X109681Y35564D01*
X109570Y35555D01*
X109460Y35541D01*
X109351Y35524D01*
X109242Y35503D01*
X109134Y35478D01*
X109027Y35449D01*
X108921Y35417D01*
X108816Y35381D01*
X108713Y35341D01*
X108611Y35298D01*
X108510Y35251D01*
X108411Y35200D01*
X108315Y35147D01*
X108220Y35090D01*
X108127Y35029D01*
X108036Y34966D01*
X107947Y34899D01*
X107861Y34829D01*
X107778Y34756D01*
X107696Y34681D01*
X107618Y34603D01*
X107543Y34521D01*
X107470Y34438D01*
X107400Y34352D01*
X107333Y34263D01*
X107270Y34172D01*
X107209Y34079D01*
X107152Y33984D01*
X107099Y33888D01*
X107048Y33789D01*
X107001Y33688D01*
X106958Y33586D01*
X106918Y33483D01*
X106882Y33378D01*
X106850Y33272D01*
X106821Y33165D01*
X106796Y33057D01*
X106775Y32948D01*
X106758Y32839D01*
X106744Y32729D01*
X106735Y32618D01*
X106729Y32508D01*
X106727Y32397D01*
X101647Y33032D02*
X101647Y29222D01*
X101647Y33032D02*
X101649Y33132D01*
X101655Y33231D01*
X101665Y33331D01*
X101678Y33429D01*
X101696Y33528D01*
X101717Y33625D01*
X101742Y33721D01*
X101771Y33817D01*
X101804Y33911D01*
X101840Y34004D01*
X101880Y34095D01*
X101924Y34185D01*
X101971Y34273D01*
X102021Y34359D01*
X102075Y34443D01*
X102132Y34525D01*
X102192Y34604D01*
X102256Y34682D01*
X102322Y34756D01*
X102391Y34828D01*
X102463Y34897D01*
X102537Y34963D01*
X102615Y35027D01*
X102694Y35087D01*
X102776Y35144D01*
X102860Y35198D01*
X102946Y35248D01*
X103034Y35295D01*
X103124Y35339D01*
X103215Y35379D01*
X103308Y35415D01*
X103402Y35448D01*
X103498Y35477D01*
X103594Y35502D01*
X103691Y35523D01*
X103790Y35541D01*
X103888Y35554D01*
X103988Y35564D01*
X104087Y35570D01*
X104187Y35572D01*
X104287Y35570D01*
X104386Y35564D01*
X104486Y35554D01*
X104584Y35541D01*
X104683Y35523D01*
X104780Y35502D01*
X104876Y35477D01*
X104972Y35448D01*
X105066Y35415D01*
X105159Y35379D01*
X105250Y35339D01*
X105340Y35295D01*
X105428Y35248D01*
X105514Y35198D01*
X105598Y35144D01*
X105680Y35087D01*
X105759Y35027D01*
X105837Y34963D01*
X105911Y34897D01*
X105983Y34828D01*
X106052Y34756D01*
X106118Y34682D01*
X106182Y34604D01*
X106242Y34525D01*
X106299Y34443D01*
X106353Y34359D01*
X106403Y34273D01*
X106450Y34185D01*
X106494Y34095D01*
X106534Y34004D01*
X106570Y33911D01*
X106603Y33817D01*
X106632Y33721D01*
X106657Y33625D01*
X106678Y33528D01*
X106696Y33429D01*
X106709Y33331D01*
X106719Y33231D01*
X106725Y33132D01*
X106727Y33032D01*
X106727Y30492D01*
D15*
X461350Y59500D02*
X467700Y53150D01*
X467700Y40450D01*
X461350Y34100D01*
X448650Y34100D01*
X442300Y40450D01*
X442300Y53150D01*
X448650Y59500D01*
X467700Y91250D02*
X467700Y103950D01*
X467700Y91250D02*
X461350Y84900D01*
X448650Y84900D01*
X442300Y91250D01*
X461350Y84900D02*
X467700Y78550D01*
X467700Y65850D01*
X461350Y59500D01*
X448650Y59500D01*
X442300Y65850D01*
X442300Y78550D01*
X448650Y84900D01*
X467700Y129350D02*
X461350Y135700D01*
X467700Y129350D02*
X467700Y116650D01*
X461350Y110300D01*
X448650Y110300D01*
X442300Y116650D01*
X442300Y129350D01*
X448650Y135700D01*
X461350Y110300D02*
X467700Y103950D01*
X448650Y110300D02*
X442300Y103950D01*
X442300Y91250D01*
X467700Y167450D02*
X467700Y180150D01*
X467700Y167450D02*
X461350Y161100D01*
X448650Y161100D01*
X442300Y167450D01*
X461350Y161100D02*
X467700Y154750D01*
X467700Y142050D01*
X461350Y135700D01*
X448650Y135700D01*
X442300Y142050D01*
X442300Y154750D01*
X448650Y161100D01*
X467700Y205550D02*
X461350Y211900D01*
X467700Y205550D02*
X467700Y192850D01*
X461350Y186500D01*
X448650Y186500D01*
X442300Y192850D01*
X442300Y205550D01*
X448650Y211900D01*
X461350Y186500D02*
X467700Y180150D01*
X448650Y186500D02*
X442300Y180150D01*
X442300Y167450D01*
X467700Y243650D02*
X467700Y256350D01*
X467700Y243650D02*
X461350Y237300D01*
X448650Y237300D01*
X442300Y243650D01*
X461350Y237300D02*
X467700Y230950D01*
X467700Y218250D01*
X461350Y211900D01*
X448650Y211900D01*
X442300Y218250D01*
X442300Y230950D01*
X448650Y237300D01*
X467700Y281750D02*
X461350Y288100D01*
X467700Y281750D02*
X467700Y269050D01*
X461350Y262700D01*
X448650Y262700D01*
X442300Y269050D01*
X442300Y281750D01*
X448650Y288100D01*
X461350Y262700D02*
X467700Y256350D01*
X448650Y262700D02*
X442300Y256350D01*
X442300Y243650D01*
X467700Y319850D02*
X467700Y332550D01*
X467700Y319850D02*
X461350Y313500D01*
X448650Y313500D01*
X442300Y319850D01*
X461350Y313500D02*
X467700Y307150D01*
X467700Y294450D01*
X461350Y288100D01*
X448650Y288100D01*
X442300Y294450D01*
X442300Y307150D01*
X448650Y313500D01*
X467700Y357950D02*
X461350Y364300D01*
X467700Y357950D02*
X467700Y345250D01*
X461350Y338900D01*
X448650Y338900D01*
X442300Y345250D01*
X442300Y357950D01*
X448650Y364300D01*
X461350Y338900D02*
X467700Y332550D01*
X448650Y338900D02*
X442300Y332550D01*
X442300Y319850D01*
X467700Y396050D02*
X467700Y408750D01*
X467700Y396050D02*
X461350Y389700D01*
X448650Y389700D01*
X442300Y396050D01*
X461350Y389700D02*
X467700Y383350D01*
X467700Y370650D01*
X461350Y364300D01*
X448650Y364300D01*
X442300Y370650D01*
X442300Y383350D01*
X448650Y389700D01*
X467700Y434150D02*
X461350Y440500D01*
X467700Y434150D02*
X467700Y421450D01*
X461350Y415100D01*
X448650Y415100D01*
X442300Y421450D01*
X442300Y434150D01*
X448650Y440500D01*
X461350Y415100D02*
X467700Y408750D01*
X448650Y415100D02*
X442300Y408750D01*
X442300Y396050D01*
X467700Y472250D02*
X467700Y484950D01*
X467700Y472250D02*
X461350Y465900D01*
X448650Y465900D01*
X442300Y472250D01*
X461350Y465900D02*
X467700Y459550D01*
X467700Y446850D01*
X461350Y440500D01*
X448650Y440500D01*
X442300Y446850D01*
X442300Y459550D01*
X448650Y465900D01*
X448650Y491300D02*
X461350Y491300D01*
X467700Y484950D01*
X448650Y491300D02*
X442300Y484950D01*
X442300Y472250D01*
X461350Y34100D02*
X467700Y27750D01*
X467700Y15050D01*
X461350Y8700D01*
X448650Y8700D01*
X442300Y15050D01*
X442300Y27750D01*
X448650Y34100D01*
D12*
X473923Y468238D02*
X482813Y468238D01*
X482913Y468236D01*
X483012Y468230D01*
X483112Y468220D01*
X483210Y468207D01*
X483309Y468189D01*
X483406Y468168D01*
X483502Y468143D01*
X483598Y468114D01*
X483692Y468081D01*
X483785Y468045D01*
X483876Y468005D01*
X483966Y467961D01*
X484054Y467914D01*
X484140Y467864D01*
X484224Y467810D01*
X484306Y467753D01*
X484385Y467693D01*
X484463Y467629D01*
X484537Y467563D01*
X484609Y467494D01*
X484678Y467422D01*
X484744Y467348D01*
X484808Y467270D01*
X484868Y467191D01*
X484925Y467109D01*
X484979Y467025D01*
X485029Y466939D01*
X485076Y466851D01*
X485120Y466761D01*
X485160Y466670D01*
X485196Y466577D01*
X485229Y466483D01*
X485258Y466387D01*
X485283Y466291D01*
X485304Y466194D01*
X485322Y466095D01*
X485335Y465997D01*
X485345Y465897D01*
X485351Y465798D01*
X485353Y465698D01*
X485353Y464428D01*
X485353Y474219D02*
X473923Y474219D01*
X473923Y477394D01*
X473925Y477505D01*
X473931Y477615D01*
X473940Y477726D01*
X473954Y477836D01*
X473971Y477945D01*
X473992Y478054D01*
X474017Y478162D01*
X474046Y478269D01*
X474078Y478375D01*
X474114Y478480D01*
X474154Y478583D01*
X474197Y478685D01*
X474244Y478786D01*
X474295Y478885D01*
X474348Y478982D01*
X474405Y479076D01*
X474466Y479169D01*
X474529Y479260D01*
X474596Y479349D01*
X474666Y479435D01*
X474739Y479518D01*
X474814Y479600D01*
X474892Y479678D01*
X474974Y479753D01*
X475057Y479826D01*
X475143Y479896D01*
X475232Y479963D01*
X475323Y480026D01*
X475416Y480087D01*
X475511Y480144D01*
X475607Y480197D01*
X475706Y480248D01*
X475807Y480295D01*
X475909Y480338D01*
X476012Y480378D01*
X476117Y480414D01*
X476223Y480446D01*
X476330Y480475D01*
X476438Y480500D01*
X476547Y480521D01*
X476656Y480538D01*
X476766Y480552D01*
X476877Y480561D01*
X476987Y480567D01*
X477098Y480569D01*
X477209Y480567D01*
X477319Y480561D01*
X477430Y480552D01*
X477540Y480538D01*
X477649Y480521D01*
X477758Y480500D01*
X477866Y480475D01*
X477973Y480446D01*
X478079Y480414D01*
X478184Y480378D01*
X478287Y480338D01*
X478389Y480295D01*
X478490Y480248D01*
X478589Y480197D01*
X478686Y480144D01*
X478780Y480087D01*
X478873Y480026D01*
X478964Y479963D01*
X479053Y479896D01*
X479139Y479826D01*
X479222Y479753D01*
X479304Y479678D01*
X479382Y479600D01*
X479457Y479518D01*
X479530Y479435D01*
X479600Y479349D01*
X479667Y479260D01*
X479730Y479169D01*
X479791Y479076D01*
X479848Y478982D01*
X479901Y478885D01*
X479952Y478786D01*
X479999Y478685D01*
X480042Y478583D01*
X480082Y478480D01*
X480118Y478375D01*
X480150Y478269D01*
X480179Y478162D01*
X480204Y478054D01*
X480225Y477945D01*
X480242Y477836D01*
X480256Y477726D01*
X480265Y477615D01*
X480271Y477505D01*
X480273Y477394D01*
X480273Y474219D01*
X482813Y485077D02*
X473923Y487617D01*
X482813Y485077D02*
X482813Y491427D01*
X480273Y489522D02*
X485353Y489522D01*
D15*
X39650Y440500D02*
X33300Y446850D01*
X33300Y459550D01*
X39650Y465900D01*
X52350Y465900D01*
X58700Y459550D01*
X58700Y446850D01*
X52350Y440500D01*
X33300Y408750D02*
X33300Y396050D01*
X33300Y408750D02*
X39650Y415100D01*
X52350Y415100D01*
X58700Y408750D01*
X39650Y415100D02*
X33300Y421450D01*
X33300Y434150D01*
X39650Y440500D01*
X52350Y440500D01*
X58700Y434150D01*
X58700Y421450D01*
X52350Y415100D01*
X33300Y370650D02*
X39650Y364300D01*
X33300Y370650D02*
X33300Y383350D01*
X39650Y389700D01*
X52350Y389700D01*
X58700Y383350D01*
X58700Y370650D01*
X52350Y364300D01*
X39650Y389700D02*
X33300Y396050D01*
X52350Y389700D02*
X58700Y396050D01*
X58700Y408750D01*
X33300Y332550D02*
X33300Y319850D01*
X33300Y332550D02*
X39650Y338900D01*
X52350Y338900D01*
X58700Y332550D01*
X39650Y338900D02*
X33300Y345250D01*
X33300Y357950D01*
X39650Y364300D01*
X52350Y364300D01*
X58700Y357950D01*
X58700Y345250D01*
X52350Y338900D01*
X33300Y294450D02*
X39650Y288100D01*
X33300Y294450D02*
X33300Y307150D01*
X39650Y313500D01*
X52350Y313500D01*
X58700Y307150D01*
X58700Y294450D01*
X52350Y288100D01*
X39650Y313500D02*
X33300Y319850D01*
X52350Y313500D02*
X58700Y319850D01*
X58700Y332550D01*
X33300Y256350D02*
X33300Y243650D01*
X33300Y256350D02*
X39650Y262700D01*
X52350Y262700D01*
X58700Y256350D01*
X39650Y262700D02*
X33300Y269050D01*
X33300Y281750D01*
X39650Y288100D01*
X52350Y288100D01*
X58700Y281750D01*
X58700Y269050D01*
X52350Y262700D01*
X33300Y218250D02*
X39650Y211900D01*
X33300Y218250D02*
X33300Y230950D01*
X39650Y237300D01*
X52350Y237300D01*
X58700Y230950D01*
X58700Y218250D01*
X52350Y211900D01*
X39650Y237300D02*
X33300Y243650D01*
X52350Y237300D02*
X58700Y243650D01*
X58700Y256350D01*
X33300Y180150D02*
X33300Y167450D01*
X33300Y180150D02*
X39650Y186500D01*
X52350Y186500D01*
X58700Y180150D01*
X39650Y186500D02*
X33300Y192850D01*
X33300Y205550D01*
X39650Y211900D01*
X52350Y211900D01*
X58700Y205550D01*
X58700Y192850D01*
X52350Y186500D01*
X33300Y142050D02*
X39650Y135700D01*
X33300Y142050D02*
X33300Y154750D01*
X39650Y161100D01*
X52350Y161100D01*
X58700Y154750D01*
X58700Y142050D01*
X52350Y135700D01*
X39650Y161100D02*
X33300Y167450D01*
X52350Y161100D02*
X58700Y167450D01*
X58700Y180150D01*
X33300Y103950D02*
X33300Y91250D01*
X33300Y103950D02*
X39650Y110300D01*
X52350Y110300D01*
X58700Y103950D01*
X39650Y110300D02*
X33300Y116650D01*
X33300Y129350D01*
X39650Y135700D01*
X52350Y135700D01*
X58700Y129350D01*
X58700Y116650D01*
X52350Y110300D01*
X33300Y65850D02*
X39650Y59500D01*
X33300Y65850D02*
X33300Y78550D01*
X39650Y84900D01*
X52350Y84900D01*
X58700Y78550D01*
X58700Y65850D01*
X52350Y59500D01*
X39650Y84900D02*
X33300Y91250D01*
X52350Y84900D02*
X58700Y91250D01*
X58700Y103950D01*
X33300Y27750D02*
X33300Y15050D01*
X33300Y27750D02*
X39650Y34100D01*
X52350Y34100D01*
X58700Y27750D01*
X39650Y34100D02*
X33300Y40450D01*
X33300Y53150D01*
X39650Y59500D01*
X52350Y59500D01*
X58700Y53150D01*
X58700Y40450D01*
X52350Y34100D01*
X52350Y8700D02*
X39650Y8700D01*
X33300Y15050D01*
X52350Y8700D02*
X58700Y15050D01*
X58700Y27750D01*
X39650Y465900D02*
X33300Y472250D01*
X33300Y484950D01*
X39650Y491300D01*
X52350Y491300D01*
X58700Y484950D01*
X58700Y472250D01*
X52350Y465900D01*
D12*
X24537Y12383D02*
X15647Y12383D01*
X24537Y12383D02*
X24637Y12381D01*
X24736Y12375D01*
X24836Y12365D01*
X24934Y12352D01*
X25033Y12334D01*
X25130Y12313D01*
X25226Y12288D01*
X25322Y12259D01*
X25416Y12226D01*
X25509Y12190D01*
X25600Y12150D01*
X25690Y12106D01*
X25778Y12059D01*
X25864Y12009D01*
X25948Y11955D01*
X26030Y11898D01*
X26109Y11838D01*
X26187Y11774D01*
X26261Y11708D01*
X26333Y11639D01*
X26402Y11567D01*
X26468Y11493D01*
X26532Y11415D01*
X26592Y11336D01*
X26649Y11254D01*
X26703Y11170D01*
X26753Y11084D01*
X26800Y10996D01*
X26844Y10906D01*
X26884Y10815D01*
X26920Y10722D01*
X26953Y10628D01*
X26982Y10532D01*
X27007Y10436D01*
X27028Y10339D01*
X27046Y10240D01*
X27059Y10142D01*
X27069Y10042D01*
X27075Y9943D01*
X27077Y9843D01*
X27077Y8573D01*
X27077Y18363D02*
X15647Y18363D01*
X15647Y21538D01*
X15649Y21649D01*
X15655Y21759D01*
X15664Y21870D01*
X15678Y21980D01*
X15695Y22089D01*
X15716Y22198D01*
X15741Y22306D01*
X15770Y22413D01*
X15802Y22519D01*
X15838Y22624D01*
X15878Y22727D01*
X15921Y22829D01*
X15968Y22930D01*
X16019Y23029D01*
X16072Y23125D01*
X16129Y23220D01*
X16190Y23313D01*
X16253Y23404D01*
X16320Y23493D01*
X16390Y23579D01*
X16463Y23662D01*
X16538Y23744D01*
X16616Y23822D01*
X16698Y23897D01*
X16781Y23970D01*
X16867Y24040D01*
X16956Y24107D01*
X17047Y24170D01*
X17140Y24231D01*
X17234Y24288D01*
X17331Y24341D01*
X17430Y24392D01*
X17531Y24439D01*
X17633Y24482D01*
X17736Y24522D01*
X17841Y24558D01*
X17947Y24590D01*
X18054Y24619D01*
X18162Y24644D01*
X18271Y24665D01*
X18380Y24682D01*
X18490Y24696D01*
X18601Y24705D01*
X18711Y24711D01*
X18822Y24713D01*
X18933Y24711D01*
X19043Y24705D01*
X19154Y24696D01*
X19264Y24682D01*
X19373Y24665D01*
X19482Y24644D01*
X19590Y24619D01*
X19697Y24590D01*
X19803Y24558D01*
X19908Y24522D01*
X20011Y24482D01*
X20113Y24439D01*
X20214Y24392D01*
X20313Y24341D01*
X20410Y24288D01*
X20504Y24231D01*
X20597Y24170D01*
X20688Y24107D01*
X20777Y24040D01*
X20863Y23970D01*
X20946Y23897D01*
X21028Y23822D01*
X21106Y23744D01*
X21181Y23662D01*
X21254Y23579D01*
X21324Y23493D01*
X21391Y23404D01*
X21454Y23313D01*
X21515Y23220D01*
X21572Y23126D01*
X21625Y23029D01*
X21676Y22930D01*
X21723Y22829D01*
X21766Y22727D01*
X21806Y22624D01*
X21842Y22519D01*
X21874Y22413D01*
X21903Y22306D01*
X21928Y22198D01*
X21949Y22089D01*
X21966Y21980D01*
X21980Y21870D01*
X21989Y21759D01*
X21995Y21649D01*
X21997Y21538D01*
X21997Y18363D01*
X27077Y29222D02*
X27077Y33032D01*
X27075Y33132D01*
X27069Y33231D01*
X27059Y33331D01*
X27046Y33429D01*
X27028Y33528D01*
X27007Y33625D01*
X26982Y33721D01*
X26953Y33817D01*
X26920Y33911D01*
X26884Y34004D01*
X26844Y34095D01*
X26800Y34185D01*
X26753Y34273D01*
X26703Y34359D01*
X26649Y34443D01*
X26592Y34525D01*
X26532Y34604D01*
X26468Y34682D01*
X26402Y34756D01*
X26333Y34828D01*
X26261Y34897D01*
X26187Y34963D01*
X26109Y35027D01*
X26030Y35087D01*
X25948Y35144D01*
X25864Y35198D01*
X25778Y35248D01*
X25690Y35295D01*
X25600Y35339D01*
X25509Y35379D01*
X25416Y35415D01*
X25322Y35448D01*
X25226Y35477D01*
X25130Y35502D01*
X25033Y35523D01*
X24934Y35541D01*
X24836Y35554D01*
X24736Y35564D01*
X24637Y35570D01*
X24537Y35572D01*
X23267Y35572D01*
X23167Y35570D01*
X23068Y35564D01*
X22968Y35554D01*
X22870Y35541D01*
X22771Y35523D01*
X22674Y35502D01*
X22578Y35477D01*
X22482Y35448D01*
X22388Y35415D01*
X22295Y35379D01*
X22204Y35339D01*
X22114Y35295D01*
X22026Y35248D01*
X21940Y35198D01*
X21856Y35144D01*
X21774Y35087D01*
X21695Y35027D01*
X21617Y34963D01*
X21543Y34897D01*
X21471Y34828D01*
X21402Y34756D01*
X21336Y34682D01*
X21272Y34604D01*
X21212Y34525D01*
X21155Y34443D01*
X21101Y34359D01*
X21051Y34273D01*
X21004Y34185D01*
X20960Y34095D01*
X20920Y34004D01*
X20884Y33911D01*
X20851Y33817D01*
X20822Y33721D01*
X20797Y33625D01*
X20776Y33528D01*
X20758Y33429D01*
X20745Y33331D01*
X20735Y33231D01*
X20729Y33132D01*
X20727Y33032D01*
X20727Y29222D01*
X15647Y29222D01*
X15647Y35572D01*
M02*
