G04 EAGLE Gerber RS-274X export*
G75*
%MOMM*%
%FSLAX34Y34*%
%LPD*%
%INSolderpaste Top*%
%IPPOS*%
%AMOC8*
5,1,8,0,0,1.08239X$1,22.5*%
G01*
%ADD10R,1.300000X1.500000*%
%ADD11R,1.550000X2.150000*%
%ADD12R,0.300000X1.000000*%
%ADD13R,2.300000X1.600000*%
%ADD14R,0.600000X1.200000*%
%ADD15R,0.600000X0.850000*%


D10*
X252100Y847600D03*
X233100Y847600D03*
X123100Y847600D03*
X104100Y847600D03*
X167400Y847400D03*
X186400Y847400D03*
D11*
X306200Y850800D03*
X306200Y795800D03*
D12*
X294700Y716200D03*
X301200Y716200D03*
X307700Y716200D03*
X294700Y734200D03*
X301200Y734200D03*
X307700Y734200D03*
D13*
X446000Y605000D03*
X519000Y605000D03*
X445100Y691900D03*
X518100Y691900D03*
D14*
X354700Y667700D03*
X345200Y667700D03*
X335700Y667700D03*
X335700Y642700D03*
X354700Y642700D03*
D15*
X112300Y709900D03*
X131300Y709900D03*
X121800Y734900D03*
D10*
X257400Y659400D03*
X276400Y659400D03*
X178800Y591900D03*
X197800Y591900D03*
X179300Y658900D03*
X198300Y658900D03*
X280100Y593100D03*
X261100Y593100D03*
X108200Y591900D03*
X127200Y591900D03*
X218100Y729600D03*
X199100Y729600D03*
X109400Y658400D03*
X128400Y658400D03*
M02*
