M48
;GenerationSoftware,Autodesk,EAGLE,9.6.2*%
;CreationDate,2024-09-22T15:14:48Z*%
FMAT,2
ICI,OFF
METRIC,TZ,000.000
T3C0.350
T2C1.016
T1C1.100
%
G90
M71
T1
X7090Y92740
X9630Y92740
X7090Y95280
X9630Y95280
T2
X34550Y96530
X4600Y30080
X4600Y32620
X4600Y35160
X4600Y37700
X4600Y40240
X4600Y42780
X4600Y45320
X39630Y96530
X37090Y96530
X4110Y82650
X32010Y96530
X4110Y62330
X4110Y64870
X4110Y67410
X4110Y69950
X4110Y72490
X4110Y75030
X4110Y77570
X4110Y80110
X4600Y47860
X4110Y85190
X38600Y47860
X38600Y45320
X38600Y42780
X38600Y40240
X38600Y37700
X38600Y35160
X38600Y32620
X38600Y30080
X38600Y27540
X38600Y25000
X38600Y22460
X38600Y19920
X38600Y17380
X38600Y14840
X38600Y12300
X38600Y9760
X38600Y7220
X38600Y4680
X38600Y2140
X13200Y2140
X13200Y4680
X13200Y7220
X13200Y9760
X13200Y12300
X13200Y14840
X13200Y17380
X13200Y19920
X13200Y22460
X13200Y25000
X13200Y27540
X13200Y30080
X13200Y32620
X13200Y35160
X13200Y37700
X13200Y40240
X13200Y42780
X13200Y45320
X13200Y47860
X45500Y47860
X45500Y45320
X45500Y42780
X45500Y40240
X45500Y37700
X45500Y35160
X45500Y32620
X45500Y30080
X45500Y27540
X45500Y25000
X45500Y22460
X45500Y19920
X45500Y17380
X45500Y14840
X45500Y12300
X45500Y9760
X45500Y7220
X45500Y4680
X45500Y2140
X4600Y2140
X4600Y4680
X4600Y7220
X4600Y9760
X4600Y12300
X4600Y14840
X4600Y17380
X4600Y19920
X4600Y22460
X4600Y25000
X4600Y27540
T3
X24800Y82100
X24800Y56400
X33391Y61809
X25600Y90700
X29700Y90700
X22929Y89029
X29779Y89029
X20941Y54670
M30