G04 EAGLE Gerber RS-274X export*
G75*
%MOMM*%
%FSLAX34Y34*%
%LPD*%
%INTop Copper*%
%IPPOS*%
%AMOC8*
5,1,8,0,0,1.08239X$1,22.5*%
G01*
%ADD10R,1.300000X1.500000*%
%ADD11R,1.500000X1.300000*%
%ADD12R,1.550000X2.150000*%
%ADD13R,0.300000X1.000000*%
%ADD14R,1.308000X1.308000*%
%ADD15C,1.308000*%
%ADD16C,1.524000*%
%ADD17R,1.238000X1.238000*%
%ADD18C,1.238000*%
%ADD19R,1.650000X1.650000*%
%ADD20C,1.650000*%
%ADD21C,1.755000*%
%ADD22C,3.090000*%
%ADD23C,3.285000*%
%ADD24C,1.408000*%
%ADD25R,1.303000X1.303000*%
%ADD26C,1.303000*%
%ADD27R,0.850000X0.600000*%
%ADD28C,4.216000*%
%ADD29C,0.180000*%
%ADD30C,0.800000*%
%ADD31C,0.706400*%
%ADD32C,0.756400*%
%ADD33C,1.212800*%

G36*
X102265Y10168D02*
X102265Y10168D01*
X102315Y10166D01*
X102396Y10188D01*
X102480Y10201D01*
X102525Y10222D01*
X102573Y10235D01*
X102645Y10280D01*
X102721Y10316D01*
X102758Y10350D01*
X102800Y10376D01*
X102855Y10440D01*
X102918Y10498D01*
X102943Y10541D01*
X102975Y10579D01*
X103009Y10656D01*
X103052Y10729D01*
X103063Y10778D01*
X103083Y10823D01*
X103093Y10907D01*
X103112Y10990D01*
X103109Y11039D01*
X103114Y11089D01*
X103099Y11172D01*
X103093Y11257D01*
X103075Y11303D01*
X103066Y11352D01*
X103027Y11427D01*
X102997Y11506D01*
X102966Y11545D01*
X102943Y11589D01*
X102852Y11696D01*
X101627Y12920D01*
X100235Y16281D01*
X100235Y19919D01*
X101627Y23280D01*
X104200Y25853D01*
X107561Y27245D01*
X126439Y27245D01*
X129800Y25853D01*
X132373Y23280D01*
X133765Y19919D01*
X133765Y16281D01*
X132373Y12920D01*
X131148Y11696D01*
X131119Y11656D01*
X131082Y11622D01*
X131040Y11549D01*
X130990Y11481D01*
X130973Y11434D01*
X130948Y11391D01*
X130929Y11308D01*
X130901Y11228D01*
X130899Y11179D01*
X130888Y11130D01*
X130894Y11046D01*
X130891Y10961D01*
X130903Y10913D01*
X130907Y10863D01*
X130937Y10784D01*
X130959Y10703D01*
X130985Y10660D01*
X131003Y10614D01*
X131056Y10547D01*
X131101Y10476D01*
X131138Y10443D01*
X131169Y10404D01*
X131239Y10356D01*
X131303Y10300D01*
X131348Y10280D01*
X131389Y10252D01*
X131470Y10227D01*
X131548Y10192D01*
X131597Y10187D01*
X131644Y10172D01*
X131784Y10161D01*
X357216Y10161D01*
X357265Y10168D01*
X357315Y10166D01*
X357396Y10188D01*
X357480Y10201D01*
X357525Y10222D01*
X357573Y10235D01*
X357645Y10280D01*
X357721Y10316D01*
X357758Y10350D01*
X357800Y10376D01*
X357855Y10440D01*
X357918Y10498D01*
X357943Y10541D01*
X357975Y10579D01*
X358009Y10656D01*
X358052Y10729D01*
X358063Y10778D01*
X358083Y10823D01*
X358093Y10907D01*
X358112Y10990D01*
X358109Y11039D01*
X358114Y11089D01*
X358099Y11172D01*
X358093Y11257D01*
X358075Y11303D01*
X358066Y11352D01*
X358027Y11427D01*
X357997Y11506D01*
X357966Y11545D01*
X357943Y11589D01*
X357852Y11696D01*
X356627Y12920D01*
X355235Y16281D01*
X355235Y19919D01*
X356627Y23280D01*
X359200Y25853D01*
X362561Y27245D01*
X381439Y27245D01*
X384800Y25853D01*
X387373Y23280D01*
X388765Y19919D01*
X388765Y16281D01*
X387373Y12920D01*
X386148Y11696D01*
X386119Y11656D01*
X386082Y11622D01*
X386040Y11549D01*
X385990Y11481D01*
X385973Y11434D01*
X385948Y11391D01*
X385929Y11308D01*
X385901Y11228D01*
X385899Y11179D01*
X385888Y11130D01*
X385894Y11046D01*
X385891Y10961D01*
X385903Y10913D01*
X385907Y10863D01*
X385937Y10784D01*
X385959Y10703D01*
X385985Y10660D01*
X386003Y10614D01*
X386056Y10547D01*
X386101Y10476D01*
X386138Y10443D01*
X386169Y10404D01*
X386239Y10356D01*
X386303Y10300D01*
X386348Y10280D01*
X386389Y10252D01*
X386470Y10227D01*
X386548Y10192D01*
X386597Y10187D01*
X386644Y10172D01*
X386784Y10161D01*
X597496Y10161D01*
X597552Y10169D01*
X597609Y10168D01*
X597684Y10189D01*
X597761Y10201D01*
X597812Y10225D01*
X597867Y10241D01*
X597932Y10283D01*
X598002Y10316D01*
X598044Y10355D01*
X598091Y10386D01*
X598141Y10445D01*
X598198Y10498D01*
X598227Y10547D01*
X598263Y10590D01*
X598293Y10662D01*
X598332Y10729D01*
X598345Y10785D01*
X598367Y10837D01*
X598375Y10914D01*
X598393Y10990D01*
X598389Y11046D01*
X598394Y11103D01*
X598379Y11179D01*
X598374Y11257D01*
X598353Y11310D01*
X598342Y11365D01*
X598305Y11433D01*
X598277Y11506D01*
X598242Y11551D01*
X598215Y11601D01*
X598159Y11655D01*
X598111Y11716D01*
X598065Y11748D01*
X598024Y11788D01*
X597904Y11861D01*
X596474Y12590D01*
X595181Y13530D01*
X594050Y14661D01*
X593110Y15955D01*
X592384Y17380D01*
X591889Y18901D01*
X591639Y20480D01*
X591639Y27101D01*
X600900Y27101D01*
X600998Y27116D01*
X601097Y27123D01*
X601129Y27135D01*
X601164Y27141D01*
X601254Y27183D01*
X601346Y27219D01*
X601374Y27241D01*
X601405Y27256D01*
X601478Y27324D01*
X601556Y27385D01*
X601576Y27414D01*
X601602Y27438D01*
X601652Y27524D01*
X601708Y27605D01*
X601718Y27639D01*
X601736Y27669D01*
X601758Y27766D01*
X601788Y27860D01*
X601792Y27912D01*
X601796Y27930D01*
X601795Y27948D01*
X601799Y28000D01*
X601799Y28901D01*
X601801Y28901D01*
X601801Y28000D01*
X601816Y27902D01*
X601823Y27803D01*
X601835Y27770D01*
X601841Y27736D01*
X601884Y27646D01*
X601919Y27554D01*
X601941Y27526D01*
X601956Y27494D01*
X602024Y27422D01*
X602085Y27344D01*
X602114Y27324D01*
X602138Y27298D01*
X602224Y27248D01*
X602305Y27192D01*
X602339Y27182D01*
X602369Y27164D01*
X602466Y27142D01*
X602560Y27112D01*
X602612Y27108D01*
X602630Y27104D01*
X602648Y27105D01*
X602700Y27101D01*
X611961Y27101D01*
X611961Y20480D01*
X611711Y18901D01*
X611216Y17380D01*
X610490Y15955D01*
X609550Y14661D01*
X608419Y13530D01*
X607126Y12590D01*
X605696Y11861D01*
X605649Y11828D01*
X605598Y11804D01*
X605541Y11751D01*
X605478Y11706D01*
X605444Y11661D01*
X605402Y11622D01*
X605363Y11555D01*
X605316Y11493D01*
X605296Y11440D01*
X605268Y11391D01*
X605250Y11315D01*
X605223Y11242D01*
X605220Y11185D01*
X605207Y11130D01*
X605213Y11053D01*
X605209Y10975D01*
X605222Y10920D01*
X605226Y10863D01*
X605254Y10791D01*
X605273Y10715D01*
X605302Y10667D01*
X605323Y10614D01*
X605371Y10553D01*
X605411Y10486D01*
X605453Y10449D01*
X605489Y10404D01*
X605553Y10360D01*
X605611Y10308D01*
X605662Y10284D01*
X605709Y10252D01*
X605783Y10229D01*
X605854Y10196D01*
X605910Y10189D01*
X605964Y10172D01*
X606104Y10161D01*
X1158940Y10161D01*
X1159038Y10175D01*
X1159137Y10183D01*
X1159170Y10195D01*
X1159205Y10201D01*
X1159294Y10243D01*
X1159386Y10279D01*
X1159414Y10301D01*
X1159446Y10316D01*
X1159518Y10384D01*
X1159596Y10445D01*
X1159616Y10474D01*
X1159642Y10498D01*
X1159692Y10584D01*
X1159748Y10665D01*
X1159759Y10699D01*
X1159776Y10729D01*
X1159799Y10826D01*
X1159828Y10920D01*
X1159832Y10972D01*
X1159837Y10990D01*
X1159835Y11008D01*
X1159839Y11060D01*
X1159839Y988940D01*
X1159825Y989038D01*
X1159817Y989137D01*
X1159805Y989170D01*
X1159799Y989205D01*
X1159757Y989294D01*
X1159721Y989386D01*
X1159699Y989414D01*
X1159684Y989446D01*
X1159616Y989518D01*
X1159555Y989596D01*
X1159526Y989616D01*
X1159502Y989642D01*
X1159416Y989692D01*
X1159335Y989748D01*
X1159301Y989759D01*
X1159271Y989776D01*
X1159174Y989799D01*
X1159080Y989828D01*
X1159028Y989832D01*
X1159010Y989837D01*
X1158992Y989835D01*
X1158940Y989839D01*
X11060Y989839D01*
X10962Y989825D01*
X10863Y989817D01*
X10830Y989805D01*
X10795Y989799D01*
X10706Y989757D01*
X10614Y989721D01*
X10586Y989699D01*
X10554Y989684D01*
X10482Y989616D01*
X10404Y989555D01*
X10384Y989526D01*
X10358Y989502D01*
X10308Y989416D01*
X10252Y989335D01*
X10241Y989301D01*
X10224Y989271D01*
X10201Y989174D01*
X10172Y989080D01*
X10168Y989028D01*
X10163Y989010D01*
X10165Y988992D01*
X10161Y988940D01*
X10161Y11060D01*
X10175Y10962D01*
X10183Y10863D01*
X10195Y10830D01*
X10201Y10795D01*
X10243Y10706D01*
X10279Y10614D01*
X10301Y10586D01*
X10316Y10554D01*
X10384Y10482D01*
X10445Y10404D01*
X10474Y10384D01*
X10498Y10358D01*
X10584Y10308D01*
X10665Y10252D01*
X10699Y10241D01*
X10729Y10224D01*
X10826Y10201D01*
X10920Y10172D01*
X10972Y10168D01*
X10990Y10163D01*
X11008Y10165D01*
X11060Y10161D01*
X102216Y10161D01*
X102265Y10168D01*
G37*
%LPC*%
G36*
X768965Y184085D02*
X768965Y184085D01*
X766130Y185260D01*
X763960Y187430D01*
X763218Y189220D01*
X763189Y189269D01*
X763168Y189322D01*
X763120Y189383D01*
X763080Y189449D01*
X763038Y189487D01*
X763003Y189532D01*
X762939Y189576D01*
X762881Y189628D01*
X762829Y189652D01*
X762782Y189684D01*
X762709Y189707D01*
X762638Y189740D01*
X762582Y189747D01*
X762527Y189764D01*
X762387Y189775D01*
X715096Y189775D01*
X695005Y209866D01*
X694959Y209900D01*
X694920Y209941D01*
X694852Y209979D01*
X694790Y210025D01*
X694736Y210044D01*
X694686Y210072D01*
X694610Y210088D01*
X694537Y210114D01*
X694480Y210116D01*
X694425Y210128D01*
X694347Y210121D01*
X694270Y210124D01*
X694215Y210110D01*
X694158Y210105D01*
X694025Y210061D01*
X692635Y209485D01*
X689565Y209485D01*
X686730Y210660D01*
X684560Y212830D01*
X683385Y215665D01*
X683385Y218735D01*
X684560Y221570D01*
X686730Y223740D01*
X689565Y224915D01*
X692635Y224915D01*
X695470Y223740D01*
X697640Y221570D01*
X698815Y218735D01*
X698815Y215665D01*
X698239Y214275D01*
X698225Y214220D01*
X698202Y214168D01*
X698193Y214091D01*
X698174Y214016D01*
X698178Y213959D01*
X698171Y213902D01*
X698185Y213826D01*
X698189Y213749D01*
X698209Y213695D01*
X698219Y213639D01*
X698255Y213570D01*
X698282Y213498D01*
X698316Y213453D01*
X698343Y213402D01*
X698434Y213295D01*
X716841Y194888D01*
X716853Y194879D01*
X716862Y194868D01*
X716960Y194800D01*
X717056Y194729D01*
X717070Y194724D01*
X717082Y194716D01*
X717196Y194680D01*
X717309Y194641D01*
X717323Y194640D01*
X717337Y194636D01*
X717477Y194625D01*
X762719Y194625D01*
X762775Y194633D01*
X762832Y194632D01*
X762907Y194653D01*
X762983Y194665D01*
X763035Y194689D01*
X763089Y194705D01*
X763155Y194747D01*
X763224Y194780D01*
X763266Y194819D01*
X763314Y194850D01*
X763364Y194909D01*
X763421Y194962D01*
X763449Y195011D01*
X763486Y195055D01*
X763550Y195180D01*
X763960Y196170D01*
X766130Y198340D01*
X768965Y199515D01*
X772035Y199515D01*
X773196Y199034D01*
X773251Y199020D01*
X773303Y198997D01*
X773380Y198988D01*
X773455Y198969D01*
X773512Y198972D01*
X773569Y198966D01*
X773645Y198980D01*
X773722Y198984D01*
X773776Y199004D01*
X773832Y199014D01*
X773901Y199050D01*
X773973Y199077D01*
X774018Y199111D01*
X774069Y199138D01*
X774176Y199229D01*
X825790Y250843D01*
X825799Y250855D01*
X825810Y250864D01*
X825877Y250962D01*
X825949Y251058D01*
X825954Y251072D01*
X825962Y251084D01*
X825998Y251198D01*
X826037Y251311D01*
X826038Y251325D01*
X826042Y251339D01*
X826053Y251479D01*
X826053Y359826D01*
X868200Y401973D01*
X868209Y401985D01*
X868220Y401994D01*
X868288Y402092D01*
X868359Y402188D01*
X868364Y402202D01*
X868372Y402214D01*
X868408Y402328D01*
X868447Y402441D01*
X868448Y402455D01*
X868452Y402469D01*
X868463Y402609D01*
X868463Y474176D01*
X868449Y474274D01*
X868441Y474373D01*
X868429Y474406D01*
X868423Y474441D01*
X868381Y474530D01*
X868345Y474622D01*
X868323Y474650D01*
X868308Y474682D01*
X868240Y474754D01*
X868179Y474832D01*
X868150Y474852D01*
X868126Y474878D01*
X868040Y474928D01*
X867959Y474984D01*
X867925Y474995D01*
X867895Y475012D01*
X867798Y475035D01*
X867704Y475064D01*
X867652Y475068D01*
X867634Y475073D01*
X867616Y475071D01*
X867564Y475075D01*
X863968Y475075D01*
X863075Y475968D01*
X863075Y492232D01*
X863968Y493125D01*
X878234Y493125D01*
X878358Y493143D01*
X878484Y493160D01*
X878491Y493163D01*
X878499Y493165D01*
X878612Y493219D01*
X878727Y493272D01*
X878733Y493277D01*
X878740Y493280D01*
X878833Y493366D01*
X878926Y493450D01*
X878930Y493456D01*
X878936Y493462D01*
X879000Y493571D01*
X879065Y493679D01*
X879067Y493686D01*
X879071Y493693D01*
X879099Y493815D01*
X879130Y493938D01*
X879129Y493946D01*
X879131Y493954D01*
X879122Y494079D01*
X879115Y494205D01*
X879112Y494213D01*
X879112Y494221D01*
X879066Y494338D01*
X879023Y494456D01*
X879017Y494465D01*
X879015Y494470D01*
X879008Y494480D01*
X878946Y494574D01*
X872822Y502502D01*
X872770Y502552D01*
X872726Y502608D01*
X872674Y502643D01*
X872629Y502687D01*
X872565Y502719D01*
X872505Y502760D01*
X872446Y502779D01*
X872390Y502807D01*
X872319Y502819D01*
X872250Y502840D01*
X872138Y502849D01*
X872126Y502851D01*
X872121Y502850D01*
X872111Y502851D01*
X865617Y502851D01*
X865602Y502849D01*
X865588Y502851D01*
X865470Y502829D01*
X865352Y502811D01*
X865339Y502805D01*
X865325Y502803D01*
X865219Y502747D01*
X865111Y502696D01*
X865101Y502686D01*
X865088Y502679D01*
X864981Y502588D01*
X853604Y491211D01*
X853595Y491199D01*
X853584Y491190D01*
X853517Y491093D01*
X853445Y490996D01*
X853440Y490982D01*
X853432Y490970D01*
X853396Y490856D01*
X853357Y490743D01*
X853356Y490729D01*
X853352Y490715D01*
X853341Y490575D01*
X853341Y421116D01*
X778820Y346595D01*
X618613Y346595D01*
X618598Y346593D01*
X618584Y346595D01*
X618466Y346573D01*
X618348Y346555D01*
X618335Y346549D01*
X618321Y346547D01*
X618214Y346491D01*
X618107Y346440D01*
X618097Y346430D01*
X618084Y346423D01*
X617977Y346332D01*
X586324Y314679D01*
X519231Y314679D01*
X519216Y314677D01*
X519202Y314679D01*
X519084Y314657D01*
X518966Y314639D01*
X518953Y314633D01*
X518939Y314631D01*
X518833Y314575D01*
X518725Y314524D01*
X518715Y314514D01*
X518702Y314507D01*
X518595Y314416D01*
X509548Y305369D01*
X494272Y305369D01*
X489189Y310452D01*
X489189Y552407D01*
X489187Y552422D01*
X489189Y552436D01*
X489171Y552531D01*
X489166Y552605D01*
X489155Y552633D01*
X489149Y552672D01*
X489143Y552685D01*
X489141Y552699D01*
X489098Y552781D01*
X489070Y552855D01*
X489049Y552880D01*
X489034Y552913D01*
X489024Y552923D01*
X489017Y552936D01*
X488926Y553043D01*
X464660Y577309D01*
X464620Y577339D01*
X464586Y577375D01*
X464513Y577418D01*
X464445Y577468D01*
X464398Y577484D01*
X464355Y577509D01*
X464272Y577529D01*
X464192Y577557D01*
X464143Y577558D01*
X464094Y577570D01*
X464010Y577564D01*
X463925Y577567D01*
X463877Y577554D01*
X463827Y577551D01*
X463748Y577520D01*
X463667Y577498D01*
X463624Y577472D01*
X463578Y577454D01*
X463512Y577402D01*
X463440Y577357D01*
X463407Y577319D01*
X463368Y577288D01*
X463320Y577219D01*
X463264Y577155D01*
X463244Y577109D01*
X463216Y577068D01*
X463191Y576987D01*
X463156Y576910D01*
X463151Y576861D01*
X463136Y576813D01*
X463125Y576673D01*
X463125Y568768D01*
X462232Y567875D01*
X457968Y567875D01*
X457686Y568158D01*
X457646Y568187D01*
X457612Y568224D01*
X457539Y568266D01*
X457471Y568317D01*
X457424Y568333D01*
X457381Y568358D01*
X457298Y568377D01*
X457218Y568405D01*
X457169Y568407D01*
X457120Y568419D01*
X457036Y568412D01*
X456951Y568416D01*
X456903Y568403D01*
X456853Y568399D01*
X456774Y568369D01*
X456693Y568347D01*
X456650Y568321D01*
X456604Y568303D01*
X456537Y568250D01*
X456466Y568206D01*
X456433Y568168D01*
X456394Y568137D01*
X456346Y568067D01*
X456290Y568003D01*
X456270Y567958D01*
X456242Y567917D01*
X456217Y567836D01*
X456182Y567759D01*
X456177Y567709D01*
X456162Y567662D01*
X456151Y567522D01*
X456151Y556457D01*
X456153Y556442D01*
X456151Y556428D01*
X456173Y556310D01*
X456191Y556192D01*
X456197Y556179D01*
X456199Y556165D01*
X456255Y556059D01*
X456306Y555951D01*
X456316Y555941D01*
X456323Y555928D01*
X456414Y555821D01*
X458539Y553696D01*
X458551Y553687D01*
X458560Y553676D01*
X458658Y553608D01*
X458754Y553537D01*
X458768Y553532D01*
X458780Y553524D01*
X458894Y553488D01*
X459006Y553449D01*
X459021Y553448D01*
X459035Y553444D01*
X459175Y553433D01*
X462525Y553433D01*
X465487Y550471D01*
X465487Y546281D01*
X462525Y543319D01*
X458335Y543319D01*
X455373Y546281D01*
X455373Y549631D01*
X455371Y549646D01*
X455373Y549660D01*
X455351Y549778D01*
X455333Y549896D01*
X455327Y549909D01*
X455325Y549923D01*
X455269Y550029D01*
X455218Y550137D01*
X455208Y550148D01*
X455201Y550160D01*
X455110Y550267D01*
X452985Y552392D01*
X451060Y554317D01*
X451020Y554347D01*
X450986Y554383D01*
X450913Y554426D01*
X450845Y554476D01*
X450798Y554492D01*
X450755Y554517D01*
X450672Y554537D01*
X450592Y554565D01*
X450543Y554566D01*
X450494Y554578D01*
X450410Y554572D01*
X450325Y554575D01*
X450277Y554562D01*
X450227Y554559D01*
X450148Y554528D01*
X450067Y554506D01*
X450024Y554480D01*
X449978Y554462D01*
X449911Y554410D01*
X449840Y554365D01*
X449807Y554327D01*
X449768Y554296D01*
X449720Y554227D01*
X449664Y554163D01*
X449644Y554117D01*
X449616Y554076D01*
X449591Y553995D01*
X449556Y553918D01*
X449551Y553869D01*
X449536Y553821D01*
X449525Y553681D01*
X449525Y511589D01*
X449527Y511574D01*
X449525Y511560D01*
X449547Y511442D01*
X449565Y511324D01*
X449571Y511311D01*
X449573Y511297D01*
X449629Y511191D01*
X449680Y511083D01*
X449690Y511073D01*
X449697Y511060D01*
X449788Y510953D01*
X461425Y499316D01*
X461425Y493424D01*
X461439Y493326D01*
X461447Y493227D01*
X461459Y493194D01*
X461465Y493159D01*
X461507Y493070D01*
X461543Y492978D01*
X461565Y492950D01*
X461580Y492918D01*
X461648Y492846D01*
X461709Y492768D01*
X461738Y492748D01*
X461762Y492722D01*
X461848Y492672D01*
X461929Y492616D01*
X461963Y492605D01*
X461993Y492588D01*
X462090Y492565D01*
X462184Y492536D01*
X462236Y492532D01*
X462254Y492527D01*
X462272Y492529D01*
X462324Y492525D01*
X467132Y492525D01*
X468025Y491632D01*
X468025Y477368D01*
X467132Y476475D01*
X450868Y476475D01*
X449975Y477368D01*
X449975Y491632D01*
X450868Y492525D01*
X455676Y492525D01*
X455774Y492539D01*
X455873Y492547D01*
X455906Y492559D01*
X455941Y492565D01*
X456030Y492607D01*
X456122Y492643D01*
X456150Y492665D01*
X456182Y492680D01*
X456254Y492748D01*
X456332Y492809D01*
X456352Y492838D01*
X456378Y492862D01*
X456428Y492948D01*
X456484Y493029D01*
X456495Y493063D01*
X456512Y493093D01*
X456535Y493190D01*
X456564Y493284D01*
X456568Y493336D01*
X456573Y493354D01*
X456571Y493372D01*
X456575Y493424D01*
X456575Y496935D01*
X456573Y496950D01*
X456575Y496964D01*
X456553Y497082D01*
X456535Y497200D01*
X456529Y497213D01*
X456527Y497227D01*
X456471Y497333D01*
X456420Y497441D01*
X456410Y497451D01*
X456403Y497464D01*
X456312Y497571D01*
X444412Y509471D01*
X439041Y514842D01*
X439029Y514851D01*
X439020Y514862D01*
X438923Y514929D01*
X438826Y515001D01*
X438812Y515006D01*
X438800Y515014D01*
X438686Y515050D01*
X438573Y515089D01*
X438559Y515090D01*
X438545Y515094D01*
X438405Y515105D01*
X394907Y515105D01*
X394892Y515103D01*
X394878Y515105D01*
X394760Y515083D01*
X394642Y515065D01*
X394629Y515059D01*
X394615Y515057D01*
X394509Y515001D01*
X394401Y514950D01*
X394391Y514940D01*
X394378Y514933D01*
X394271Y514842D01*
X149104Y269675D01*
X134115Y269675D01*
X134058Y269667D01*
X134001Y269668D01*
X133927Y269647D01*
X133850Y269635D01*
X133799Y269611D01*
X133744Y269595D01*
X133679Y269553D01*
X133609Y269520D01*
X133567Y269481D01*
X133519Y269450D01*
X133470Y269391D01*
X133413Y269338D01*
X133384Y269289D01*
X133347Y269245D01*
X133284Y269120D01*
X132373Y266920D01*
X129800Y264347D01*
X126439Y262955D01*
X107561Y262955D01*
X104200Y264347D01*
X101627Y266920D01*
X100235Y270281D01*
X100235Y273919D01*
X101627Y277280D01*
X104200Y279853D01*
X107561Y281245D01*
X126439Y281245D01*
X129800Y279853D01*
X132373Y277280D01*
X133284Y275080D01*
X133312Y275033D01*
X133327Y274993D01*
X133328Y274992D01*
X133334Y274978D01*
X133382Y274917D01*
X133422Y274851D01*
X133464Y274813D01*
X133500Y274768D01*
X133563Y274724D01*
X133621Y274672D01*
X133673Y274648D01*
X133720Y274616D01*
X133794Y274593D01*
X133864Y274560D01*
X133921Y274553D01*
X133975Y274536D01*
X134115Y274525D01*
X146723Y274525D01*
X146738Y274527D01*
X146752Y274525D01*
X146870Y274547D01*
X146988Y274565D01*
X147001Y274571D01*
X147015Y274573D01*
X147121Y274629D01*
X147229Y274680D01*
X147239Y274690D01*
X147252Y274697D01*
X147359Y274788D01*
X392526Y519955D01*
X440786Y519955D01*
X442470Y518271D01*
X443140Y517601D01*
X443152Y517592D01*
X443161Y517581D01*
X443190Y517561D01*
X443214Y517535D01*
X443287Y517492D01*
X443355Y517442D01*
X443369Y517437D01*
X443381Y517429D01*
X443414Y517419D01*
X443445Y517401D01*
X443528Y517382D01*
X443608Y517353D01*
X443623Y517353D01*
X443636Y517349D01*
X443687Y517345D01*
X443706Y517340D01*
X443725Y517342D01*
X443776Y517338D01*
X443824Y517345D01*
X443875Y517343D01*
X443923Y517356D01*
X443973Y517359D01*
X444006Y517372D01*
X444041Y517378D01*
X444085Y517399D01*
X444133Y517412D01*
X444176Y517438D01*
X444222Y517456D01*
X444250Y517478D01*
X444282Y517493D01*
X444318Y517527D01*
X444360Y517553D01*
X444393Y517591D01*
X444432Y517622D01*
X444452Y517651D01*
X444478Y517675D01*
X444503Y517717D01*
X444536Y517755D01*
X444556Y517801D01*
X444584Y517842D01*
X444595Y517876D01*
X444612Y517906D01*
X444623Y517954D01*
X444644Y518000D01*
X444649Y518049D01*
X444664Y518097D01*
X444668Y518149D01*
X444673Y518167D01*
X444671Y518185D01*
X444675Y518237D01*
X444675Y567796D01*
X444673Y567810D01*
X444675Y567825D01*
X444653Y567942D01*
X444635Y568060D01*
X444629Y568074D01*
X444627Y568088D01*
X444571Y568194D01*
X444520Y568302D01*
X444510Y568312D01*
X444503Y568325D01*
X444412Y568432D01*
X444075Y568768D01*
X444075Y580032D01*
X444968Y580925D01*
X448901Y580925D01*
X448950Y580932D01*
X449000Y580930D01*
X449082Y580952D01*
X449166Y580965D01*
X449211Y580986D01*
X449259Y580999D01*
X449331Y581044D01*
X449407Y581080D01*
X449443Y581114D01*
X449486Y581141D01*
X449541Y581204D01*
X449603Y581262D01*
X449628Y581305D01*
X449661Y581343D01*
X449695Y581420D01*
X449737Y581493D01*
X449749Y581542D01*
X449769Y581587D01*
X449779Y581672D01*
X449798Y581754D01*
X449794Y581803D01*
X449800Y581853D01*
X449785Y581936D01*
X449779Y582021D01*
X449761Y582067D01*
X449752Y582116D01*
X449713Y582191D01*
X449682Y582270D01*
X449651Y582309D01*
X449628Y582353D01*
X449537Y582460D01*
X449376Y582621D01*
X446385Y585612D01*
X446373Y585621D01*
X446364Y585632D01*
X446266Y585700D01*
X446170Y585771D01*
X446156Y585776D01*
X446144Y585784D01*
X446030Y585820D01*
X445917Y585859D01*
X445903Y585860D01*
X445889Y585864D01*
X445749Y585875D01*
X444968Y585875D01*
X444075Y586768D01*
X444075Y598032D01*
X444968Y598925D01*
X449232Y598925D01*
X449640Y598516D01*
X449643Y598514D01*
X449647Y598511D01*
X449680Y598487D01*
X449714Y598450D01*
X449787Y598407D01*
X449855Y598357D01*
X449902Y598341D01*
X449945Y598316D01*
X450028Y598297D01*
X450108Y598269D01*
X450157Y598267D01*
X450206Y598255D01*
X450290Y598262D01*
X450375Y598258D01*
X450423Y598271D01*
X450473Y598275D01*
X450552Y598305D01*
X450633Y598327D01*
X450676Y598353D01*
X450722Y598371D01*
X450789Y598424D01*
X450860Y598468D01*
X450893Y598506D01*
X450932Y598537D01*
X450980Y598606D01*
X451036Y598671D01*
X451056Y598716D01*
X451084Y598757D01*
X451107Y598829D01*
X451112Y598839D01*
X451115Y598850D01*
X451144Y598915D01*
X451149Y598965D01*
X451164Y599012D01*
X451170Y599090D01*
X451173Y599099D01*
X451172Y599108D01*
X451175Y599152D01*
X451175Y600023D01*
X451173Y600038D01*
X451175Y600052D01*
X451153Y600170D01*
X451135Y600288D01*
X451129Y600301D01*
X451127Y600315D01*
X451071Y600421D01*
X451020Y600529D01*
X451010Y600539D01*
X451003Y600552D01*
X450912Y600659D01*
X449259Y602312D01*
X449247Y602321D01*
X449238Y602332D01*
X449140Y602400D01*
X449044Y602471D01*
X449030Y602476D01*
X449018Y602484D01*
X448904Y602520D01*
X448791Y602559D01*
X448777Y602560D01*
X448763Y602564D01*
X448623Y602575D01*
X378477Y602575D01*
X378462Y602573D01*
X378448Y602575D01*
X378330Y602553D01*
X378212Y602535D01*
X378199Y602529D01*
X378185Y602527D01*
X378079Y602471D01*
X377971Y602420D01*
X377961Y602410D01*
X377948Y602403D01*
X377841Y602312D01*
X362205Y586676D01*
X362175Y586636D01*
X362139Y586602D01*
X362096Y586529D01*
X362046Y586461D01*
X362030Y586414D01*
X362005Y586371D01*
X361985Y586288D01*
X361957Y586208D01*
X361956Y586159D01*
X361944Y586110D01*
X361950Y586026D01*
X361947Y585941D01*
X361960Y585893D01*
X361963Y585843D01*
X361994Y585764D01*
X362016Y585683D01*
X362042Y585640D01*
X362060Y585594D01*
X362112Y585528D01*
X362157Y585456D01*
X362195Y585423D01*
X362226Y585384D01*
X362295Y585336D01*
X362359Y585280D01*
X362405Y585260D01*
X362446Y585232D01*
X362527Y585207D01*
X362604Y585172D01*
X362653Y585167D01*
X362701Y585152D01*
X362841Y585141D01*
X365701Y585141D01*
X365701Y581099D01*
X360409Y581099D01*
X360409Y582709D01*
X360402Y582758D01*
X360404Y582808D01*
X360382Y582890D01*
X360369Y582974D01*
X360348Y583019D01*
X360335Y583067D01*
X360290Y583138D01*
X360254Y583215D01*
X360220Y583251D01*
X360194Y583294D01*
X360130Y583349D01*
X360072Y583411D01*
X360029Y583436D01*
X359991Y583469D01*
X359914Y583503D01*
X359841Y583545D01*
X359792Y583557D01*
X359747Y583577D01*
X359663Y583587D01*
X359580Y583606D01*
X359531Y583602D01*
X359481Y583608D01*
X359398Y583593D01*
X359313Y583587D01*
X359267Y583569D01*
X359218Y583560D01*
X359143Y583521D01*
X359064Y583490D01*
X359025Y583459D01*
X358981Y583436D01*
X358874Y583345D01*
X348238Y572709D01*
X348229Y572697D01*
X348218Y572688D01*
X348151Y572591D01*
X348079Y572494D01*
X348074Y572480D01*
X348066Y572468D01*
X348030Y572354D01*
X347991Y572241D01*
X347990Y572227D01*
X347986Y572213D01*
X347975Y572073D01*
X347975Y566468D01*
X347082Y565575D01*
X337318Y565575D01*
X336425Y566468D01*
X336425Y568676D01*
X336411Y568774D01*
X336403Y568873D01*
X336391Y568906D01*
X336385Y568941D01*
X336343Y569030D01*
X336307Y569122D01*
X336285Y569150D01*
X336270Y569182D01*
X336202Y569254D01*
X336141Y569332D01*
X336112Y569352D01*
X336088Y569378D01*
X336002Y569428D01*
X335921Y569484D01*
X335887Y569495D01*
X335857Y569512D01*
X335760Y569535D01*
X335666Y569564D01*
X335614Y569568D01*
X335596Y569573D01*
X335578Y569571D01*
X335526Y569575D01*
X168996Y569575D01*
X127891Y610680D01*
X127879Y610689D01*
X127870Y610700D01*
X127772Y610768D01*
X127676Y610839D01*
X127662Y610844D01*
X127650Y610852D01*
X127536Y610888D01*
X127423Y610927D01*
X127409Y610928D01*
X127395Y610932D01*
X127255Y610943D01*
X123905Y610943D01*
X120943Y613905D01*
X120943Y618095D01*
X123905Y621057D01*
X128095Y621057D01*
X131057Y618095D01*
X131057Y614745D01*
X131059Y614730D01*
X131057Y614716D01*
X131079Y614598D01*
X131097Y614480D01*
X131103Y614467D01*
X131105Y614453D01*
X131161Y614347D01*
X131212Y614239D01*
X131222Y614229D01*
X131229Y614216D01*
X131320Y614109D01*
X170741Y574688D01*
X170753Y574679D01*
X170762Y574668D01*
X170860Y574600D01*
X170956Y574529D01*
X170970Y574524D01*
X170982Y574516D01*
X171096Y574480D01*
X171209Y574441D01*
X171223Y574440D01*
X171237Y574436D01*
X171377Y574425D01*
X336746Y574425D01*
X336760Y574427D01*
X336775Y574425D01*
X336892Y574447D01*
X337010Y574465D01*
X337024Y574471D01*
X337038Y574473D01*
X337144Y574529D01*
X337252Y574580D01*
X337262Y574590D01*
X337275Y574597D01*
X337308Y574625D01*
X342923Y574625D01*
X342938Y574627D01*
X342952Y574625D01*
X343070Y574647D01*
X343188Y574665D01*
X343201Y574671D01*
X343215Y574673D01*
X343321Y574729D01*
X343429Y574780D01*
X343439Y574790D01*
X343452Y574797D01*
X343559Y574888D01*
X376096Y607425D01*
X451004Y607425D01*
X456025Y602404D01*
X456025Y599152D01*
X456032Y599103D01*
X456030Y599053D01*
X456045Y598998D01*
X456047Y598973D01*
X456055Y598951D01*
X456065Y598887D01*
X456086Y598843D01*
X456099Y598795D01*
X456143Y598724D01*
X456143Y598723D01*
X456144Y598723D01*
X456180Y598646D01*
X456214Y598610D01*
X456240Y598568D01*
X456304Y598512D01*
X456362Y598450D01*
X456405Y598425D01*
X456443Y598392D01*
X456520Y598358D01*
X456593Y598316D01*
X456642Y598305D01*
X456687Y598284D01*
X456771Y598275D01*
X456854Y598255D01*
X456903Y598259D01*
X456953Y598253D01*
X457036Y598269D01*
X457121Y598275D01*
X457167Y598292D01*
X457216Y598301D01*
X457291Y598341D01*
X457370Y598371D01*
X457409Y598402D01*
X457453Y598425D01*
X457560Y598516D01*
X457968Y598925D01*
X461676Y598925D01*
X461774Y598939D01*
X461873Y598947D01*
X461906Y598959D01*
X461941Y598965D01*
X462030Y599007D01*
X462122Y599043D01*
X462150Y599065D01*
X462182Y599080D01*
X462254Y599148D01*
X462332Y599209D01*
X462352Y599238D01*
X462378Y599262D01*
X462428Y599348D01*
X462484Y599429D01*
X462495Y599463D01*
X462512Y599493D01*
X462535Y599590D01*
X462564Y599684D01*
X462568Y599736D01*
X462573Y599754D01*
X462571Y599772D01*
X462575Y599824D01*
X462575Y616004D01*
X467680Y621109D01*
X467689Y621121D01*
X467700Y621130D01*
X467768Y621228D01*
X467839Y621324D01*
X467844Y621338D01*
X467852Y621350D01*
X467888Y621464D01*
X467927Y621577D01*
X467928Y621591D01*
X467932Y621605D01*
X467943Y621745D01*
X467943Y626095D01*
X470905Y629057D01*
X475095Y629057D01*
X478057Y626095D01*
X478057Y621905D01*
X475095Y618943D01*
X472745Y618943D01*
X472730Y618941D01*
X472716Y618943D01*
X472598Y618921D01*
X472480Y618903D01*
X472467Y618897D01*
X472453Y618895D01*
X472347Y618839D01*
X472239Y618788D01*
X472229Y618778D01*
X472216Y618771D01*
X472109Y618680D01*
X467688Y614259D01*
X467679Y614247D01*
X467668Y614238D01*
X467600Y614140D01*
X467529Y614044D01*
X467524Y614030D01*
X467516Y614018D01*
X467480Y613904D01*
X467441Y613791D01*
X467440Y613777D01*
X467436Y613763D01*
X467425Y613623D01*
X467425Y596296D01*
X465438Y594309D01*
X465379Y594229D01*
X465314Y594154D01*
X465300Y594122D01*
X465279Y594094D01*
X465246Y594000D01*
X465206Y593910D01*
X465202Y593875D01*
X465190Y593841D01*
X465187Y593743D01*
X465175Y593644D01*
X465181Y593609D01*
X465180Y593574D01*
X465205Y593479D01*
X465223Y593381D01*
X465240Y593350D01*
X465249Y593316D01*
X465301Y593232D01*
X465347Y593144D01*
X465381Y593104D01*
X465390Y593089D01*
X465404Y593077D01*
X465438Y593037D01*
X502687Y555788D01*
X502687Y322024D01*
X502701Y321926D01*
X502709Y321827D01*
X502721Y321794D01*
X502727Y321759D01*
X502769Y321670D01*
X502805Y321578D01*
X502827Y321550D01*
X502842Y321518D01*
X502910Y321446D01*
X502971Y321368D01*
X503000Y321348D01*
X503024Y321322D01*
X503110Y321272D01*
X503191Y321216D01*
X503225Y321205D01*
X503255Y321188D01*
X503352Y321165D01*
X503446Y321136D01*
X503498Y321132D01*
X503516Y321127D01*
X503534Y321129D01*
X503586Y321125D01*
X505582Y321125D01*
X506475Y320232D01*
X506475Y312968D01*
X505582Y312075D01*
X496595Y312075D01*
X496545Y312068D01*
X496496Y312070D01*
X496414Y312048D01*
X496330Y312035D01*
X496285Y312014D01*
X496237Y312001D01*
X496165Y311956D01*
X496089Y311920D01*
X496053Y311886D01*
X496010Y311859D01*
X495955Y311795D01*
X495893Y311738D01*
X495868Y311695D01*
X495835Y311657D01*
X495801Y311580D01*
X495759Y311507D01*
X495747Y311458D01*
X495727Y311413D01*
X495717Y311328D01*
X495698Y311246D01*
X495702Y311196D01*
X495696Y311147D01*
X495711Y311064D01*
X495717Y310979D01*
X495735Y310933D01*
X495744Y310884D01*
X495783Y310809D01*
X495814Y310730D01*
X495845Y310691D01*
X495868Y310647D01*
X495959Y310540D01*
X496017Y310482D01*
X496029Y310473D01*
X496038Y310462D01*
X496136Y310394D01*
X496232Y310323D01*
X496246Y310318D01*
X496258Y310310D01*
X496372Y310274D01*
X496485Y310235D01*
X496499Y310234D01*
X496513Y310230D01*
X496653Y310219D01*
X507167Y310219D01*
X507182Y310221D01*
X507196Y310219D01*
X507314Y310241D01*
X507432Y310259D01*
X507445Y310265D01*
X507459Y310267D01*
X507565Y310323D01*
X507673Y310374D01*
X507683Y310384D01*
X507696Y310391D01*
X507803Y310482D01*
X516850Y319529D01*
X519257Y319529D01*
X519306Y319536D01*
X519356Y319534D01*
X519438Y319556D01*
X519522Y319569D01*
X519567Y319590D01*
X519615Y319603D01*
X519686Y319648D01*
X519763Y319684D01*
X519799Y319718D01*
X519842Y319744D01*
X519897Y319808D01*
X519959Y319866D01*
X519984Y319909D01*
X520017Y319947D01*
X520051Y320024D01*
X520093Y320097D01*
X520105Y320146D01*
X520125Y320191D01*
X520135Y320275D01*
X520154Y320358D01*
X520150Y320407D01*
X520156Y320457D01*
X520141Y320540D01*
X520135Y320625D01*
X520117Y320671D01*
X520108Y320720D01*
X520069Y320795D01*
X520038Y320874D01*
X520007Y320913D01*
X519984Y320957D01*
X519893Y321064D01*
X519417Y321540D01*
X519082Y322119D01*
X518909Y322765D01*
X518909Y324601D01*
X525100Y324601D01*
X525198Y324615D01*
X525296Y324622D01*
X525329Y324635D01*
X525364Y324640D01*
X525454Y324683D01*
X525546Y324719D01*
X525574Y324741D01*
X525605Y324756D01*
X525678Y324824D01*
X525695Y324837D01*
X525714Y324824D01*
X525738Y324798D01*
X525824Y324748D01*
X525905Y324692D01*
X525939Y324681D01*
X525969Y324664D01*
X526066Y324641D01*
X526160Y324612D01*
X526212Y324608D01*
X526230Y324603D01*
X526248Y324605D01*
X526300Y324601D01*
X532491Y324601D01*
X532491Y322765D01*
X532318Y322119D01*
X531983Y321540D01*
X531507Y321064D01*
X531477Y321024D01*
X531441Y320990D01*
X531398Y320917D01*
X531348Y320849D01*
X531332Y320802D01*
X531307Y320759D01*
X531288Y320676D01*
X531259Y320596D01*
X531258Y320547D01*
X531246Y320498D01*
X531252Y320414D01*
X531249Y320329D01*
X531262Y320281D01*
X531265Y320231D01*
X531296Y320152D01*
X531318Y320071D01*
X531344Y320028D01*
X531362Y319982D01*
X531415Y319915D01*
X531459Y319844D01*
X531497Y319811D01*
X531528Y319772D01*
X531597Y319724D01*
X531661Y319668D01*
X531707Y319648D01*
X531748Y319620D01*
X531829Y319595D01*
X531906Y319560D01*
X531956Y319555D01*
X532003Y319540D01*
X532143Y319529D01*
X583943Y319529D01*
X583958Y319531D01*
X583972Y319529D01*
X584090Y319551D01*
X584208Y319569D01*
X584221Y319575D01*
X584235Y319577D01*
X584341Y319633D01*
X584449Y319684D01*
X584459Y319694D01*
X584472Y319701D01*
X584579Y319792D01*
X616232Y351445D01*
X776439Y351445D01*
X776454Y351447D01*
X776468Y351445D01*
X776586Y351467D01*
X776704Y351485D01*
X776717Y351491D01*
X776731Y351493D01*
X776837Y351549D01*
X776945Y351600D01*
X776955Y351610D01*
X776968Y351617D01*
X777075Y351708D01*
X848228Y422861D01*
X848237Y422873D01*
X848248Y422882D01*
X848316Y422980D01*
X848387Y423076D01*
X848392Y423090D01*
X848400Y423102D01*
X848436Y423216D01*
X848475Y423329D01*
X848476Y423343D01*
X848480Y423357D01*
X848491Y423497D01*
X848491Y492956D01*
X860175Y504640D01*
X860234Y504720D01*
X860299Y504795D01*
X860313Y504827D01*
X860334Y504855D01*
X860367Y504949D01*
X860407Y505039D01*
X860411Y505074D01*
X860423Y505108D01*
X860426Y505206D01*
X860438Y505305D01*
X860432Y505340D01*
X860433Y505375D01*
X860408Y505470D01*
X860390Y505568D01*
X860373Y505599D01*
X860364Y505633D01*
X860312Y505717D01*
X860266Y505805D01*
X860232Y505845D01*
X860223Y505860D01*
X860209Y505872D01*
X860175Y505912D01*
X801275Y564812D01*
X801263Y564821D01*
X801254Y564832D01*
X801156Y564900D01*
X801060Y564971D01*
X801046Y564976D01*
X801034Y564984D01*
X800920Y565020D01*
X800808Y565059D01*
X800793Y565060D01*
X800779Y565064D01*
X800639Y565075D01*
X794436Y565075D01*
X794338Y565061D01*
X794239Y565053D01*
X794206Y565041D01*
X794171Y565035D01*
X794082Y564993D01*
X793990Y564957D01*
X793962Y564935D01*
X793930Y564920D01*
X793858Y564852D01*
X793780Y564791D01*
X793760Y564762D01*
X793734Y564738D01*
X793684Y564652D01*
X793628Y564571D01*
X793617Y564537D01*
X793600Y564507D01*
X793577Y564410D01*
X793548Y564316D01*
X793544Y564264D01*
X793539Y564246D01*
X793541Y564228D01*
X793537Y564176D01*
X793537Y404524D01*
X779634Y390621D01*
X779600Y390575D01*
X779559Y390536D01*
X779521Y390468D01*
X779475Y390406D01*
X779456Y390352D01*
X779429Y390302D01*
X779412Y390227D01*
X779387Y390154D01*
X779384Y390097D01*
X779372Y390041D01*
X779379Y389964D01*
X779376Y389886D01*
X779391Y389831D01*
X779396Y389774D01*
X779439Y389641D01*
X779815Y388735D01*
X779815Y385665D01*
X778640Y382830D01*
X776470Y380660D01*
X773635Y379485D01*
X770565Y379485D01*
X769175Y380061D01*
X769120Y380075D01*
X769068Y380098D01*
X768991Y380107D01*
X768916Y380126D01*
X768859Y380122D01*
X768802Y380129D01*
X768726Y380115D01*
X768649Y380111D01*
X768595Y380091D01*
X768539Y380081D01*
X768470Y380045D01*
X768398Y380018D01*
X768353Y379984D01*
X768302Y379957D01*
X768195Y379866D01*
X762289Y373960D01*
X762259Y373920D01*
X762223Y373886D01*
X762180Y373813D01*
X762130Y373745D01*
X762114Y373698D01*
X762089Y373655D01*
X762069Y373572D01*
X762041Y373492D01*
X762040Y373443D01*
X762028Y373394D01*
X762034Y373310D01*
X762031Y373225D01*
X762044Y373177D01*
X762047Y373127D01*
X762078Y373048D01*
X762100Y372967D01*
X762126Y372924D01*
X762144Y372878D01*
X762196Y372812D01*
X762241Y372740D01*
X762279Y372707D01*
X762310Y372668D01*
X762379Y372620D01*
X762443Y372564D01*
X762489Y372544D01*
X762530Y372516D01*
X762611Y372491D01*
X762688Y372456D01*
X762737Y372451D01*
X762785Y372436D01*
X762925Y372425D01*
X764904Y372425D01*
X768195Y369134D01*
X768241Y369100D01*
X768280Y369059D01*
X768348Y369021D01*
X768410Y368975D01*
X768464Y368956D01*
X768514Y368928D01*
X768590Y368912D01*
X768663Y368886D01*
X768720Y368884D01*
X768775Y368872D01*
X768853Y368879D01*
X768930Y368876D01*
X768985Y368891D01*
X769042Y368895D01*
X769175Y368939D01*
X770565Y369515D01*
X773635Y369515D01*
X776470Y368340D01*
X778640Y366170D01*
X779815Y363335D01*
X779815Y360265D01*
X778640Y357430D01*
X776470Y355260D01*
X773635Y354085D01*
X770565Y354085D01*
X767730Y355260D01*
X765560Y357430D01*
X764385Y360265D01*
X764385Y363335D01*
X764961Y364725D01*
X764975Y364780D01*
X764998Y364832D01*
X765007Y364909D01*
X765026Y364984D01*
X765022Y365041D01*
X765029Y365098D01*
X765015Y365174D01*
X765011Y365251D01*
X764991Y365305D01*
X764981Y365361D01*
X764945Y365430D01*
X764918Y365502D01*
X764884Y365548D01*
X764857Y365598D01*
X764766Y365705D01*
X763159Y367312D01*
X763147Y367321D01*
X763138Y367332D01*
X763040Y367400D01*
X762944Y367471D01*
X762930Y367476D01*
X762918Y367484D01*
X762804Y367520D01*
X762691Y367559D01*
X762677Y367560D01*
X762663Y367564D01*
X762523Y367575D01*
X730099Y367575D01*
X730085Y367573D01*
X730070Y367575D01*
X729953Y367553D01*
X729835Y367535D01*
X729821Y367529D01*
X729807Y367527D01*
X729701Y367471D01*
X729593Y367420D01*
X729583Y367410D01*
X729570Y367403D01*
X729463Y367312D01*
X727095Y364943D01*
X722905Y364943D01*
X719943Y367905D01*
X719943Y372095D01*
X720233Y372384D01*
X720262Y372424D01*
X720299Y372458D01*
X720341Y372531D01*
X720392Y372599D01*
X720408Y372646D01*
X720433Y372689D01*
X720452Y372772D01*
X720480Y372852D01*
X720482Y372901D01*
X720494Y372950D01*
X720487Y373034D01*
X720491Y373119D01*
X720478Y373167D01*
X720474Y373217D01*
X720444Y373296D01*
X720422Y373377D01*
X720396Y373420D01*
X720378Y373466D01*
X720325Y373533D01*
X720281Y373604D01*
X720243Y373637D01*
X720212Y373676D01*
X720142Y373724D01*
X720078Y373780D01*
X720033Y373800D01*
X719992Y373828D01*
X719911Y373853D01*
X719834Y373888D01*
X719784Y373893D01*
X719737Y373908D01*
X719597Y373919D01*
X689656Y373919D01*
X687972Y375603D01*
X657411Y406164D01*
X657399Y406173D01*
X657390Y406184D01*
X657292Y406252D01*
X657196Y406323D01*
X657182Y406328D01*
X657170Y406336D01*
X657056Y406372D01*
X656943Y406411D01*
X656929Y406412D01*
X656915Y406416D01*
X656775Y406427D01*
X614724Y406427D01*
X614626Y406413D01*
X614527Y406405D01*
X614494Y406393D01*
X614459Y406387D01*
X614370Y406345D01*
X614278Y406309D01*
X614250Y406287D01*
X614218Y406272D01*
X614146Y406204D01*
X614068Y406143D01*
X614048Y406114D01*
X614022Y406090D01*
X613972Y406004D01*
X613916Y405923D01*
X613905Y405889D01*
X613888Y405859D01*
X613865Y405762D01*
X613836Y405668D01*
X613832Y405616D01*
X613827Y405598D01*
X613829Y405580D01*
X613825Y405528D01*
X613825Y402168D01*
X612932Y401275D01*
X596668Y401275D01*
X595775Y402168D01*
X595775Y407190D01*
X595761Y407288D01*
X595753Y407387D01*
X595741Y407420D01*
X595735Y407455D01*
X595693Y407544D01*
X595657Y407636D01*
X595635Y407664D01*
X595620Y407696D01*
X595552Y407768D01*
X595491Y407846D01*
X595462Y407866D01*
X595438Y407892D01*
X595352Y407942D01*
X595271Y407998D01*
X595237Y408009D01*
X595207Y408026D01*
X595110Y408049D01*
X595016Y408078D01*
X594964Y408082D01*
X594946Y408087D01*
X594928Y408085D01*
X594876Y408089D01*
X545724Y408089D01*
X545626Y408075D01*
X545527Y408067D01*
X545494Y408055D01*
X545459Y408049D01*
X545370Y408007D01*
X545278Y407971D01*
X545250Y407949D01*
X545218Y407934D01*
X545146Y407866D01*
X545068Y407805D01*
X545048Y407776D01*
X545022Y407752D01*
X544972Y407666D01*
X544916Y407585D01*
X544905Y407551D01*
X544888Y407521D01*
X544865Y407424D01*
X544836Y407330D01*
X544832Y407278D01*
X544827Y407260D01*
X544829Y407242D01*
X544825Y407190D01*
X544825Y405168D01*
X543932Y404275D01*
X527668Y404275D01*
X526775Y405168D01*
X526775Y419432D01*
X527668Y420325D01*
X543932Y420325D01*
X544825Y419432D01*
X544825Y413838D01*
X544839Y413740D01*
X544847Y413641D01*
X544859Y413608D01*
X544865Y413573D01*
X544907Y413484D01*
X544943Y413392D01*
X544965Y413364D01*
X544980Y413332D01*
X545048Y413260D01*
X545109Y413182D01*
X545138Y413162D01*
X545162Y413136D01*
X545248Y413086D01*
X545329Y413030D01*
X545363Y413019D01*
X545393Y413002D01*
X545490Y412979D01*
X545584Y412950D01*
X545636Y412946D01*
X545654Y412941D01*
X545672Y412943D01*
X545724Y412939D01*
X594876Y412939D01*
X594974Y412953D01*
X595073Y412961D01*
X595106Y412973D01*
X595141Y412979D01*
X595230Y413021D01*
X595322Y413057D01*
X595350Y413079D01*
X595382Y413094D01*
X595454Y413162D01*
X595532Y413223D01*
X595552Y413252D01*
X595578Y413276D01*
X595628Y413362D01*
X595684Y413443D01*
X595695Y413477D01*
X595712Y413507D01*
X595735Y413604D01*
X595764Y413698D01*
X595768Y413750D01*
X595773Y413768D01*
X595771Y413786D01*
X595775Y413838D01*
X595775Y416432D01*
X596668Y417325D01*
X612932Y417325D01*
X613825Y416432D01*
X613825Y412176D01*
X613839Y412078D01*
X613847Y411979D01*
X613859Y411946D01*
X613865Y411911D01*
X613907Y411822D01*
X613943Y411730D01*
X613965Y411702D01*
X613980Y411670D01*
X614048Y411598D01*
X614109Y411520D01*
X614138Y411500D01*
X614162Y411474D01*
X614248Y411424D01*
X614329Y411368D01*
X614363Y411357D01*
X614393Y411340D01*
X614490Y411317D01*
X614584Y411288D01*
X614636Y411284D01*
X614654Y411279D01*
X614672Y411281D01*
X614724Y411277D01*
X659156Y411277D01*
X683450Y386983D01*
X683490Y386953D01*
X683524Y386917D01*
X683597Y386874D01*
X683665Y386824D01*
X683712Y386808D01*
X683755Y386783D01*
X683838Y386763D01*
X683918Y386735D01*
X683967Y386734D01*
X684016Y386722D01*
X684100Y386728D01*
X684185Y386725D01*
X684233Y386738D01*
X684283Y386741D01*
X684362Y386772D01*
X684443Y386794D01*
X684486Y386820D01*
X684532Y386838D01*
X684598Y386890D01*
X684670Y386935D01*
X684703Y386973D01*
X684742Y387004D01*
X684790Y387073D01*
X684846Y387137D01*
X684866Y387183D01*
X684894Y387224D01*
X684919Y387305D01*
X684954Y387382D01*
X684959Y387431D01*
X684974Y387479D01*
X684985Y387619D01*
X684985Y388735D01*
X686160Y391570D01*
X688330Y393740D01*
X688412Y393774D01*
X688461Y393804D01*
X688514Y393824D01*
X688575Y393872D01*
X688641Y393912D01*
X688679Y393955D01*
X688724Y393990D01*
X688768Y394054D01*
X688820Y394111D01*
X688844Y394163D01*
X688876Y394210D01*
X688899Y394284D01*
X688932Y394354D01*
X688939Y394411D01*
X688956Y394465D01*
X688967Y394605D01*
X688967Y395841D01*
X688965Y395856D01*
X688967Y395870D01*
X688945Y395988D01*
X688927Y396106D01*
X688921Y396119D01*
X688919Y396133D01*
X688863Y396239D01*
X688812Y396347D01*
X688802Y396357D01*
X688795Y396370D01*
X688704Y396477D01*
X672361Y412820D01*
X672361Y482251D01*
X672359Y482266D01*
X672361Y482280D01*
X672339Y482398D01*
X672321Y482516D01*
X672315Y482529D01*
X672313Y482543D01*
X672257Y482649D01*
X672228Y482709D01*
X672227Y482713D01*
X672226Y482714D01*
X672206Y482757D01*
X672196Y482767D01*
X672189Y482780D01*
X672098Y482887D01*
X671376Y483609D01*
X671336Y483639D01*
X671302Y483675D01*
X671229Y483718D01*
X671161Y483768D01*
X671114Y483784D01*
X671071Y483809D01*
X670988Y483829D01*
X670908Y483857D01*
X670859Y483858D01*
X670810Y483870D01*
X670726Y483864D01*
X670641Y483867D01*
X670593Y483854D01*
X670543Y483851D01*
X670464Y483820D01*
X670383Y483798D01*
X670340Y483772D01*
X670294Y483754D01*
X670227Y483702D01*
X670156Y483657D01*
X670123Y483619D01*
X670084Y483588D01*
X670036Y483519D01*
X669980Y483455D01*
X669960Y483409D01*
X669932Y483368D01*
X669907Y483288D01*
X669872Y483210D01*
X669867Y483161D01*
X669852Y483113D01*
X669841Y482973D01*
X669841Y481599D01*
X661599Y481599D01*
X661599Y488841D01*
X663973Y488841D01*
X664022Y488848D01*
X664072Y488846D01*
X664154Y488868D01*
X664238Y488881D01*
X664283Y488902D01*
X664331Y488915D01*
X664402Y488960D01*
X664479Y488996D01*
X664515Y489030D01*
X664558Y489056D01*
X664613Y489120D01*
X664675Y489178D01*
X664700Y489221D01*
X664733Y489259D01*
X664767Y489336D01*
X664809Y489409D01*
X664821Y489458D01*
X664841Y489503D01*
X664851Y489587D01*
X664870Y489670D01*
X664866Y489719D01*
X664872Y489769D01*
X664857Y489852D01*
X664851Y489937D01*
X664833Y489983D01*
X664824Y490032D01*
X664785Y490107D01*
X664754Y490186D01*
X664723Y490225D01*
X664700Y490269D01*
X664609Y490376D01*
X664473Y490512D01*
X664461Y490521D01*
X664452Y490532D01*
X664354Y490600D01*
X664258Y490671D01*
X664244Y490676D01*
X664232Y490684D01*
X664118Y490720D01*
X664006Y490759D01*
X663991Y490760D01*
X663977Y490764D01*
X663837Y490775D01*
X651668Y490775D01*
X650775Y491668D01*
X650775Y503837D01*
X650773Y503852D01*
X650775Y503866D01*
X650753Y503984D01*
X650735Y504102D01*
X650729Y504115D01*
X650727Y504129D01*
X650671Y504235D01*
X650655Y504269D01*
X650645Y504295D01*
X650639Y504303D01*
X650620Y504343D01*
X650610Y504353D01*
X650603Y504366D01*
X650512Y504473D01*
X637431Y517554D01*
X637431Y575276D01*
X637417Y575374D01*
X637409Y575473D01*
X637397Y575506D01*
X637391Y575541D01*
X637349Y575630D01*
X637313Y575722D01*
X637291Y575750D01*
X637276Y575782D01*
X637208Y575854D01*
X637147Y575932D01*
X637118Y575952D01*
X637094Y575978D01*
X637008Y576028D01*
X636927Y576084D01*
X636893Y576095D01*
X636863Y576112D01*
X636766Y576135D01*
X636672Y576164D01*
X636620Y576168D01*
X636602Y576173D01*
X636584Y576171D01*
X636532Y576175D01*
X636168Y576175D01*
X635275Y577068D01*
X635275Y593332D01*
X636168Y594225D01*
X650432Y594225D01*
X651325Y593332D01*
X651325Y577068D01*
X650432Y576175D01*
X643180Y576175D01*
X643082Y576161D01*
X642983Y576153D01*
X642950Y576141D01*
X642915Y576135D01*
X642826Y576093D01*
X642734Y576057D01*
X642706Y576035D01*
X642674Y576020D01*
X642602Y575952D01*
X642524Y575891D01*
X642504Y575862D01*
X642478Y575838D01*
X642428Y575752D01*
X642372Y575671D01*
X642361Y575637D01*
X642344Y575607D01*
X642321Y575510D01*
X642292Y575416D01*
X642288Y575364D01*
X642283Y575346D01*
X642285Y575328D01*
X642281Y575276D01*
X642281Y519935D01*
X642283Y519920D01*
X642281Y519906D01*
X642303Y519788D01*
X642321Y519670D01*
X642327Y519657D01*
X642329Y519643D01*
X642385Y519537D01*
X642436Y519429D01*
X642446Y519419D01*
X642453Y519406D01*
X642544Y519299D01*
X654755Y507088D01*
X654767Y507079D01*
X654776Y507068D01*
X654874Y507000D01*
X654970Y506929D01*
X654984Y506924D01*
X654996Y506916D01*
X655110Y506880D01*
X655222Y506841D01*
X655237Y506840D01*
X655251Y506836D01*
X655391Y506825D01*
X667932Y506825D01*
X668825Y505932D01*
X668825Y493391D01*
X668827Y493376D01*
X668825Y493362D01*
X668847Y493244D01*
X668865Y493126D01*
X668871Y493113D01*
X668873Y493099D01*
X668929Y492993D01*
X668980Y492885D01*
X668990Y492875D01*
X668997Y492862D01*
X669088Y492755D01*
X677211Y484632D01*
X677211Y415201D01*
X677213Y415186D01*
X677211Y415172D01*
X677233Y415054D01*
X677251Y414936D01*
X677257Y414923D01*
X677259Y414909D01*
X677315Y414803D01*
X677366Y414695D01*
X677376Y414685D01*
X677383Y414672D01*
X677474Y414565D01*
X683450Y408589D01*
X683490Y408559D01*
X683524Y408523D01*
X683597Y408480D01*
X683665Y408430D01*
X683712Y408414D01*
X683755Y408389D01*
X683838Y408369D01*
X683918Y408341D01*
X683967Y408340D01*
X684016Y408328D01*
X684100Y408334D01*
X684185Y408331D01*
X684233Y408344D01*
X684283Y408347D01*
X684362Y408378D01*
X684443Y408400D01*
X684486Y408426D01*
X684532Y408444D01*
X684598Y408496D01*
X684670Y408541D01*
X684703Y408579D01*
X684742Y408610D01*
X684790Y408679D01*
X684846Y408743D01*
X684866Y408789D01*
X684894Y408830D01*
X684919Y408911D01*
X684954Y408988D01*
X684959Y409037D01*
X684974Y409085D01*
X684985Y409225D01*
X684985Y419422D01*
X685878Y420315D01*
X699522Y420315D01*
X700415Y419422D01*
X700415Y405778D01*
X699522Y404885D01*
X689325Y404885D01*
X689276Y404878D01*
X689226Y404880D01*
X689144Y404858D01*
X689060Y404845D01*
X689015Y404824D01*
X688967Y404811D01*
X688896Y404766D01*
X688819Y404730D01*
X688783Y404696D01*
X688740Y404670D01*
X688685Y404606D01*
X688623Y404548D01*
X688598Y404505D01*
X688565Y404467D01*
X688531Y404390D01*
X688489Y404317D01*
X688477Y404268D01*
X688457Y404223D01*
X688447Y404139D01*
X688428Y404056D01*
X688432Y404007D01*
X688426Y403957D01*
X688441Y403874D01*
X688447Y403789D01*
X688465Y403743D01*
X688474Y403694D01*
X688513Y403619D01*
X688544Y403540D01*
X688575Y403501D01*
X688598Y403457D01*
X688689Y403350D01*
X693817Y398222D01*
X693817Y395689D01*
X693825Y395632D01*
X693824Y395575D01*
X693845Y395501D01*
X693857Y395424D01*
X693881Y395373D01*
X693897Y395318D01*
X693939Y395253D01*
X693972Y395183D01*
X694011Y395141D01*
X694042Y395093D01*
X694101Y395044D01*
X694154Y394987D01*
X694203Y394958D01*
X694247Y394922D01*
X694372Y394858D01*
X697070Y393740D01*
X699240Y391570D01*
X700415Y388735D01*
X700415Y385665D01*
X699240Y382830D01*
X697070Y380660D01*
X696681Y380499D01*
X696603Y380451D01*
X696520Y380412D01*
X696489Y380383D01*
X696452Y380361D01*
X696391Y380292D01*
X696323Y380230D01*
X696302Y380193D01*
X696274Y380162D01*
X696235Y380078D01*
X696189Y379999D01*
X696180Y379957D01*
X696162Y379919D01*
X696150Y379828D01*
X696129Y379738D01*
X696132Y379696D01*
X696126Y379654D01*
X696141Y379563D01*
X696148Y379471D01*
X696163Y379432D01*
X696170Y379390D01*
X696211Y379308D01*
X696245Y379222D01*
X696271Y379189D01*
X696290Y379151D01*
X696353Y379084D01*
X696410Y379012D01*
X696445Y378988D01*
X696475Y378957D01*
X696555Y378912D01*
X696631Y378860D01*
X696671Y378847D01*
X696708Y378827D01*
X696798Y378807D01*
X696886Y378780D01*
X696950Y378775D01*
X696970Y378770D01*
X696986Y378772D01*
X697025Y378769D01*
X721909Y378769D01*
X721958Y378776D01*
X722008Y378774D01*
X722090Y378796D01*
X722174Y378809D01*
X722218Y378830D01*
X722266Y378843D01*
X722338Y378888D01*
X722415Y378924D01*
X722451Y378958D01*
X722493Y378984D01*
X722549Y379048D01*
X722611Y379106D01*
X722636Y379149D01*
X722669Y379187D01*
X722703Y379264D01*
X722745Y379337D01*
X722756Y379386D01*
X722777Y379431D01*
X722786Y379515D01*
X722806Y379598D01*
X722802Y379647D01*
X722808Y379697D01*
X722793Y379780D01*
X722786Y379865D01*
X722769Y379911D01*
X722760Y379960D01*
X722720Y380035D01*
X722690Y380114D01*
X722659Y380153D01*
X722636Y380197D01*
X722545Y380304D01*
X719943Y382905D01*
X719943Y386255D01*
X719941Y386270D01*
X719943Y386284D01*
X719921Y386402D01*
X719903Y386520D01*
X719897Y386533D01*
X719895Y386547D01*
X719839Y386653D01*
X719788Y386761D01*
X719778Y386771D01*
X719771Y386784D01*
X719680Y386891D01*
X708813Y397758D01*
X708813Y522914D01*
X726930Y541031D01*
X726939Y541043D01*
X726950Y541052D01*
X727018Y541150D01*
X727089Y541246D01*
X727094Y541260D01*
X727102Y541272D01*
X727138Y541386D01*
X727177Y541499D01*
X727178Y541513D01*
X727182Y541527D01*
X727193Y541667D01*
X727193Y564176D01*
X727179Y564274D01*
X727171Y564373D01*
X727159Y564406D01*
X727153Y564441D01*
X727111Y564530D01*
X727075Y564622D01*
X727053Y564650D01*
X727038Y564682D01*
X726970Y564754D01*
X726909Y564832D01*
X726880Y564852D01*
X726856Y564878D01*
X726770Y564928D01*
X726689Y564984D01*
X726655Y564995D01*
X726625Y565012D01*
X726528Y565035D01*
X726434Y565064D01*
X726382Y565068D01*
X726364Y565073D01*
X726346Y565071D01*
X726294Y565075D01*
X721368Y565075D01*
X720475Y565968D01*
X720475Y580253D01*
X720468Y580302D01*
X720470Y580352D01*
X720448Y580434D01*
X720435Y580518D01*
X720414Y580563D01*
X720401Y580611D01*
X720356Y580682D01*
X720320Y580759D01*
X720286Y580795D01*
X720260Y580838D01*
X720196Y580893D01*
X720138Y580955D01*
X720095Y580980D01*
X720057Y581013D01*
X719980Y581047D01*
X719907Y581089D01*
X719858Y581101D01*
X719813Y581121D01*
X719729Y581131D01*
X719646Y581150D01*
X719597Y581146D01*
X719547Y581152D01*
X719464Y581137D01*
X719379Y581131D01*
X719333Y581113D01*
X719284Y581104D01*
X719209Y581065D01*
X719130Y581034D01*
X719091Y581003D01*
X719047Y580980D01*
X718940Y580889D01*
X717788Y579737D01*
X717779Y579725D01*
X717768Y579716D01*
X717700Y579618D01*
X717629Y579522D01*
X717624Y579508D01*
X717616Y579496D01*
X717580Y579382D01*
X717541Y579270D01*
X717540Y579255D01*
X717536Y579241D01*
X717525Y579101D01*
X717525Y565968D01*
X716632Y565075D01*
X702368Y565075D01*
X701475Y565968D01*
X701475Y582232D01*
X702368Y583125D01*
X713945Y583125D01*
X713960Y583127D01*
X713974Y583125D01*
X714092Y583147D01*
X714210Y583165D01*
X714223Y583171D01*
X714237Y583173D01*
X714343Y583229D01*
X714451Y583280D01*
X714461Y583290D01*
X714474Y583297D01*
X714581Y583388D01*
X718642Y587449D01*
X719861Y587449D01*
X719876Y587451D01*
X719890Y587449D01*
X720008Y587471D01*
X720126Y587489D01*
X720139Y587495D01*
X720153Y587497D01*
X720259Y587553D01*
X720367Y587604D01*
X720377Y587614D01*
X720390Y587621D01*
X720497Y587712D01*
X735932Y603147D01*
X735941Y603159D01*
X735952Y603168D01*
X736020Y603266D01*
X736091Y603362D01*
X736096Y603376D01*
X736104Y603388D01*
X736140Y603502D01*
X736179Y603614D01*
X736180Y603629D01*
X736184Y603643D01*
X736195Y603783D01*
X736195Y607133D01*
X739157Y610095D01*
X743347Y610095D01*
X746309Y607133D01*
X746309Y603783D01*
X746311Y603768D01*
X746309Y603754D01*
X746331Y603636D01*
X746349Y603518D01*
X746355Y603505D01*
X746357Y603491D01*
X746413Y603384D01*
X746464Y603277D01*
X746474Y603267D01*
X746481Y603254D01*
X746572Y603147D01*
X756973Y592746D01*
X756973Y505124D01*
X756987Y505026D01*
X756995Y504927D01*
X757007Y504894D01*
X757013Y504859D01*
X757055Y504770D01*
X757091Y504678D01*
X757113Y504650D01*
X757128Y504618D01*
X757196Y504546D01*
X757257Y504468D01*
X757286Y504448D01*
X757310Y504422D01*
X757396Y504372D01*
X757477Y504316D01*
X757511Y504305D01*
X757541Y504288D01*
X757638Y504265D01*
X757732Y504236D01*
X757784Y504232D01*
X757802Y504227D01*
X757820Y504229D01*
X757872Y504225D01*
X762932Y504225D01*
X763825Y503332D01*
X763825Y487068D01*
X762932Y486175D01*
X750577Y486175D01*
X750562Y486173D01*
X750548Y486175D01*
X750430Y486153D01*
X750312Y486135D01*
X750299Y486129D01*
X750285Y486127D01*
X750179Y486071D01*
X750071Y486020D01*
X750061Y486010D01*
X750048Y486003D01*
X749941Y485912D01*
X745898Y481869D01*
X745889Y481857D01*
X745878Y481848D01*
X745810Y481750D01*
X745739Y481654D01*
X745734Y481640D01*
X745726Y481628D01*
X745690Y481514D01*
X745651Y481401D01*
X745650Y481387D01*
X745646Y481373D01*
X745635Y481233D01*
X745635Y392345D01*
X745637Y392331D01*
X745635Y392316D01*
X745655Y392207D01*
X745660Y392145D01*
X745668Y392123D01*
X745675Y392081D01*
X745681Y392067D01*
X745683Y392053D01*
X745730Y391964D01*
X745756Y391896D01*
X745774Y391873D01*
X745790Y391839D01*
X745800Y391829D01*
X745807Y391816D01*
X745898Y391709D01*
X748267Y389341D01*
X748267Y385151D01*
X745305Y382189D01*
X741115Y382189D01*
X738153Y385151D01*
X738153Y389341D01*
X740522Y391709D01*
X740531Y391721D01*
X740542Y391730D01*
X740562Y391758D01*
X740585Y391780D01*
X740625Y391848D01*
X740681Y391924D01*
X740686Y391938D01*
X740694Y391950D01*
X740706Y391989D01*
X740719Y392011D01*
X740734Y392077D01*
X740769Y392177D01*
X740770Y392191D01*
X740774Y392205D01*
X740785Y392345D01*
X740785Y483614D01*
X740795Y483624D01*
X740825Y483664D01*
X740861Y483698D01*
X740904Y483771D01*
X740954Y483839D01*
X740970Y483886D01*
X740995Y483929D01*
X741014Y484012D01*
X741043Y484092D01*
X741044Y484141D01*
X741056Y484190D01*
X741050Y484274D01*
X741053Y484359D01*
X741040Y484407D01*
X741037Y484457D01*
X741006Y484535D01*
X740984Y484617D01*
X740958Y484660D01*
X740940Y484706D01*
X740888Y484772D01*
X740843Y484844D01*
X740805Y484877D01*
X740774Y484916D01*
X740705Y484964D01*
X740641Y485020D01*
X740595Y485040D01*
X740554Y485068D01*
X740474Y485093D01*
X740396Y485128D01*
X740346Y485133D01*
X740299Y485148D01*
X740159Y485159D01*
X738599Y485159D01*
X738599Y493401D01*
X745841Y493401D01*
X745841Y490841D01*
X745848Y490792D01*
X745846Y490742D01*
X745868Y490660D01*
X745881Y490576D01*
X745902Y490531D01*
X745915Y490483D01*
X745960Y490411D01*
X745996Y490335D01*
X746030Y490299D01*
X746057Y490256D01*
X746120Y490201D01*
X746178Y490139D01*
X746221Y490114D01*
X746259Y490081D01*
X746336Y490047D01*
X746409Y490005D01*
X746458Y489993D01*
X746503Y489973D01*
X746588Y489963D01*
X746670Y489944D01*
X746719Y489948D01*
X746769Y489942D01*
X746852Y489957D01*
X746937Y489963D01*
X746983Y489981D01*
X747032Y489990D01*
X747107Y490029D01*
X747186Y490060D01*
X747225Y490091D01*
X747269Y490114D01*
X747376Y490205D01*
X747512Y490341D01*
X747521Y490353D01*
X747532Y490362D01*
X747600Y490460D01*
X747671Y490556D01*
X747676Y490570D01*
X747684Y490582D01*
X747720Y490696D01*
X747759Y490809D01*
X747760Y490823D01*
X747764Y490837D01*
X747775Y490977D01*
X747775Y503332D01*
X748668Y504225D01*
X751224Y504225D01*
X751322Y504239D01*
X751421Y504247D01*
X751454Y504259D01*
X751489Y504265D01*
X751578Y504307D01*
X751670Y504343D01*
X751698Y504365D01*
X751730Y504380D01*
X751802Y504448D01*
X751880Y504509D01*
X751900Y504538D01*
X751926Y504562D01*
X751976Y504648D01*
X752032Y504729D01*
X752043Y504763D01*
X752060Y504793D01*
X752083Y504890D01*
X752112Y504984D01*
X752116Y505036D01*
X752121Y505054D01*
X752119Y505072D01*
X752123Y505124D01*
X752123Y590365D01*
X752121Y590380D01*
X752123Y590394D01*
X752101Y590512D01*
X752083Y590630D01*
X752077Y590643D01*
X752075Y590657D01*
X752019Y590763D01*
X751968Y590871D01*
X751958Y590881D01*
X751951Y590894D01*
X751860Y591001D01*
X743143Y599718D01*
X743131Y599727D01*
X743122Y599738D01*
X743024Y599806D01*
X742928Y599877D01*
X742914Y599882D01*
X742902Y599890D01*
X742788Y599926D01*
X742676Y599965D01*
X742661Y599966D01*
X742647Y599970D01*
X742507Y599981D01*
X739997Y599981D01*
X739982Y599979D01*
X739968Y599981D01*
X739850Y599959D01*
X739732Y599941D01*
X739719Y599935D01*
X739705Y599933D01*
X739599Y599877D01*
X739491Y599826D01*
X739481Y599816D01*
X739468Y599809D01*
X739361Y599718D01*
X724303Y584660D01*
X724273Y584620D01*
X724237Y584586D01*
X724194Y584513D01*
X724144Y584445D01*
X724128Y584398D01*
X724103Y584355D01*
X724083Y584272D01*
X724055Y584192D01*
X724054Y584143D01*
X724042Y584094D01*
X724048Y584010D01*
X724045Y583925D01*
X724058Y583877D01*
X724061Y583827D01*
X724092Y583748D01*
X724114Y583667D01*
X724140Y583624D01*
X724158Y583578D01*
X724210Y583512D01*
X724255Y583440D01*
X724293Y583407D01*
X724324Y583368D01*
X724393Y583320D01*
X724457Y583264D01*
X724503Y583244D01*
X724544Y583216D01*
X724625Y583191D01*
X724702Y583156D01*
X724751Y583151D01*
X724799Y583136D01*
X724939Y583125D01*
X735632Y583125D01*
X736525Y582232D01*
X736525Y565968D01*
X735632Y565075D01*
X732942Y565075D01*
X732844Y565061D01*
X732745Y565053D01*
X732712Y565041D01*
X732677Y565035D01*
X732588Y564993D01*
X732496Y564957D01*
X732468Y564935D01*
X732436Y564920D01*
X732364Y564852D01*
X732286Y564791D01*
X732266Y564762D01*
X732240Y564738D01*
X732190Y564652D01*
X732134Y564571D01*
X732123Y564537D01*
X732106Y564507D01*
X732083Y564410D01*
X732054Y564316D01*
X732050Y564264D01*
X732045Y564246D01*
X732047Y564228D01*
X732043Y564176D01*
X732043Y539286D01*
X713926Y521169D01*
X713917Y521157D01*
X713906Y521148D01*
X713838Y521050D01*
X713767Y520954D01*
X713762Y520940D01*
X713754Y520928D01*
X713718Y520814D01*
X713679Y520701D01*
X713678Y520687D01*
X713674Y520673D01*
X713663Y520533D01*
X713663Y400139D01*
X713665Y400124D01*
X713663Y400110D01*
X713685Y399992D01*
X713703Y399874D01*
X713709Y399861D01*
X713711Y399847D01*
X713767Y399741D01*
X713818Y399633D01*
X713828Y399623D01*
X713835Y399610D01*
X713926Y399503D01*
X723109Y390320D01*
X723121Y390311D01*
X723130Y390300D01*
X723228Y390232D01*
X723324Y390161D01*
X723338Y390156D01*
X723350Y390148D01*
X723464Y390112D01*
X723577Y390073D01*
X723591Y390072D01*
X723605Y390068D01*
X723745Y390057D01*
X727095Y390057D01*
X730057Y387095D01*
X730057Y382905D01*
X727455Y380304D01*
X727426Y380264D01*
X727389Y380230D01*
X727346Y380157D01*
X727296Y380089D01*
X727280Y380042D01*
X727255Y379999D01*
X727236Y379916D01*
X727208Y379836D01*
X727206Y379787D01*
X727194Y379738D01*
X727201Y379654D01*
X727197Y379569D01*
X727210Y379521D01*
X727214Y379471D01*
X727244Y379392D01*
X727266Y379311D01*
X727292Y379268D01*
X727310Y379222D01*
X727363Y379156D01*
X727407Y379084D01*
X727445Y379051D01*
X727476Y379012D01*
X727545Y378964D01*
X727610Y378908D01*
X727655Y378888D01*
X727696Y378860D01*
X727777Y378835D01*
X727854Y378800D01*
X727904Y378795D01*
X727951Y378780D01*
X728091Y378769D01*
X759867Y378769D01*
X759882Y378771D01*
X759896Y378769D01*
X760014Y378791D01*
X760132Y378809D01*
X760145Y378815D01*
X760159Y378817D01*
X760265Y378873D01*
X760373Y378924D01*
X760383Y378934D01*
X760396Y378941D01*
X760503Y379032D01*
X764766Y383295D01*
X764800Y383341D01*
X764841Y383380D01*
X764879Y383448D01*
X764925Y383510D01*
X764944Y383564D01*
X764972Y383614D01*
X764988Y383690D01*
X765014Y383763D01*
X765016Y383820D01*
X765028Y383875D01*
X765021Y383953D01*
X765024Y384030D01*
X765010Y384085D01*
X765005Y384142D01*
X764961Y384275D01*
X764385Y385665D01*
X764385Y388735D01*
X765560Y391570D01*
X767730Y393740D01*
X770565Y394915D01*
X773635Y394915D01*
X775508Y394139D01*
X775564Y394125D01*
X775616Y394102D01*
X775693Y394093D01*
X775768Y394074D01*
X775825Y394077D01*
X775881Y394071D01*
X775958Y394085D01*
X776035Y394089D01*
X776088Y394109D01*
X776145Y394119D01*
X776213Y394155D01*
X776286Y394181D01*
X776331Y394216D01*
X776382Y394242D01*
X776488Y394333D01*
X788424Y406269D01*
X788433Y406281D01*
X788444Y406290D01*
X788511Y406387D01*
X788583Y406484D01*
X788588Y406498D01*
X788596Y406510D01*
X788632Y406624D01*
X788671Y406737D01*
X788672Y406751D01*
X788676Y406765D01*
X788687Y406905D01*
X788687Y563160D01*
X788673Y563258D01*
X788665Y563357D01*
X788653Y563390D01*
X788647Y563425D01*
X788605Y563514D01*
X788569Y563606D01*
X788547Y563634D01*
X788532Y563666D01*
X788464Y563738D01*
X788403Y563816D01*
X788374Y563836D01*
X788350Y563862D01*
X788264Y563912D01*
X788183Y563968D01*
X788149Y563979D01*
X788119Y563996D01*
X788022Y564019D01*
X787928Y564048D01*
X787876Y564052D01*
X787858Y564057D01*
X787840Y564055D01*
X787788Y564059D01*
X783699Y564059D01*
X783699Y573200D01*
X783684Y573298D01*
X783677Y573397D01*
X783665Y573429D01*
X783659Y573464D01*
X783617Y573554D01*
X783581Y573646D01*
X783559Y573674D01*
X783544Y573705D01*
X783476Y573778D01*
X783415Y573856D01*
X783386Y573876D01*
X783362Y573902D01*
X783276Y573952D01*
X783195Y574008D01*
X783161Y574018D01*
X783131Y574036D01*
X783034Y574058D01*
X782940Y574088D01*
X782888Y574092D01*
X782870Y574096D01*
X782852Y574095D01*
X782800Y574099D01*
X781899Y574099D01*
X781899Y574101D01*
X782800Y574101D01*
X782898Y574116D01*
X782997Y574123D01*
X783029Y574135D01*
X783064Y574141D01*
X783154Y574183D01*
X783246Y574219D01*
X783274Y574241D01*
X783306Y574256D01*
X783378Y574324D01*
X783456Y574385D01*
X783476Y574414D01*
X783502Y574438D01*
X783552Y574524D01*
X783608Y574605D01*
X783618Y574639D01*
X783636Y574669D01*
X783658Y574766D01*
X783688Y574860D01*
X783692Y574912D01*
X783696Y574930D01*
X783695Y574948D01*
X783699Y575000D01*
X783699Y584141D01*
X788089Y584141D01*
X788104Y584143D01*
X788118Y584141D01*
X788236Y584163D01*
X788354Y584181D01*
X788367Y584187D01*
X788381Y584189D01*
X788487Y584245D01*
X788595Y584296D01*
X788605Y584306D01*
X788618Y584313D01*
X788725Y584404D01*
X806706Y602385D01*
X806715Y602397D01*
X806726Y602406D01*
X806794Y602504D01*
X806865Y602600D01*
X806870Y602614D01*
X806878Y602626D01*
X806914Y602740D01*
X806953Y602853D01*
X806954Y602867D01*
X806958Y602881D01*
X806969Y603021D01*
X806969Y677701D01*
X806961Y677757D01*
X806962Y677814D01*
X806941Y677889D01*
X806929Y677965D01*
X806905Y678017D01*
X806889Y678072D01*
X806847Y678137D01*
X806814Y678206D01*
X806775Y678248D01*
X806744Y678296D01*
X806685Y678346D01*
X806632Y678403D01*
X806583Y678431D01*
X806539Y678468D01*
X806414Y678532D01*
X806046Y678684D01*
X803784Y680946D01*
X802560Y683901D01*
X802560Y687099D01*
X803784Y690054D01*
X806046Y692316D01*
X809001Y693540D01*
X812199Y693540D01*
X815154Y692316D01*
X817416Y690054D01*
X818640Y687099D01*
X818640Y683901D01*
X817416Y680946D01*
X815154Y678684D01*
X812374Y677533D01*
X812325Y677503D01*
X812272Y677483D01*
X812211Y677435D01*
X812145Y677395D01*
X812107Y677352D01*
X812062Y677317D01*
X812018Y677253D01*
X811966Y677195D01*
X811942Y677144D01*
X811910Y677097D01*
X811887Y677023D01*
X811854Y676952D01*
X811847Y676896D01*
X811830Y676842D01*
X811819Y676702D01*
X811819Y600640D01*
X795839Y584660D01*
X795809Y584620D01*
X795773Y584586D01*
X795730Y584513D01*
X795680Y584445D01*
X795664Y584398D01*
X795639Y584355D01*
X795619Y584272D01*
X795591Y584192D01*
X795590Y584143D01*
X795578Y584094D01*
X795584Y584010D01*
X795581Y583925D01*
X795594Y583877D01*
X795597Y583827D01*
X795628Y583748D01*
X795650Y583667D01*
X795676Y583624D01*
X795694Y583578D01*
X795746Y583512D01*
X795791Y583440D01*
X795829Y583407D01*
X795860Y583368D01*
X795929Y583320D01*
X795993Y583264D01*
X796039Y583244D01*
X796080Y583216D01*
X796161Y583191D01*
X796238Y583156D01*
X796287Y583151D01*
X796335Y583136D01*
X796475Y583125D01*
X808032Y583125D01*
X808925Y582232D01*
X808925Y565968D01*
X808587Y565630D01*
X808558Y565591D01*
X808524Y565560D01*
X808500Y565519D01*
X808463Y565476D01*
X808449Y565443D01*
X808428Y565415D01*
X808409Y565362D01*
X808390Y565329D01*
X808381Y565290D01*
X808355Y565231D01*
X808351Y565196D01*
X808339Y565163D01*
X808337Y565099D01*
X808330Y565068D01*
X808332Y565035D01*
X808324Y564965D01*
X808330Y564931D01*
X808329Y564895D01*
X808347Y564828D01*
X808349Y564801D01*
X808358Y564776D01*
X808372Y564702D01*
X808388Y564671D01*
X808397Y564637D01*
X808437Y564574D01*
X808445Y564552D01*
X808460Y564533D01*
X808495Y564465D01*
X808529Y564426D01*
X808539Y564410D01*
X808553Y564398D01*
X808587Y564359D01*
X864981Y507964D01*
X864993Y507955D01*
X865002Y507944D01*
X865100Y507876D01*
X865196Y507805D01*
X865210Y507800D01*
X865222Y507792D01*
X865336Y507756D01*
X865449Y507717D01*
X865463Y507716D01*
X865477Y507712D01*
X865617Y507701D01*
X872609Y507701D01*
X872699Y507714D01*
X872790Y507719D01*
X872831Y507734D01*
X872873Y507741D01*
X872956Y507780D01*
X873040Y507811D01*
X873841Y507708D01*
X873858Y507708D01*
X873956Y507701D01*
X874771Y507701D01*
X874797Y507677D01*
X874836Y507659D01*
X874871Y507634D01*
X874957Y507603D01*
X875038Y507566D01*
X875532Y506926D01*
X875544Y506915D01*
X875608Y506840D01*
X876184Y506264D01*
X876186Y506229D01*
X876201Y506188D01*
X876208Y506146D01*
X876247Y506064D01*
X876279Y505978D01*
X876315Y505923D01*
X876323Y505905D01*
X876334Y505893D01*
X876355Y505861D01*
X885923Y493474D01*
X885975Y493424D01*
X886019Y493368D01*
X886071Y493333D01*
X886116Y493289D01*
X886180Y493257D01*
X886240Y493216D01*
X886299Y493197D01*
X886355Y493169D01*
X886426Y493157D01*
X886495Y493136D01*
X886607Y493127D01*
X886619Y493125D01*
X886624Y493126D01*
X886635Y493125D01*
X897232Y493125D01*
X898125Y492232D01*
X898125Y475968D01*
X897232Y475075D01*
X882968Y475075D01*
X882075Y475968D01*
X882075Y490216D01*
X882062Y490306D01*
X882057Y490397D01*
X882042Y490437D01*
X882035Y490480D01*
X881996Y490562D01*
X881965Y490648D01*
X881928Y490703D01*
X881920Y490721D01*
X881909Y490733D01*
X881888Y490765D01*
X880736Y492257D01*
X880659Y492331D01*
X880586Y492409D01*
X880562Y492423D01*
X880542Y492442D01*
X880447Y492490D01*
X880355Y492543D01*
X880328Y492550D01*
X880303Y492562D01*
X880198Y492580D01*
X880094Y492604D01*
X880067Y492602D01*
X880040Y492606D01*
X879933Y492592D01*
X879827Y492585D01*
X879802Y492575D01*
X879775Y492571D01*
X879678Y492527D01*
X879578Y492488D01*
X879556Y492471D01*
X879531Y492459D01*
X879452Y492388D01*
X879368Y492322D01*
X879352Y492300D01*
X879332Y492281D01*
X879277Y492190D01*
X879216Y492102D01*
X879208Y492076D01*
X879194Y492052D01*
X879168Y491949D01*
X879136Y491847D01*
X879133Y491808D01*
X879129Y491793D01*
X879130Y491773D01*
X879125Y491707D01*
X879125Y475968D01*
X878232Y475075D01*
X874212Y475075D01*
X874114Y475061D01*
X874015Y475053D01*
X873982Y475041D01*
X873947Y475035D01*
X873858Y474993D01*
X873766Y474957D01*
X873738Y474935D01*
X873706Y474920D01*
X873634Y474852D01*
X873556Y474791D01*
X873536Y474762D01*
X873510Y474738D01*
X873460Y474652D01*
X873404Y474571D01*
X873393Y474537D01*
X873376Y474507D01*
X873353Y474410D01*
X873324Y474316D01*
X873320Y474264D01*
X873315Y474246D01*
X873316Y474244D01*
X873315Y474244D01*
X873317Y474227D01*
X873313Y474176D01*
X873313Y400228D01*
X831166Y358081D01*
X831157Y358069D01*
X831146Y358060D01*
X831078Y357962D01*
X831007Y357866D01*
X831002Y357852D01*
X830994Y357840D01*
X830958Y357726D01*
X830919Y357613D01*
X830918Y357599D01*
X830914Y357585D01*
X830903Y357445D01*
X830903Y249098D01*
X777739Y195934D01*
X777705Y195888D01*
X777664Y195849D01*
X777626Y195781D01*
X777580Y195719D01*
X777561Y195665D01*
X777533Y195615D01*
X777517Y195539D01*
X777491Y195466D01*
X777489Y195409D01*
X777477Y195354D01*
X777484Y195276D01*
X777481Y195199D01*
X777496Y195144D01*
X777501Y195087D01*
X777544Y194954D01*
X778215Y193335D01*
X778215Y190265D01*
X777040Y187430D01*
X774870Y185260D01*
X772035Y184085D01*
X768965Y184085D01*
G37*
%LPD*%
%LPC*%
G36*
X934296Y812835D02*
X934296Y812835D01*
X931332Y814063D01*
X929063Y816332D01*
X927835Y819296D01*
X927835Y822504D01*
X929063Y825468D01*
X930112Y826517D01*
X930121Y826529D01*
X930132Y826538D01*
X930200Y826636D01*
X930271Y826732D01*
X930276Y826746D01*
X930284Y826758D01*
X930320Y826872D01*
X930359Y826985D01*
X930360Y826999D01*
X930364Y827013D01*
X930375Y827153D01*
X930375Y841439D01*
X930373Y841454D01*
X930375Y841468D01*
X930353Y841586D01*
X930335Y841704D01*
X930329Y841717D01*
X930327Y841731D01*
X930271Y841837D01*
X930220Y841945D01*
X930210Y841955D01*
X930203Y841968D01*
X930112Y842075D01*
X907975Y864212D01*
X907963Y864221D01*
X907954Y864232D01*
X907856Y864300D01*
X907760Y864371D01*
X907746Y864376D01*
X907734Y864384D01*
X907620Y864420D01*
X907507Y864459D01*
X907493Y864460D01*
X907479Y864464D01*
X907339Y864475D01*
X637761Y864475D01*
X637746Y864473D01*
X637732Y864475D01*
X637614Y864453D01*
X637496Y864435D01*
X637483Y864429D01*
X637469Y864427D01*
X637363Y864371D01*
X637255Y864320D01*
X637245Y864310D01*
X637232Y864303D01*
X637125Y864212D01*
X629551Y856638D01*
X629518Y856592D01*
X629476Y856553D01*
X629439Y856485D01*
X629393Y856423D01*
X629374Y856369D01*
X629346Y856320D01*
X629330Y856244D01*
X629304Y856171D01*
X629302Y856114D01*
X629290Y856058D01*
X629297Y855981D01*
X629293Y855903D01*
X629308Y855849D01*
X629313Y855792D01*
X629356Y855658D01*
X631050Y851570D01*
X631050Y844430D01*
X628317Y837832D01*
X623268Y832783D01*
X616670Y830050D01*
X609530Y830050D01*
X602932Y832783D01*
X597883Y837832D01*
X595150Y844430D01*
X595150Y851570D01*
X597883Y858168D01*
X602932Y863217D01*
X609530Y865950D01*
X616670Y865950D01*
X620758Y864256D01*
X620814Y864243D01*
X620866Y864220D01*
X620943Y864211D01*
X621018Y864192D01*
X621075Y864195D01*
X621131Y864188D01*
X621208Y864202D01*
X621285Y864207D01*
X621338Y864226D01*
X621394Y864237D01*
X621463Y864273D01*
X621536Y864299D01*
X621581Y864334D01*
X621632Y864360D01*
X621738Y864451D01*
X630290Y873003D01*
X631971Y874684D01*
X634001Y875525D01*
X911099Y875525D01*
X913129Y874684D01*
X928840Y858973D01*
X928880Y858943D01*
X928914Y858907D01*
X928987Y858864D01*
X929055Y858814D01*
X929102Y858798D01*
X929145Y858773D01*
X929228Y858754D01*
X929308Y858725D01*
X929357Y858724D01*
X929406Y858712D01*
X929490Y858718D01*
X929575Y858715D01*
X929623Y858728D01*
X929673Y858731D01*
X929752Y858762D01*
X929833Y858784D01*
X929876Y858810D01*
X929922Y858828D01*
X929988Y858880D01*
X930060Y858925D01*
X930093Y858963D01*
X930132Y858994D01*
X930180Y859063D01*
X930236Y859127D01*
X930256Y859173D01*
X930284Y859214D01*
X930309Y859295D01*
X930344Y859372D01*
X930349Y859422D01*
X930364Y859469D01*
X930375Y859609D01*
X930375Y876999D01*
X931216Y879029D01*
X982312Y930125D01*
X982321Y930137D01*
X982332Y930146D01*
X982400Y930244D01*
X982471Y930340D01*
X982476Y930354D01*
X982484Y930366D01*
X982520Y930480D01*
X982559Y930593D01*
X982560Y930607D01*
X982564Y930621D01*
X982575Y930761D01*
X982575Y935326D01*
X982561Y935424D01*
X982553Y935523D01*
X982541Y935556D01*
X982535Y935591D01*
X982493Y935680D01*
X982457Y935772D01*
X982435Y935800D01*
X982420Y935832D01*
X982352Y935904D01*
X982291Y935982D01*
X982262Y936002D01*
X982238Y936028D01*
X982152Y936078D01*
X982071Y936134D01*
X982037Y936145D01*
X982007Y936162D01*
X981910Y936185D01*
X981816Y936214D01*
X981764Y936218D01*
X981746Y936223D01*
X981728Y936221D01*
X981676Y936225D01*
X979218Y936225D01*
X978325Y937118D01*
X978325Y954882D01*
X979218Y955775D01*
X980378Y955775D01*
X980469Y955788D01*
X980561Y955793D01*
X980601Y955808D01*
X980643Y955815D01*
X980726Y955854D01*
X980812Y955886D01*
X980846Y955912D01*
X980884Y955930D01*
X980951Y955993D01*
X981024Y956048D01*
X981049Y956083D01*
X981080Y956112D01*
X981126Y956191D01*
X981180Y956266D01*
X981193Y956307D01*
X981215Y956343D01*
X981235Y956433D01*
X981264Y956520D01*
X981265Y956562D01*
X981275Y956604D01*
X981268Y956695D01*
X981271Y956787D01*
X981259Y956828D01*
X981256Y956871D01*
X981223Y956956D01*
X981198Y957045D01*
X981175Y957080D01*
X981159Y957120D01*
X981102Y957192D01*
X981052Y957269D01*
X981020Y957297D01*
X980994Y957330D01*
X980918Y957382D01*
X980848Y957441D01*
X980790Y957471D01*
X980773Y957482D01*
X980758Y957487D01*
X980723Y957505D01*
X979229Y958123D01*
X976036Y961317D01*
X976030Y961321D01*
X976028Y961324D01*
X975999Y961344D01*
X975956Y961375D01*
X975881Y961440D01*
X975849Y961454D01*
X975821Y961475D01*
X975727Y961508D01*
X975637Y961548D01*
X975602Y961552D01*
X975568Y961564D01*
X975470Y961568D01*
X975371Y961579D01*
X975336Y961573D01*
X975301Y961574D01*
X975206Y961549D01*
X975108Y961531D01*
X975077Y961515D01*
X975043Y961506D01*
X974959Y961453D01*
X974871Y961408D01*
X974831Y961374D01*
X974816Y961364D01*
X974804Y961350D01*
X974764Y961317D01*
X971571Y958123D01*
X967278Y956345D01*
X967236Y956320D01*
X967189Y956302D01*
X967122Y956251D01*
X967049Y956207D01*
X967016Y956170D01*
X966976Y956140D01*
X966927Y956071D01*
X966871Y956008D01*
X966850Y955963D01*
X966821Y955922D01*
X966794Y955842D01*
X966759Y955765D01*
X966752Y955716D01*
X966736Y955669D01*
X966735Y955584D01*
X966723Y955500D01*
X966731Y955451D01*
X966730Y955401D01*
X966753Y955320D01*
X966767Y955236D01*
X966790Y955192D01*
X966803Y955144D01*
X966849Y955073D01*
X966887Y954997D01*
X966921Y954961D01*
X966948Y954919D01*
X967013Y954865D01*
X967072Y954804D01*
X967115Y954779D01*
X967153Y954747D01*
X967278Y954684D01*
X968237Y954287D01*
X970987Y951537D01*
X972475Y947944D01*
X972475Y944056D01*
X970987Y940463D01*
X968488Y937965D01*
X968479Y937953D01*
X968468Y937944D01*
X968400Y937846D01*
X968329Y937749D01*
X968324Y937736D01*
X968316Y937724D01*
X968280Y937610D01*
X968241Y937497D01*
X968240Y937482D01*
X968236Y937469D01*
X968225Y937329D01*
X968225Y931601D01*
X967384Y929571D01*
X923129Y885316D01*
X921099Y884475D01*
X308961Y884475D01*
X308946Y884473D01*
X308932Y884475D01*
X308814Y884453D01*
X308696Y884435D01*
X308683Y884429D01*
X308669Y884427D01*
X308563Y884371D01*
X308455Y884320D01*
X308445Y884310D01*
X308432Y884303D01*
X308325Y884212D01*
X308003Y883890D01*
X282051Y857938D01*
X282018Y857892D01*
X281976Y857853D01*
X281939Y857785D01*
X281893Y857723D01*
X281874Y857669D01*
X281846Y857620D01*
X281830Y857544D01*
X281804Y857471D01*
X281802Y857414D01*
X281790Y857358D01*
X281797Y857281D01*
X281793Y857203D01*
X281808Y857149D01*
X281813Y857092D01*
X281856Y856958D01*
X283550Y852870D01*
X283550Y845730D01*
X280817Y839132D01*
X275768Y834083D01*
X269170Y831350D01*
X262030Y831350D01*
X255432Y834083D01*
X250383Y839132D01*
X247650Y845730D01*
X247650Y852870D01*
X250383Y859468D01*
X255432Y864517D01*
X262030Y867250D01*
X269170Y867250D01*
X273258Y865556D01*
X273314Y865543D01*
X273366Y865520D01*
X273443Y865511D01*
X273518Y865492D01*
X273575Y865495D01*
X273631Y865488D01*
X273708Y865502D01*
X273785Y865507D01*
X273838Y865526D01*
X273894Y865537D01*
X273963Y865573D01*
X274036Y865599D01*
X274081Y865634D01*
X274132Y865660D01*
X274238Y865751D01*
X299271Y890784D01*
X299309Y890836D01*
X299339Y890864D01*
X299362Y890903D01*
X299402Y890950D01*
X299420Y890986D01*
X299430Y890999D01*
X299436Y891017D01*
X299466Y891075D01*
X300316Y893129D01*
X301871Y894684D01*
X303901Y895525D01*
X917339Y895525D01*
X917354Y895527D01*
X917368Y895525D01*
X917486Y895547D01*
X917604Y895565D01*
X917617Y895571D01*
X917631Y895573D01*
X917737Y895629D01*
X917845Y895680D01*
X917855Y895690D01*
X917868Y895697D01*
X917975Y895788D01*
X956912Y934725D01*
X956921Y934737D01*
X956932Y934746D01*
X957000Y934844D01*
X957071Y934940D01*
X957076Y934954D01*
X957084Y934966D01*
X957120Y935080D01*
X957159Y935193D01*
X957160Y935207D01*
X957164Y935221D01*
X957175Y935361D01*
X957175Y937329D01*
X957173Y937343D01*
X957175Y937358D01*
X957155Y937467D01*
X957153Y937484D01*
X957151Y937491D01*
X957135Y937593D01*
X957129Y937606D01*
X957127Y937621D01*
X957071Y937727D01*
X957020Y937834D01*
X957010Y937845D01*
X957003Y937858D01*
X956912Y937965D01*
X954413Y940463D01*
X952925Y944056D01*
X952925Y947944D01*
X954413Y951537D01*
X957163Y954287D01*
X958122Y954684D01*
X958164Y954709D01*
X958211Y954727D01*
X958278Y954778D01*
X958351Y954822D01*
X958384Y954859D01*
X958424Y954889D01*
X958473Y954958D01*
X958529Y955021D01*
X958550Y955066D01*
X958579Y955107D01*
X958606Y955187D01*
X958641Y955264D01*
X958648Y955313D01*
X958664Y955360D01*
X958665Y955445D01*
X958677Y955529D01*
X958669Y955578D01*
X958670Y955628D01*
X958647Y955709D01*
X958633Y955793D01*
X958610Y955837D01*
X958597Y955885D01*
X958551Y955956D01*
X958513Y956032D01*
X958479Y956068D01*
X958452Y956110D01*
X958387Y956164D01*
X958328Y956225D01*
X958285Y956250D01*
X958247Y956282D01*
X958122Y956345D01*
X953829Y958123D01*
X949423Y962529D01*
X947039Y968285D01*
X947039Y974515D01*
X949423Y980271D01*
X953829Y984677D01*
X959585Y987061D01*
X965815Y987061D01*
X971571Y984677D01*
X974764Y981483D01*
X974844Y981425D01*
X974919Y981360D01*
X974951Y981346D01*
X974979Y981325D01*
X975073Y981292D01*
X975163Y981252D01*
X975198Y981248D01*
X975232Y981236D01*
X975331Y981232D01*
X975429Y981221D01*
X975464Y981227D01*
X975499Y981226D01*
X975595Y981251D01*
X975692Y981269D01*
X975723Y981285D01*
X975757Y981294D01*
X975841Y981347D01*
X975929Y981392D01*
X975969Y981426D01*
X975984Y981436D01*
X975996Y981450D01*
X976036Y981483D01*
X979229Y984677D01*
X984985Y987061D01*
X991215Y987061D01*
X996971Y984677D01*
X1001377Y980271D01*
X1003761Y974515D01*
X1003761Y968285D01*
X1001377Y962529D01*
X996971Y958123D01*
X995477Y957505D01*
X995399Y957457D01*
X995316Y957418D01*
X995285Y957389D01*
X995248Y957367D01*
X995187Y957298D01*
X995120Y957236D01*
X995098Y957199D01*
X995070Y957168D01*
X995031Y957084D01*
X994985Y957005D01*
X994976Y956963D01*
X994958Y956925D01*
X994946Y956833D01*
X994925Y956744D01*
X994928Y956702D01*
X994922Y956660D01*
X994938Y956569D01*
X994944Y956477D01*
X994959Y956438D01*
X994966Y956396D01*
X995008Y956313D01*
X995041Y956228D01*
X995067Y956195D01*
X995086Y956157D01*
X995150Y956090D01*
X995206Y956018D01*
X995241Y955994D01*
X995271Y955963D01*
X995351Y955918D01*
X995427Y955866D01*
X995467Y955853D01*
X995504Y955833D01*
X995594Y955813D01*
X995682Y955786D01*
X995746Y955781D01*
X995766Y955776D01*
X995782Y955778D01*
X995822Y955775D01*
X996982Y955775D01*
X997875Y954882D01*
X997875Y937118D01*
X996982Y936225D01*
X994524Y936225D01*
X994426Y936211D01*
X994327Y936203D01*
X994294Y936191D01*
X994259Y936185D01*
X994170Y936143D01*
X994078Y936107D01*
X994050Y936085D01*
X994018Y936070D01*
X993946Y936002D01*
X993868Y935941D01*
X993848Y935912D01*
X993822Y935888D01*
X993772Y935802D01*
X993716Y935721D01*
X993705Y935687D01*
X993688Y935657D01*
X993665Y935560D01*
X993636Y935466D01*
X993632Y935414D01*
X993627Y935396D01*
X993629Y935378D01*
X993625Y935326D01*
X993625Y927001D01*
X992784Y924971D01*
X941688Y873875D01*
X941679Y873863D01*
X941668Y873854D01*
X941600Y873756D01*
X941529Y873660D01*
X941524Y873646D01*
X941516Y873634D01*
X941480Y873520D01*
X941441Y873407D01*
X941440Y873393D01*
X941436Y873379D01*
X941425Y873239D01*
X941425Y827153D01*
X941427Y827139D01*
X941425Y827124D01*
X941447Y827007D01*
X941465Y826889D01*
X941471Y826875D01*
X941473Y826861D01*
X941529Y826755D01*
X941580Y826647D01*
X941590Y826637D01*
X941597Y826624D01*
X941688Y826517D01*
X942737Y825468D01*
X943965Y822504D01*
X943965Y819296D01*
X942737Y816332D01*
X940468Y814063D01*
X937504Y812835D01*
X934296Y812835D01*
G37*
%LPD*%
%LPC*%
G36*
X572951Y685300D02*
X572951Y685300D01*
X569166Y686868D01*
X566268Y689766D01*
X564700Y693551D01*
X564700Y697714D01*
X564698Y697729D01*
X564700Y697743D01*
X564678Y697861D01*
X564660Y697979D01*
X564654Y697992D01*
X564652Y698006D01*
X564596Y698112D01*
X564545Y698220D01*
X564535Y698230D01*
X564528Y698243D01*
X564437Y698350D01*
X553575Y709212D01*
X553563Y709221D01*
X553554Y709232D01*
X553456Y709300D01*
X553360Y709371D01*
X553346Y709376D01*
X553334Y709384D01*
X553220Y709420D01*
X553107Y709459D01*
X553093Y709460D01*
X553079Y709464D01*
X552939Y709475D01*
X437661Y709475D01*
X437646Y709473D01*
X437632Y709475D01*
X437514Y709453D01*
X437396Y709435D01*
X437383Y709429D01*
X437369Y709427D01*
X437263Y709371D01*
X437155Y709320D01*
X437145Y709310D01*
X437132Y709303D01*
X437025Y709212D01*
X420029Y692216D01*
X417999Y691375D01*
X236914Y691375D01*
X236899Y691373D01*
X236885Y691375D01*
X236767Y691353D01*
X236649Y691335D01*
X236636Y691329D01*
X236622Y691327D01*
X236515Y691271D01*
X236408Y691220D01*
X236398Y691210D01*
X236385Y691203D01*
X236278Y691112D01*
X233334Y688168D01*
X229549Y686600D01*
X225451Y686600D01*
X221666Y688168D01*
X218768Y691066D01*
X217200Y694851D01*
X217200Y698949D01*
X218768Y702734D01*
X221666Y705632D01*
X225451Y707200D01*
X229549Y707200D01*
X233334Y705632D01*
X236278Y702688D01*
X236290Y702679D01*
X236299Y702668D01*
X236397Y702600D01*
X236493Y702529D01*
X236507Y702524D01*
X236519Y702516D01*
X236633Y702480D01*
X236745Y702441D01*
X236760Y702440D01*
X236774Y702436D01*
X236914Y702425D01*
X414239Y702425D01*
X414254Y702427D01*
X414268Y702425D01*
X414386Y702447D01*
X414504Y702465D01*
X414517Y702471D01*
X414531Y702473D01*
X414637Y702529D01*
X414745Y702580D01*
X414755Y702590D01*
X414768Y702597D01*
X414875Y702688D01*
X431871Y719684D01*
X433901Y720525D01*
X556699Y720525D01*
X558729Y719684D01*
X560410Y718003D01*
X572250Y706163D01*
X572262Y706154D01*
X572271Y706143D01*
X572369Y706075D01*
X572465Y706004D01*
X572479Y705999D01*
X572491Y705991D01*
X572605Y705955D01*
X572718Y705916D01*
X572732Y705915D01*
X572746Y705911D01*
X572886Y705900D01*
X577114Y705900D01*
X577129Y705902D01*
X577143Y705900D01*
X577261Y705922D01*
X577379Y705940D01*
X577392Y705946D01*
X577406Y705948D01*
X577512Y706004D01*
X577620Y706055D01*
X577630Y706065D01*
X577643Y706072D01*
X577750Y706163D01*
X688771Y817184D01*
X690801Y818025D01*
X801661Y818025D01*
X801759Y818039D01*
X801858Y818047D01*
X801891Y818059D01*
X801926Y818065D01*
X802015Y818107D01*
X802107Y818143D01*
X802135Y818165D01*
X802167Y818180D01*
X802239Y818248D01*
X802317Y818309D01*
X802337Y818338D01*
X802363Y818362D01*
X802413Y818448D01*
X802469Y818529D01*
X802480Y818563D01*
X802497Y818593D01*
X802520Y818690D01*
X802549Y818784D01*
X802553Y818836D01*
X802558Y818854D01*
X802556Y818872D01*
X802560Y818924D01*
X802560Y819647D01*
X803453Y820540D01*
X817747Y820540D01*
X818640Y819647D01*
X818640Y805353D01*
X817747Y804460D01*
X803453Y804460D01*
X802560Y805353D01*
X802560Y806076D01*
X802546Y806174D01*
X802538Y806273D01*
X802526Y806306D01*
X802520Y806341D01*
X802478Y806430D01*
X802442Y806522D01*
X802420Y806550D01*
X802405Y806582D01*
X802337Y806654D01*
X802276Y806732D01*
X802247Y806752D01*
X802223Y806778D01*
X802137Y806828D01*
X802056Y806884D01*
X802022Y806895D01*
X801992Y806912D01*
X801895Y806935D01*
X801801Y806964D01*
X801749Y806968D01*
X801731Y806973D01*
X801713Y806971D01*
X801661Y806975D01*
X694561Y806975D01*
X694546Y806973D01*
X694532Y806975D01*
X694414Y806953D01*
X694296Y806935D01*
X694283Y806929D01*
X694269Y806927D01*
X694163Y806871D01*
X694055Y806820D01*
X694045Y806810D01*
X694032Y806803D01*
X693925Y806712D01*
X585563Y698350D01*
X585554Y698338D01*
X585543Y698329D01*
X585475Y698231D01*
X585404Y698135D01*
X585399Y698121D01*
X585391Y698109D01*
X585355Y697995D01*
X585316Y697882D01*
X585315Y697868D01*
X585311Y697854D01*
X585300Y697714D01*
X585300Y693551D01*
X583732Y689766D01*
X580834Y686868D01*
X577049Y685300D01*
X572951Y685300D01*
G37*
%LPD*%
%LPC*%
G36*
X30661Y479755D02*
X30661Y479755D01*
X27300Y481147D01*
X24727Y483720D01*
X23335Y487081D01*
X23335Y490719D01*
X24727Y494080D01*
X27300Y496653D01*
X30661Y498045D01*
X41059Y498045D01*
X41074Y498047D01*
X41088Y498045D01*
X41206Y498067D01*
X41324Y498085D01*
X41337Y498091D01*
X41351Y498093D01*
X41457Y498149D01*
X41565Y498200D01*
X41575Y498210D01*
X41588Y498217D01*
X41695Y498308D01*
X82012Y538625D01*
X82021Y538637D01*
X82032Y538646D01*
X82100Y538744D01*
X82171Y538840D01*
X82176Y538854D01*
X82184Y538866D01*
X82220Y538980D01*
X82259Y539093D01*
X82260Y539107D01*
X82264Y539121D01*
X82275Y539261D01*
X82275Y807214D01*
X82267Y807271D01*
X82268Y807328D01*
X82247Y807402D01*
X82235Y807479D01*
X82211Y807530D01*
X82195Y807585D01*
X82153Y807650D01*
X82120Y807720D01*
X82081Y807762D01*
X82050Y807810D01*
X81991Y807859D01*
X81938Y807916D01*
X81889Y807945D01*
X81845Y807981D01*
X81720Y808045D01*
X78185Y809510D01*
X73410Y814285D01*
X70825Y820524D01*
X70825Y827276D01*
X73410Y833515D01*
X78185Y838290D01*
X84424Y840875D01*
X91176Y840875D01*
X97415Y838290D01*
X102190Y833515D01*
X104775Y827276D01*
X104775Y820524D01*
X102190Y814285D01*
X97415Y809510D01*
X93880Y808045D01*
X93831Y808016D01*
X93778Y807995D01*
X93717Y807947D01*
X93651Y807907D01*
X93613Y807865D01*
X93568Y807829D01*
X93524Y807766D01*
X93472Y807708D01*
X93448Y807656D01*
X93416Y807609D01*
X93393Y807535D01*
X93360Y807465D01*
X93353Y807408D01*
X93336Y807354D01*
X93325Y807214D01*
X93325Y535501D01*
X92484Y533471D01*
X90803Y531790D01*
X54919Y495906D01*
X54860Y495826D01*
X54795Y495751D01*
X54781Y495719D01*
X54760Y495690D01*
X54727Y495597D01*
X54687Y495506D01*
X54683Y495471D01*
X54671Y495438D01*
X54667Y495339D01*
X54656Y495241D01*
X54662Y495206D01*
X54661Y495171D01*
X54686Y495075D01*
X54704Y494978D01*
X54720Y494946D01*
X54729Y494912D01*
X54782Y494828D01*
X54828Y494740D01*
X54861Y494701D01*
X54871Y494685D01*
X54885Y494673D01*
X54919Y494634D01*
X55473Y494080D01*
X56865Y490719D01*
X56865Y487081D01*
X55473Y483720D01*
X52900Y481147D01*
X49539Y479755D01*
X30661Y479755D01*
G37*
%LPD*%
%LPC*%
G36*
X168491Y707411D02*
X168491Y707411D01*
X165701Y708567D01*
X163567Y710701D01*
X162411Y713491D01*
X162411Y716509D01*
X163567Y719299D01*
X165701Y721433D01*
X168491Y722589D01*
X169403Y722589D01*
X169418Y722591D01*
X169432Y722589D01*
X169550Y722611D01*
X169668Y722629D01*
X169681Y722635D01*
X169695Y722637D01*
X169801Y722693D01*
X169909Y722744D01*
X169919Y722754D01*
X169932Y722761D01*
X170039Y722852D01*
X195871Y748684D01*
X197901Y749525D01*
X354039Y749525D01*
X354054Y749527D01*
X354068Y749525D01*
X354186Y749547D01*
X354304Y749565D01*
X354317Y749571D01*
X354331Y749573D01*
X354437Y749629D01*
X354545Y749680D01*
X354555Y749690D01*
X354568Y749697D01*
X354675Y749788D01*
X419595Y814708D01*
X419629Y814754D01*
X419670Y814793D01*
X419708Y814861D01*
X419754Y814923D01*
X419773Y814977D01*
X419800Y815027D01*
X419817Y815102D01*
X419842Y815175D01*
X419845Y815232D01*
X419856Y815288D01*
X419850Y815365D01*
X419853Y815443D01*
X419838Y815498D01*
X419833Y815555D01*
X419790Y815688D01*
X418325Y819224D01*
X418325Y825976D01*
X420910Y832215D01*
X425685Y836990D01*
X431924Y839575D01*
X438676Y839575D01*
X444915Y836990D01*
X449690Y832215D01*
X452275Y825976D01*
X452275Y819224D01*
X449690Y812985D01*
X444915Y808210D01*
X438676Y805625D01*
X431924Y805625D01*
X428388Y807090D01*
X428333Y807104D01*
X428281Y807126D01*
X428204Y807136D01*
X428128Y807154D01*
X428071Y807151D01*
X428015Y807158D01*
X427939Y807144D01*
X427861Y807139D01*
X427808Y807120D01*
X427752Y807109D01*
X427683Y807074D01*
X427610Y807047D01*
X427565Y807012D01*
X427515Y806986D01*
X427408Y806895D01*
X359829Y739316D01*
X357799Y738475D01*
X201661Y738475D01*
X201646Y738473D01*
X201632Y738475D01*
X201514Y738453D01*
X201396Y738435D01*
X201383Y738429D01*
X201369Y738427D01*
X201263Y738371D01*
X201155Y738320D01*
X201145Y738310D01*
X201132Y738303D01*
X201025Y738212D01*
X177852Y715039D01*
X177843Y715027D01*
X177832Y715018D01*
X177764Y714920D01*
X177693Y714824D01*
X177688Y714810D01*
X177680Y714798D01*
X177644Y714684D01*
X177605Y714571D01*
X177604Y714557D01*
X177600Y714543D01*
X177589Y714403D01*
X177589Y713491D01*
X176433Y710701D01*
X174299Y708567D01*
X171509Y707411D01*
X168491Y707411D01*
G37*
%LPD*%
%LPC*%
G36*
X107561Y161355D02*
X107561Y161355D01*
X104200Y162747D01*
X101627Y165320D01*
X100235Y168681D01*
X100235Y172319D01*
X101627Y175680D01*
X104200Y178253D01*
X107561Y179645D01*
X126439Y179645D01*
X129800Y178253D01*
X132373Y175680D01*
X133284Y173480D01*
X133313Y173431D01*
X133334Y173378D01*
X133382Y173317D01*
X133422Y173251D01*
X133464Y173213D01*
X133500Y173168D01*
X133563Y173124D01*
X133621Y173072D01*
X133673Y173048D01*
X133720Y173016D01*
X133794Y172993D01*
X133864Y172960D01*
X133921Y172953D01*
X133975Y172936D01*
X134115Y172925D01*
X153623Y172925D01*
X153638Y172927D01*
X153652Y172925D01*
X153770Y172947D01*
X153888Y172965D01*
X153901Y172971D01*
X153915Y172973D01*
X154021Y173029D01*
X154129Y173080D01*
X154139Y173090D01*
X154152Y173097D01*
X154259Y173188D01*
X242496Y261425D01*
X361735Y261425D01*
X361826Y261438D01*
X361918Y261443D01*
X361958Y261458D01*
X362000Y261465D01*
X362082Y261504D01*
X362169Y261536D01*
X362202Y261562D01*
X362241Y261580D01*
X362308Y261643D01*
X362381Y261698D01*
X362406Y261733D01*
X362437Y261762D01*
X362483Y261841D01*
X362537Y261916D01*
X362550Y261957D01*
X362571Y261993D01*
X362592Y262083D01*
X362621Y262170D01*
X362622Y262212D01*
X362632Y262254D01*
X362625Y262345D01*
X362627Y262437D01*
X362616Y262478D01*
X362613Y262521D01*
X362580Y262606D01*
X362555Y262695D01*
X362531Y262730D01*
X362516Y262770D01*
X362459Y262842D01*
X362409Y262919D01*
X362377Y262947D01*
X362350Y262980D01*
X362275Y263032D01*
X362204Y263091D01*
X362146Y263121D01*
X362130Y263132D01*
X362115Y263137D01*
X362079Y263155D01*
X359200Y264347D01*
X356627Y266920D01*
X355235Y270281D01*
X355235Y273919D01*
X356627Y277280D01*
X359200Y279853D01*
X362561Y281245D01*
X381439Y281245D01*
X384800Y279853D01*
X387373Y277280D01*
X388765Y273919D01*
X388765Y270281D01*
X387373Y266920D01*
X384800Y264347D01*
X381921Y263155D01*
X381842Y263107D01*
X381759Y263068D01*
X381728Y263039D01*
X381692Y263017D01*
X381630Y262949D01*
X381563Y262886D01*
X381541Y262849D01*
X381513Y262818D01*
X381475Y262734D01*
X381429Y262655D01*
X381419Y262613D01*
X381401Y262575D01*
X381389Y262483D01*
X381368Y262394D01*
X381371Y262352D01*
X381366Y262310D01*
X381381Y262219D01*
X381387Y262127D01*
X381403Y262088D01*
X381410Y262046D01*
X381451Y261963D01*
X381484Y261878D01*
X381510Y261845D01*
X381529Y261807D01*
X381593Y261740D01*
X381650Y261668D01*
X381685Y261644D01*
X381714Y261613D01*
X381794Y261568D01*
X381870Y261516D01*
X381910Y261503D01*
X381948Y261483D01*
X382037Y261463D01*
X382125Y261436D01*
X382190Y261431D01*
X382209Y261426D01*
X382225Y261428D01*
X382265Y261425D01*
X504794Y261425D01*
X504892Y261439D01*
X504991Y261447D01*
X505024Y261459D01*
X505059Y261465D01*
X505148Y261507D01*
X505240Y261543D01*
X505268Y261565D01*
X505300Y261580D01*
X505372Y261648D01*
X505450Y261709D01*
X505470Y261738D01*
X505496Y261762D01*
X505546Y261848D01*
X505602Y261929D01*
X505613Y261963D01*
X505630Y261993D01*
X505653Y262090D01*
X505682Y262184D01*
X505686Y262236D01*
X505691Y262254D01*
X505689Y262272D01*
X505693Y262324D01*
X505693Y263056D01*
X506501Y265006D01*
X507994Y266499D01*
X509944Y267307D01*
X512056Y267307D01*
X514006Y266499D01*
X515499Y265006D01*
X516307Y263056D01*
X516307Y260944D01*
X515499Y258994D01*
X514006Y257501D01*
X512056Y256693D01*
X509944Y256693D01*
X509918Y256704D01*
X509863Y256718D01*
X509811Y256741D01*
X509734Y256750D01*
X509659Y256769D01*
X509602Y256765D01*
X509545Y256772D01*
X509469Y256758D01*
X509392Y256754D01*
X509338Y256734D01*
X509282Y256724D01*
X509214Y256688D01*
X509141Y256661D01*
X509095Y256627D01*
X509045Y256600D01*
X509016Y256575D01*
X384196Y256575D01*
X384105Y256562D01*
X384014Y256557D01*
X383974Y256542D01*
X383932Y256535D01*
X383849Y256496D01*
X383763Y256464D01*
X383729Y256438D01*
X383691Y256420D01*
X383623Y256357D01*
X383550Y256302D01*
X383525Y256267D01*
X383494Y256238D01*
X383448Y256159D01*
X383395Y256084D01*
X383381Y256043D01*
X383360Y256007D01*
X383339Y255917D01*
X383310Y255830D01*
X383309Y255788D01*
X383300Y255746D01*
X383306Y255655D01*
X383304Y255563D01*
X383316Y255522D01*
X383319Y255479D01*
X383352Y255394D01*
X383377Y255305D01*
X383400Y255270D01*
X383415Y255230D01*
X383472Y255158D01*
X383522Y255081D01*
X383555Y255053D01*
X383581Y255020D01*
X383657Y254968D01*
X383727Y254909D01*
X383785Y254879D01*
X383801Y254868D01*
X383816Y254863D01*
X383852Y254845D01*
X384800Y254453D01*
X387373Y251880D01*
X388765Y248519D01*
X388765Y244881D01*
X387373Y241520D01*
X384800Y238947D01*
X381439Y237555D01*
X362561Y237555D01*
X359200Y238947D01*
X356627Y241520D01*
X355235Y244881D01*
X355235Y248519D01*
X356627Y251880D01*
X359200Y254453D01*
X360148Y254845D01*
X360227Y254893D01*
X360309Y254932D01*
X360341Y254961D01*
X360377Y254983D01*
X360438Y255051D01*
X360506Y255114D01*
X360527Y255151D01*
X360556Y255182D01*
X360594Y255266D01*
X360640Y255345D01*
X360650Y255387D01*
X360667Y255425D01*
X360680Y255517D01*
X360700Y255606D01*
X360697Y255648D01*
X360703Y255690D01*
X360688Y255781D01*
X360681Y255873D01*
X360666Y255912D01*
X360659Y255954D01*
X360618Y256037D01*
X360585Y256122D01*
X360558Y256155D01*
X360539Y256193D01*
X360476Y256260D01*
X360419Y256332D01*
X360384Y256356D01*
X360355Y256387D01*
X360274Y256432D01*
X360199Y256484D01*
X360158Y256497D01*
X360121Y256517D01*
X360031Y256537D01*
X359944Y256564D01*
X359879Y256569D01*
X359860Y256574D01*
X359844Y256572D01*
X359804Y256575D01*
X244877Y256575D01*
X244862Y256573D01*
X244848Y256575D01*
X244730Y256553D01*
X244612Y256535D01*
X244599Y256529D01*
X244585Y256527D01*
X244479Y256471D01*
X244371Y256420D01*
X244361Y256410D01*
X244348Y256403D01*
X244241Y256312D01*
X156004Y168075D01*
X134115Y168075D01*
X134058Y168067D01*
X134001Y168068D01*
X133927Y168047D01*
X133850Y168035D01*
X133799Y168011D01*
X133744Y167995D01*
X133679Y167953D01*
X133609Y167920D01*
X133567Y167881D01*
X133519Y167850D01*
X133470Y167791D01*
X133413Y167738D01*
X133384Y167689D01*
X133347Y167645D01*
X133284Y167520D01*
X132373Y165320D01*
X129800Y162747D01*
X126439Y161355D01*
X107561Y161355D01*
G37*
%LPD*%
%LPC*%
G36*
X560929Y451697D02*
X560929Y451697D01*
X557967Y454659D01*
X557967Y458849D01*
X560336Y461217D01*
X560345Y461229D01*
X560356Y461238D01*
X560424Y461336D01*
X560495Y461432D01*
X560500Y461446D01*
X560508Y461458D01*
X560544Y461572D01*
X560583Y461685D01*
X560584Y461699D01*
X560588Y461713D01*
X560599Y461853D01*
X560599Y476428D01*
X582112Y497941D01*
X582121Y497953D01*
X582132Y497962D01*
X582200Y498060D01*
X582271Y498156D01*
X582276Y498170D01*
X582284Y498182D01*
X582320Y498296D01*
X582359Y498409D01*
X582360Y498423D01*
X582364Y498437D01*
X582375Y498577D01*
X582375Y500276D01*
X582361Y500374D01*
X582353Y500473D01*
X582341Y500506D01*
X582335Y500541D01*
X582293Y500630D01*
X582257Y500722D01*
X582235Y500750D01*
X582220Y500782D01*
X582152Y500854D01*
X582091Y500932D01*
X582062Y500952D01*
X582038Y500978D01*
X581952Y501028D01*
X581871Y501084D01*
X581837Y501095D01*
X581807Y501112D01*
X581710Y501135D01*
X581616Y501164D01*
X581564Y501168D01*
X581546Y501173D01*
X581528Y501171D01*
X581476Y501175D01*
X577668Y501175D01*
X576775Y502068D01*
X576775Y518332D01*
X577668Y519225D01*
X581700Y519225D01*
X581798Y519239D01*
X581897Y519247D01*
X581930Y519259D01*
X581965Y519265D01*
X582054Y519307D01*
X582146Y519343D01*
X582174Y519365D01*
X582206Y519380D01*
X582278Y519448D01*
X582356Y519509D01*
X582376Y519538D01*
X582402Y519562D01*
X582452Y519648D01*
X582508Y519729D01*
X582519Y519763D01*
X582536Y519793D01*
X582559Y519890D01*
X582588Y519984D01*
X582592Y520036D01*
X582597Y520054D01*
X582595Y520072D01*
X582599Y520124D01*
X582599Y575276D01*
X582585Y575374D01*
X582577Y575473D01*
X582565Y575506D01*
X582559Y575541D01*
X582517Y575630D01*
X582481Y575722D01*
X582459Y575750D01*
X582444Y575782D01*
X582376Y575854D01*
X582315Y575932D01*
X582286Y575952D01*
X582262Y575978D01*
X582176Y576028D01*
X582095Y576084D01*
X582061Y576095D01*
X582031Y576112D01*
X581934Y576135D01*
X581840Y576164D01*
X581788Y576168D01*
X581770Y576173D01*
X581752Y576171D01*
X581700Y576175D01*
X578168Y576175D01*
X577275Y577068D01*
X577275Y593332D01*
X578168Y594225D01*
X590423Y594225D01*
X590438Y594227D01*
X590452Y594225D01*
X590570Y594247D01*
X590688Y594265D01*
X590701Y594271D01*
X590715Y594273D01*
X590821Y594329D01*
X590929Y594380D01*
X590939Y594390D01*
X590952Y594397D01*
X591059Y594488D01*
X735262Y738691D01*
X802287Y738691D01*
X802344Y738699D01*
X802401Y738698D01*
X802475Y738719D01*
X802552Y738731D01*
X802603Y738755D01*
X802658Y738771D01*
X802723Y738813D01*
X802793Y738846D01*
X802835Y738885D01*
X802883Y738916D01*
X802932Y738975D01*
X802989Y739028D01*
X803018Y739077D01*
X803054Y739121D01*
X803118Y739246D01*
X803784Y740854D01*
X806046Y743116D01*
X809001Y744340D01*
X812199Y744340D01*
X815154Y743116D01*
X817416Y740854D01*
X818640Y737899D01*
X818640Y734701D01*
X817416Y731746D01*
X815154Y729484D01*
X812199Y728260D01*
X809001Y728260D01*
X806046Y729484D01*
X803784Y731746D01*
X803146Y733286D01*
X803117Y733335D01*
X803096Y733388D01*
X803048Y733449D01*
X803008Y733515D01*
X802966Y733553D01*
X802931Y733598D01*
X802867Y733642D01*
X802809Y733694D01*
X802757Y733718D01*
X802710Y733750D01*
X802637Y733773D01*
X802566Y733806D01*
X802510Y733813D01*
X802455Y733830D01*
X802315Y733841D01*
X737643Y733841D01*
X737628Y733839D01*
X737614Y733841D01*
X737496Y733819D01*
X737378Y733801D01*
X737365Y733795D01*
X737351Y733793D01*
X737245Y733737D01*
X737137Y733686D01*
X737127Y733676D01*
X737114Y733669D01*
X737007Y733578D01*
X593588Y590159D01*
X593579Y590147D01*
X593568Y590138D01*
X593500Y590040D01*
X593429Y589944D01*
X593424Y589930D01*
X593416Y589918D01*
X593380Y589804D01*
X593341Y589691D01*
X593340Y589677D01*
X593336Y589663D01*
X593325Y589523D01*
X593325Y577068D01*
X592432Y576175D01*
X588348Y576175D01*
X588250Y576161D01*
X588151Y576153D01*
X588118Y576141D01*
X588083Y576135D01*
X587994Y576093D01*
X587902Y576057D01*
X587874Y576035D01*
X587842Y576020D01*
X587770Y575952D01*
X587692Y575891D01*
X587672Y575862D01*
X587646Y575838D01*
X587596Y575752D01*
X587540Y575671D01*
X587529Y575637D01*
X587512Y575607D01*
X587489Y575510D01*
X587460Y575416D01*
X587456Y575364D01*
X587451Y575346D01*
X587453Y575328D01*
X587449Y575276D01*
X587449Y520124D01*
X587463Y520026D01*
X587471Y519927D01*
X587483Y519894D01*
X587489Y519859D01*
X587531Y519770D01*
X587567Y519678D01*
X587589Y519650D01*
X587604Y519618D01*
X587672Y519546D01*
X587733Y519468D01*
X587762Y519448D01*
X587786Y519422D01*
X587872Y519372D01*
X587953Y519316D01*
X587987Y519305D01*
X588017Y519288D01*
X588114Y519265D01*
X588208Y519236D01*
X588260Y519232D01*
X588278Y519227D01*
X588296Y519229D01*
X588348Y519225D01*
X591932Y519225D01*
X592825Y518332D01*
X592825Y502068D01*
X591932Y501175D01*
X588124Y501175D01*
X588026Y501161D01*
X587927Y501153D01*
X587894Y501141D01*
X587859Y501135D01*
X587770Y501093D01*
X587678Y501057D01*
X587650Y501035D01*
X587618Y501020D01*
X587546Y500952D01*
X587468Y500891D01*
X587448Y500862D01*
X587422Y500838D01*
X587372Y500752D01*
X587316Y500671D01*
X587305Y500637D01*
X587288Y500607D01*
X587265Y500510D01*
X587236Y500416D01*
X587232Y500364D01*
X587227Y500346D01*
X587229Y500328D01*
X587227Y500322D01*
X587228Y500316D01*
X587225Y500276D01*
X587225Y496196D01*
X565712Y474683D01*
X565703Y474671D01*
X565692Y474662D01*
X565624Y474564D01*
X565553Y474468D01*
X565548Y474454D01*
X565540Y474442D01*
X565504Y474328D01*
X565465Y474215D01*
X565464Y474201D01*
X565460Y474187D01*
X565449Y474047D01*
X565449Y461853D01*
X565451Y461839D01*
X565449Y461824D01*
X565471Y461707D01*
X565489Y461589D01*
X565495Y461575D01*
X565497Y461561D01*
X565553Y461455D01*
X565604Y461347D01*
X565614Y461337D01*
X565621Y461324D01*
X565712Y461217D01*
X568081Y458849D01*
X568081Y454659D01*
X565119Y451697D01*
X560929Y451697D01*
G37*
%LPD*%
%LPC*%
G36*
X625381Y12135D02*
X625381Y12135D01*
X622020Y13527D01*
X619447Y16100D01*
X618055Y19461D01*
X618055Y38339D01*
X619447Y41700D01*
X622020Y44273D01*
X625381Y45665D01*
X629019Y45665D01*
X632380Y44273D01*
X634953Y41700D01*
X636345Y38339D01*
X636345Y32224D01*
X636359Y32126D01*
X636367Y32027D01*
X636379Y31994D01*
X636385Y31959D01*
X636427Y31870D01*
X636463Y31778D01*
X636485Y31750D01*
X636500Y31718D01*
X636568Y31646D01*
X636629Y31568D01*
X636658Y31548D01*
X636682Y31522D01*
X636768Y31472D01*
X636849Y31416D01*
X636883Y31405D01*
X636913Y31388D01*
X637010Y31365D01*
X637104Y31336D01*
X637156Y31332D01*
X637174Y31327D01*
X637192Y31329D01*
X637244Y31325D01*
X672379Y31325D01*
X672394Y31327D01*
X672408Y31325D01*
X672526Y31347D01*
X672644Y31365D01*
X672657Y31371D01*
X672671Y31373D01*
X672777Y31429D01*
X672885Y31480D01*
X672895Y31490D01*
X672908Y31497D01*
X673015Y31588D01*
X873186Y231759D01*
X873195Y231771D01*
X873206Y231780D01*
X873274Y231878D01*
X873345Y231974D01*
X873350Y231988D01*
X873358Y232000D01*
X873394Y232114D01*
X873433Y232227D01*
X873434Y232241D01*
X873438Y232255D01*
X873449Y232395D01*
X873449Y298885D01*
X873441Y298942D01*
X873442Y298999D01*
X873421Y299073D01*
X873409Y299150D01*
X873385Y299201D01*
X873369Y299256D01*
X873327Y299321D01*
X873294Y299391D01*
X873255Y299433D01*
X873224Y299481D01*
X873165Y299530D01*
X873112Y299587D01*
X873063Y299616D01*
X873019Y299652D01*
X872894Y299716D01*
X871148Y300439D01*
X868739Y302848D01*
X867435Y305996D01*
X867435Y309404D01*
X868739Y312552D01*
X871148Y314961D01*
X874296Y316265D01*
X877704Y316265D01*
X880852Y314961D01*
X883261Y312552D01*
X884565Y309404D01*
X884565Y305996D01*
X883261Y302848D01*
X880852Y300439D01*
X878854Y299612D01*
X878805Y299582D01*
X878752Y299562D01*
X878691Y299514D01*
X878625Y299474D01*
X878587Y299431D01*
X878542Y299396D01*
X878498Y299332D01*
X878446Y299274D01*
X878422Y299223D01*
X878390Y299176D01*
X878367Y299102D01*
X878334Y299032D01*
X878327Y298975D01*
X878310Y298921D01*
X878299Y298781D01*
X878299Y230014D01*
X674760Y26475D01*
X637244Y26475D01*
X637146Y26461D01*
X637047Y26453D01*
X637014Y26441D01*
X636979Y26435D01*
X636890Y26393D01*
X636798Y26357D01*
X636770Y26335D01*
X636738Y26320D01*
X636666Y26252D01*
X636588Y26191D01*
X636568Y26162D01*
X636542Y26138D01*
X636492Y26052D01*
X636436Y25971D01*
X636425Y25937D01*
X636408Y25907D01*
X636385Y25810D01*
X636356Y25716D01*
X636352Y25664D01*
X636347Y25646D01*
X636349Y25628D01*
X636345Y25576D01*
X636345Y19461D01*
X634953Y16100D01*
X632380Y13527D01*
X629019Y12135D01*
X625381Y12135D01*
G37*
%LPD*%
%LPC*%
G36*
X834656Y936225D02*
X834656Y936225D01*
X831063Y937713D01*
X828313Y940463D01*
X826825Y944056D01*
X826825Y947944D01*
X828313Y951537D01*
X831063Y954287D01*
X832022Y954684D01*
X832064Y954709D01*
X832111Y954727D01*
X832178Y954778D01*
X832251Y954822D01*
X832284Y954859D01*
X832324Y954889D01*
X832373Y954958D01*
X832429Y955021D01*
X832450Y955066D01*
X832479Y955107D01*
X832506Y955187D01*
X832541Y955264D01*
X832548Y955313D01*
X832564Y955360D01*
X832565Y955445D01*
X832577Y955529D01*
X832569Y955578D01*
X832570Y955628D01*
X832547Y955709D01*
X832533Y955793D01*
X832510Y955837D01*
X832497Y955885D01*
X832451Y955956D01*
X832413Y956032D01*
X832379Y956068D01*
X832352Y956110D01*
X832287Y956164D01*
X832228Y956225D01*
X832185Y956250D01*
X832147Y956282D01*
X832022Y956345D01*
X827729Y958123D01*
X823323Y962529D01*
X820939Y968285D01*
X820939Y974515D01*
X823323Y980271D01*
X827729Y984677D01*
X833485Y987061D01*
X839715Y987061D01*
X845471Y984677D01*
X848664Y981483D01*
X848744Y981425D01*
X848819Y981360D01*
X848851Y981346D01*
X848879Y981325D01*
X848973Y981292D01*
X849063Y981252D01*
X849098Y981248D01*
X849132Y981236D01*
X849231Y981232D01*
X849329Y981221D01*
X849364Y981227D01*
X849399Y981226D01*
X849495Y981251D01*
X849592Y981269D01*
X849623Y981285D01*
X849657Y981294D01*
X849741Y981347D01*
X849829Y981392D01*
X849869Y981426D01*
X849884Y981436D01*
X849896Y981450D01*
X849936Y981483D01*
X853129Y984677D01*
X858885Y987061D01*
X865115Y987061D01*
X870871Y984677D01*
X875277Y980271D01*
X877661Y974515D01*
X877661Y968285D01*
X875277Y962529D01*
X870871Y958123D01*
X869377Y957505D01*
X869299Y957457D01*
X869216Y957418D01*
X869185Y957389D01*
X869148Y957367D01*
X869087Y957299D01*
X869020Y957236D01*
X868998Y957199D01*
X868970Y957168D01*
X868931Y957084D01*
X868885Y957005D01*
X868876Y956963D01*
X868858Y956925D01*
X868846Y956833D01*
X868825Y956744D01*
X868828Y956702D01*
X868822Y956660D01*
X868838Y956569D01*
X868844Y956477D01*
X868859Y956438D01*
X868866Y956396D01*
X868908Y956313D01*
X868941Y956228D01*
X868967Y956195D01*
X868986Y956157D01*
X869050Y956090D01*
X869106Y956018D01*
X869141Y955994D01*
X869171Y955963D01*
X869251Y955918D01*
X869327Y955866D01*
X869367Y955853D01*
X869404Y955833D01*
X869494Y955813D01*
X869582Y955786D01*
X869646Y955781D01*
X869666Y955776D01*
X869682Y955778D01*
X869722Y955775D01*
X870882Y955775D01*
X871775Y954882D01*
X871775Y937118D01*
X870882Y936225D01*
X853118Y936225D01*
X852225Y937118D01*
X852225Y954882D01*
X853118Y955775D01*
X854278Y955775D01*
X854369Y955788D01*
X854461Y955793D01*
X854501Y955808D01*
X854543Y955815D01*
X854626Y955854D01*
X854712Y955886D01*
X854746Y955912D01*
X854784Y955930D01*
X854851Y955993D01*
X854924Y956048D01*
X854949Y956083D01*
X854980Y956112D01*
X855027Y956191D01*
X855080Y956266D01*
X855093Y956307D01*
X855115Y956343D01*
X855135Y956433D01*
X855164Y956520D01*
X855165Y956562D01*
X855175Y956604D01*
X855168Y956695D01*
X855171Y956787D01*
X855159Y956828D01*
X855156Y956871D01*
X855123Y956956D01*
X855098Y957045D01*
X855075Y957080D01*
X855059Y957120D01*
X855002Y957192D01*
X854952Y957269D01*
X854920Y957297D01*
X854894Y957330D01*
X854818Y957382D01*
X854748Y957441D01*
X854689Y957471D01*
X854673Y957482D01*
X854658Y957487D01*
X854623Y957505D01*
X853129Y958123D01*
X849936Y961317D01*
X849930Y961321D01*
X849928Y961324D01*
X849899Y961344D01*
X849856Y961375D01*
X849781Y961440D01*
X849749Y961454D01*
X849721Y961475D01*
X849627Y961508D01*
X849537Y961548D01*
X849502Y961552D01*
X849468Y961564D01*
X849370Y961568D01*
X849271Y961579D01*
X849236Y961573D01*
X849201Y961574D01*
X849106Y961549D01*
X849008Y961531D01*
X848977Y961515D01*
X848943Y961506D01*
X848859Y961453D01*
X848771Y961408D01*
X848731Y961374D01*
X848716Y961364D01*
X848704Y961350D01*
X848664Y961317D01*
X845471Y958123D01*
X841178Y956345D01*
X841136Y956320D01*
X841089Y956302D01*
X841022Y956251D01*
X840949Y956207D01*
X840916Y956170D01*
X840876Y956140D01*
X840827Y956071D01*
X840771Y956008D01*
X840750Y955963D01*
X840721Y955922D01*
X840694Y955842D01*
X840659Y955765D01*
X840652Y955716D01*
X840636Y955669D01*
X840635Y955584D01*
X840623Y955500D01*
X840631Y955451D01*
X840630Y955401D01*
X840653Y955320D01*
X840667Y955236D01*
X840690Y955192D01*
X840703Y955144D01*
X840749Y955073D01*
X840787Y954997D01*
X840821Y954961D01*
X840848Y954919D01*
X840913Y954865D01*
X840972Y954804D01*
X841015Y954779D01*
X841053Y954747D01*
X841178Y954684D01*
X842137Y954287D01*
X844887Y951537D01*
X846375Y947944D01*
X846375Y944056D01*
X844887Y940463D01*
X842137Y937713D01*
X838544Y936225D01*
X834656Y936225D01*
G37*
%LPD*%
%LPC*%
G36*
X30661Y454355D02*
X30661Y454355D01*
X27300Y455747D01*
X24727Y458320D01*
X23335Y461681D01*
X23335Y465319D01*
X24727Y468680D01*
X27300Y471253D01*
X30661Y472645D01*
X49539Y472645D01*
X52900Y471253D01*
X54864Y469288D01*
X54876Y469279D01*
X54885Y469268D01*
X54983Y469200D01*
X55080Y469129D01*
X55093Y469124D01*
X55105Y469116D01*
X55220Y469080D01*
X55332Y469041D01*
X55347Y469040D01*
X55361Y469036D01*
X55500Y469025D01*
X67248Y469025D01*
X67262Y469027D01*
X67276Y469025D01*
X67394Y469047D01*
X67512Y469065D01*
X67525Y469071D01*
X67540Y469073D01*
X67646Y469129D01*
X67753Y469180D01*
X67764Y469190D01*
X67777Y469197D01*
X67883Y469288D01*
X93279Y494684D01*
X95309Y495525D01*
X143339Y495525D01*
X143354Y495527D01*
X143368Y495525D01*
X143486Y495547D01*
X143604Y495565D01*
X143617Y495571D01*
X143631Y495573D01*
X143737Y495629D01*
X143845Y495680D01*
X143855Y495690D01*
X143868Y495697D01*
X143975Y495788D01*
X162148Y513961D01*
X162157Y513973D01*
X162168Y513982D01*
X162236Y514080D01*
X162307Y514176D01*
X162312Y514190D01*
X162320Y514202D01*
X162356Y514316D01*
X162395Y514429D01*
X162396Y514443D01*
X162400Y514457D01*
X162411Y514597D01*
X162411Y515509D01*
X163567Y518299D01*
X165701Y520433D01*
X168491Y521589D01*
X171509Y521589D01*
X174299Y520433D01*
X176433Y518299D01*
X177589Y515509D01*
X177589Y512491D01*
X176433Y509701D01*
X174299Y507567D01*
X171509Y506411D01*
X170597Y506411D01*
X170582Y506409D01*
X170568Y506411D01*
X170450Y506389D01*
X170332Y506371D01*
X170319Y506365D01*
X170305Y506363D01*
X170199Y506307D01*
X170091Y506256D01*
X170081Y506246D01*
X170068Y506239D01*
X169961Y506148D01*
X149129Y485316D01*
X147099Y484475D01*
X99069Y484475D01*
X99055Y484473D01*
X99040Y484475D01*
X98923Y484453D01*
X98805Y484435D01*
X98792Y484429D01*
X98777Y484427D01*
X98671Y484371D01*
X98564Y484320D01*
X98553Y484310D01*
X98540Y484303D01*
X98433Y484212D01*
X73038Y458816D01*
X71007Y457975D01*
X55500Y457975D01*
X55486Y457973D01*
X55471Y457975D01*
X55354Y457953D01*
X55236Y457935D01*
X55223Y457929D01*
X55208Y457927D01*
X55102Y457871D01*
X54995Y457820D01*
X54984Y457810D01*
X54971Y457803D01*
X54864Y457712D01*
X52900Y455747D01*
X49539Y454355D01*
X30661Y454355D01*
G37*
%LPD*%
%LPC*%
G36*
X462768Y122375D02*
X462768Y122375D01*
X461875Y123268D01*
X461875Y127076D01*
X461861Y127174D01*
X461853Y127273D01*
X461841Y127306D01*
X461835Y127341D01*
X461793Y127430D01*
X461757Y127522D01*
X461735Y127550D01*
X461720Y127582D01*
X461652Y127654D01*
X461591Y127732D01*
X461562Y127752D01*
X461538Y127778D01*
X461452Y127828D01*
X461371Y127884D01*
X461337Y127895D01*
X461307Y127912D01*
X461210Y127935D01*
X461116Y127964D01*
X461064Y127968D01*
X461046Y127973D01*
X461028Y127971D01*
X460976Y127975D01*
X411096Y127975D01*
X409412Y129659D01*
X389566Y149505D01*
X389492Y149559D01*
X389424Y149620D01*
X389385Y149638D01*
X389351Y149663D01*
X389265Y149694D01*
X389181Y149732D01*
X389139Y149738D01*
X389099Y149752D01*
X389007Y149756D01*
X388916Y149768D01*
X388874Y149761D01*
X388832Y149762D01*
X388743Y149739D01*
X388652Y149724D01*
X388614Y149705D01*
X388573Y149694D01*
X388495Y149645D01*
X388413Y149604D01*
X388382Y149575D01*
X388346Y149552D01*
X388286Y149483D01*
X388220Y149419D01*
X388199Y149382D01*
X388171Y149350D01*
X388134Y149266D01*
X388089Y149186D01*
X388080Y149144D01*
X388063Y149105D01*
X388052Y149014D01*
X388033Y148924D01*
X388037Y148882D01*
X388032Y148840D01*
X388048Y148750D01*
X388056Y148658D01*
X388076Y148596D01*
X388080Y148577D01*
X388087Y148563D01*
X388100Y148525D01*
X388765Y146919D01*
X388765Y143281D01*
X387373Y139920D01*
X384800Y137347D01*
X381439Y135955D01*
X362561Y135955D01*
X359200Y137347D01*
X356627Y139920D01*
X355235Y143281D01*
X355235Y146919D01*
X356627Y150280D01*
X359200Y152853D01*
X362561Y154245D01*
X381439Y154245D01*
X383045Y153580D01*
X383134Y153557D01*
X383220Y153527D01*
X383263Y153525D01*
X383304Y153515D01*
X383396Y153520D01*
X383488Y153517D01*
X383529Y153528D01*
X383571Y153530D01*
X383657Y153562D01*
X383746Y153585D01*
X383782Y153608D01*
X383822Y153623D01*
X383895Y153678D01*
X383973Y153727D01*
X384001Y153759D01*
X384035Y153785D01*
X384088Y153860D01*
X384148Y153929D01*
X384165Y153968D01*
X384190Y154003D01*
X384219Y154090D01*
X384256Y154174D01*
X384261Y154216D01*
X384275Y154256D01*
X384277Y154348D01*
X384287Y154439D01*
X384280Y154481D01*
X384281Y154524D01*
X384256Y154612D01*
X384239Y154702D01*
X384220Y154740D01*
X384208Y154781D01*
X384158Y154858D01*
X384116Y154940D01*
X384073Y154989D01*
X384063Y155006D01*
X384051Y155016D01*
X384025Y155046D01*
X377979Y161092D01*
X377967Y161101D01*
X377958Y161112D01*
X377860Y161180D01*
X377764Y161251D01*
X377750Y161256D01*
X377738Y161264D01*
X377624Y161300D01*
X377512Y161339D01*
X377497Y161340D01*
X377483Y161344D01*
X377343Y161355D01*
X362561Y161355D01*
X359200Y162747D01*
X356627Y165320D01*
X355235Y168681D01*
X355235Y172319D01*
X356627Y175680D01*
X359200Y178253D01*
X362561Y179645D01*
X381439Y179645D01*
X384800Y178253D01*
X387373Y175680D01*
X388765Y172319D01*
X388765Y168681D01*
X387373Y165320D01*
X384753Y162701D01*
X384670Y162651D01*
X384665Y162645D01*
X384659Y162641D01*
X384577Y162546D01*
X384492Y162451D01*
X384488Y162445D01*
X384484Y162439D01*
X384433Y162324D01*
X384380Y162209D01*
X384379Y162201D01*
X384376Y162194D01*
X384361Y162069D01*
X384344Y161943D01*
X384345Y161936D01*
X384344Y161929D01*
X384367Y161803D01*
X384388Y161680D01*
X384391Y161673D01*
X384393Y161666D01*
X384451Y161553D01*
X384508Y161440D01*
X384513Y161435D01*
X384516Y161428D01*
X384607Y161322D01*
X412841Y133088D01*
X412853Y133079D01*
X412862Y133068D01*
X412960Y133000D01*
X413056Y132929D01*
X413070Y132924D01*
X413082Y132916D01*
X413196Y132880D01*
X413309Y132841D01*
X413323Y132840D01*
X413337Y132836D01*
X413477Y132825D01*
X460976Y132825D01*
X461074Y132839D01*
X461173Y132847D01*
X461206Y132859D01*
X461241Y132865D01*
X461330Y132907D01*
X461422Y132943D01*
X461450Y132965D01*
X461482Y132980D01*
X461554Y133048D01*
X461632Y133109D01*
X461652Y133138D01*
X461678Y133162D01*
X461728Y133248D01*
X461784Y133329D01*
X461795Y133363D01*
X461812Y133393D01*
X461835Y133490D01*
X461864Y133584D01*
X461868Y133636D01*
X461873Y133654D01*
X461871Y133672D01*
X461875Y133724D01*
X461875Y137532D01*
X462768Y138425D01*
X479032Y138425D01*
X479925Y137532D01*
X479925Y123268D01*
X479032Y122375D01*
X462768Y122375D01*
G37*
%LPD*%
%LPC*%
G36*
X993491Y157411D02*
X993491Y157411D01*
X990701Y158567D01*
X990056Y159212D01*
X990044Y159221D01*
X990035Y159232D01*
X989937Y159300D01*
X989841Y159371D01*
X989827Y159376D01*
X989815Y159384D01*
X989701Y159420D01*
X989588Y159459D01*
X989574Y159460D01*
X989560Y159464D01*
X989420Y159475D01*
X878703Y159475D01*
X878599Y159460D01*
X878493Y159450D01*
X878455Y159438D01*
X878439Y159435D01*
X878421Y159427D01*
X878359Y159407D01*
X877704Y159135D01*
X874296Y159135D01*
X871148Y160439D01*
X868739Y162848D01*
X867435Y165996D01*
X867435Y169404D01*
X868739Y172552D01*
X871148Y174961D01*
X874296Y176265D01*
X877704Y176265D01*
X880852Y174961D01*
X883261Y172552D01*
X883870Y171080D01*
X883900Y171031D01*
X883920Y170978D01*
X883968Y170917D01*
X884008Y170851D01*
X884051Y170813D01*
X884086Y170768D01*
X884150Y170724D01*
X884208Y170672D01*
X884259Y170648D01*
X884306Y170616D01*
X884380Y170593D01*
X884451Y170560D01*
X884507Y170553D01*
X884561Y170536D01*
X884701Y170525D01*
X989420Y170525D01*
X989435Y170527D01*
X989449Y170525D01*
X989567Y170547D01*
X989685Y170565D01*
X989698Y170571D01*
X989712Y170573D01*
X989818Y170629D01*
X989926Y170680D01*
X989936Y170690D01*
X989949Y170697D01*
X990056Y170788D01*
X990701Y171433D01*
X993491Y172589D01*
X996509Y172589D01*
X999299Y171433D01*
X1001433Y169299D01*
X1002589Y166509D01*
X1002589Y163491D01*
X1001433Y160701D01*
X999299Y158567D01*
X996509Y157411D01*
X993491Y157411D01*
G37*
%LPD*%
%LPC*%
G36*
X462768Y141375D02*
X462768Y141375D01*
X461875Y142268D01*
X461875Y156532D01*
X462768Y157425D01*
X479032Y157425D01*
X479925Y156532D01*
X479925Y153324D01*
X479939Y153226D01*
X479947Y153127D01*
X479959Y153094D01*
X479965Y153059D01*
X480007Y152970D01*
X480043Y152878D01*
X480065Y152850D01*
X480080Y152818D01*
X480148Y152746D01*
X480209Y152668D01*
X480238Y152648D01*
X480262Y152622D01*
X480348Y152572D01*
X480429Y152516D01*
X480463Y152505D01*
X480493Y152488D01*
X480590Y152465D01*
X480684Y152436D01*
X480736Y152432D01*
X480754Y152427D01*
X480772Y152429D01*
X480824Y152425D01*
X498623Y152425D01*
X498638Y152427D01*
X498652Y152425D01*
X498770Y152447D01*
X498888Y152465D01*
X498901Y152471D01*
X498915Y152473D01*
X499021Y152529D01*
X499129Y152580D01*
X499139Y152590D01*
X499152Y152597D01*
X499259Y152688D01*
X523012Y176441D01*
X523021Y176453D01*
X523032Y176462D01*
X523100Y176560D01*
X523171Y176656D01*
X523176Y176670D01*
X523184Y176682D01*
X523220Y176796D01*
X523259Y176909D01*
X523260Y176923D01*
X523264Y176937D01*
X523275Y177077D01*
X523275Y301676D01*
X523261Y301774D01*
X523253Y301873D01*
X523241Y301906D01*
X523235Y301941D01*
X523193Y302030D01*
X523157Y302122D01*
X523135Y302150D01*
X523120Y302182D01*
X523052Y302254D01*
X522991Y302332D01*
X522962Y302352D01*
X522938Y302378D01*
X522852Y302428D01*
X522771Y302484D01*
X522737Y302495D01*
X522707Y302512D01*
X522610Y302535D01*
X522516Y302564D01*
X522464Y302568D01*
X522446Y302573D01*
X522428Y302571D01*
X522376Y302575D01*
X520818Y302575D01*
X519925Y303468D01*
X519925Y310732D01*
X520818Y311625D01*
X530582Y311625D01*
X531475Y310732D01*
X531475Y303468D01*
X530582Y302575D01*
X529024Y302575D01*
X528926Y302561D01*
X528827Y302553D01*
X528794Y302541D01*
X528759Y302535D01*
X528670Y302493D01*
X528578Y302457D01*
X528550Y302435D01*
X528518Y302420D01*
X528446Y302352D01*
X528368Y302291D01*
X528348Y302262D01*
X528322Y302238D01*
X528272Y302152D01*
X528216Y302071D01*
X528205Y302037D01*
X528188Y302007D01*
X528165Y301910D01*
X528136Y301816D01*
X528132Y301764D01*
X528127Y301746D01*
X528129Y301728D01*
X528125Y301676D01*
X528125Y174696D01*
X501004Y147575D01*
X480824Y147575D01*
X480726Y147561D01*
X480627Y147553D01*
X480594Y147541D01*
X480559Y147535D01*
X480470Y147493D01*
X480378Y147457D01*
X480350Y147435D01*
X480318Y147420D01*
X480246Y147352D01*
X480168Y147291D01*
X480148Y147262D01*
X480122Y147238D01*
X480072Y147152D01*
X480016Y147071D01*
X480005Y147037D01*
X479988Y147007D01*
X479965Y146910D01*
X479936Y146816D01*
X479932Y146764D01*
X479927Y146746D01*
X479929Y146728D01*
X479925Y146676D01*
X479925Y142268D01*
X479032Y141375D01*
X462768Y141375D01*
G37*
%LPD*%
%LPC*%
G36*
X362561Y186755D02*
X362561Y186755D01*
X359200Y188147D01*
X356627Y190720D01*
X355235Y194081D01*
X355235Y197719D01*
X356627Y201080D01*
X359200Y203653D01*
X362561Y205045D01*
X381439Y205045D01*
X384800Y203653D01*
X387373Y201080D01*
X388284Y198880D01*
X388313Y198831D01*
X388334Y198778D01*
X388382Y198717D01*
X388422Y198651D01*
X388464Y198613D01*
X388500Y198568D01*
X388563Y198524D01*
X388621Y198472D01*
X388673Y198448D01*
X388720Y198416D01*
X388794Y198393D01*
X388864Y198360D01*
X388921Y198353D01*
X388975Y198336D01*
X389115Y198325D01*
X460976Y198325D01*
X461074Y198339D01*
X461173Y198347D01*
X461206Y198359D01*
X461241Y198365D01*
X461330Y198407D01*
X461422Y198443D01*
X461450Y198465D01*
X461482Y198480D01*
X461554Y198548D01*
X461632Y198609D01*
X461652Y198638D01*
X461678Y198662D01*
X461728Y198748D01*
X461784Y198829D01*
X461795Y198863D01*
X461812Y198893D01*
X461835Y198990D01*
X461864Y199084D01*
X461868Y199136D01*
X461873Y199154D01*
X461871Y199172D01*
X461875Y199224D01*
X461875Y207432D01*
X462768Y208325D01*
X479032Y208325D01*
X479925Y207432D01*
X479925Y193168D01*
X479032Y192275D01*
X462768Y192275D01*
X461832Y193212D01*
X461820Y193221D01*
X461811Y193232D01*
X461713Y193300D01*
X461617Y193371D01*
X461603Y193376D01*
X461591Y193384D01*
X461477Y193420D01*
X461364Y193459D01*
X461350Y193460D01*
X461336Y193464D01*
X461196Y193475D01*
X389115Y193475D01*
X389058Y193467D01*
X389001Y193468D01*
X388927Y193447D01*
X388850Y193435D01*
X388799Y193411D01*
X388744Y193395D01*
X388679Y193353D01*
X388609Y193320D01*
X388567Y193281D01*
X388519Y193250D01*
X388470Y193191D01*
X388413Y193138D01*
X388384Y193089D01*
X388348Y193045D01*
X388284Y192920D01*
X387373Y190720D01*
X384800Y188147D01*
X381439Y186755D01*
X362561Y186755D01*
G37*
%LPD*%
%LPC*%
G36*
X262030Y907550D02*
X262030Y907550D01*
X255432Y910283D01*
X250383Y915332D01*
X247650Y921930D01*
X247650Y929070D01*
X250383Y935668D01*
X255432Y940717D01*
X262030Y943450D01*
X269170Y943450D01*
X275768Y940717D01*
X280817Y935668D01*
X283550Y929070D01*
X283550Y921930D01*
X280817Y915332D01*
X275768Y910283D01*
X269170Y907550D01*
X262030Y907550D01*
G37*
%LPD*%
%LPC*%
G36*
X609530Y906250D02*
X609530Y906250D01*
X602932Y908983D01*
X597883Y914032D01*
X595150Y920630D01*
X595150Y927770D01*
X597883Y934368D01*
X602932Y939417D01*
X609530Y942150D01*
X616670Y942150D01*
X623268Y939417D01*
X628317Y934368D01*
X631050Y927770D01*
X631050Y920630D01*
X628317Y914032D01*
X623268Y908983D01*
X616670Y906250D01*
X609530Y906250D01*
G37*
%LPD*%
%LPC*%
G36*
X576944Y349693D02*
X576944Y349693D01*
X574994Y350501D01*
X573501Y351994D01*
X572693Y353944D01*
X572693Y356056D01*
X573501Y358006D01*
X574994Y359499D01*
X576944Y360307D01*
X579056Y360307D01*
X579082Y360296D01*
X579137Y360282D01*
X579189Y360259D01*
X579266Y360250D01*
X579341Y360231D01*
X579398Y360235D01*
X579455Y360228D01*
X579531Y360242D01*
X579608Y360246D01*
X579662Y360266D01*
X579718Y360276D01*
X579786Y360312D01*
X579859Y360339D01*
X579905Y360373D01*
X579955Y360400D01*
X580062Y360491D01*
X582112Y362541D01*
X583796Y364225D01*
X684753Y364225D01*
X684809Y364233D01*
X684866Y364232D01*
X684941Y364253D01*
X685018Y364265D01*
X685069Y364289D01*
X685124Y364305D01*
X685189Y364347D01*
X685259Y364380D01*
X685301Y364419D01*
X685348Y364450D01*
X685398Y364509D01*
X685455Y364562D01*
X685484Y364611D01*
X685520Y364655D01*
X685584Y364780D01*
X686160Y366170D01*
X688330Y368340D01*
X691165Y369515D01*
X694235Y369515D01*
X697070Y368340D01*
X699240Y366170D01*
X700415Y363335D01*
X700415Y360265D01*
X699240Y357430D01*
X697070Y355260D01*
X694235Y354085D01*
X691165Y354085D01*
X688330Y355260D01*
X686160Y357430D01*
X685584Y358820D01*
X685555Y358869D01*
X685534Y358922D01*
X685486Y358983D01*
X685446Y359049D01*
X685403Y359087D01*
X685368Y359132D01*
X685304Y359176D01*
X685247Y359228D01*
X685195Y359252D01*
X685148Y359284D01*
X685074Y359307D01*
X685004Y359340D01*
X684947Y359347D01*
X684893Y359364D01*
X684753Y359375D01*
X586177Y359375D01*
X586162Y359373D01*
X586148Y359375D01*
X586030Y359353D01*
X585912Y359335D01*
X585899Y359329D01*
X585885Y359327D01*
X585779Y359271D01*
X585671Y359220D01*
X585661Y359210D01*
X585648Y359203D01*
X585541Y359112D01*
X583491Y357062D01*
X583457Y357016D01*
X583416Y356976D01*
X583378Y356909D01*
X583332Y356847D01*
X583313Y356793D01*
X583285Y356743D01*
X583269Y356667D01*
X583243Y356594D01*
X583241Y356537D01*
X583229Y356481D01*
X583236Y356404D01*
X583233Y356327D01*
X583247Y356272D01*
X583252Y356215D01*
X583296Y356082D01*
X583307Y356056D01*
X583307Y353944D01*
X582499Y351994D01*
X581006Y350501D01*
X579056Y349693D01*
X576944Y349693D01*
G37*
%LPD*%
%LPC*%
G36*
X613218Y307325D02*
X613218Y307325D01*
X612325Y308218D01*
X612325Y330982D01*
X613218Y331875D01*
X629982Y331875D01*
X630875Y330982D01*
X630875Y318324D01*
X630889Y318226D01*
X630897Y318127D01*
X630909Y318094D01*
X630915Y318059D01*
X630957Y317970D01*
X630993Y317878D01*
X631015Y317850D01*
X631030Y317818D01*
X631098Y317746D01*
X631159Y317668D01*
X631188Y317648D01*
X631212Y317622D01*
X631298Y317572D01*
X631379Y317516D01*
X631413Y317505D01*
X631443Y317488D01*
X631540Y317465D01*
X631634Y317436D01*
X631686Y317432D01*
X631704Y317427D01*
X631722Y317429D01*
X631774Y317425D01*
X659901Y317425D01*
X659915Y317427D01*
X659930Y317425D01*
X660047Y317447D01*
X660165Y317465D01*
X660179Y317471D01*
X660193Y317473D01*
X660299Y317529D01*
X660407Y317580D01*
X660417Y317590D01*
X660430Y317597D01*
X660537Y317688D01*
X662905Y320057D01*
X667095Y320057D01*
X670057Y317095D01*
X670057Y312905D01*
X667095Y309943D01*
X662905Y309943D01*
X660537Y312312D01*
X660525Y312321D01*
X660516Y312332D01*
X660418Y312400D01*
X660322Y312471D01*
X660308Y312476D01*
X660296Y312484D01*
X660182Y312520D01*
X660069Y312559D01*
X660055Y312560D01*
X660041Y312564D01*
X659901Y312575D01*
X631774Y312575D01*
X631676Y312561D01*
X631577Y312553D01*
X631544Y312541D01*
X631509Y312535D01*
X631420Y312493D01*
X631328Y312457D01*
X631300Y312435D01*
X631268Y312420D01*
X631196Y312352D01*
X631118Y312291D01*
X631098Y312262D01*
X631072Y312238D01*
X631022Y312152D01*
X630966Y312071D01*
X630955Y312037D01*
X630938Y312007D01*
X630915Y311910D01*
X630886Y311816D01*
X630882Y311764D01*
X630877Y311746D01*
X630879Y311728D01*
X630875Y311676D01*
X630875Y308218D01*
X629982Y307325D01*
X613218Y307325D01*
G37*
%LPD*%
%LPC*%
G36*
X107561Y288355D02*
X107561Y288355D01*
X104200Y289747D01*
X101627Y292320D01*
X100235Y295681D01*
X100235Y299319D01*
X101627Y302680D01*
X104200Y305253D01*
X107561Y306645D01*
X126439Y306645D01*
X129800Y305253D01*
X132373Y302680D01*
X133765Y299319D01*
X133765Y295681D01*
X132373Y292320D01*
X129800Y289747D01*
X126439Y288355D01*
X107561Y288355D01*
G37*
%LPD*%
%LPC*%
G36*
X362561Y313755D02*
X362561Y313755D01*
X359200Y315147D01*
X356627Y317720D01*
X355235Y321081D01*
X355235Y324719D01*
X356627Y328080D01*
X359200Y330653D01*
X362561Y332045D01*
X381439Y332045D01*
X384800Y330653D01*
X387373Y328080D01*
X388765Y324719D01*
X388765Y321081D01*
X387373Y317720D01*
X384800Y315147D01*
X381439Y313755D01*
X362561Y313755D01*
G37*
%LPD*%
%LPC*%
G36*
X362561Y339155D02*
X362561Y339155D01*
X359200Y340547D01*
X356627Y343120D01*
X355235Y346481D01*
X355235Y350119D01*
X356627Y353480D01*
X359200Y356053D01*
X362561Y357445D01*
X381439Y357445D01*
X384800Y356053D01*
X387373Y353480D01*
X388765Y350119D01*
X388765Y346481D01*
X387373Y343120D01*
X384800Y340547D01*
X381439Y339155D01*
X362561Y339155D01*
G37*
%LPD*%
%LPC*%
G36*
X107561Y339155D02*
X107561Y339155D01*
X104200Y340547D01*
X101627Y343120D01*
X100235Y346481D01*
X100235Y350119D01*
X101627Y353480D01*
X104200Y356053D01*
X107561Y357445D01*
X126439Y357445D01*
X129800Y356053D01*
X132373Y353480D01*
X133765Y350119D01*
X133765Y346481D01*
X132373Y343120D01*
X129800Y340547D01*
X126439Y339155D01*
X107561Y339155D01*
G37*
%LPD*%
%LPC*%
G36*
X107561Y364555D02*
X107561Y364555D01*
X104200Y365947D01*
X101627Y368520D01*
X100235Y371881D01*
X100235Y375519D01*
X101627Y378880D01*
X104200Y381453D01*
X107561Y382845D01*
X126439Y382845D01*
X129800Y381453D01*
X132373Y378880D01*
X133765Y375519D01*
X133765Y371881D01*
X132373Y368520D01*
X129800Y365947D01*
X126439Y364555D01*
X107561Y364555D01*
G37*
%LPD*%
%LPC*%
G36*
X362561Y288355D02*
X362561Y288355D01*
X359200Y289747D01*
X356627Y292320D01*
X355235Y295681D01*
X355235Y299319D01*
X356627Y302680D01*
X359200Y305253D01*
X362561Y306645D01*
X381439Y306645D01*
X384800Y305253D01*
X387373Y302680D01*
X388765Y299319D01*
X388765Y295681D01*
X387373Y292320D01*
X384800Y289747D01*
X381439Y288355D01*
X362561Y288355D01*
G37*
%LPD*%
%LPC*%
G36*
X362561Y389955D02*
X362561Y389955D01*
X359200Y391347D01*
X356627Y393920D01*
X355235Y397281D01*
X355235Y400919D01*
X356627Y404280D01*
X359200Y406853D01*
X362561Y408245D01*
X381439Y408245D01*
X384800Y406853D01*
X387373Y404280D01*
X388765Y400919D01*
X388765Y397281D01*
X387373Y393920D01*
X384800Y391347D01*
X381439Y389955D01*
X362561Y389955D01*
G37*
%LPD*%
%LPC*%
G36*
X107561Y440755D02*
X107561Y440755D01*
X104200Y442147D01*
X101627Y444720D01*
X100235Y448081D01*
X100235Y451719D01*
X101627Y455080D01*
X104200Y457653D01*
X107561Y459045D01*
X126439Y459045D01*
X129800Y457653D01*
X132373Y455080D01*
X133765Y451719D01*
X133765Y448081D01*
X132373Y444720D01*
X129800Y442147D01*
X126439Y440755D01*
X107561Y440755D01*
G37*
%LPD*%
%LPC*%
G36*
X107561Y389955D02*
X107561Y389955D01*
X104200Y391347D01*
X101627Y393920D01*
X100235Y397281D01*
X100235Y400919D01*
X101627Y404280D01*
X104200Y406853D01*
X107561Y408245D01*
X126439Y408245D01*
X129800Y406853D01*
X132373Y404280D01*
X133765Y400919D01*
X133765Y397281D01*
X132373Y393920D01*
X129800Y391347D01*
X126439Y389955D01*
X107561Y389955D01*
G37*
%LPD*%
%LPC*%
G36*
X107561Y415355D02*
X107561Y415355D01*
X104200Y416747D01*
X101627Y419320D01*
X100235Y422681D01*
X100235Y426319D01*
X101627Y429680D01*
X104200Y432253D01*
X107561Y433645D01*
X126439Y433645D01*
X129800Y432253D01*
X132373Y429680D01*
X133765Y426319D01*
X133765Y422681D01*
X132373Y419320D01*
X129800Y416747D01*
X126439Y415355D01*
X107561Y415355D01*
G37*
%LPD*%
%LPC*%
G36*
X549181Y12135D02*
X549181Y12135D01*
X545820Y13527D01*
X543247Y16100D01*
X541855Y19461D01*
X541855Y38339D01*
X543247Y41700D01*
X545820Y44273D01*
X549181Y45665D01*
X552819Y45665D01*
X556180Y44273D01*
X558753Y41700D01*
X560145Y38339D01*
X560145Y19461D01*
X558753Y16100D01*
X556180Y13527D01*
X552819Y12135D01*
X549181Y12135D01*
G37*
%LPD*%
%LPC*%
G36*
X574581Y12135D02*
X574581Y12135D01*
X571220Y13527D01*
X568647Y16100D01*
X567255Y19461D01*
X567255Y38339D01*
X568647Y41700D01*
X571220Y44273D01*
X574581Y45665D01*
X578219Y45665D01*
X581580Y44273D01*
X584153Y41700D01*
X585545Y38339D01*
X585545Y19461D01*
X584153Y16100D01*
X581580Y13527D01*
X578219Y12135D01*
X574581Y12135D01*
G37*
%LPD*%
%LPC*%
G36*
X107561Y34355D02*
X107561Y34355D01*
X104200Y35747D01*
X101627Y38320D01*
X100235Y41681D01*
X100235Y45319D01*
X101627Y48680D01*
X104200Y51253D01*
X107561Y52645D01*
X126439Y52645D01*
X129800Y51253D01*
X132373Y48680D01*
X133765Y45319D01*
X133765Y41681D01*
X132373Y38320D01*
X129800Y35747D01*
X126439Y34355D01*
X107561Y34355D01*
G37*
%LPD*%
%LPC*%
G36*
X362561Y34355D02*
X362561Y34355D01*
X359200Y35747D01*
X356627Y38320D01*
X355235Y41681D01*
X355235Y45319D01*
X356627Y48680D01*
X359200Y51253D01*
X362561Y52645D01*
X381439Y52645D01*
X384800Y51253D01*
X387373Y48680D01*
X388765Y45319D01*
X388765Y41681D01*
X387373Y38320D01*
X384800Y35747D01*
X381439Y34355D01*
X362561Y34355D01*
G37*
%LPD*%
%LPC*%
G36*
X107561Y59755D02*
X107561Y59755D01*
X104200Y61147D01*
X101627Y63720D01*
X100235Y67081D01*
X100235Y70719D01*
X101627Y74080D01*
X104200Y76653D01*
X107561Y78045D01*
X126439Y78045D01*
X129800Y76653D01*
X132373Y74080D01*
X133765Y70719D01*
X133765Y67081D01*
X132373Y63720D01*
X129800Y61147D01*
X126439Y59755D01*
X107561Y59755D01*
G37*
%LPD*%
%LPC*%
G36*
X362561Y415355D02*
X362561Y415355D01*
X359200Y416747D01*
X356627Y419320D01*
X355235Y422681D01*
X355235Y426319D01*
X356627Y429680D01*
X359200Y432253D01*
X362561Y433645D01*
X381439Y433645D01*
X384800Y432253D01*
X387373Y429680D01*
X388765Y426319D01*
X388765Y422681D01*
X387373Y419320D01*
X384800Y416747D01*
X381439Y415355D01*
X362561Y415355D01*
G37*
%LPD*%
%LPC*%
G36*
X362561Y59755D02*
X362561Y59755D01*
X359200Y61147D01*
X356627Y63720D01*
X355235Y67081D01*
X355235Y70719D01*
X356627Y74080D01*
X359200Y76653D01*
X362561Y78045D01*
X381439Y78045D01*
X384800Y76653D01*
X387373Y74080D01*
X388765Y70719D01*
X388765Y67081D01*
X387373Y63720D01*
X384800Y61147D01*
X381439Y59755D01*
X362561Y59755D01*
G37*
%LPD*%
%LPC*%
G36*
X107561Y85155D02*
X107561Y85155D01*
X104200Y86547D01*
X101627Y89120D01*
X100235Y92481D01*
X100235Y96119D01*
X101627Y99480D01*
X104200Y102053D01*
X107561Y103445D01*
X126439Y103445D01*
X129800Y102053D01*
X132373Y99480D01*
X133765Y96119D01*
X133765Y92481D01*
X132373Y89120D01*
X129800Y86547D01*
X126439Y85155D01*
X107561Y85155D01*
G37*
%LPD*%
%LPC*%
G36*
X362561Y85155D02*
X362561Y85155D01*
X359200Y86547D01*
X356627Y89120D01*
X355235Y92481D01*
X355235Y96119D01*
X356627Y99480D01*
X359200Y102053D01*
X362561Y103445D01*
X381439Y103445D01*
X384800Y102053D01*
X387373Y99480D01*
X388765Y96119D01*
X388765Y92481D01*
X387373Y89120D01*
X384800Y86547D01*
X381439Y85155D01*
X362561Y85155D01*
G37*
%LPD*%
%LPC*%
G36*
X362561Y110555D02*
X362561Y110555D01*
X359200Y111947D01*
X356627Y114520D01*
X355235Y117881D01*
X355235Y121519D01*
X356627Y124880D01*
X359200Y127453D01*
X362561Y128845D01*
X381439Y128845D01*
X384800Y127453D01*
X387373Y124880D01*
X388765Y121519D01*
X388765Y117881D01*
X387373Y114520D01*
X384800Y111947D01*
X381439Y110555D01*
X362561Y110555D01*
G37*
%LPD*%
%LPC*%
G36*
X107561Y110555D02*
X107561Y110555D01*
X104200Y111947D01*
X101627Y114520D01*
X100235Y117881D01*
X100235Y121519D01*
X101627Y124880D01*
X104200Y127453D01*
X107561Y128845D01*
X126439Y128845D01*
X129800Y127453D01*
X132373Y124880D01*
X133765Y121519D01*
X133765Y117881D01*
X132373Y114520D01*
X129800Y111947D01*
X126439Y110555D01*
X107561Y110555D01*
G37*
%LPD*%
%LPC*%
G36*
X107561Y135955D02*
X107561Y135955D01*
X104200Y137347D01*
X101627Y139920D01*
X100235Y143281D01*
X100235Y146919D01*
X101627Y150280D01*
X104200Y152853D01*
X107561Y154245D01*
X126439Y154245D01*
X129800Y152853D01*
X132373Y150280D01*
X133765Y146919D01*
X133765Y143281D01*
X132373Y139920D01*
X129800Y137347D01*
X126439Y135955D01*
X107561Y135955D01*
G37*
%LPD*%
%LPC*%
G36*
X107561Y186755D02*
X107561Y186755D01*
X104200Y188147D01*
X101627Y190720D01*
X100235Y194081D01*
X100235Y197719D01*
X101627Y201080D01*
X104200Y203653D01*
X107561Y205045D01*
X126439Y205045D01*
X129800Y203653D01*
X132373Y201080D01*
X133765Y197719D01*
X133765Y194081D01*
X132373Y190720D01*
X129800Y188147D01*
X126439Y186755D01*
X107561Y186755D01*
G37*
%LPD*%
%LPC*%
G36*
X362561Y212155D02*
X362561Y212155D01*
X359200Y213547D01*
X356627Y216120D01*
X355235Y219481D01*
X355235Y223119D01*
X356627Y226480D01*
X359200Y229053D01*
X362561Y230445D01*
X381439Y230445D01*
X384800Y229053D01*
X387373Y226480D01*
X388765Y223119D01*
X388765Y219481D01*
X387373Y216120D01*
X384800Y213547D01*
X381439Y212155D01*
X362561Y212155D01*
G37*
%LPD*%
%LPC*%
G36*
X107561Y212155D02*
X107561Y212155D01*
X104200Y213547D01*
X101627Y216120D01*
X100235Y219481D01*
X100235Y223119D01*
X101627Y226480D01*
X104200Y229053D01*
X107561Y230445D01*
X126439Y230445D01*
X129800Y229053D01*
X132373Y226480D01*
X133765Y223119D01*
X133765Y219481D01*
X132373Y216120D01*
X129800Y213547D01*
X126439Y212155D01*
X107561Y212155D01*
G37*
%LPD*%
%LPC*%
G36*
X107561Y237555D02*
X107561Y237555D01*
X104200Y238947D01*
X101627Y241520D01*
X100235Y244881D01*
X100235Y248519D01*
X101627Y251880D01*
X104200Y254453D01*
X107561Y255845D01*
X126439Y255845D01*
X129800Y254453D01*
X132373Y251880D01*
X133765Y248519D01*
X133765Y244881D01*
X132373Y241520D01*
X129800Y238947D01*
X126439Y237555D01*
X107561Y237555D01*
G37*
%LPD*%
%LPC*%
G36*
X107561Y313755D02*
X107561Y313755D01*
X104200Y315147D01*
X101627Y317720D01*
X100235Y321081D01*
X100235Y324719D01*
X101627Y328080D01*
X104200Y330653D01*
X107561Y332045D01*
X126439Y332045D01*
X129800Y330653D01*
X132373Y328080D01*
X133765Y324719D01*
X133765Y321081D01*
X132373Y317720D01*
X129800Y315147D01*
X126439Y313755D01*
X107561Y313755D01*
G37*
%LPD*%
%LPC*%
G36*
X362561Y364555D02*
X362561Y364555D01*
X359200Y365947D01*
X356627Y368520D01*
X355235Y371881D01*
X355235Y375519D01*
X356627Y378880D01*
X359200Y381453D01*
X362561Y382845D01*
X381439Y382845D01*
X384800Y381453D01*
X387373Y378880D01*
X388765Y375519D01*
X388765Y371881D01*
X387373Y368520D01*
X384800Y365947D01*
X381439Y364555D01*
X362561Y364555D01*
G37*
%LPD*%
%LPC*%
G36*
X462768Y211275D02*
X462768Y211275D01*
X461875Y212168D01*
X461875Y223676D01*
X461861Y223774D01*
X461853Y223873D01*
X461841Y223906D01*
X461835Y223941D01*
X461793Y224030D01*
X461757Y224122D01*
X461735Y224150D01*
X461720Y224182D01*
X461652Y224254D01*
X461591Y224332D01*
X461562Y224352D01*
X461538Y224378D01*
X461452Y224428D01*
X461371Y224484D01*
X461337Y224495D01*
X461307Y224512D01*
X461210Y224535D01*
X461116Y224564D01*
X461064Y224568D01*
X461046Y224573D01*
X461028Y224571D01*
X460976Y224575D01*
X434099Y224575D01*
X434085Y224573D01*
X434070Y224575D01*
X433953Y224553D01*
X433835Y224535D01*
X433821Y224529D01*
X433807Y224527D01*
X433701Y224471D01*
X433593Y224420D01*
X433583Y224410D01*
X433570Y224403D01*
X433463Y224312D01*
X431095Y221943D01*
X426905Y221943D01*
X423943Y224905D01*
X423943Y229095D01*
X426905Y232057D01*
X431095Y232057D01*
X433463Y229688D01*
X433475Y229679D01*
X433484Y229668D01*
X433582Y229600D01*
X433678Y229529D01*
X433692Y229524D01*
X433704Y229516D01*
X433818Y229480D01*
X433931Y229441D01*
X433945Y229440D01*
X433959Y229436D01*
X434099Y229425D01*
X464204Y229425D01*
X466041Y227588D01*
X466053Y227579D01*
X466062Y227568D01*
X466160Y227500D01*
X466256Y227429D01*
X466270Y227424D01*
X466282Y227416D01*
X466396Y227380D01*
X466508Y227341D01*
X466523Y227340D01*
X466537Y227336D01*
X466677Y227325D01*
X479032Y227325D01*
X479925Y226432D01*
X479925Y212168D01*
X479032Y211275D01*
X462768Y211275D01*
G37*
%LPD*%
%LPC*%
G36*
X654409Y556671D02*
X654409Y556671D01*
X651447Y559633D01*
X651447Y563823D01*
X654409Y566785D01*
X657759Y566785D01*
X657774Y566787D01*
X657788Y566785D01*
X657906Y566807D01*
X658024Y566825D01*
X658037Y566831D01*
X658051Y566833D01*
X658157Y566889D01*
X658265Y566940D01*
X658275Y566950D01*
X658288Y566957D01*
X658395Y567048D01*
X658788Y567441D01*
X658797Y567453D01*
X658808Y567462D01*
X658876Y567560D01*
X658947Y567656D01*
X658952Y567670D01*
X658960Y567682D01*
X658996Y567796D01*
X659035Y567909D01*
X659036Y567923D01*
X659040Y567937D01*
X659051Y568077D01*
X659051Y575276D01*
X659037Y575374D01*
X659029Y575473D01*
X659017Y575506D01*
X659011Y575541D01*
X658969Y575630D01*
X658933Y575722D01*
X658911Y575750D01*
X658896Y575782D01*
X658828Y575854D01*
X658767Y575932D01*
X658738Y575952D01*
X658714Y575978D01*
X658628Y576028D01*
X658547Y576084D01*
X658513Y576095D01*
X658483Y576112D01*
X658386Y576135D01*
X658292Y576164D01*
X658240Y576168D01*
X658222Y576173D01*
X658204Y576171D01*
X658152Y576175D01*
X655168Y576175D01*
X654275Y577068D01*
X654275Y593332D01*
X655168Y594225D01*
X669432Y594225D01*
X670325Y593332D01*
X670325Y577068D01*
X669432Y576175D01*
X664800Y576175D01*
X664702Y576161D01*
X664603Y576153D01*
X664570Y576141D01*
X664535Y576135D01*
X664446Y576093D01*
X664354Y576057D01*
X664326Y576035D01*
X664294Y576020D01*
X664222Y575952D01*
X664144Y575891D01*
X664124Y575862D01*
X664098Y575838D01*
X664048Y575752D01*
X663992Y575671D01*
X663981Y575637D01*
X663964Y575607D01*
X663941Y575510D01*
X663912Y575416D01*
X663908Y575364D01*
X663903Y575346D01*
X663905Y575328D01*
X663901Y575276D01*
X663901Y565696D01*
X661824Y563619D01*
X661815Y563607D01*
X661804Y563598D01*
X661736Y563500D01*
X661665Y563404D01*
X661660Y563390D01*
X661652Y563378D01*
X661616Y563264D01*
X661577Y563151D01*
X661576Y563137D01*
X661572Y563123D01*
X661561Y562983D01*
X661561Y559633D01*
X658599Y556671D01*
X654409Y556671D01*
G37*
%LPD*%
%LPC*%
G36*
X702905Y299943D02*
X702905Y299943D01*
X699943Y302905D01*
X699943Y307095D01*
X702312Y309463D01*
X702321Y309475D01*
X702332Y309484D01*
X702400Y309582D01*
X702471Y309678D01*
X702476Y309692D01*
X702484Y309704D01*
X702520Y309818D01*
X702559Y309931D01*
X702560Y309945D01*
X702564Y309959D01*
X702575Y310099D01*
X702575Y322401D01*
X702573Y322416D01*
X702575Y322430D01*
X702553Y322548D01*
X702535Y322666D01*
X702529Y322679D01*
X702527Y322693D01*
X702471Y322799D01*
X702420Y322907D01*
X702410Y322917D01*
X702403Y322930D01*
X702312Y323037D01*
X696377Y328972D01*
X696331Y329006D01*
X696292Y329047D01*
X696224Y329085D01*
X696162Y329131D01*
X696108Y329150D01*
X696058Y329177D01*
X695983Y329194D01*
X695910Y329219D01*
X695853Y329222D01*
X695797Y329234D01*
X695720Y329227D01*
X695642Y329230D01*
X695587Y329215D01*
X695530Y329210D01*
X695397Y329167D01*
X694235Y328685D01*
X691165Y328685D01*
X688330Y329860D01*
X686160Y332030D01*
X684985Y334865D01*
X684985Y337935D01*
X686160Y340770D01*
X688330Y342940D01*
X691165Y344115D01*
X694235Y344115D01*
X697070Y342940D01*
X699240Y340770D01*
X700415Y337935D01*
X700415Y334865D01*
X699745Y333248D01*
X699731Y333192D01*
X699708Y333140D01*
X699699Y333063D01*
X699680Y332988D01*
X699683Y332931D01*
X699677Y332875D01*
X699691Y332798D01*
X699695Y332721D01*
X699715Y332668D01*
X699725Y332611D01*
X699761Y332543D01*
X699787Y332470D01*
X699822Y332425D01*
X699848Y332374D01*
X699939Y332268D01*
X707425Y324782D01*
X707425Y310099D01*
X707427Y310085D01*
X707425Y310070D01*
X707447Y309953D01*
X707465Y309835D01*
X707471Y309821D01*
X707473Y309807D01*
X707529Y309701D01*
X707580Y309593D01*
X707590Y309583D01*
X707597Y309570D01*
X707688Y309463D01*
X710057Y307095D01*
X710057Y302905D01*
X707095Y299943D01*
X702905Y299943D01*
G37*
%LPD*%
%LPC*%
G36*
X38699Y580399D02*
X38699Y580399D01*
X38699Y602167D01*
X40863Y601924D01*
X43449Y601333D01*
X45954Y600457D01*
X48344Y599306D01*
X50590Y597894D01*
X52664Y596241D01*
X54541Y594364D01*
X56194Y592290D01*
X57606Y590044D01*
X58757Y587654D01*
X59633Y585149D01*
X60224Y582563D01*
X60467Y580399D01*
X38699Y580399D01*
G37*
%LPD*%
%LPC*%
G36*
X759499Y959399D02*
X759499Y959399D01*
X759499Y981167D01*
X761663Y980924D01*
X764249Y980333D01*
X766754Y979457D01*
X769144Y978306D01*
X771390Y976894D01*
X773464Y975241D01*
X775341Y973364D01*
X776994Y971290D01*
X778406Y969044D01*
X779557Y966654D01*
X780433Y964149D01*
X781024Y961563D01*
X781267Y959399D01*
X759499Y959399D01*
G37*
%LPD*%
%LPC*%
G36*
X734133Y959399D02*
X734133Y959399D01*
X734376Y961563D01*
X734967Y964149D01*
X735843Y966654D01*
X736994Y969044D01*
X738406Y971290D01*
X738809Y971796D01*
X739526Y972695D01*
X739526Y972696D01*
X740059Y973364D01*
X741936Y975241D01*
X744010Y976894D01*
X746256Y978306D01*
X748646Y979457D01*
X751151Y980333D01*
X753737Y980924D01*
X755901Y981167D01*
X755901Y959399D01*
X734133Y959399D01*
G37*
%LPD*%
%LPC*%
G36*
X759499Y955801D02*
X759499Y955801D01*
X781267Y955801D01*
X781024Y953637D01*
X780433Y951051D01*
X779557Y948546D01*
X778406Y946156D01*
X776994Y943910D01*
X776464Y943245D01*
X775747Y942346D01*
X775341Y941836D01*
X773464Y939959D01*
X771390Y938306D01*
X769144Y936894D01*
X766754Y935743D01*
X764249Y934867D01*
X761663Y934276D01*
X759499Y934033D01*
X759499Y955801D01*
G37*
%LPD*%
%LPC*%
G36*
X13333Y580399D02*
X13333Y580399D01*
X13576Y582563D01*
X14167Y585149D01*
X15043Y587654D01*
X16194Y590044D01*
X17606Y592290D01*
X17623Y592312D01*
X17623Y592313D01*
X17624Y592313D01*
X18340Y593212D01*
X18341Y593212D01*
X19058Y594111D01*
X19259Y594364D01*
X21136Y596241D01*
X23210Y597894D01*
X25456Y599306D01*
X27846Y600457D01*
X30351Y601333D01*
X32937Y601924D01*
X35101Y602167D01*
X35101Y580399D01*
X13333Y580399D01*
G37*
%LPD*%
%LPC*%
G36*
X38699Y576801D02*
X38699Y576801D01*
X60467Y576801D01*
X60224Y574637D01*
X59633Y572051D01*
X58757Y569546D01*
X57606Y567156D01*
X56194Y564910D01*
X55996Y564661D01*
X55279Y563762D01*
X55279Y563761D01*
X54562Y562862D01*
X54541Y562836D01*
X52664Y560959D01*
X50590Y559306D01*
X48344Y557894D01*
X45954Y556743D01*
X43449Y555867D01*
X40863Y555276D01*
X38699Y555033D01*
X38699Y576801D01*
G37*
%LPD*%
%LPC*%
G36*
X32937Y555276D02*
X32937Y555276D01*
X30351Y555867D01*
X27846Y556743D01*
X25456Y557894D01*
X23210Y559306D01*
X21136Y560959D01*
X19259Y562836D01*
X17606Y564910D01*
X16194Y567156D01*
X15043Y569546D01*
X14167Y572051D01*
X13576Y574637D01*
X13333Y576801D01*
X35101Y576801D01*
X35101Y555033D01*
X32937Y555276D01*
G37*
%LPD*%
%LPC*%
G36*
X753737Y934276D02*
X753737Y934276D01*
X751151Y934867D01*
X748646Y935743D01*
X746256Y936894D01*
X744010Y938306D01*
X741936Y939959D01*
X740059Y941836D01*
X738406Y943910D01*
X736994Y946156D01*
X735843Y948546D01*
X734967Y951051D01*
X734376Y953637D01*
X734133Y955801D01*
X755901Y955801D01*
X755901Y934033D01*
X753737Y934276D01*
G37*
%LPD*%
%LPC*%
G36*
X471351Y685300D02*
X471351Y685300D01*
X467566Y686868D01*
X464668Y689766D01*
X463100Y693551D01*
X463100Y697649D01*
X464668Y701434D01*
X467566Y704332D01*
X471351Y705900D01*
X475449Y705900D01*
X479234Y704332D01*
X482132Y701434D01*
X483700Y697649D01*
X483700Y693551D01*
X482132Y689766D01*
X479234Y686868D01*
X475449Y685300D01*
X471351Y685300D01*
G37*
%LPD*%
%LPC*%
G36*
X123851Y686600D02*
X123851Y686600D01*
X120066Y688168D01*
X117168Y691066D01*
X115600Y694851D01*
X115600Y698949D01*
X117168Y702734D01*
X120066Y705632D01*
X123851Y707200D01*
X127949Y707200D01*
X131734Y705632D01*
X134632Y702734D01*
X136200Y698949D01*
X136200Y694851D01*
X134632Y691066D01*
X131734Y688168D01*
X127949Y686600D01*
X123851Y686600D01*
G37*
%LPD*%
%LPC*%
G36*
X397905Y554943D02*
X397905Y554943D01*
X395537Y557312D01*
X395525Y557321D01*
X395516Y557332D01*
X395418Y557400D01*
X395322Y557471D01*
X395308Y557476D01*
X395296Y557484D01*
X395182Y557520D01*
X395069Y557559D01*
X395055Y557560D01*
X395041Y557564D01*
X394901Y557575D01*
X373874Y557575D01*
X373776Y557561D01*
X373677Y557553D01*
X373644Y557541D01*
X373609Y557535D01*
X373520Y557493D01*
X373428Y557457D01*
X373400Y557435D01*
X373368Y557420D01*
X373296Y557352D01*
X373218Y557291D01*
X373198Y557262D01*
X373172Y557238D01*
X373122Y557152D01*
X373066Y557071D01*
X373061Y557055D01*
X372082Y556075D01*
X362318Y556075D01*
X361425Y556968D01*
X361425Y564232D01*
X362318Y565125D01*
X372082Y565125D01*
X372975Y564232D01*
X372975Y563324D01*
X372989Y563226D01*
X372997Y563127D01*
X373009Y563094D01*
X373015Y563059D01*
X373057Y562970D01*
X373093Y562878D01*
X373115Y562850D01*
X373130Y562818D01*
X373198Y562746D01*
X373259Y562668D01*
X373288Y562648D01*
X373312Y562622D01*
X373398Y562572D01*
X373479Y562516D01*
X373513Y562505D01*
X373543Y562488D01*
X373640Y562465D01*
X373734Y562436D01*
X373786Y562432D01*
X373804Y562427D01*
X373822Y562429D01*
X373874Y562425D01*
X394901Y562425D01*
X394915Y562427D01*
X394930Y562425D01*
X395047Y562447D01*
X395165Y562465D01*
X395179Y562471D01*
X395193Y562473D01*
X395299Y562529D01*
X395407Y562580D01*
X395417Y562590D01*
X395430Y562597D01*
X395537Y562688D01*
X397905Y565057D01*
X402095Y565057D01*
X405057Y562095D01*
X405057Y557905D01*
X402095Y554943D01*
X397905Y554943D01*
G37*
%LPD*%
%LPC*%
G36*
X392905Y534943D02*
X392905Y534943D01*
X389943Y537905D01*
X389943Y542095D01*
X392905Y545057D01*
X397095Y545057D01*
X399463Y542688D01*
X399475Y542679D01*
X399484Y542668D01*
X399582Y542600D01*
X399678Y542529D01*
X399692Y542524D01*
X399704Y542516D01*
X399818Y542480D01*
X399931Y542441D01*
X399945Y542440D01*
X399959Y542436D01*
X400099Y542425D01*
X420727Y542425D01*
X420741Y542427D01*
X420756Y542425D01*
X420873Y542447D01*
X420991Y542465D01*
X421005Y542471D01*
X421019Y542473D01*
X421125Y542529D01*
X421233Y542580D01*
X421243Y542590D01*
X421256Y542597D01*
X421363Y542688D01*
X423731Y545057D01*
X427921Y545057D01*
X430883Y542095D01*
X430883Y537905D01*
X427921Y534943D01*
X423731Y534943D01*
X421363Y537312D01*
X421351Y537321D01*
X421342Y537332D01*
X421244Y537400D01*
X421148Y537471D01*
X421134Y537476D01*
X421122Y537484D01*
X421008Y537520D01*
X420895Y537559D01*
X420881Y537560D01*
X420867Y537564D01*
X420727Y537575D01*
X400099Y537575D01*
X400085Y537573D01*
X400070Y537575D01*
X399953Y537553D01*
X399835Y537535D01*
X399821Y537529D01*
X399807Y537527D01*
X399701Y537471D01*
X399593Y537420D01*
X399583Y537410D01*
X399570Y537403D01*
X399463Y537312D01*
X397095Y534943D01*
X392905Y534943D01*
G37*
%LPD*%
%LPC*%
G36*
X928728Y568835D02*
X928728Y568835D01*
X927835Y569728D01*
X927835Y584072D01*
X928728Y584965D01*
X943072Y584965D01*
X943965Y584072D01*
X943965Y569728D01*
X943072Y568835D01*
X928728Y568835D01*
G37*
%LPD*%
%LPC*%
G36*
X1035228Y568235D02*
X1035228Y568235D01*
X1034335Y569128D01*
X1034335Y583472D01*
X1035228Y584365D01*
X1049572Y584365D01*
X1050465Y583472D01*
X1050465Y569128D01*
X1049572Y568235D01*
X1035228Y568235D01*
G37*
%LPD*%
%LPC*%
G36*
X684278Y234885D02*
X684278Y234885D01*
X683385Y235778D01*
X683385Y249422D01*
X684278Y250315D01*
X697922Y250315D01*
X698815Y249422D01*
X698815Y235778D01*
X697922Y234885D01*
X684278Y234885D01*
G37*
%LPD*%
%LPC*%
G36*
X1084296Y121635D02*
X1084296Y121635D01*
X1081148Y122939D01*
X1078739Y125348D01*
X1077435Y128496D01*
X1077435Y131904D01*
X1078739Y135052D01*
X1081148Y137461D01*
X1084296Y138765D01*
X1087704Y138765D01*
X1090852Y137461D01*
X1093261Y135052D01*
X1094565Y131904D01*
X1094565Y128496D01*
X1093261Y125348D01*
X1090852Y122939D01*
X1087704Y121635D01*
X1084296Y121635D01*
G37*
%LPD*%
%LPC*%
G36*
X1084296Y374135D02*
X1084296Y374135D01*
X1081148Y375439D01*
X1078739Y377848D01*
X1077435Y380996D01*
X1077435Y384404D01*
X1078739Y387552D01*
X1081148Y389961D01*
X1084296Y391265D01*
X1087704Y391265D01*
X1090852Y389961D01*
X1093261Y387552D01*
X1094565Y384404D01*
X1094565Y380996D01*
X1093261Y377848D01*
X1090852Y375439D01*
X1087704Y374135D01*
X1084296Y374135D01*
G37*
%LPD*%
%LPC*%
G36*
X874296Y374135D02*
X874296Y374135D01*
X871148Y375439D01*
X868739Y377848D01*
X867435Y380996D01*
X867435Y384404D01*
X868739Y387552D01*
X871148Y389961D01*
X874296Y391265D01*
X877704Y391265D01*
X880852Y389961D01*
X883261Y387552D01*
X884565Y384404D01*
X884565Y380996D01*
X883261Y377848D01*
X880852Y375439D01*
X877704Y374135D01*
X874296Y374135D01*
G37*
%LPD*%
%LPC*%
G36*
X874296Y84135D02*
X874296Y84135D01*
X871148Y85439D01*
X868739Y87848D01*
X867435Y90996D01*
X867435Y94404D01*
X868739Y97552D01*
X871148Y99961D01*
X874296Y101265D01*
X877704Y101265D01*
X880852Y99961D01*
X883261Y97552D01*
X884565Y94404D01*
X884565Y90996D01*
X883261Y87848D01*
X880852Y85439D01*
X877704Y84135D01*
X874296Y84135D01*
G37*
%LPD*%
%LPC*%
G36*
X1040796Y812235D02*
X1040796Y812235D01*
X1037832Y813463D01*
X1035563Y815732D01*
X1034335Y818696D01*
X1034335Y821904D01*
X1035563Y824868D01*
X1037832Y827137D01*
X1040796Y828365D01*
X1044004Y828365D01*
X1046968Y827137D01*
X1049237Y824868D01*
X1050465Y821904D01*
X1050465Y818696D01*
X1049237Y815732D01*
X1046968Y813463D01*
X1044004Y812235D01*
X1040796Y812235D01*
G37*
%LPD*%
%LPC*%
G36*
X768965Y158685D02*
X768965Y158685D01*
X766130Y159860D01*
X763960Y162030D01*
X762785Y164865D01*
X762785Y167935D01*
X763960Y170770D01*
X766130Y172940D01*
X768965Y174115D01*
X772035Y174115D01*
X774870Y172940D01*
X777040Y170770D01*
X778215Y167935D01*
X778215Y164865D01*
X777040Y162030D01*
X774870Y159860D01*
X772035Y158685D01*
X768965Y158685D01*
G37*
%LPD*%
%LPC*%
G36*
X689565Y158685D02*
X689565Y158685D01*
X686730Y159860D01*
X684560Y162030D01*
X683385Y164865D01*
X683385Y167935D01*
X684560Y170770D01*
X686730Y172940D01*
X689565Y174115D01*
X692635Y174115D01*
X695470Y172940D01*
X697640Y170770D01*
X698815Y167935D01*
X698815Y164865D01*
X697640Y162030D01*
X695470Y159860D01*
X692635Y158685D01*
X689565Y158685D01*
G37*
%LPD*%
%LPC*%
G36*
X689565Y184085D02*
X689565Y184085D01*
X686730Y185260D01*
X684560Y187430D01*
X683385Y190265D01*
X683385Y193335D01*
X684560Y196170D01*
X686730Y198340D01*
X689565Y199515D01*
X692635Y199515D01*
X695470Y198340D01*
X697640Y196170D01*
X698815Y193335D01*
X698815Y190265D01*
X697640Y187430D01*
X695470Y185260D01*
X692635Y184085D01*
X689565Y184085D01*
G37*
%LPD*%
%LPC*%
G36*
X770565Y404885D02*
X770565Y404885D01*
X767730Y406060D01*
X765560Y408230D01*
X764385Y411065D01*
X764385Y414135D01*
X765560Y416970D01*
X767730Y419140D01*
X770565Y420315D01*
X773635Y420315D01*
X776470Y419140D01*
X778640Y416970D01*
X779815Y414135D01*
X779815Y411065D01*
X778640Y408230D01*
X776470Y406060D01*
X773635Y404885D01*
X770565Y404885D01*
G37*
%LPD*%
%LPC*%
G36*
X768965Y209485D02*
X768965Y209485D01*
X766130Y210660D01*
X763960Y212830D01*
X762785Y215665D01*
X762785Y218735D01*
X763960Y221570D01*
X766130Y223740D01*
X768965Y224915D01*
X772035Y224915D01*
X774870Y223740D01*
X777040Y221570D01*
X778215Y218735D01*
X778215Y215665D01*
X777040Y212830D01*
X774870Y210660D01*
X772035Y209485D01*
X768965Y209485D01*
G37*
%LPD*%
%LPC*%
G36*
X768965Y234885D02*
X768965Y234885D01*
X766130Y236060D01*
X763960Y238230D01*
X762785Y241065D01*
X762785Y244135D01*
X763960Y246970D01*
X766130Y249140D01*
X768965Y250315D01*
X772035Y250315D01*
X774870Y249140D01*
X777040Y246970D01*
X778215Y244135D01*
X778215Y241065D01*
X777040Y238230D01*
X774870Y236060D01*
X772035Y234885D01*
X768965Y234885D01*
G37*
%LPD*%
%LPC*%
G36*
X770565Y328685D02*
X770565Y328685D01*
X767730Y329860D01*
X765560Y332030D01*
X764385Y334865D01*
X764385Y337935D01*
X765560Y340770D01*
X767730Y342940D01*
X770565Y344115D01*
X773635Y344115D01*
X776470Y342940D01*
X778640Y340770D01*
X779815Y337935D01*
X779815Y334865D01*
X778640Y332030D01*
X776470Y329860D01*
X773635Y328685D01*
X770565Y328685D01*
G37*
%LPD*%
%LPC*%
G36*
X603599Y30699D02*
X603599Y30699D01*
X603599Y46522D01*
X604179Y46431D01*
X605700Y45936D01*
X607125Y45210D01*
X608419Y44270D01*
X609550Y43139D01*
X610490Y41845D01*
X611216Y40420D01*
X611711Y38899D01*
X611961Y37320D01*
X611961Y30699D01*
X603599Y30699D01*
G37*
%LPD*%
%LPC*%
G36*
X373799Y451699D02*
X373799Y451699D01*
X373799Y460061D01*
X380420Y460061D01*
X381999Y459811D01*
X383520Y459316D01*
X384945Y458590D01*
X386239Y457650D01*
X387370Y456519D01*
X388310Y455225D01*
X389036Y453800D01*
X389531Y452279D01*
X389622Y451699D01*
X373799Y451699D01*
G37*
%LPD*%
%LPC*%
G36*
X354378Y451699D02*
X354378Y451699D01*
X354469Y452279D01*
X354964Y453800D01*
X355690Y455225D01*
X356630Y456519D01*
X357761Y457650D01*
X359055Y458590D01*
X360480Y459316D01*
X362001Y459811D01*
X363580Y460061D01*
X370201Y460061D01*
X370201Y451699D01*
X354378Y451699D01*
G37*
%LPD*%
%LPC*%
G36*
X373799Y439739D02*
X373799Y439739D01*
X373799Y448101D01*
X389622Y448101D01*
X389531Y447521D01*
X389036Y446000D01*
X388310Y444575D01*
X387370Y443281D01*
X386239Y442150D01*
X384945Y441210D01*
X383520Y440484D01*
X381999Y439989D01*
X380420Y439739D01*
X373799Y439739D01*
G37*
%LPD*%
%LPC*%
G36*
X591639Y30699D02*
X591639Y30699D01*
X591639Y37320D01*
X591889Y38899D01*
X592384Y40420D01*
X593110Y41845D01*
X594050Y43139D01*
X595181Y44270D01*
X596475Y45210D01*
X597900Y45936D01*
X599421Y46431D01*
X600001Y46522D01*
X600001Y30699D01*
X591639Y30699D01*
G37*
%LPD*%
%LPC*%
G36*
X363580Y439739D02*
X363580Y439739D01*
X362001Y439989D01*
X360480Y440484D01*
X359055Y441210D01*
X357761Y442150D01*
X356630Y443281D01*
X355690Y444575D01*
X354964Y446000D01*
X354469Y447521D01*
X354378Y448101D01*
X370201Y448101D01*
X370201Y439739D01*
X363580Y439739D01*
G37*
%LPD*%
%LPC*%
G36*
X623399Y266399D02*
X623399Y266399D01*
X623399Y277891D01*
X629685Y277891D01*
X630331Y277718D01*
X630910Y277383D01*
X631383Y276910D01*
X631718Y276331D01*
X631891Y275685D01*
X631891Y266399D01*
X623399Y266399D01*
G37*
%LPD*%
%LPC*%
G36*
X611309Y266399D02*
X611309Y266399D01*
X611309Y275685D01*
X611482Y276331D01*
X611817Y276910D01*
X612290Y277383D01*
X612869Y277718D01*
X613515Y277891D01*
X619801Y277891D01*
X619801Y266399D01*
X611309Y266399D01*
G37*
%LPD*%
%LPC*%
G36*
X623399Y251309D02*
X623399Y251309D01*
X623399Y262801D01*
X631891Y262801D01*
X631891Y253515D01*
X631718Y252869D01*
X631383Y252290D01*
X630910Y251817D01*
X630331Y251482D01*
X629685Y251309D01*
X623399Y251309D01*
G37*
%LPD*%
%LPC*%
G36*
X613515Y251309D02*
X613515Y251309D01*
X612869Y251482D01*
X612290Y251817D01*
X611817Y252290D01*
X611482Y252869D01*
X611309Y253515D01*
X611309Y262801D01*
X619801Y262801D01*
X619801Y251309D01*
X613515Y251309D01*
G37*
%LPD*%
%LPC*%
G36*
X460799Y467299D02*
X460799Y467299D01*
X460799Y474541D01*
X466835Y474541D01*
X467481Y474368D01*
X468060Y474033D01*
X468533Y473560D01*
X468868Y472981D01*
X469041Y472335D01*
X469041Y467299D01*
X460799Y467299D01*
G37*
%LPD*%
%LPC*%
G36*
X567599Y511999D02*
X567599Y511999D01*
X567599Y520241D01*
X572635Y520241D01*
X573281Y520068D01*
X573860Y519733D01*
X574333Y519260D01*
X574668Y518681D01*
X574841Y518035D01*
X574841Y511999D01*
X567599Y511999D01*
G37*
%LPD*%
%LPC*%
G36*
X738599Y496999D02*
X738599Y496999D01*
X738599Y505241D01*
X743635Y505241D01*
X744281Y505068D01*
X744860Y504733D01*
X745333Y504260D01*
X745668Y503681D01*
X745841Y503035D01*
X745841Y496999D01*
X738599Y496999D01*
G37*
%LPD*%
%LPC*%
G36*
X568099Y586999D02*
X568099Y586999D01*
X568099Y595241D01*
X573135Y595241D01*
X573781Y595068D01*
X574360Y594733D01*
X574833Y594260D01*
X575168Y593681D01*
X575341Y593035D01*
X575341Y586999D01*
X568099Y586999D01*
G37*
%LPD*%
%LPC*%
G36*
X537599Y433099D02*
X537599Y433099D01*
X537599Y440341D01*
X543635Y440341D01*
X544281Y440168D01*
X544860Y439833D01*
X545333Y439360D01*
X545668Y438781D01*
X545841Y438135D01*
X545841Y433099D01*
X537599Y433099D01*
G37*
%LPD*%
%LPC*%
G36*
X606599Y430099D02*
X606599Y430099D01*
X606599Y437341D01*
X612635Y437341D01*
X613281Y437168D01*
X613860Y436833D01*
X614333Y436360D01*
X614668Y435781D01*
X614841Y435135D01*
X614841Y430099D01*
X606599Y430099D01*
G37*
%LPD*%
%LPC*%
G36*
X772859Y575899D02*
X772859Y575899D01*
X772859Y581935D01*
X773032Y582581D01*
X773367Y583160D01*
X773840Y583633D01*
X774419Y583968D01*
X775065Y584141D01*
X780101Y584141D01*
X780101Y575899D01*
X772859Y575899D01*
G37*
%LPD*%
%LPC*%
G36*
X727759Y496999D02*
X727759Y496999D01*
X727759Y503035D01*
X727932Y503681D01*
X728267Y504260D01*
X728740Y504733D01*
X729319Y505068D01*
X729965Y505241D01*
X735001Y505241D01*
X735001Y496999D01*
X727759Y496999D01*
G37*
%LPD*%
%LPC*%
G36*
X556759Y511999D02*
X556759Y511999D01*
X556759Y518035D01*
X556932Y518681D01*
X557267Y519260D01*
X557740Y519733D01*
X558319Y520068D01*
X558965Y520241D01*
X564001Y520241D01*
X564001Y511999D01*
X556759Y511999D01*
G37*
%LPD*%
%LPC*%
G36*
X557259Y586999D02*
X557259Y586999D01*
X557259Y593035D01*
X557432Y593681D01*
X557767Y594260D01*
X558240Y594733D01*
X558819Y595068D01*
X559465Y595241D01*
X564501Y595241D01*
X564501Y586999D01*
X557259Y586999D01*
G37*
%LPD*%
%LPC*%
G36*
X567599Y500159D02*
X567599Y500159D01*
X567599Y508401D01*
X574841Y508401D01*
X574841Y502365D01*
X574668Y501719D01*
X574333Y501140D01*
X573860Y500667D01*
X573281Y500332D01*
X572635Y500159D01*
X567599Y500159D01*
G37*
%LPD*%
%LPC*%
G36*
X594759Y430099D02*
X594759Y430099D01*
X594759Y435135D01*
X594932Y435781D01*
X595267Y436360D01*
X595740Y436833D01*
X596319Y437168D01*
X596965Y437341D01*
X603001Y437341D01*
X603001Y430099D01*
X594759Y430099D01*
G37*
%LPD*%
%LPC*%
G36*
X525759Y433099D02*
X525759Y433099D01*
X525759Y438135D01*
X525932Y438781D01*
X526267Y439360D01*
X526740Y439833D01*
X527319Y440168D01*
X527965Y440341D01*
X534001Y440341D01*
X534001Y433099D01*
X525759Y433099D01*
G37*
%LPD*%
%LPC*%
G36*
X568099Y575159D02*
X568099Y575159D01*
X568099Y583401D01*
X575341Y583401D01*
X575341Y577365D01*
X575168Y576719D01*
X574833Y576140D01*
X574360Y575667D01*
X573781Y575332D01*
X573135Y575159D01*
X568099Y575159D01*
G37*
%LPD*%
%LPC*%
G36*
X649759Y481599D02*
X649759Y481599D01*
X649759Y486635D01*
X649932Y487281D01*
X650267Y487860D01*
X650740Y488333D01*
X651319Y488668D01*
X651965Y488841D01*
X658001Y488841D01*
X658001Y481599D01*
X649759Y481599D01*
G37*
%LPD*%
%LPC*%
G36*
X448959Y467299D02*
X448959Y467299D01*
X448959Y472335D01*
X449132Y472981D01*
X449467Y473560D01*
X449940Y474033D01*
X450519Y474368D01*
X451165Y474541D01*
X457201Y474541D01*
X457201Y467299D01*
X448959Y467299D01*
G37*
%LPD*%
%LPC*%
G36*
X661599Y470759D02*
X661599Y470759D01*
X661599Y478001D01*
X669841Y478001D01*
X669841Y472965D01*
X669668Y472319D01*
X669333Y471740D01*
X668860Y471267D01*
X668281Y470932D01*
X667635Y470759D01*
X661599Y470759D01*
G37*
%LPD*%
%LPC*%
G36*
X606599Y419259D02*
X606599Y419259D01*
X606599Y426501D01*
X614841Y426501D01*
X614841Y421465D01*
X614668Y420819D01*
X614333Y420240D01*
X613860Y419767D01*
X613281Y419432D01*
X612635Y419259D01*
X606599Y419259D01*
G37*
%LPD*%
%LPC*%
G36*
X460799Y456459D02*
X460799Y456459D01*
X460799Y463701D01*
X469041Y463701D01*
X469041Y458665D01*
X468868Y458019D01*
X468533Y457440D01*
X468060Y456967D01*
X467481Y456632D01*
X466835Y456459D01*
X460799Y456459D01*
G37*
%LPD*%
%LPC*%
G36*
X537599Y422259D02*
X537599Y422259D01*
X537599Y429501D01*
X545841Y429501D01*
X545841Y424465D01*
X545668Y423819D01*
X545333Y423240D01*
X544860Y422767D01*
X544281Y422432D01*
X543635Y422259D01*
X537599Y422259D01*
G37*
%LPD*%
%LPC*%
G36*
X651965Y470759D02*
X651965Y470759D01*
X651319Y470932D01*
X650740Y471267D01*
X650267Y471740D01*
X649932Y472319D01*
X649759Y472965D01*
X649759Y478001D01*
X658001Y478001D01*
X658001Y470759D01*
X651965Y470759D01*
G37*
%LPD*%
%LPC*%
G36*
X451165Y456459D02*
X451165Y456459D01*
X450519Y456632D01*
X449940Y456967D01*
X449467Y457440D01*
X449132Y458019D01*
X448959Y458665D01*
X448959Y463701D01*
X457201Y463701D01*
X457201Y456459D01*
X451165Y456459D01*
G37*
%LPD*%
%LPC*%
G36*
X596965Y419259D02*
X596965Y419259D01*
X596319Y419432D01*
X595740Y419767D01*
X595267Y420240D01*
X594932Y420819D01*
X594759Y421465D01*
X594759Y426501D01*
X603001Y426501D01*
X603001Y419259D01*
X596965Y419259D01*
G37*
%LPD*%
%LPC*%
G36*
X527965Y422259D02*
X527965Y422259D01*
X527319Y422432D01*
X526740Y422767D01*
X526267Y423240D01*
X525932Y423819D01*
X525759Y424465D01*
X525759Y429501D01*
X534001Y429501D01*
X534001Y422259D01*
X527965Y422259D01*
G37*
%LPD*%
%LPC*%
G36*
X558965Y500159D02*
X558965Y500159D01*
X558319Y500332D01*
X557740Y500667D01*
X557267Y501140D01*
X556932Y501719D01*
X556759Y502365D01*
X556759Y508401D01*
X564001Y508401D01*
X564001Y500159D01*
X558965Y500159D01*
G37*
%LPD*%
%LPC*%
G36*
X559465Y575159D02*
X559465Y575159D01*
X558819Y575332D01*
X558240Y575667D01*
X557767Y576140D01*
X557432Y576719D01*
X557259Y577365D01*
X557259Y583401D01*
X564501Y583401D01*
X564501Y575159D01*
X559465Y575159D01*
G37*
%LPD*%
%LPC*%
G36*
X775065Y564059D02*
X775065Y564059D01*
X774419Y564232D01*
X773840Y564567D01*
X773367Y565040D01*
X773032Y565619D01*
X772859Y566265D01*
X772859Y572301D01*
X780101Y572301D01*
X780101Y564059D01*
X775065Y564059D01*
G37*
%LPD*%
%LPC*%
G36*
X729965Y485159D02*
X729965Y485159D01*
X729319Y485332D01*
X728740Y485667D01*
X728267Y486140D01*
X727932Y486719D01*
X727759Y487365D01*
X727759Y493401D01*
X735001Y493401D01*
X735001Y485159D01*
X729965Y485159D01*
G37*
%LPD*%
%LPC*%
G36*
X877799Y346999D02*
X877799Y346999D01*
X877799Y354615D01*
X878243Y354545D01*
X879678Y354079D01*
X881022Y353394D01*
X882241Y352508D01*
X883308Y351441D01*
X884194Y350222D01*
X884879Y348878D01*
X885345Y347443D01*
X885415Y346999D01*
X877799Y346999D01*
G37*
%LPD*%
%LPC*%
G36*
X866585Y346999D02*
X866585Y346999D01*
X866655Y347444D01*
X867121Y348878D01*
X867806Y350222D01*
X868692Y351441D01*
X869759Y352508D01*
X870978Y353394D01*
X872322Y354079D01*
X873757Y354545D01*
X874201Y354615D01*
X874201Y346999D01*
X866585Y346999D01*
G37*
%LPD*%
%LPC*%
G36*
X877799Y343401D02*
X877799Y343401D01*
X885415Y343401D01*
X885345Y342957D01*
X884879Y341522D01*
X884194Y340178D01*
X883308Y338959D01*
X882241Y337892D01*
X881022Y337006D01*
X879678Y336321D01*
X878244Y335855D01*
X877799Y335785D01*
X877799Y343401D01*
G37*
%LPD*%
%LPC*%
G36*
X873756Y335855D02*
X873756Y335855D01*
X872322Y336321D01*
X870978Y337006D01*
X869759Y337892D01*
X868692Y338959D01*
X867806Y340178D01*
X867121Y341522D01*
X866655Y342956D01*
X866585Y343401D01*
X874201Y343401D01*
X874201Y335785D01*
X873756Y335855D01*
G37*
%LPD*%
%LPC*%
G36*
X812399Y712699D02*
X812399Y712699D01*
X812399Y719775D01*
X813242Y719608D01*
X814889Y718925D01*
X816373Y717934D01*
X817634Y716673D01*
X818625Y715189D01*
X819308Y713542D01*
X819475Y712699D01*
X812399Y712699D01*
G37*
%LPD*%
%LPC*%
G36*
X812399Y788899D02*
X812399Y788899D01*
X812399Y795975D01*
X813242Y795808D01*
X814889Y795125D01*
X816373Y794134D01*
X817634Y792873D01*
X818625Y791389D01*
X819308Y789742D01*
X819475Y788899D01*
X812399Y788899D01*
G37*
%LPD*%
%LPC*%
G36*
X801725Y712699D02*
X801725Y712699D01*
X801892Y713542D01*
X802575Y715189D01*
X803566Y716673D01*
X804827Y717934D01*
X806311Y718925D01*
X807958Y719608D01*
X808801Y719775D01*
X808801Y712699D01*
X801725Y712699D01*
G37*
%LPD*%
%LPC*%
G36*
X801725Y788899D02*
X801725Y788899D01*
X801892Y789742D01*
X802575Y791389D01*
X803566Y792873D01*
X804827Y794134D01*
X806311Y795125D01*
X807958Y795808D01*
X808801Y795975D01*
X808801Y788899D01*
X801725Y788899D01*
G37*
%LPD*%
%LPC*%
G36*
X812399Y785301D02*
X812399Y785301D01*
X819475Y785301D01*
X819308Y784458D01*
X818625Y782811D01*
X817634Y781327D01*
X816373Y780066D01*
X814889Y779075D01*
X813242Y778392D01*
X812399Y778225D01*
X812399Y785301D01*
G37*
%LPD*%
%LPC*%
G36*
X812399Y709101D02*
X812399Y709101D01*
X819475Y709101D01*
X819308Y708258D01*
X818625Y706611D01*
X817634Y705127D01*
X816373Y703866D01*
X814889Y702875D01*
X813242Y702192D01*
X812399Y702025D01*
X812399Y709101D01*
G37*
%LPD*%
%LPC*%
G36*
X807958Y702192D02*
X807958Y702192D01*
X806311Y702875D01*
X804827Y703866D01*
X803566Y705127D01*
X802575Y706611D01*
X801892Y708258D01*
X801725Y709101D01*
X808801Y709101D01*
X808801Y702025D01*
X807958Y702192D01*
G37*
%LPD*%
%LPC*%
G36*
X807958Y778392D02*
X807958Y778392D01*
X806311Y779075D01*
X804827Y780066D01*
X803566Y781327D01*
X802575Y782811D01*
X801892Y784458D01*
X801725Y785301D01*
X808801Y785301D01*
X808801Y778225D01*
X807958Y778392D01*
G37*
%LPD*%
%LPC*%
G36*
X527199Y327599D02*
X527199Y327599D01*
X527199Y331641D01*
X530285Y331641D01*
X530931Y331468D01*
X531510Y331133D01*
X531983Y330660D01*
X532318Y330081D01*
X532491Y329435D01*
X532491Y327599D01*
X527199Y327599D01*
G37*
%LPD*%
%LPC*%
G36*
X368699Y581099D02*
X368699Y581099D01*
X368699Y585141D01*
X371785Y585141D01*
X372431Y584968D01*
X373010Y584633D01*
X373483Y584160D01*
X373818Y583581D01*
X373991Y582935D01*
X373991Y581099D01*
X368699Y581099D01*
G37*
%LPD*%
%LPC*%
G36*
X518909Y327599D02*
X518909Y327599D01*
X518909Y329435D01*
X519082Y330081D01*
X519417Y330660D01*
X519890Y331133D01*
X520469Y331468D01*
X521115Y331641D01*
X524201Y331641D01*
X524201Y327599D01*
X518909Y327599D01*
G37*
%LPD*%
%LPC*%
G36*
X368699Y574059D02*
X368699Y574059D01*
X368699Y578101D01*
X373991Y578101D01*
X373991Y576265D01*
X373818Y575619D01*
X373483Y575040D01*
X373010Y574567D01*
X372431Y574232D01*
X371785Y574059D01*
X368699Y574059D01*
G37*
%LPD*%
%LPC*%
G36*
X362615Y574059D02*
X362615Y574059D01*
X361969Y574232D01*
X361390Y574567D01*
X360917Y575040D01*
X360582Y575619D01*
X360409Y576265D01*
X360409Y578101D01*
X365701Y578101D01*
X365701Y574059D01*
X362615Y574059D01*
G37*
%LPD*%
%LPC*%
G36*
X371999Y449899D02*
X371999Y449899D01*
X371999Y449901D01*
X372001Y449901D01*
X372001Y449899D01*
X371999Y449899D01*
G37*
%LPD*%
%LPC*%
G36*
X757699Y957599D02*
X757699Y957599D01*
X757699Y957601D01*
X757701Y957601D01*
X757701Y957599D01*
X757699Y957599D01*
G37*
%LPD*%
%LPC*%
G36*
X810599Y710899D02*
X810599Y710899D01*
X810599Y710901D01*
X810601Y710901D01*
X810601Y710899D01*
X810599Y710899D01*
G37*
%LPD*%
%LPC*%
G36*
X810599Y787099D02*
X810599Y787099D01*
X810599Y787101D01*
X810601Y787101D01*
X810601Y787099D01*
X810599Y787099D01*
G37*
%LPD*%
%LPC*%
G36*
X36899Y578599D02*
X36899Y578599D01*
X36899Y578601D01*
X36901Y578601D01*
X36901Y578599D01*
X36899Y578599D01*
G37*
%LPD*%
%LPC*%
G36*
X875999Y345199D02*
X875999Y345199D01*
X875999Y345201D01*
X876001Y345201D01*
X876001Y345199D01*
X875999Y345199D01*
G37*
%LPD*%
%LPC*%
G36*
X458999Y465499D02*
X458999Y465499D01*
X458999Y465501D01*
X459001Y465501D01*
X459001Y465499D01*
X458999Y465499D01*
G37*
%LPD*%
%LPC*%
G36*
X659799Y479799D02*
X659799Y479799D01*
X659799Y479801D01*
X659801Y479801D01*
X659801Y479799D01*
X659799Y479799D01*
G37*
%LPD*%
%LPC*%
G36*
X604799Y428299D02*
X604799Y428299D01*
X604799Y428301D01*
X604801Y428301D01*
X604801Y428299D01*
X604799Y428299D01*
G37*
%LPD*%
%LPC*%
G36*
X565799Y510199D02*
X565799Y510199D01*
X565799Y510201D01*
X565801Y510201D01*
X565801Y510199D01*
X565799Y510199D01*
G37*
%LPD*%
%LPC*%
G36*
X535799Y431299D02*
X535799Y431299D01*
X535799Y431301D01*
X535801Y431301D01*
X535801Y431299D01*
X535799Y431299D01*
G37*
%LPD*%
%LPC*%
G36*
X736799Y495199D02*
X736799Y495199D01*
X736799Y495201D01*
X736801Y495201D01*
X736801Y495199D01*
X736799Y495199D01*
G37*
%LPD*%
%LPC*%
G36*
X566299Y585199D02*
X566299Y585199D01*
X566299Y585201D01*
X566301Y585201D01*
X566301Y585199D01*
X566299Y585199D01*
G37*
%LPD*%
%LPC*%
G36*
X621599Y264599D02*
X621599Y264599D01*
X621599Y264601D01*
X621601Y264601D01*
X621601Y264599D01*
X621599Y264599D01*
G37*
%LPD*%
D10*
X566300Y585200D03*
X585300Y585200D03*
X736800Y495200D03*
X755800Y495200D03*
D11*
X535800Y412300D03*
X535800Y431300D03*
D12*
X621600Y264600D03*
X621600Y319600D03*
D13*
X447100Y574400D03*
X453600Y574400D03*
X460100Y574400D03*
X447100Y592400D03*
X453600Y592400D03*
X460100Y592400D03*
D14*
X935900Y576900D03*
D15*
X935900Y820900D03*
D14*
X1042400Y576300D03*
D15*
X1042400Y820300D03*
D16*
X551000Y36520D02*
X551000Y21280D01*
X576400Y21280D02*
X576400Y36520D01*
X601800Y36520D02*
X601800Y21280D01*
X627200Y21280D02*
X627200Y36520D01*
D17*
X692700Y412600D03*
D18*
X692700Y387200D03*
X692700Y361800D03*
X692700Y336400D03*
X772100Y336400D03*
X772100Y361800D03*
X772100Y387200D03*
X772100Y412600D03*
D17*
X691100Y242600D03*
D18*
X691100Y217200D03*
X691100Y191800D03*
X691100Y166400D03*
X770500Y166400D03*
X770500Y191800D03*
X770500Y217200D03*
X770500Y242600D03*
D19*
X988100Y946000D03*
D20*
X962700Y946000D03*
D19*
X862000Y946000D03*
D20*
X836600Y946000D03*
D16*
X47720Y463500D02*
X32480Y463500D01*
X32480Y488900D02*
X47720Y488900D01*
D21*
X575000Y695600D03*
X473400Y695600D03*
D22*
X435300Y822600D03*
D23*
X613100Y848000D03*
X613100Y924200D03*
D21*
X227500Y696900D03*
X125900Y696900D03*
D22*
X87800Y823900D03*
D23*
X265600Y849300D03*
X265600Y925500D03*
D24*
X1086000Y130200D03*
X1086000Y382700D03*
X876000Y382700D03*
X876000Y345200D03*
X876000Y307700D03*
X876000Y167700D03*
X876000Y92700D03*
D25*
X810600Y812500D03*
D26*
X810600Y787100D03*
X810600Y736300D03*
X810600Y710900D03*
X810600Y685500D03*
D27*
X367200Y560600D03*
X367200Y579600D03*
X342200Y570100D03*
X525700Y307100D03*
X525700Y326100D03*
X500700Y316600D03*
D11*
X604800Y409300D03*
X604800Y428300D03*
X470900Y130400D03*
X470900Y149400D03*
D10*
X781900Y574100D03*
X800900Y574100D03*
D11*
X470900Y200300D03*
X470900Y219300D03*
D10*
X643300Y585200D03*
X662300Y585200D03*
D11*
X659800Y479800D03*
X659800Y498800D03*
D10*
X709500Y574100D03*
X728500Y574100D03*
X565800Y510200D03*
X584800Y510200D03*
X871100Y484100D03*
X890100Y484100D03*
D28*
X757700Y957600D03*
X36900Y578600D03*
D16*
X364380Y449900D02*
X379620Y449900D01*
X379620Y424500D02*
X364380Y424500D01*
X364380Y399100D02*
X379620Y399100D01*
X379620Y373700D02*
X364380Y373700D01*
X364380Y348300D02*
X379620Y348300D01*
X379620Y322900D02*
X364380Y322900D01*
X364380Y297500D02*
X379620Y297500D01*
X379620Y272100D02*
X364380Y272100D01*
X364380Y246700D02*
X379620Y246700D01*
X379620Y221300D02*
X364380Y221300D01*
X364380Y195900D02*
X379620Y195900D01*
X379620Y170500D02*
X364380Y170500D01*
X364380Y145100D02*
X379620Y145100D01*
X379620Y119700D02*
X364380Y119700D01*
X364380Y94300D02*
X379620Y94300D01*
X379620Y68900D02*
X364380Y68900D01*
X364380Y43500D02*
X379620Y43500D01*
X379620Y18100D02*
X364380Y18100D01*
X124620Y449900D02*
X109380Y449900D01*
X109380Y424500D02*
X124620Y424500D01*
X124620Y399100D02*
X109380Y399100D01*
X109380Y373700D02*
X124620Y373700D01*
X124620Y348300D02*
X109380Y348300D01*
X109380Y322900D02*
X124620Y322900D01*
X124620Y297500D02*
X109380Y297500D01*
X109380Y272100D02*
X124620Y272100D01*
X124620Y246700D02*
X109380Y246700D01*
X109380Y221300D02*
X124620Y221300D01*
X124620Y195900D02*
X109380Y195900D01*
X109380Y170500D02*
X124620Y170500D01*
X124620Y145100D02*
X109380Y145100D01*
X109380Y119700D02*
X124620Y119700D01*
X124620Y94300D02*
X109380Y94300D01*
X109380Y68900D02*
X124620Y68900D01*
X124620Y43500D02*
X109380Y43500D01*
X109380Y18100D02*
X124620Y18100D01*
D11*
X459000Y484500D03*
X459000Y465500D03*
D29*
X875874Y307470D02*
X875874Y231018D01*
X875874Y307470D02*
X876000Y307700D01*
X673756Y28900D02*
X627200Y28900D01*
X673756Y28900D02*
X875874Y231018D01*
D30*
X416900Y696900D02*
X227500Y696900D01*
X416900Y696900D02*
X435000Y715000D01*
X555600Y715000D01*
X575000Y695600D01*
X691900Y812500D02*
X810600Y812500D01*
X691900Y812500D02*
X575000Y695600D01*
D29*
X458712Y575052D02*
X453726Y575052D01*
X453600Y574400D01*
X458712Y575052D02*
X460100Y574400D01*
X453726Y555080D02*
X460430Y548376D01*
X453726Y555080D02*
X453726Y573390D01*
X453600Y574400D01*
D31*
X460430Y548376D03*
D29*
X639856Y581756D02*
X643300Y585200D01*
X639856Y581756D02*
X639856Y518558D01*
X658152Y500262D01*
X659800Y498800D01*
X691392Y397218D02*
X691392Y387246D01*
X691392Y397218D02*
X674786Y413824D01*
X674786Y483628D01*
X659814Y498600D01*
X691392Y387246D02*
X692700Y387200D01*
X659814Y498600D02*
X659800Y498800D01*
D32*
X511000Y262000D03*
X578000Y355000D03*
D29*
X584800Y361800D01*
X692700Y361800D01*
X511000Y262000D02*
X508000Y259000D01*
X243500Y259000D02*
X155000Y170500D01*
X117000Y170500D01*
X243500Y259000D02*
X508000Y259000D01*
X728500Y574100D02*
X729618Y573390D01*
X729618Y540290D01*
X711238Y521910D01*
X711238Y398762D02*
X725000Y385000D01*
D31*
X725000Y385000D03*
X725000Y370000D03*
D29*
X763900Y370000D01*
X772100Y361800D01*
X711238Y398762D02*
X711238Y521910D01*
X621600Y319600D02*
X626200Y315000D01*
X665000Y315000D01*
D31*
X665000Y315000D03*
D29*
X754548Y495276D02*
X754548Y591742D01*
X741252Y605038D02*
X721238Y585024D01*
X741252Y605038D02*
X754548Y591742D01*
X721238Y585024D02*
X719646Y585024D01*
X709674Y575052D01*
X754548Y495276D02*
X755800Y495200D01*
X709500Y574100D02*
X709674Y575052D01*
X755800Y495200D02*
X743210Y482610D01*
X743210Y387246D01*
D31*
X741252Y605038D03*
X743210Y387246D03*
D29*
X870888Y401232D02*
X870888Y483642D01*
X870888Y401232D02*
X828478Y358822D01*
X828478Y250102D01*
X771168Y192792D01*
X870888Y483642D02*
X871100Y484100D01*
X771168Y192792D02*
X770500Y191800D01*
X770100Y192200D02*
X716100Y192200D01*
X691100Y217200D01*
X770100Y192200D02*
X770500Y191800D01*
X447078Y588348D02*
X447078Y591672D01*
X447078Y588348D02*
X452064Y583362D01*
X462036Y583362D01*
X491614Y553784D01*
X491614Y311456D01*
X495276Y307794D01*
X508544Y307794D01*
X517854Y317104D01*
X585320Y317104D01*
X617236Y349020D01*
X777816Y349020D01*
X850916Y422120D01*
X850916Y491952D01*
X864240Y505276D01*
X873743Y505276D01*
X447078Y591672D02*
X447100Y592400D01*
X873743Y505276D02*
X890100Y484100D01*
X801084Y568432D02*
X801084Y573390D01*
X801084Y568432D02*
X864240Y505276D01*
X801084Y573390D02*
X800900Y574100D01*
X447100Y510212D02*
X439782Y517530D01*
X393530Y517530D01*
X447100Y510212D02*
X447100Y574400D01*
X459000Y498312D02*
X459000Y484500D01*
X459000Y498312D02*
X447100Y510212D01*
X393530Y517530D02*
X148100Y272100D01*
X117000Y272100D01*
X372000Y195900D02*
X466500Y195900D01*
X470900Y200300D01*
X412100Y130400D02*
X372000Y170500D01*
X412100Y130400D02*
X470900Y130400D01*
D30*
X87800Y536600D02*
X40100Y488900D01*
X87800Y536600D02*
X87800Y823900D01*
D29*
X661476Y585024D02*
X661476Y566700D01*
X656504Y561728D01*
X661476Y585024D02*
X662300Y585200D01*
D31*
X656504Y561728D03*
X395000Y540000D03*
D29*
X425826Y540000D01*
D31*
X425826Y540000D03*
X126000Y616000D03*
D29*
X170000Y572000D01*
X342200Y572000D01*
X342200Y570100D01*
X377100Y605000D01*
X450000Y605000D01*
X453600Y601400D01*
X453600Y592400D01*
X367800Y560000D02*
X367200Y560600D01*
D31*
X400000Y560000D03*
X429000Y227000D03*
D29*
X463200Y227000D01*
X470900Y219300D01*
X400000Y560000D02*
X367800Y560000D01*
D31*
X473000Y624000D03*
D29*
X473000Y623000D01*
X465000Y615000D01*
X465000Y597300D01*
X460100Y592400D01*
X500262Y554784D02*
X500262Y317442D01*
X462646Y592400D02*
X460100Y592400D01*
X462646Y592400D02*
X500262Y554784D01*
X500262Y317442D02*
X500700Y316600D01*
X471500Y150000D02*
X470900Y149400D01*
X471500Y150000D02*
X500000Y150000D01*
X525700Y175700D01*
X525700Y307100D01*
D30*
X613100Y848000D02*
X635100Y870000D01*
X935900Y844100D02*
X935900Y820900D01*
X910000Y870000D02*
X635100Y870000D01*
X910000Y870000D02*
X935900Y844100D01*
X935900Y820900D02*
X935900Y875900D01*
X988100Y928100D02*
X988100Y946000D01*
X988100Y928100D02*
X935900Y875900D01*
X305000Y888700D02*
X265600Y849300D01*
X305000Y888700D02*
X305000Y890000D01*
X920000Y890000D01*
X962700Y932700D01*
X962700Y946000D01*
D29*
X603306Y410514D02*
X536345Y410514D01*
X603306Y410514D02*
X604800Y409300D01*
X536345Y410514D02*
X535800Y412300D01*
X809394Y601644D02*
X809394Y684744D01*
X809394Y601644D02*
X791112Y583362D01*
X791112Y405528D01*
X809394Y684744D02*
X810600Y685500D01*
X658152Y408852D02*
X604968Y408852D01*
X658152Y408852D02*
X690660Y376344D01*
X604968Y408852D02*
X604800Y409300D01*
X690660Y376344D02*
X761244Y376344D01*
X772100Y387200D01*
X772784Y387200D02*
X791112Y405528D01*
X772784Y387200D02*
X772100Y387200D01*
X692700Y336400D02*
X693054Y335724D01*
X585024Y510234D02*
X585024Y585024D01*
X585024Y510234D02*
X584800Y510200D01*
X585024Y585024D02*
X585300Y585200D01*
X736266Y736266D02*
X809394Y736266D01*
X736266Y736266D02*
X586686Y586686D01*
X809394Y736266D02*
X810600Y736300D01*
X586686Y586686D02*
X585300Y585200D01*
X584800Y510200D02*
X584800Y497200D01*
X563024Y475424D01*
X563024Y456754D01*
D31*
X563024Y456754D03*
D29*
X705000Y323778D02*
X705000Y305000D01*
D31*
X705000Y305000D03*
D29*
X705000Y323778D02*
X693054Y335724D01*
D33*
X995000Y165000D03*
D30*
X878700Y165000D01*
X876000Y167700D01*
X356700Y744000D02*
X435300Y822600D01*
X356700Y744000D02*
X199000Y744000D01*
X170000Y715000D01*
D33*
X170000Y715000D03*
X170000Y514000D03*
D30*
X146000Y490000D01*
X96408Y490000D02*
X69908Y463500D01*
X40100Y463500D01*
X96408Y490000D02*
X146000Y490000D01*
M02*
