G04 EAGLE Gerber RS-274X export*
G75*
%MOMM*%
%FSLAX34Y34*%
%LPD*%
%IN*%
%IPPOS*%
%AMOC8*
5,1,8,0,0,1.08239X$1,22.5*%
G01*
%ADD10C,0.254000*%


D10*
X0Y0D02*
X1170000Y0D01*
X1170000Y1000000D01*
X0Y1000000D01*
X0Y0D01*
X982600Y971709D02*
X982669Y972323D01*
X982807Y972925D01*
X983011Y973508D01*
X983279Y974065D01*
X983607Y974588D01*
X983993Y975071D01*
X984429Y975508D01*
X984912Y975893D01*
X985435Y976221D01*
X985992Y976489D01*
X986575Y976693D01*
X987177Y976831D01*
X987791Y976900D01*
X988409Y976900D01*
X989023Y976831D01*
X989625Y976693D01*
X990208Y976489D01*
X990765Y976221D01*
X991288Y975893D01*
X991771Y975508D01*
X992208Y975071D01*
X992593Y974588D01*
X992921Y974065D01*
X993189Y973508D01*
X993393Y972925D01*
X993531Y972323D01*
X993600Y971709D01*
X993600Y971091D01*
X993531Y970477D01*
X993393Y969875D01*
X993189Y969292D01*
X992921Y968735D01*
X992593Y968212D01*
X992208Y967729D01*
X991771Y967293D01*
X991288Y966907D01*
X990765Y966579D01*
X990208Y966311D01*
X989625Y966107D01*
X989023Y965969D01*
X988409Y965900D01*
X987791Y965900D01*
X987177Y965969D01*
X986575Y966107D01*
X985992Y966311D01*
X985435Y966579D01*
X984912Y966907D01*
X984429Y967293D01*
X983993Y967729D01*
X983607Y968212D01*
X983279Y968735D01*
X983011Y969292D01*
X982807Y969875D01*
X982669Y970477D01*
X982600Y971091D01*
X982600Y971709D01*
X957200Y971709D02*
X957269Y972323D01*
X957407Y972925D01*
X957611Y973508D01*
X957879Y974065D01*
X958207Y974588D01*
X958593Y975071D01*
X959029Y975508D01*
X959512Y975893D01*
X960035Y976221D01*
X960592Y976489D01*
X961175Y976693D01*
X961777Y976831D01*
X962391Y976900D01*
X963009Y976900D01*
X963623Y976831D01*
X964225Y976693D01*
X964808Y976489D01*
X965365Y976221D01*
X965888Y975893D01*
X966371Y975508D01*
X966808Y975071D01*
X967193Y974588D01*
X967521Y974065D01*
X967789Y973508D01*
X967993Y972925D01*
X968131Y972323D01*
X968200Y971709D01*
X968200Y971091D01*
X968131Y970477D01*
X967993Y969875D01*
X967789Y969292D01*
X967521Y968735D01*
X967193Y968212D01*
X966808Y967729D01*
X966371Y967293D01*
X965888Y966907D01*
X965365Y966579D01*
X964808Y966311D01*
X964225Y966107D01*
X963623Y965969D01*
X963009Y965900D01*
X962391Y965900D01*
X961777Y965969D01*
X961175Y966107D01*
X960592Y966311D01*
X960035Y966579D01*
X959512Y966907D01*
X959029Y967293D01*
X958593Y967729D01*
X958207Y968212D01*
X957879Y968735D01*
X957611Y969292D01*
X957407Y969875D01*
X957269Y970477D01*
X957200Y971091D01*
X957200Y971709D01*
X856500Y971709D02*
X856569Y972323D01*
X856707Y972925D01*
X856911Y973508D01*
X857179Y974065D01*
X857507Y974588D01*
X857893Y975071D01*
X858329Y975508D01*
X858812Y975893D01*
X859335Y976221D01*
X859892Y976489D01*
X860475Y976693D01*
X861077Y976831D01*
X861691Y976900D01*
X862309Y976900D01*
X862923Y976831D01*
X863525Y976693D01*
X864108Y976489D01*
X864665Y976221D01*
X865188Y975893D01*
X865671Y975508D01*
X866108Y975071D01*
X866493Y974588D01*
X866821Y974065D01*
X867089Y973508D01*
X867293Y972925D01*
X867431Y972323D01*
X867500Y971709D01*
X867500Y971091D01*
X867431Y970477D01*
X867293Y969875D01*
X867089Y969292D01*
X866821Y968735D01*
X866493Y968212D01*
X866108Y967729D01*
X865671Y967293D01*
X865188Y966907D01*
X864665Y966579D01*
X864108Y966311D01*
X863525Y966107D01*
X862923Y965969D01*
X862309Y965900D01*
X861691Y965900D01*
X861077Y965969D01*
X860475Y966107D01*
X859892Y966311D01*
X859335Y966579D01*
X858812Y966907D01*
X858329Y967293D01*
X857893Y967729D01*
X857507Y968212D01*
X857179Y968735D01*
X856911Y969292D01*
X856707Y969875D01*
X856569Y970477D01*
X856500Y971091D01*
X856500Y971709D01*
X831100Y971709D02*
X831169Y972323D01*
X831307Y972925D01*
X831511Y973508D01*
X831779Y974065D01*
X832107Y974588D01*
X832493Y975071D01*
X832929Y975508D01*
X833412Y975893D01*
X833935Y976221D01*
X834492Y976489D01*
X835075Y976693D01*
X835677Y976831D01*
X836291Y976900D01*
X836909Y976900D01*
X837523Y976831D01*
X838125Y976693D01*
X838708Y976489D01*
X839265Y976221D01*
X839788Y975893D01*
X840271Y975508D01*
X840708Y975071D01*
X841093Y974588D01*
X841421Y974065D01*
X841689Y973508D01*
X841893Y972925D01*
X842031Y972323D01*
X842100Y971709D01*
X842100Y971091D01*
X842031Y970477D01*
X841893Y969875D01*
X841689Y969292D01*
X841421Y968735D01*
X841093Y968212D01*
X840708Y967729D01*
X840271Y967293D01*
X839788Y966907D01*
X839265Y966579D01*
X838708Y966311D01*
X838125Y966107D01*
X837523Y965969D01*
X836909Y965900D01*
X836291Y965900D01*
X835677Y965969D01*
X835075Y966107D01*
X834492Y966311D01*
X833935Y966579D01*
X833412Y966907D01*
X832929Y967293D01*
X832493Y967729D01*
X832107Y968212D01*
X831779Y968735D01*
X831511Y969292D01*
X831307Y969875D01*
X831169Y970477D01*
X831100Y971091D01*
X831100Y971709D01*
M02*
